<svg width="64" height="64" viewBox="0 0 64 64" fill="none" xmlns="http://www.w3.org/2000/svg">
<circle cx="32" cy="32" r="32" fill="white"/>
<path fill-rule="evenodd" clip-rule="evenodd" d="M55.2373 54.0007C60.6687 48.266 64 40.522 64 32C64 14.3269 49.6731 0 32 0C14.3269 0 0 14.3269 0 32C0 40.4561 3.27997 48.1462 8.63707 53.8673C8.84302 53.528 9.03336 53.2641 9.20037 53.1015C11.4343 50.9262 14.8739 50.4327 17.9092 49.9971L17.9153 49.9962C18.9268 49.8511 19.9133 49.7094 20.7712 49.5149C18.5711 49.1387 15.4782 48.6366 13.2606 48.2851C12.9832 48.2412 12.7402 48.0727 12.6023 47.8276C12.464 47.5829 12.4448 47.2876 12.5517 47.0271C15.302 40.2858 15.6258 32.6648 15.6003 26.7781C15.5829 22.7057 17.8595 17.6701 21.2662 14.2486C24.3277 11.1744 28.0397 9.54921 32.0029 9.54921C41.5806 9.54921 49.0095 18.4699 49.0099 26.1444C49.0099 27.2746 49.0005 28.2576 48.992 29.1398L48.992 29.1405C48.9371 35.0751 48.9257 36.3097 52.1547 47.2438C52.2313 47.5017 52.1909 47.7809 52.0445 48.0064C51.8981 48.232 51.6598 48.3826 51.3934 48.4188C49.0456 48.7341 45.8054 49.1754 43.4793 49.5022C44.2852 49.6991 45.1942 49.8573 46.125 50.0193L46.1271 50.0197L46.1316 50.0205C49.0046 50.5204 52.2601 51.0868 54.5182 53.0705C54.7303 53.2569 54.9742 53.5805 55.2373 54.0007ZM22.8574 25.5618C21.9101 27.9339 20.7083 29.1271 20.2092 29.5475L20.2094 29.5485C20.3096 38.8808 25.8895 47.3192 32.0111 47.3192C38.6693 47.3192 44.0862 39.069 44.0862 28.9276L44.0815 28.6237C42.4345 26.1823 40.262 26.2645 37.4725 26.3701C35.456 26.4464 33.1172 26.5348 30.4213 25.6912C27.0185 24.6261 25.1623 22.294 24.1562 20.6433C24.0171 21.868 23.6668 23.5345 22.8574 25.5618Z" fill="#2F73FE" fill-opacity="0.15"/>
</svg>
