<svg width="64" height="64" viewBox="0 0 64 64" fill="none" xmlns="http://www.w3.org/2000/svg">
<circle cx="32" cy="32" r="32" fill="white"/>
<path fill-rule="evenodd" clip-rule="evenodd" d="M54.282 54.9676C60.2755 49.152 64 41.0109 64 32C64 14.3269 49.6731 0 32 0C14.3269 0 0 14.3269 0 32C0 41.0193 3.73141 49.1671 9.7347 54.9839C12.4731 53.6777 16.2794 51.9233 21.568 49.5673C21.568 49.5673 21.568 45.9567 22.2907 45.7749C22.2907 45.7749 23.7356 46.4963 23.9167 43.4263C23.9167 43.4263 24.0972 39.4958 22.6523 35.8836C22.6523 35.8836 21.95 36.7211 21.1664 35.8836C20.3821 35.0478 17.5943 28.075 21.2069 26.4499C21.2069 26.4499 18.8469 16.521 25.4449 12.0949C25.5707 11.9029 27.7873 8.73725 37.679 7.61905C37.679 7.61905 35.2151 9.69805 37.6631 11.5347C45.4215 15.6111 42.8448 26.4504 42.8448 26.4504C46.457 28.0763 43.6697 35.0491 42.8865 35.884C42.1013 36.7215 41.4007 35.884 41.4007 35.884C39.9554 39.4962 40.1363 43.4267 40.1363 43.4267C40.3169 46.4967 41.7614 45.7753 41.7614 45.7753C42.4829 45.9567 42.4829 49.5677 42.4829 49.5677C47.7495 51.9138 51.5461 53.6633 54.282 54.9676Z" fill="#2F73FE" fill-opacity="0.15"/>
</svg>
