<svg width="16" height="14" viewBox="0 0 16 14" fill="none" xmlns="http://www.w3.org/2000/svg">
    <path d="M5.66667 12.25V7.75C5.66667 7.33579 5.31844 7 4.88889 7H1.77778C1.34822 7 1 7.33579 1 7.75V12.25C1 12.6642 1.34822 13 1.77778 13M5.66667 12.25C5.66667 12.6642 5.31844 13 4.88889 13H1.77778M5.66667 12.25C5.66667 12.6642 6.01489 13 6.44444 13H9.55556C9.98511 13 10.3333 12.6642 10.3333 12.25M5.66667 12.25V4.75C5.66667 4.33579 6.01489 4 6.44444 4H9.55556C9.98511 4 10.3333 4.33579 10.3333 4.75V12.25M1.77778 13H12.6667M10.3333 12.25C10.3333 12.6642 10.6816 13 11.1111 13H14.2222C14.6518 13 15 12.6642 15 12.25V1.75C15 1.33579 14.6518 1 14.2222 1H11.1111C10.6816 1 10.3333 1.33579 10.3333 1.75V12.25Z" stroke="#718193" stroke-width="1.5" stroke-linecap="round" stroke-linejoin="round"/>
</svg>
