<svg width="16" height="13" viewBox="0 0 16 13" fill="none" xmlns="http://www.w3.org/2000/svg">
    <path d="M5.66667 9.96154C5.66667 10.8112 4.97022 11.5 4.11111 11.5C3.252 11.5 2.55556 10.8112 2.55556 9.96154M5.66667 9.96154C5.66667 9.11187 4.97022 8.42308 4.11111 8.42308C3.252 8.42308 2.55556 9.11187 2.55556 9.96154M5.66667 9.96154H10.3333M2.55556 9.96154H1V5.34615M13.4444 9.96154C13.4444 10.8112 12.748 11.5 11.8889 11.5C11.0298 11.5 10.3333 10.8112 10.3333 9.96154M13.4444 9.96154C13.4444 9.11187 12.748 8.42308 11.8889 8.42308C11.0298 8.42308 10.3333 9.11187 10.3333 9.96154M13.4444 9.96154H15V6.88462C15 6.47659 14.8361 6.08528 14.5444 5.79676C14.2527 5.50824 13.857 5.34615 13.4444 5.34615H12.6667M1 5.34615L2.55556 1.5H9.55556L12.6667 5.34615M1 5.34615H12.6667M8 5.34615V1.5" stroke="#718193" stroke-width="1.5" stroke-linecap="round" stroke-linejoin="round"/>
</svg>
