<svg width="16" height="16" viewBox="0 0 16 16" fill="none" xmlns="http://www.w3.org/2000/svg">
    <path d="M4.88889 4.29412V2.64706C4.88889 2.21023 5.05278 1.7913 5.3445 1.48241C5.63622 1.17353 6.03189 1 6.44444 1H9.55556C9.96811 1 10.3638 1.17353 10.6555 1.48241C10.9472 1.7913 11.1111 2.21023 11.1111 2.64706V4.29412M8 8.41176V8.42M1 9.23529C3.17123 10.3937 5.56869 10.9972 8 10.9972C10.4313 10.9972 12.8288 10.3937 15 9.23529M2.55556 4.29412H13.4444C14.3036 4.29412 15 5.03153 15 5.94118V13.3529C15 14.2626 14.3036 15 13.4444 15H2.55556C1.69645 15 1 14.2626 1 13.3529V5.94118C1 5.03153 1.69645 4.29412 2.55556 4.29412Z" stroke="currentColor" stroke-width="1.5" stroke-linecap="round" stroke-linejoin="round"/>
</svg>
