<svg width="22" height="12" viewBox="0 0 22 12" fill="none" xmlns="http://www.w3.org/2000/svg">
    <path d="M7.17502 11.3C6.99169 11.4833 6.75836 11.575 6.47502 11.575C6.19169 11.575 5.95836 11.4833 5.77502 11.3L1.17502 6.69995C1.07502 6.59995 1.00436 6.49162 0.963024 6.37495C0.921691 6.25828 0.900691 6.13328 0.900024 5.99995C0.900024 5.86662 0.925024 5.73729 0.975024 5.61195C1.02502 5.48662 1.09169 5.38262 1.17502 5.29995L5.77502 0.699953C5.95836 0.516619 6.19169 0.424951 6.47502 0.424951C6.75836 0.424951 6.99169 0.516619 7.17502 0.699953C7.35836 0.883286 7.45002 1.11662 7.45002 1.39995C7.45002 1.68329 7.35836 1.91662 7.17502 2.09995L3.27502 5.99995L7.17502 9.89995C7.35836 10.0833 7.45002 10.3166 7.45002 10.6C7.45002 10.8833 7.35836 11.1166 7.17502 11.3Z" fill="#718193"/>
    <path d="M15.725 0.699926C15.9083 0.516593 16.1417 0.424927 16.425 0.424927C16.7083 0.424927 16.9417 0.516593 17.125 0.699926L21.725 5.29993C21.825 5.39993 21.8957 5.50826 21.937 5.62493C21.9783 5.74159 21.9993 5.86659 22 5.99993C22 6.13326 21.975 6.26259 21.925 6.38793C21.875 6.51326 21.8083 6.61726 21.725 6.69993L17.125 11.2999C16.9417 11.4833 16.7083 11.5749 16.425 11.5749C16.1417 11.5749 15.9083 11.4833 15.725 11.2999C15.5417 11.1166 15.45 10.8833 15.45 10.5999C15.45 10.3166 15.5417 10.0833 15.725 9.89993L19.625 5.99993L15.725 2.09993C15.5417 1.91659 15.45 1.68326 15.45 1.39993C15.45 1.11659 15.5417 0.88326 15.725 0.699926Z" fill="#718193"/>
</svg>
