<svg width="13" height="7" viewBox="0 0 13 7" fill="none" xmlns="http://www.w3.org/2000/svg">
    <path d="M12.6794 0.293894C12.8931 0.489823 13 0.739186 13 1.04199C13 1.34478 12.8931 1.59415 12.6794 1.79008L7.31614 6.70611C7.19955 6.81298 7.07324 6.8885 6.93722 6.93267C6.8012 6.97685 6.65546 6.99929 6.5 7C6.34454 7 6.19375 6.97328 6.04762 6.91985C5.9015 6.86641 5.78024 6.79517 5.68386 6.70611L0.32063 1.79008C0.106878 1.59415 0 1.34478 0 1.04199C0 0.739186 0.106878 0.489823 0.32063 0.293894C0.534382 0.0979652 0.806428 4.76837e-07 1.13677 4.76837e-07C1.46712 4.76837e-07 1.73916 0.0979652 1.95292 0.293894L6.5 4.46183L11.0471 0.293894C11.2608 0.0979652 11.5329 4.76837e-07 11.8632 4.76837e-07C12.1936 4.76837e-07 12.4656 0.0979652 12.6794 0.293894Z" fill="currentColor"/>
</svg>
