<svg width="65" height="70" viewBox="0 0 65 70" fill="none" xmlns="http://www.w3.org/2000/svg">
    <path fill-rule="evenodd" clip-rule="evenodd" d="M61.004 31.8007L58.7127 30.4777L59.6848 28.786L61.9796 30.1108L63.0957 28.1777C63.2275 27.957 63.4408 27.7971 63.6896 27.7325C63.9384 27.668 64.2026 27.704 64.4251 27.8328C64.6475 27.9616 64.8102 28.1729 64.878 28.4208C64.9459 28.6687 64.9133 28.9334 64.7874 29.1575L55.8259 44.6792C55.6942 44.8999 55.4808 45.0599 55.232 45.1244C54.9832 45.189 54.719 45.153 54.4966 45.0241C54.2741 44.8953 54.1114 44.6841 54.0436 44.4361C53.9758 44.1882 54.0083 43.9235 54.1342 43.6994L61.004 31.8007Z" fill="#4EB1FC"/>
    <path d="M0.0873108 5.43359H49.3298V69.5633H0.0873108V5.43359Z" fill="#E3F1FF"/>
    <path d="M46.9134 5.43359H49.3299V69.5633H46.9134V5.43359Z" fill="#CFE8FF"/>
    <path fill-rule="evenodd" clip-rule="evenodd" d="M6.40471 57.3479C6.14486 57.3479 5.89565 57.2447 5.7119 57.0609C5.52816 56.8772 5.42493 56.628 5.42493 56.3681C5.42493 56.1083 5.52816 55.8591 5.7119 55.6753C5.89565 55.4916 6.14486 55.3884 6.40471 55.3884H43.0128C43.2726 55.3884 43.5218 55.4916 43.7056 55.6753C43.8893 55.8591 43.9926 56.1083 43.9926 56.3681C43.9926 56.628 43.8893 56.8772 43.7056 57.0609C43.5218 57.2447 43.2726 57.3479 43.0128 57.3479H6.40471ZM6.40471 39.1168C6.14486 39.1168 5.89565 39.0136 5.7119 38.8298C5.52816 38.6461 5.42493 38.3969 5.42493 38.137C5.42493 37.8772 5.52816 37.628 5.7119 37.4442C5.89565 37.2605 6.14486 37.1573 6.40471 37.1573H43.0128C43.2726 37.1573 43.5218 37.2605 43.7056 37.4442C43.8893 37.628 43.9926 37.8772 43.9926 38.137C43.9926 38.3969 43.8893 38.6461 43.7056 38.8298C43.5218 39.0136 43.2726 39.1168 43.0128 39.1168H6.40471ZM6.40471 33.0396C6.14486 33.0396 5.89565 32.9364 5.7119 32.7527C5.52816 32.5689 5.42493 32.3197 5.42493 32.0599C5.42493 31.8 5.52816 31.5508 5.7119 31.367C5.89565 31.1833 6.14486 31.0801 6.40471 31.0801H43.0128C43.2726 31.0801 43.5218 31.1833 43.7056 31.367C43.8893 31.5508 43.9926 31.8 43.9926 32.0599C43.9926 32.3197 43.8893 32.5689 43.7056 32.7527C43.5218 32.9364 43.2726 33.0396 43.0128 33.0396H6.40471ZM6.40471 51.2707C6.14486 51.2707 5.89565 51.1675 5.7119 50.9838C5.52816 50.8 5.42493 50.5508 5.42493 50.291C5.42493 50.0311 5.52816 49.7819 5.7119 49.5981C5.89565 49.4144 6.14486 49.3112 6.40471 49.3112H43.0128C43.2726 49.3112 43.5218 49.4144 43.7056 49.5981C43.8893 49.7819 43.9926 50.0311 43.9926 50.291C43.9926 50.5508 43.8893 50.8 43.7056 50.9838C43.5218 51.1675 43.2726 51.2707 43.0128 51.2707H6.40471ZM6.40471 45.1937C6.14486 45.1937 5.89565 45.0905 5.7119 44.9067C5.52816 44.723 5.42493 44.4738 5.42493 44.2139C5.42493 43.9541 5.52816 43.7049 5.7119 43.5211C5.89565 43.3374 6.14486 43.2341 6.40471 43.2341H43.0128C43.2726 43.2341 43.5218 43.3374 43.7056 43.5211C43.8893 43.7049 43.9926 43.9541 43.9926 44.2139C43.9926 44.4738 43.8893 44.723 43.7056 44.9067C43.5218 45.0905 43.2726 45.1937 43.0128 45.1937H6.40471ZM6.40471 63.425C6.14486 63.425 5.89565 63.3217 5.7119 63.138C5.52816 62.9542 5.42493 62.705 5.42493 62.4452C5.42493 62.1853 5.52816 61.9361 5.7119 61.7524C5.89565 61.5686 6.14486 61.4654 6.40471 61.4654H16.8446C17.1044 61.4654 17.3536 61.5686 17.5374 61.7524C17.7211 61.9361 17.8244 62.1853 17.8244 62.4452C17.8244 62.705 17.7211 62.9542 17.5374 63.138C17.3536 63.3217 17.1044 63.425 16.8446 63.425H6.40471Z" fill="#7986BF"/>
    <path fill-rule="evenodd" clip-rule="evenodd" d="M55.8902 25.5598L60.2456 28.0743L62.866 23.5357C63.2552 22.8615 63.022 21.9914 62.3479 21.6022L60.4441 20.503C59.7698 20.1137 58.8998 20.3469 58.5105 21.021L55.8902 25.5598Z" fill="#FDC72E"/>
    <path fill-rule="evenodd" clip-rule="evenodd" d="M58.0679 26.8171L60.2457 28.0744L62.8661 23.5358C63.2553 22.8616 63.0221 21.9915 62.348 21.6023L61.3961 21.0527L58.0681 26.8172L58.0679 26.8171Z" fill="#F9AC00"/>
    <path fill-rule="evenodd" clip-rule="evenodd" d="M51.191 44.0301L51.7564 43.4768L46.7964 40.6133L46.6 41.3795L34.5857 62.1888L33.3877 69.5652L39.1768 64.8394L51.191 44.0301Z" fill="#0062D9"/>
    <path fill-rule="evenodd" clip-rule="evenodd" d="M51.191 44.03L51.7564 43.4767L49.2764 42.0449L33.3877 69.5651L39.1768 64.8393L51.191 44.03Z" fill="#004CBD"/>
    <path fill-rule="evenodd" clip-rule="evenodd" d="M51.1911 44.03L53.2143 42.0501L61.4437 27.7965C61.6822 27.3836 61.5397 26.8521 61.1268 26.6138L56.7152 24.0667C56.3023 23.8284 55.7709 23.9707 55.5325 24.3836L47.3032 38.6372L46.6001 41.3794L51.1911 44.03Z" fill="#4EB1FC"/>
    <path fill-rule="evenodd" clip-rule="evenodd" d="M51.1912 44.0295L53.2144 42.0496L61.4437 27.796C61.6822 27.3831 61.5398 26.8516 61.1268 26.6133L58.9211 25.3398L48.8957 42.7044L51.1912 44.0298V44.0295Z" fill="#2A92FA"/>
    <path fill-rule="evenodd" clip-rule="evenodd" d="M34.5857 62.1875L33.3877 69.5639L39.1768 64.8381L34.5857 62.1875Z" fill="#FDB0A0"/>
    <path fill-rule="evenodd" clip-rule="evenodd" d="M33.3877 69.5647L39.1768 64.8389L36.8812 63.5137L33.3877 69.5647Z" fill="#F29988"/>
    <path fill-rule="evenodd" clip-rule="evenodd" d="M53.2143 42.0496L47.3032 38.6367L46.6001 41.379L51.1911 44.0296L53.2143 42.0496Z" fill="#FDC72E"/>
    <path fill-rule="evenodd" clip-rule="evenodd" d="M53.2144 42.0482L50.2588 40.3418L48.8957 42.7028L51.1912 44.0282L53.2144 42.0482Z" fill="#F9AC00"/>
    <path fill-rule="evenodd" clip-rule="evenodd" d="M33.7088 5.43472C33.7088 2.44372 36.1525 0 39.1435 0C42.1345 0 44.5784 2.44372 44.5784 5.43486V20.3442C44.5784 22.5129 42.8074 24.2838 40.6387 24.2838C38.47 24.2838 36.6991 22.5128 36.6991 20.3442V8.86941C36.6991 8.21954 36.9643 7.62929 37.3915 7.2021C37.6102 6.98258 37.87 6.80839 38.1561 6.68954C38.4422 6.57068 38.749 6.5095 39.0588 6.5095C39.3687 6.5095 39.6754 6.57068 39.9616 6.68954C40.2477 6.80839 40.5075 6.98258 40.7262 7.2021C41.1533 7.62929 41.4187 8.21954 41.4187 8.86941V17.5145C41.4187 17.7743 41.3155 18.0235 41.1317 18.2073C40.948 18.391 40.6988 18.4942 40.4389 18.4942C40.1791 18.4942 39.9299 18.391 39.7461 18.2073C39.5624 18.0235 39.4592 17.7743 39.4592 17.5145V8.86941C39.4592 8.65134 39.2769 8.4691 39.0588 8.4691C38.8408 8.4691 38.6587 8.6512 38.6587 8.86941V20.3441C38.6587 21.4311 39.5517 22.3242 40.6387 22.3242C41.7257 22.3242 42.6188 21.4312 42.6188 20.3441V5.43472C42.6188 3.52526 41.0528 1.95943 39.1434 1.95943C37.2339 1.95943 35.6682 3.52526 35.6682 5.43472H33.7087H33.7088Z" fill="#4EB1FC"/>
    <path fill-rule="evenodd" clip-rule="evenodd" d="M14.7639 18.3516C19.1265 18.3516 22.708 21.6921 23.0921 25.9545H6.43578C6.81985 21.6921 10.4014 18.3516 14.7639 18.3516Z" fill="#2A92FA"/>
    <path fill-rule="evenodd" clip-rule="evenodd" d="M20.7724 25.9536H6.43578C6.79662 21.9479 9.98147 18.7568 13.9844 18.3867C17.5586 19.0717 20.3385 22.1355 20.7724 25.9536Z" fill="#4EB1FC"/>
    <path fill-rule="evenodd" clip-rule="evenodd" d="M14.7641 18.325C16.9577 18.325 18.7469 16.5359 18.7469 14.3422C18.7469 12.1485 16.9578 10.3594 14.7641 10.3594C12.5703 10.3594 10.7812 12.1485 10.7812 14.3422C10.7812 16.5359 12.5705 18.325 14.7641 18.325Z" fill="#FDB0A0"/>
    <path fill-rule="evenodd" clip-rule="evenodd" d="M13.9577 18.2437C12.1445 17.871 10.7812 16.2659 10.7812 14.3426C10.7812 12.4193 12.1447 10.8143 13.9577 10.4414C15.7709 10.8141 17.1343 12.4192 17.1343 14.3426C17.1343 16.2661 15.7709 17.871 13.9577 18.2437Z" fill="#FFCEC0"/>
</svg>
