<svg xmlns="http://www.w3.org/2000/svg" width="97" height="96" viewBox="0 0 97 96" fill="none">
    <g clip-path="url(#clip0_4132_37391)">
        <path
                d="M72.407 74.2381C59.138 83.6296 41.312 83.6296 28.0415 74.2381C25.982 72.7801 24.8015 70.3786 24.8015 67.8556V32.9566C24.8015 32.1166 25.766 31.6906 26.426 32.2126C40.349 43.2001 60.0365 43.2136 73.973 32.2516C74.654 31.7161 75.6455 32.1796 75.6455 33.0466V67.8316C75.6455 70.3546 74.4665 72.7816 72.407 74.2381Z"
                fill="#CADCF0"/>
        <path
                d="M75.653 33.0359V67.8404C75.653 70.3814 74.4485 72.7949 72.3755 74.2649C71.501 74.8844 70.625 75.4484 69.7115 75.9734V65.1779C69.7115 60.9329 65.276 58.1459 61.4525 59.9879L52.202 64.4429C51.59 64.7204 50.8985 64.8779 50.228 64.8779C49.5575 64.8779 48.8645 64.7204 48.2525 64.4429L24.8015 53.1524V32.9579C24.8015 32.1224 25.76 31.6859 26.414 32.2034C39.365 42.4334 57.2735 43.1444 70.9355 34.3979C71.1125 34.2794 71.2715 34.1819 71.4485 34.0634C72.3237 33.4856 73.1745 32.8716 73.9985 32.2229C74.6705 31.6964 75.653 32.1824 75.653 33.0359Z"
                fill="#A5BBD7"/>
        <path
                d="M49.3684 61.1355L5.0704 39.8085C3.5794 39.09 3.5794 36.9675 5.0704 36.2505L49.3684 14.9235C49.9084 14.6625 50.5384 14.6625 51.0799 14.9235L95.3779 36.2505C96.8689 36.9675 96.8689 39.09 95.3779 39.8085L51.0799 61.1355C50.5399 61.395 49.9099 61.395 49.3684 61.1355Z"
                fill="#CADCF0"/>
        <path
                d="M3.95303 62.4854C3.64776 62.4854 3.35497 62.3643 3.13897 62.1486C2.92297 61.9328 2.80142 61.6402 2.80103 61.3349V38.0294C2.80103 37.3919 3.31703 36.8774 3.95303 36.8774H48.935C49.2406 36.8774 49.5336 36.9988 49.7496 37.2149C49.9656 37.4309 50.087 37.7239 50.087 38.0294C50.087 38.335 49.9656 38.628 49.7496 38.844C49.5336 39.0601 49.2406 39.1814 48.935 39.1814H5.10503V61.3349C5.10463 61.6402 4.98308 61.9328 4.76708 62.1486C4.55108 62.3643 4.25829 62.4854 3.95303 62.4854Z"
                fill="#8391A4"/>
        <path
                d="M5.41397 74.55H2.49197C1.25447 74.55 0.321468 73.425 0.550968 72.21L2.06297 64.209H5.84297L7.35347 72.21C7.58297 73.425 6.65147 74.55 5.41397 74.55Z"
                fill="#2988F5"/>
        <path opacity="0.09"
              d="M7.35041 72.2189C7.40483 72.5033 7.39542 72.7963 7.32287 73.0766C7.25032 73.3569 7.11643 73.6176 6.93087 73.8399C6.74531 74.0622 6.51271 74.2406 6.24986 74.362C5.98701 74.4835 5.70046 74.5451 5.41091 74.5424H3.22241C3.51146 74.5435 3.79719 74.4808 4.05924 74.3588C4.32128 74.2368 4.55318 74.0585 4.73841 73.8366C4.92364 73.6147 5.05763 73.3547 5.13083 73.0751C5.20404 72.7955 5.21465 72.5031 5.16191 72.2189L3.64541 64.2119H5.83391L7.35041 72.2189Z"
              fill="black"/>
        <path
                d="M3.953 65.9446C5.86004 65.9446 7.406 64.3986 7.406 62.4916C7.406 60.5845 5.86004 59.0386 3.953 59.0386C2.04596 59.0386 0.5 60.5845 0.5 62.4916C0.5 64.3986 2.04596 65.9446 3.953 65.9446Z"
                fill="#2988F5"/>
        <path opacity="0.09"
              d="M7.40744 62.4841C7.40764 62.938 7.31839 63.3875 7.14477 63.8069C6.97116 64.2263 6.7166 64.6073 6.39565 64.9283C6.07469 65.2493 5.69362 65.5038 5.27423 65.6774C4.85484 65.851 4.40535 65.9403 3.95145 65.9401C3.56745 65.9401 3.20295 65.8831 2.85645 65.7481C3.54155 65.5226 4.13801 65.0866 4.56084 64.5023C4.98368 63.918 5.21131 63.2151 5.21131 62.4939C5.21131 61.7726 4.98368 61.0697 4.56084 60.4854C4.13801 59.9011 3.54155 59.4651 2.85645 59.2396C3.20295 59.1046 3.56745 59.0476 3.95145 59.0476C4.86515 59.046 5.74217 59.4069 6.39008 60.0512C7.03799 60.6955 7.40387 61.5704 7.40744 62.4841Z"
              fill="black"/>
        <path
                d="M50.2251 40.5511C52.3997 40.5511 54.1626 39.4221 54.1626 38.0296C54.1626 36.637 52.3997 35.5081 50.2251 35.5081C48.0505 35.5081 46.2876 36.637 46.2876 38.0296C46.2876 39.4221 48.0505 40.5511 50.2251 40.5511Z"
                fill="#2988F5"/>
        <path
                d="M95.375 39.807L51.0755 61.128C50.8097 61.2642 50.5154 61.3353 50.2168 61.3353C49.9181 61.3353 49.6238 61.2642 49.358 61.128L46.043 59.529L76.3415 44.949C82.1405 42.159 82.142 33.9015 76.3445 31.1085L46.0415 16.5135L49.358 14.9145C49.6258 14.7853 49.9194 14.7183 50.2168 14.7183C50.5141 14.7183 50.8077 14.7853 51.0755 14.9145L95.375 36.2535C96.875 36.9645 96.875 39.096 95.375 39.807Z"
                fill="#A5BBD7"/>
    </g>
    <defs>
        <clipPath id="clip0_4132_37391">
            <rect width="96" height="96" fill="white" transform="translate(0.5)"/>
        </clipPath>
    </defs>
</svg>