<svg width="56" height="56" viewBox="0 0 56 56" fill="none" xmlns="http://www.w3.org/2000/svg">
    <rect x="0.5" y="0.5" width="55" height="55" rx="27.5" fill="#F1F5F9" stroke="#E8EEF3"/>
    <path d="M34.0751 14.5H21.9251C18.2801 14.5 17.0651 16.9165 17.0651 19.9V40.15H15.8501V40.825V41.5H17.0651H38.9351H40.1501V40.825V40.15H38.9351V19.9C38.9351 16.9165 37.7201 14.5 34.0751 14.5ZM25.5701 35.0875H21.9251C21.4269 35.0875 21.0138 34.6285 21.0138 34.075C21.0138 33.5215 21.4269 33.0625 21.9251 33.0625H25.5701C26.0682 33.0625 26.4813 33.5215 26.4813 34.075C26.4813 34.6285 26.0682 35.0875 25.5701 35.0875ZM25.5701 29.0125H21.9251C21.4269 29.0125 21.0138 28.5535 21.0138 28C21.0138 27.4465 21.4269 26.9875 21.9251 26.9875H25.5701C26.0682 26.9875 26.4813 27.4465 26.4813 28C26.4813 28.5535 26.0682 29.0125 25.5701 29.0125ZM25.5701 22.9375H21.9251C21.4269 22.9375 21.0138 22.4785 21.0138 21.925C21.0138 21.3715 21.4269 20.9125 21.9251 20.9125H25.5701C26.0682 20.9125 26.4813 21.3715 26.4813 21.925C26.4813 22.4785 26.0682 22.9375 25.5701 22.9375ZM34.0751 35.0875H30.4301C29.9319 35.0875 29.5188 34.6285 29.5188 34.075C29.5188 33.5215 29.9319 33.0625 30.4301 33.0625H34.0751C34.5732 33.0625 34.9863 33.5215 34.9863 34.075C34.9863 34.6285 34.5732 35.0875 34.0751 35.0875ZM34.0751 29.0125H30.4301C29.9319 29.0125 29.5188 28.5535 29.5188 28C29.5188 27.4465 29.9319 26.9875 30.4301 26.9875H34.0751C34.5732 26.9875 34.9863 27.4465 34.9863 28C34.9863 28.5535 34.5732 29.0125 34.0751 29.0125ZM34.0751 22.9375H30.4301C29.9319 22.9375 29.5188 22.4785 29.5188 21.925C29.5188 21.3715 29.9319 20.9125 30.4301 20.9125H34.0751C34.5732 20.9125 34.9863 21.3715 34.9863 21.925C34.9863 22.4785 34.5732 22.9375 34.0751 22.9375Z" fill="#718193"/>
</svg>
