<svg width="66" height="54" viewBox="0 0 66 54" fill="none" xmlns="http://www.w3.org/2000/svg">
    <path d="M59.4561 5.56689H8.38352C7.4385 5.56689 6.53218 5.9423 5.86395 6.61053C5.19572 7.27876 4.82031 8.18508 4.82031 9.1301V16.2565H59.4561V5.56689Z" fill="#A5BBD7"/>
    <path d="M59.4561 3.5632C59.4561 2.61818 59.0807 1.71187 58.4124 1.04364C57.7442 0.375408 56.8379 1.17532e-08 55.8929 1.17532e-08H37.2704C36.4329 -5.88897e-05 35.6102 0.221273 34.8858 0.641567C34.1614 1.06186 33.561 1.66618 33.1454 2.39329L29.7627 8.31414H59.4561V3.5632Z" fill="#A5BBD7"/>
    <path d="M4.82031 8.90552H59.4561V11.1183H4.82031V8.90552Z" fill="#8DA3BE"/>
    <path d="M63.4561 15.7623C63.5493 15.0896 63.4972 14.4048 63.3034 13.754C63.1097 13.1031 62.7787 12.5013 62.3328 11.9892C61.8869 11.477 61.3364 11.0663 60.7185 10.7847C60.1005 10.5032 59.4294 10.3573 58.7503 10.3569H5.52551C4.84631 10.3569 4.17499 10.5025 3.55683 10.7839C2.93867 11.0654 2.38804 11.4761 1.94207 11.9883C1.49609 12.5006 1.16514 13.1026 0.971527 13.7536C0.777916 14.4046 0.726144 15.0896 0.819705 15.7623L5.43881 49.0189C5.59676 50.1546 6.16016 51.1949 7.02504 51.9478C7.88993 52.7007 8.99793 53.1154 10.1446 53.1154H54.1312C55.2779 53.1154 56.3859 52.7007 57.2508 51.9478C58.1156 51.1949 58.679 50.1546 58.837 49.0189L63.4561 15.7623Z" fill="#CADCF0"/>
    <path d="M1.21878 18.6366C1.3252 17.4548 1.86966 16.3556 2.74522 15.5547C3.62078 14.7539 4.76415 14.3094 5.95072 14.3085H58.3251C59.512 14.3083 60.6559 14.7524 61.5317 15.5535C62.4075 16.3545 62.9517 17.4544 63.057 18.6366L63.4561 15.7623C63.5493 15.0896 63.4972 14.4048 63.3034 13.754C63.1097 13.1031 62.7787 12.5013 62.3328 11.9892C61.8869 11.477 61.3364 11.0663 60.7185 10.7847C60.1005 10.5032 59.4294 10.3573 58.7503 10.3569H5.52551C4.84631 10.3569 4.17499 10.5025 3.55683 10.7839C2.93867 11.0654 2.38804 11.4761 1.94207 11.9883C1.49609 12.5006 1.16514 13.1026 0.971527 13.7536C0.777916 14.4046 0.726144 15.0896 0.819705 15.7623L1.21878 18.6366Z" fill="#E9F3FC"/>
    <path d="M26.7948 41.2691C26.7948 40.6391 26.5445 40.0349 26.099 39.5894C25.6536 39.1439 25.0494 38.8936 24.4193 38.8936H14.9175C14.2874 38.8936 13.6832 39.1439 13.2378 39.5894C12.7923 40.0349 12.542 40.6391 12.542 41.2691V43.6446C12.542 44.2746 12.7923 44.8788 13.2378 45.3243C13.6832 45.7698 14.2874 46.02 14.9175 46.02H24.4193C25.0494 46.02 25.6536 45.7698 26.099 45.3243C26.5445 44.8788 26.7948 44.2746 26.7948 43.6446V41.2691ZM44.6096 18.9563C37.7267 18.9563 32.1384 24.5446 32.1384 31.4275C32.1384 38.3104 37.7267 43.8987 44.6096 43.8987C51.4926 43.8987 57.0809 38.3104 57.0809 31.4275C57.0809 24.5446 51.4926 18.9563 44.6096 18.9563ZM44.6096 22.5195C49.5257 22.5195 53.5177 26.5115 53.5177 31.4275C53.5177 36.3435 49.5257 40.3355 44.6096 40.3355C39.6936 40.3355 35.7016 36.3435 35.7016 31.4275C35.7016 26.5115 39.6936 22.5195 44.6096 22.5195Z" fill="#347BFA"/>
    <path d="M51.1056 40.0397L62.1848 51.1189C62.5189 51.4531 62.972 51.6409 63.4446 51.641C63.9171 51.6411 64.3704 51.4535 64.7046 51.1195C65.0388 50.7854 65.2266 50.3322 65.2267 49.8597C65.2268 49.3871 65.0392 48.9339 64.7052 48.5997L53.626 37.5205C53.2882 37.2048 52.841 37.0328 52.3788 37.0405C51.9166 37.0483 51.4754 37.2353 51.1484 37.5622C50.8215 37.889 50.6342 38.33 50.6262 38.7923C50.6183 39.2545 50.7901 39.7017 51.1056 40.0397Z" fill="#347BFA"/>
</svg>
