<svg width="30" height="32" viewBox="0 0 30 32" fill="none" xmlns="http://www.w3.org/2000/svg">
    <path d="M28.126 25.084L19.9669 20.957C21.0553 20.375 25.3064 20.1905 25.658 19.167C25.658 19.167 23.978 16.4165 23.5678 12.844C23.4084 11.4575 23.1356 9.638 22.8647 7.0755C22.425 2.919 19.1475 0 15.0075 0H14.9925C10.8525 0 7.57501 2.919 7.13579 7.075C6.86485 9.6375 6.59204 11.457 6.43266 12.8435C6.02251 16.4165 4.3425 19.1665 4.3425 19.1665C4.69407 20.19 8.9447 20.3745 10.0336 20.9565L1.87406 25.084C1.87406 25.084 0 25.786 0 27.4425V30.084C0 31.1895 0.838594 32 1.87406 32H28.126C29.1614 32 30 31.1895 30 30.084V27.4425C30 25.786 28.126 25.084 28.126 25.084Z" fill="#718193"/>
</svg>
