<svg width="18" height="18" viewBox="0 0 18 18" fill="none" xmlns="http://www.w3.org/2000/svg">
    <path d="M9.30315 3.91216C8.76687 3.91216 8.25255 3.70608 7.87335 3.33924C7.49414 2.9724 7.2811 2.47487 7.2811 1.95608C7.2811 1.4373 7.49414 0.939759 7.87335 0.572923C8.25255 0.206087 8.76687 0 9.30315 0C9.83944 0 10.3538 0.206087 10.733 0.572923C11.1122 0.939759 11.3252 1.4373 11.3252 1.95608C11.3252 2.47487 11.1122 2.9724 10.733 3.33924C10.3538 3.70608 9.83944 3.91216 9.30315 3.91216ZM15.9779 3.91216C15.4417 3.91216 14.9273 3.70608 14.5481 3.33924C14.1689 2.9724 13.9559 2.47487 13.9559 1.95608C13.9559 1.4373 14.1689 0.939759 14.5481 0.572923C14.9273 0.206087 15.4417 0 15.9779 0C16.5142 0 17.0285 0.206087 17.4078 0.572923C17.787 0.939759 18 1.4373 18 1.95608C18 2.47487 17.787 2.9724 17.4078 3.33924C17.0285 3.70608 16.5142 3.91216 15.9779 3.91216ZM2.02205 3.91216C1.48577 3.91216 0.971455 3.70608 0.592246 3.33924C0.213037 2.9724 6.02937e-08 2.47487 6.02937e-08 1.95608C6.02937e-08 1.4373 0.213037 0.939759 0.592246 0.572923C0.971455 0.206087 1.48577 0 2.02205 0C2.55834 0 3.07265 0.206087 3.45186 0.572923C3.83107 0.939759 4.04411 1.4373 4.04411 1.95608C4.04411 2.47487 3.83107 2.9724 3.45186 3.33924C3.07265 3.70608 2.55834 3.91216 2.02205 3.91216ZM9.30315 10.9557C9.03761 10.9557 8.77467 10.9051 8.52935 10.8068C8.28402 10.7085 8.06111 10.5644 7.87335 10.3828C7.68558 10.2011 7.53664 9.98551 7.43502 9.74818C7.3334 9.51086 7.2811 9.2565 7.2811 8.99962C7.2811 8.74275 7.3334 8.48839 7.43502 8.25106C7.53664 8.01374 7.68558 7.79811 7.87335 7.61647C8.06111 7.43483 8.28402 7.29074 8.52935 7.19244C8.77467 7.09414 9.03761 7.04354 9.30315 7.04354C9.83944 7.04354 10.3538 7.24963 10.733 7.61647C11.1122 7.9833 11.3252 8.48084 11.3252 8.99962C11.3252 9.51841 11.1122 10.0159 10.733 10.3828C10.3538 10.7496 9.83944 10.9557 9.30315 10.9557ZM15.9779 10.9557C15.7124 10.9557 15.4495 10.9051 15.2041 10.8068C14.9588 10.7085 14.7359 10.5644 14.5481 10.3828C14.3604 10.2011 14.2114 9.98551 14.1098 9.74818C14.0082 9.51086 13.9559 9.2565 13.9559 8.99962C13.9559 8.74275 14.0082 8.48839 14.1098 8.25106C14.2114 8.01374 14.3604 7.79811 14.5481 7.61647C14.7359 7.43483 14.9588 7.29074 15.2041 7.19244C15.4495 7.09414 15.7124 7.04354 15.9779 7.04354C16.5142 7.04354 17.0285 7.24963 17.4078 7.61647C17.787 7.9833 18 8.48084 18 8.99962C18 9.51841 17.787 10.0159 17.4078 10.3828C17.0285 10.7496 16.5142 10.9557 15.9779 10.9557ZM2.02205 10.9557C1.75651 10.9557 1.49357 10.9051 1.24825 10.8068C1.00292 10.7085 0.780011 10.5644 0.592246 10.3828C0.404481 10.2011 0.255537 9.98551 0.15392 9.74818C0.052302 9.51086 1.76007e-08 9.2565 1.76007e-08 8.99962C1.76007e-08 8.74275 0.052302 8.48839 0.15392 8.25106C0.255537 8.01374 0.404481 7.79811 0.592246 7.61647C0.780011 7.43483 1.00292 7.29074 1.24825 7.19244C1.49357 7.09414 1.75651 7.04354 2.02205 7.04354C2.55834 7.04354 3.07265 7.24963 3.45186 7.61647C3.83107 7.9833 4.04411 8.48084 4.04411 8.99962C4.04411 9.51841 3.83107 10.0159 3.45186 10.3828C3.07265 10.7496 2.55834 10.9557 2.02205 10.9557ZM9.30315 17.9993C9.03761 17.9993 8.77467 17.9487 8.52935 17.8504C8.28402 17.7521 8.06111 17.608 7.87335 17.4263C7.68558 17.2447 7.53664 17.0291 7.43502 16.7917C7.3334 16.5544 7.2811 16.3 7.2811 16.0432C7.2811 15.7863 7.3334 15.5319 7.43502 15.2946C7.53664 15.0573 7.68558 14.8416 7.87335 14.66C8.06111 14.4784 8.28402 14.3343 8.52935 14.236C8.77467 14.1377 9.03761 14.0871 9.30315 14.0871C9.83954 14.0871 10.354 14.2932 10.7332 14.6601C11.1125 15.027 11.3256 15.5247 11.3256 16.0435C11.3256 16.5624 11.1125 17.0601 10.7332 17.427C10.354 17.7939 9.83954 17.9993 9.30315 17.9993ZM15.9779 17.9993C15.7124 17.9993 15.4495 17.9487 15.2041 17.8504C14.9588 17.7521 14.7359 17.608 14.5481 17.4263C14.3604 17.2447 14.2114 17.0291 14.1098 16.7917C14.0082 16.5544 13.9559 16.3 13.9559 16.0432C13.9559 15.7863 14.0082 15.5319 14.1098 15.2946C14.2114 15.0573 14.3604 14.8416 14.5481 14.66C14.7359 14.4784 14.9588 14.3343 15.2041 14.236C15.4495 14.1377 15.7124 14.0871 15.9779 14.0871C16.5142 14.0871 17.0285 14.2932 17.4078 14.66C17.787 15.0268 18 15.5244 18 16.0432C18 16.562 17.787 17.0595 17.4078 17.4263C17.0285 17.7932 16.5142 17.9993 15.9779 17.9993ZM2.02205 17.9993C1.75651 17.9993 1.49357 17.9487 1.24825 17.8504C1.00292 17.7521 0.780011 17.608 0.592246 17.4263C0.404481 17.2447 0.255537 17.0291 0.15392 16.7917C0.052302 16.5544 0 16.3 0 16.0432C0 15.7863 0.052302 15.5319 0.15392 15.2946C0.255537 15.0573 0.404481 14.8416 0.592246 14.66C0.780011 14.4784 1.00292 14.3343 1.24825 14.236C1.49357 14.1377 1.75651 14.0871 2.02205 14.0871C2.55834 14.0871 3.07265 14.2932 3.45186 14.66C3.83107 15.0268 4.04411 15.5244 4.04411 16.0432C4.04411 16.562 3.83107 17.0595 3.45186 17.4263C3.07265 17.7932 2.55834 17.9993 2.02205 17.9993Z" fill="currentColor"/>
</svg>
