<svg width="40" height="32" viewBox="0 0 40 32" fill="none" xmlns="http://www.w3.org/2000/svg">
    <path d="M27.1424 11.5C27.1424 11.5 28.404 6.489 27.1424 4.79012C25.8809 3.0941 25.3792 1.96341 22.6053 1.15395C19.8314 0.34448 20.8421 0.505802 18.8251 0.588605C16.8067 0.671407 15.1266 1.72072 15.1266 2.28749C15.1266 2.28749 13.8651 2.36743 13.3634 2.85283C12.8588 3.33822 12.0188 5.59959 12.0188 6.16493C12.0188 6.73027 12.4388 10.5335 12.8588 11.3401L12.3586 11.5028C11.9371 16.1898 14.0357 16.7565 14.0357 16.7565C14.7927 21.1222 15.5496 19.2634 15.5496 20.3941C15.5496 21.5248 14.7927 21.1222 14.7927 21.1222C14.7927 21.1222 14.1218 22.8996 12.4417 23.5463C10.7617 24.1916 1.43516 27.6665 0.676749 28.3946C-0.0831447 29.1227 0.00293703 32.5176 0.00293703 32.5176H39.9968C39.9968 32.5176 40.0858 29.1241 39.3259 28.3946C38.569 27.6665 29.241 24.1916 27.561 23.5463C25.8809 22.8996 25.21 21.1222 25.21 21.1222C25.21 21.1222 24.4531 21.5248 24.4531 20.3941C24.4531 19.2634 25.21 21.1222 25.967 16.7565C25.967 16.7565 28.0641 16.1898 27.6441 11.5028H27.1394L27.1424 11.5Z" fill="url(#paint0_linear_1179_26501)"/>
    <defs>
        <linearGradient id="paint0_linear_1179_26501" x1="20" y1="-11.5" x2="20" y2="52.5" gradientUnits="userSpaceOnUse">
            <stop stop-color="#8A99AA"/>
            <stop offset="1" stop-color="#647383"/>
        </linearGradient>
    </defs>
</svg>
