<svg width="27" height="26" viewBox="0 0 27 26" fill="none" xmlns="http://www.w3.org/2000/svg">
    <path d="M3.4375 4.375C4.23141 4.375 4.875 3.73141 4.875 2.9375C4.875 2.14359 4.23141 1.5 3.4375 1.5C2.64359 1.5 2 2.14359 2 2.9375C2 3.73141 2.64359 4.375 3.4375 4.375Z" stroke="#373B55" stroke-width="2.2" stroke-linecap="round" stroke-linejoin="round"/>
    <path d="M13.5 4.375C14.2939 4.375 14.9375 3.73141 14.9375 2.9375C14.9375 2.14359 14.2939 1.5 13.5 1.5C12.7061 1.5 12.0625 2.14359 12.0625 2.9375C12.0625 3.73141 12.7061 4.375 13.5 4.375Z" stroke="#373B55" stroke-width="2.2" stroke-linecap="round" stroke-linejoin="round"/>
    <path d="M23.5625 4.375C24.3564 4.375 25 3.73141 25 2.9375C25 2.14359 24.3564 1.5 23.5625 1.5C22.7686 1.5 22.125 2.14359 22.125 2.9375C22.125 3.73141 22.7686 4.375 23.5625 4.375Z" stroke="#373B55" stroke-width="2.2" stroke-linecap="round" stroke-linejoin="round"/>
    <path d="M3.4375 14.4375C4.23141 14.4375 4.875 13.7939 4.875 13C4.875 12.2061 4.23141 11.5625 3.4375 11.5625C2.64359 11.5625 2 12.2061 2 13C2 13.7939 2.64359 14.4375 3.4375 14.4375Z" stroke="#373B55" stroke-width="2.2" stroke-linecap="round" stroke-linejoin="round"/>
    <path d="M13.5 14.4375C14.2939 14.4375 14.9375 13.7939 14.9375 13C14.9375 12.2061 14.2939 11.5625 13.5 11.5625C12.7061 11.5625 12.0625 12.2061 12.0625 13C12.0625 13.7939 12.7061 14.4375 13.5 14.4375Z" stroke="#373B55" stroke-width="2.2" stroke-linecap="round" stroke-linejoin="round"/>
    <path d="M23.5625 14.4375C24.3564 14.4375 25 13.7939 25 13C25 12.2061 24.3564 11.5625 23.5625 11.5625C22.7686 11.5625 22.125 12.2061 22.125 13C22.125 13.7939 22.7686 14.4375 23.5625 14.4375Z" stroke="#373B55" stroke-width="2.2" stroke-linecap="round" stroke-linejoin="round"/>
    <path d="M3.4375 24.5C4.23141 24.5 4.875 23.8564 4.875 23.0625C4.875 22.2686 4.23141 21.625 3.4375 21.625C2.64359 21.625 2 22.2686 2 23.0625C2 23.8564 2.64359 24.5 3.4375 24.5Z" stroke="#373B55" stroke-width="2.2" stroke-linecap="round" stroke-linejoin="round"/>
    <path d="M13.5 24.5C14.2939 24.5 14.9375 23.8564 14.9375 23.0625C14.9375 22.2686 14.2939 21.625 13.5 21.625C12.7061 21.625 12.0625 22.2686 12.0625 23.0625C12.0625 23.8564 12.7061 24.5 13.5 24.5Z" stroke="#373B55" stroke-width="2.2" stroke-linecap="round" stroke-linejoin="round"/>
    <path d="M23.5625 24.5C24.3564 24.5 25 23.8564 25 23.0625C25 22.2686 24.3564 21.625 23.5625 21.625C22.7686 21.625 22.125 22.2686 22.125 23.0625C22.125 23.8564 22.7686 24.5 23.5625 24.5Z" stroke="#373B55" stroke-width="2.2" stroke-linecap="round" stroke-linejoin="round"/>
</svg>
