<svg width="21" height="21" viewBox="0 0 21 21" fill="none" xmlns="http://www.w3.org/2000/svg">
    <path d="M20.3377 14.1868C20.1726 13.9166 19.7083 13.4964 18.5525 13.6965C17.9127 13.8066 17.2626 13.8566 16.6125 13.8266C14.2081 13.7265 12.0307 12.656 10.5138 11.0051C9.17232 9.55432 8.34678 7.66332 8.33647 5.62224C8.33647 4.48163 8.56349 3.38105 9.02785 2.34049C9.4819 1.32996 9.162 0.799676 8.93498 0.579559C8.69764 0.349437 8.1404 0.029267 7.04656 0.469501C2.826 2.19041 0.215235 6.29259 0.524812 10.6849C0.834388 14.8171 3.82696 18.349 7.78955 19.6797C8.73892 19.9999 9.73988 20.19 10.7718 20.23C10.9369 20.24 11.102 20.25 11.2671 20.25C14.7241 20.25 17.9643 18.6692 20.0075 15.9777C20.6989 15.0472 20.5132 14.4569 20.3377 14.1868Z" fill="#B5D1F0"/>
</svg>
