<svg xmlns="http://www.w3.org/2000/svg" width="8" height="12" viewBox="0 0 8 12" fill="none">
    <path d="M0.999995 0.700048C1.18333 0.516715 1.41666 0.425049 1.69999 0.425049C1.98333 0.425049 2.21666 0.516715 2.39999 0.700048L6.99999 5.30005C7.09999 5.40005 7.17066 5.50838 7.21199 5.62505C7.25333 5.74172 7.27433 5.86672 7.27499 6.00005C7.27499 6.13338 7.24999 6.26271 7.19999 6.38805C7.14999 6.51338 7.08333 6.61738 6.99999 6.70005L2.39999 11.3C2.21666 11.4834 1.98333 11.575 1.69999 11.575C1.41666 11.575 1.18333 11.4834 0.999995 11.3C0.816661 11.1167 0.724994 10.8834 0.724994 10.6C0.724994 10.3167 0.816661 10.0834 0.999995 9.90005L4.89999 6.00005L0.999995 2.10005C0.816661 1.91672 0.724994 1.68338 0.724994 1.40005C0.724994 1.11672 0.816661 0.883382 0.999995 0.700048Z"
          fill="#373B55"/>
</svg>