<svg width="19" height="19" viewBox="0 0 19 19" fill="none" xmlns="http://www.w3.org/2000/svg">
    <path d="M7.07858 15.9493L1.53833 17.5L3.0896 11.9619L13.2344 1.87028C13.3491 1.75307 13.486 1.65993 13.6372 1.59634C13.7883 1.53276 13.9507 1.5 14.1147 1.5C14.2787 1.5 14.4411 1.53276 14.5922 1.59634C14.7434 1.65993 14.8803 1.75307 14.995 1.87028L17.1742 4.0609C17.2895 4.17531 17.3811 4.31143 17.4436 4.4614C17.5061 4.61137 17.5383 4.77223 17.5383 4.93469C17.5383 5.09716 17.5061 5.25801 17.4436 5.40799C17.3811 5.55796 17.2895 5.69407 17.1742 5.80848L7.07858 15.9493Z" stroke="#2988F5" stroke-width="1.5" stroke-linecap="round" stroke-linejoin="round"/>
</svg>
