<svg width="31" height="27" viewBox="0 0 31 27" fill="none" xmlns="http://www.w3.org/2000/svg">
    <path d="M25.0455 8.1V5.4H22.3182V2.7H25.0455V0H27.7727V2.7H30.5V5.4H27.7727V8.1H25.0455ZM3.22727 27C2.47727 27 1.835 26.7354 1.30046 26.2062C0.765911 25.677 0.499093 25.0416 0.500002 24.3V8.1C0.500002 7.3575 0.767275 6.72165 1.30182 6.19245C1.83637 5.66325 2.47818 5.3991 3.22727 5.4H7.52273L10.0455 2.7H18.2273V5.4H11.2386L8.75 8.1H3.22727V24.3H25.0455V12.15H27.7727V24.3C27.7727 25.0425 27.5055 25.6783 26.9709 26.2075C26.4364 26.7367 25.7945 27.0009 25.0455 27H3.22727ZM14.1364 22.275C15.8409 22.275 17.29 21.6841 18.4836 20.5024C19.6773 19.3207 20.2736 17.8866 20.2727 16.2C20.2727 14.5125 19.6759 13.0779 18.4823 11.8962C17.2886 10.7145 15.84 10.1241 14.1364 10.125C12.4318 10.125 10.9827 10.7158 9.78909 11.8975C8.59546 13.0792 7.99909 14.5134 8 16.2C8 17.8875 8.59682 19.3221 9.79046 20.5038C10.9841 21.6855 12.4327 22.2759 14.1364 22.275ZM14.1364 19.575C13.1818 19.575 12.375 19.2487 11.7159 18.5962C11.0568 17.9437 10.7273 17.145 10.7273 16.2C10.7273 15.255 11.0568 14.4562 11.7159 13.8037C12.375 13.1512 13.1818 12.825 14.1364 12.825C15.0909 12.825 15.8977 13.1512 16.5568 13.8037C17.2159 14.4562 17.5455 15.255 17.5455 16.2C17.5455 17.145 17.2159 17.9437 16.5568 18.5962C15.8977 19.2487 15.0909 19.575 14.1364 19.575Z" fill="currentColor"/>
</svg>
