<svg width="20" height="24" viewBox="0 0 20 24" fill="none" xmlns="http://www.w3.org/2000/svg">
    <path d="M4.72723 15.0912C4.49473 15.0912 4.33723 15.1128 4.25598 15.1344V16.566C4.35223 16.5876 4.47348 16.5936 4.63848 16.5936C5.24473 16.5936 5.61973 16.2984 5.61973 15.8028C5.61973 15.3576 5.29723 15.0912 4.72723 15.0912Z" fill="#2988F5"/>
    <path d="M12.5 0H2.5C1.83696 0 1.20107 0.252856 0.732233 0.702944C0.263392 1.15303 0 1.76348 0 2.4V21.6C0 22.2365 0.263392 22.847 0.732233 23.2971C1.20107 23.7471 1.83696 24 2.5 24H17.5C18.163 24 18.7989 23.7471 19.2678 23.2971C19.7366 22.847 20 22.2365 20 21.6V7.2L12.5 0ZM6.2875 16.926C5.89625 17.2776 5.32 17.4372 4.64625 17.4372C4.49625 17.4372 4.36 17.4288 4.25625 17.4144V19.1484H3.12375V14.364C3.6346 14.29 4.15094 14.2567 4.6675 14.2644C5.37125 14.2644 5.875 14.3928 6.21125 14.652C6.53375 14.8968 6.75125 15.3 6.75125 15.7752C6.75125 16.2504 6.5875 16.6524 6.2875 16.926ZM11.665 19.1496H10.465L9.38625 17.2776C9.08625 16.7592 8.75625 16.134 8.51 15.5652L8.48625 15.5724C8.51625 16.2132 8.53125 16.8972 8.53125 17.688V19.1496H7.48125V14.2992H8.815L9.865 16.0764C10.165 16.5876 10.4637 17.1924 10.6887 17.7384H10.7125C10.6398 17.0667 10.6073 16.3916 10.615 15.7164V14.298H11.665V19.1496ZM16.8762 18.9264C16.3319 19.0994 15.7633 19.1916 15.19 19.2C14.2688 19.2 13.6013 18.9768 13.135 18.5448C12.6713 18.1272 12.4163 17.4948 12.4238 16.782C12.4313 15.1692 13.6525 14.2488 15.31 14.2488C15.9612 14.2488 16.465 14.3724 16.7112 14.4864L16.4725 15.3636C16.195 15.2484 15.85 15.1548 15.2962 15.1548C14.3437 15.1548 13.6238 15.6732 13.6238 16.7244C13.6238 17.724 14.2763 18.3144 15.2125 18.3144C15.475 18.3144 15.685 18.2856 15.775 18.2412V17.226H14.995V16.3704H16.8762V18.9264ZM12.5 8.4H11.25V2.4L17.5 8.4H12.5Z" fill="#2988F5"/>
</svg>
