<svg xmlns="http://www.w3.org/2000/svg" width="8" height="12" viewBox="0 0 8 12" fill="none">
    <path d="M7.00001 11.3C6.81667 11.4833 6.58334 11.575 6.30001 11.575C6.01667 11.575 5.78334 11.4833 5.60001 11.3L1.00001 6.69995C0.900006 6.59995 0.829339 6.49162 0.788006 6.37495C0.746672 6.25828 0.725673 6.13328 0.725006 5.99995C0.725006 5.86662 0.750006 5.73729 0.800006 5.61195C0.850006 5.48662 0.916672 5.38262 1.00001 5.29995L5.60001 0.699953C5.78334 0.516619 6.01667 0.424951 6.30001 0.424951C6.58334 0.424951 6.81667 0.516619 7.00001 0.699953C7.18334 0.883286 7.27501 1.11662 7.27501 1.39995C7.27501 1.68329 7.18334 1.91662 7.00001 2.09995L3.10001 5.99995L7.00001 9.89995C7.18334 10.0833 7.27501 10.3166 7.27501 10.6C7.27501 10.8833 7.18334 11.1166 7.00001 11.3Z"
          fill="#373B55"/>
</svg>