<svg width="24" height="25" viewBox="0 0 24 25" fill="none" xmlns="http://www.w3.org/2000/svg">
    <path d="M12.0219 19.9221C16.247 19.9221 19.6721 16.497 19.6721 12.2719C19.6721 8.04673 16.247 4.62158 12.0219 4.62158C7.79673 4.62158 4.37158 8.04673 4.37158 12.2719C4.37158 16.497 7.79673 19.9221 12.0219 19.9221Z" fill="#FEAD4D"/>
    <path d="M12.0219 24.25C11.4208 24.25 10.929 23.8019 10.929 23.2008V23.1134C10.929 22.5123 11.4208 22.0205 12.0219 22.0205C12.623 22.0205 13.1148 22.5123 13.1148 23.1134C13.1148 23.7145 12.623 24.25 12.0219 24.25ZM19.8251 21.168C19.541 21.168 19.2678 21.0587 19.0492 20.8511L18.9071 20.709C18.4809 20.2828 18.4809 19.5943 18.9071 19.168C19.3333 18.7418 20.0219 18.7418 20.4481 19.168L20.5902 19.3101C21.0164 19.7363 21.0164 20.4249 20.5902 20.8511C20.3825 21.0587 20.1093 21.168 19.8251 21.168ZM4.21858 21.168C3.93443 21.168 3.6612 21.0587 3.44262 20.8511C3.01639 20.4249 3.01639 19.7363 3.44262 19.3101L3.5847 19.168C4.01093 18.7418 4.69945 18.7418 5.12568 19.168C5.55191 19.5943 5.55191 20.2828 5.12568 20.709L4.98361 20.8511C4.77596 21.0587 4.4918 21.168 4.21858 21.168ZM22.9508 13.3648H22.8634C22.2623 13.3648 21.7705 12.873 21.7705 12.2719C21.7705 11.6708 22.2623 11.179 22.8634 11.179C23.4645 11.179 24 11.6708 24 12.2719C24 12.873 23.5519 13.3648 22.9508 13.3648ZM1.18033 13.3648H1.0929C0.491803 13.3648 0 12.873 0 12.2719C0 11.6708 0.491803 11.179 1.0929 11.179C1.69399 11.179 2.22951 11.6708 2.22951 12.2719C2.22951 12.873 1.78142 13.3648 1.18033 13.3648ZM19.6831 5.70355C19.3989 5.70355 19.1257 5.59426 18.9071 5.38661C18.4809 4.96038 18.4809 4.27186 18.9071 3.84563L19.0492 3.70355C19.4754 3.27732 20.1639 3.27732 20.5902 3.70355C21.0164 4.12978 21.0164 4.81831 20.5902 5.24454L20.4481 5.38661C20.2404 5.59426 19.9672 5.70355 19.6831 5.70355ZM4.36066 5.70355C4.0765 5.70355 3.80328 5.59426 3.5847 5.38661L3.44262 5.23361C3.01639 4.80738 3.01639 4.11885 3.44262 3.69262C3.86885 3.26639 4.55738 3.26639 4.98361 3.69262L5.12568 3.8347C5.55191 4.26093 5.55191 4.94945 5.12568 5.37568C4.91803 5.59426 4.63388 5.70355 4.36066 5.70355ZM12.0219 2.47951C11.4208 2.47951 10.929 2.03142 10.929 1.43033V1.3429C10.929 0.741803 11.4208 0.25 12.0219 0.25C12.623 0.25 13.1148 0.741803 13.1148 1.3429C13.1148 1.94399 12.623 2.47951 12.0219 2.47951Z" fill="#FEAD4D"/>
</svg>
