<svg width="25" height="22" viewBox="0 0 25 22" fill="none" xmlns="http://www.w3.org/2000/svg">
    <path d="M2.00861 21.8799C1.53037 22.0753 1.07604 22.0323 0.645624 21.751C0.215208 21.4696 0 21.0608 0 20.5245V15.0665C0 14.7246 0.0956481 14.4194 0.286944 14.1507C0.47824 13.8821 0.741272 13.7112 1.07604 13.6379L11.4778 11.0005L1.07604 8.36304C0.741272 8.28978 0.47824 8.11884 0.286944 7.85021C0.0956481 7.58158 0 7.27632 0 6.93443V1.47641C0 0.939151 0.215208 0.529861 0.645624 0.248534C1.07604 -0.0327923 1.53037 -0.0752849 2.00861 0.121058L24.1033 9.64513C24.7011 9.91376 25 10.3655 25 11.0005C25 11.6354 24.7011 12.0872 24.1033 12.3558L2.00861 21.8799Z" fill="currentColor"/>
</svg>
