<svg width="16" height="18" viewBox="0 0 16 18" fill="none" xmlns="http://www.w3.org/2000/svg">
    <path d="M7.35377 8.57895V2.26316C7.35377 1.92815 7.2195 1.60686 6.98051 1.36997C6.74152 1.13308 6.41738 1 6.07939 1C5.74141 1 5.41727 1.13308 5.17828 1.36997C4.93928 1.60686 4.80502 1.92815 4.80502 2.26316V9.42105L3.55614 8.18316C3.30597 7.93548 2.97948 7.77775 2.62853 7.73503C2.27758 7.69231 1.92229 7.76705 1.61909 7.94737C1.33444 8.11653 1.12759 8.38909 1.04255 8.70708C0.957506 9.02506 1.00098 9.36339 1.16371 9.65011C2.76008 12.4627 3.69037 14.0703 3.95544 14.4737C4.01073 14.558 4.06623 14.6422 4.12196 14.7263C4.58627 15.4252 5.21841 15.9988 5.96163 16.3956C6.70484 16.7925 7.53586 17.0001 8.38006 17H8.20335H9.90251C11.2544 17 12.551 16.4677 13.507 15.5201C14.4629 14.5726 15 13.2874 15 11.9474V8.15789C15 7.82288 14.8657 7.5016 14.6267 7.26471C14.3878 7.02782 14.0636 6.89474 13.7256 6.89474C13.3876 6.89474 13.0635 7.02782 12.8245 7.26471C12.5855 7.5016 12.4513 7.82288 12.4513 8.15789M7.35377 8.15789V6.47368C7.35377 6.3078 7.38673 6.14355 7.45077 5.99029C7.51481 5.83704 7.60868 5.69779 7.72702 5.5805C7.84536 5.4632 7.98584 5.37016 8.14046 5.30668C8.29507 5.2432 8.46078 5.21053 8.62814 5.21053C8.79549 5.21053 8.96121 5.2432 9.11582 5.30668C9.27043 5.37016 9.41092 5.4632 9.52926 5.5805C9.64759 5.69779 9.74146 5.83704 9.8055 5.99029C9.86955 6.14355 9.90251 6.3078 9.90251 6.47368V8.57895M9.90251 7.31579C9.90251 6.98078 10.0368 6.65949 10.2758 6.4226C10.5148 6.18571 10.8389 6.05263 11.1769 6.05263C11.5149 6.05263 11.839 6.18571 12.078 6.4226C12.317 6.65949 12.4513 6.98078 12.4513 7.31579V8.57895" stroke="currentColor" stroke-width="1.5" stroke-linecap="round" stroke-linejoin="round"/>
</svg>
