<svg width="88" height="98" viewBox="0 0 88 98" fill="none" xmlns="http://www.w3.org/2000/svg">
    <path d="M61.2266 17.2266C59.6396 17.2266 58.3555 15.9424 58.3555 14.3555V8.61328C58.3555 7.0292 57.0685 5.74219 55.4844 5.74219H32.5156C30.9315 5.74219 29.6445 7.0292 29.6445 8.61328V14.3555C29.6445 15.9424 28.3604 17.2266 26.7734 17.2266C25.1865 17.2266 23.9023 15.9424 23.9023 14.3555V8.61328C23.9023 3.86373 27.7661 0 32.5156 0H55.4844C60.2339 0 64.0977 3.86373 64.0977 8.61328V14.3555C64.0977 15.9424 62.8135 17.2266 61.2266 17.2266Z" fill="#2988F5"/>
    <path d="M55.4844 0H44V5.74219H55.4844C57.0685 5.74219 58.3555 7.0292 58.3555 8.61328V14.3555C58.3555 15.9424 59.6396 17.2266 61.2266 17.2266C62.8135 17.2266 64.0977 15.9424 64.0977 14.3555V8.61328C64.0977 3.86373 60.2339 0 55.4844 0Z" fill="#2988F5"/>
    <path d="M67.4285 98H20.5714C16.1274 98 12.3563 94.5288 11.9918 90.1016L6.68702 26.0781C6.65391 25.6828 6.70308 25.2848 6.83143 24.9094C6.95978 24.534 7.16452 24.1892 7.43274 23.8969C7.70182 23.6044 8.02861 23.371 8.39249 23.2112C8.75637 23.0515 9.14942 22.9689 9.54682 22.9688H78.4531C79.2549 22.9688 80.0232 23.3052 80.5672 23.8969C80.8354 24.1892 81.0401 24.534 81.1684 24.9094C81.2968 25.2848 81.346 25.6828 81.3129 26.0781L76.008 90.1016C75.6436 94.5288 71.8725 98 67.4285 98Z" fill="#CADCF0"/>
    <path d="M78.4531 22.9688H44V98H67.4285C71.8726 98 75.6437 94.5288 76.0081 90.1016L81.3129 26.0781C81.346 25.6828 81.2969 25.2848 81.1685 24.9094C81.0402 24.534 80.8354 24.1892 80.5672 23.8969C80.2981 23.6044 79.9713 23.371 79.6074 23.2112C79.2436 23.0515 78.8505 22.9689 78.4531 22.9688Z" fill="#CADCF0"/>
    <path d="M26.779 83.8239L23.908 37.5036C23.8098 35.9195 25.0126 34.5567 26.594 34.4587C28.2341 34.3437 29.538 35.5606 29.6388 37.1447L32.5099 83.465C32.6081 85.0491 31.4053 86.4119 29.8239 86.5099C28.1296 86.5869 26.8734 85.331 26.779 83.8239ZM44.0001 86.5155C42.4131 86.5155 41.129 85.2313 41.129 83.6444V37.3241C41.129 35.7371 42.4131 34.453 44.0001 34.453C45.587 34.453 46.8712 35.7371 46.8712 37.3241V83.6444C46.8712 85.2313 45.587 86.5155 44.0001 86.5155Z" fill="#A5BBD7"/>
    <path d="M58.1761 86.5101C56.5947 86.4119 55.3919 85.0493 55.4901 83.4652L58.3612 37.1449C58.4594 35.5608 59.8473 34.4083 61.4061 34.4589C62.9875 34.5571 64.1903 35.9197 64.0921 37.5038L61.221 83.8241C61.1266 85.3312 59.8704 86.587 58.1761 86.5101ZM46.8711 83.6445V37.3242C46.8711 35.7373 45.5869 34.4531 44 34.4531V86.5156C45.5869 86.5156 46.8711 85.2315 46.8711 83.6445Z" fill="#A5BBD7"/>
    <path d="M78.4531 28.7109H9.54688C4.79732 28.7109 0.933594 24.8472 0.933594 20.0977C0.933594 15.3481 4.79732 11.4844 9.54688 11.4844H78.4531C83.2027 11.4844 87.0664 15.3481 87.0664 20.0977C87.0664 24.8472 83.2027 28.7109 78.4531 28.7109Z" fill="#A5BBD7"/>
    <path d="M78.4531 11.4844H44V28.7109H78.4531C83.2027 28.7109 87.0664 24.8472 87.0664 20.0977C87.0664 15.3481 83.2027 11.4844 78.4531 11.4844Z" fill="#A5BBD7"/>
</svg>