<svg width="17" height="18" viewBox="0 0 17 18" fill="none" xmlns="http://www.w3.org/2000/svg">
    <path d="M5.37868 6.04376C5.40157 6.02037 5.96487 5.36486 6.62616 4.59271L7.65742 3.38856L7.66047 7.5455C7.66196 9.5727 7.66299 10.6803 7.66483 11.2848C7.66576 11.5869 7.66688 11.7638 7.66838 11.8671C7.66912 11.9186 7.66997 11.9527 7.67099 11.9753C7.67149 11.9866 7.67208 11.9961 7.67287 12.0041C7.67344 12.0099 7.67474 12.0224 7.67891 12.0353L7.67891 12.0353C7.71724 12.1539 7.76161 12.2324 7.8409 12.3154C7.934 12.4129 8.03444 12.4745 8.15979 12.5084C8.20857 12.5215 8.27218 12.5267 8.32981 12.5267C8.38743 12.5267 8.45104 12.5215 8.49983 12.5084C8.62638 12.4742 8.72786 12.4116 8.82069 12.3129C8.90011 12.2285 8.94252 12.1535 8.9807 12.0353C8.98488 12.0224 8.98617 12.0098 8.98674 12.004C8.98753 11.9961 8.98812 11.9865 8.98862 11.9753C8.98964 11.9527 8.99049 11.9185 8.99123 11.867C8.99273 11.7636 8.99385 11.5866 8.99477 11.2845C8.99662 10.68 8.99765 9.57254 8.99914 7.54598L9.0022 3.38943L10.0324 4.5919C10.6933 5.36326 11.2563 6.01823 11.2795 6.04211C11.5077 6.27695 11.8822 6.31082 12.1463 6.11887L12.0908 6.04246L12.1464 6.11887C12.2727 6.02706 12.3577 5.90833 12.4026 5.75988C12.4109 5.73239 12.4172 5.70888 12.4206 5.67805C12.4237 5.65002 12.4242 5.61767 12.4245 5.57278C12.425 5.48164 12.4233 5.44955 12.4065 5.3914L12.4065 5.39139C12.3868 5.32319 12.3491 5.24398 12.3089 5.1877C12.3027 5.17896 12.2823 5.15454 12.2562 5.12354C12.228 5.08993 12.1881 5.04289 12.1384 4.98443C12.039 4.86747 11.8999 4.70439 11.7343 4.51073C11.4032 4.12339 10.9663 3.61348 10.5298 3.10498C10.0934 2.59649 9.65753 2.08936 9.32856 1.70758C9.16409 1.51671 9.02629 1.3571 8.92851 1.24432C8.87964 1.18794 8.84066 1.14315 8.81332 1.11196L8.78087 1.07522L8.7708 1.0641L8.76642 1.05947L8.76638 1.05943C8.76589 1.05892 8.76162 1.05447 8.75631 1.05016L8.7563 1.05015C8.67072 0.980759 8.57222 0.93248 8.46862 0.911073C8.43005 0.903104 8.37837 0.900049 8.33188 0.900001C8.28532 0.899952 8.2336 0.902909 8.19484 0.910744L8.19483 0.910745C8.04913 0.940207 7.91127 1.02244 7.8148 1.1368L7.81479 1.13681C7.79771 1.15706 7.01661 2.0692 6.07846 3.16445C5.60951 3.71191 5.18089 4.21296 4.86809 4.5792C4.71169 4.76232 4.58422 4.91177 4.49513 5.01648L4.39134 5.13874L4.36299 5.17244C4.35885 5.1774 4.35057 5.18719 4.34641 5.19324L4.3464 5.19326C4.3083 5.24871 4.27201 5.32597 4.25311 5.3914C4.23631 5.44954 4.23461 5.48164 4.23514 5.57279C4.23539 5.61767 4.23593 5.65002 4.23904 5.67805C4.24246 5.70888 4.24872 5.7324 4.25704 5.75988C4.30211 5.90884 4.39529 6.03855 4.52136 6.12533C4.78831 6.30908 5.15254 6.27494 5.37868 6.04376ZM5.37868 6.04376L5.3072 5.97383M5.37868 6.04376C5.37868 6.04376 5.37868 6.04376 5.37868 6.04376L5.3072 5.97383M5.3072 5.97383C5.11535 6.16995 4.80527 6.19935 4.57806 6.04296C4.47131 5.96948 4.39148 5.85892 4.35276 5.73092C4.33753 5.68059 4.33566 5.66374 4.33514 5.57221C4.33462 5.48343 4.33649 5.46307 4.34918 5.41915C4.36517 5.36378 4.39692 5.2963 4.42882 5.24989L7.65731 3.23495L6.55021 4.52766C5.88635 5.30281 5.327 5.95359 5.3072 5.97383ZM15.1257 14.5199L15.0426 14.5012C15.0439 14.4957 15.0451 14.4905 15.0462 14.4855C15.0624 14.4134 15.0695 14.3822 15.0738 14.288C15.0784 14.1872 15.0794 14.0209 15.0814 13.6811L15.0817 13.6169L15.0821 13.5601C15.084 13.2246 15.085 13.0534 15.0891 12.9569C15.0913 12.9058 15.0945 12.8706 15.1005 12.8408C15.106 12.8132 15.1136 12.7922 15.1203 12.7738C15.1211 12.7717 15.1218 12.7697 15.1225 12.7676L15.2166 12.8015L15.1257 14.5199ZM15.1257 14.5199L15.0426 14.5012C15.0019 14.6826 14.9183 14.8776 14.8144 15.0334C14.5563 15.42 14.1673 15.6665 13.6947 15.7408C13.6854 15.7423 13.6657 15.7445 13.5537 15.7461C13.4441 15.7477 13.2512 15.7488 12.9009 15.7496C12.2006 15.7511 10.8733 15.7512 8.32981 15.7512C5.78633 15.7512 4.459 15.7511 3.7587 15.7496C3.40841 15.7488 3.21555 15.7477 3.10596 15.7461C2.99389 15.7445 2.97422 15.7423 2.96492 15.7408C2.49235 15.6665 2.10336 15.42 1.84526 15.0334C1.7413 14.8776 1.65767 14.6826 1.61697 14.5012C1.61575 14.4958 1.61457 14.4906 1.61344 14.4855C1.5972 14.4135 1.59015 14.3822 1.58582 14.288C1.58119 14.1871 1.58019 14.0207 1.57816 13.6807L1.57778 13.6169L1.57743 13.5583C1.57543 13.2241 1.57441 13.0536 1.57029 12.9573C1.56811 12.9062 1.5649 12.8711 1.55899 12.8413C1.55352 12.8138 1.54597 12.7928 1.53935 12.7743C1.53858 12.7722 1.53782 12.7701 1.53708 12.768C1.49337 12.645 1.3884 12.5157 1.27479 12.439C1.2141 12.3981 1.17759 12.3806 1.10557 12.3574L1.10556 12.3574M15.1257 14.5199L1.10556 12.3574M1.10556 12.3574C1.0789 12.3488 1.05572 12.3423 1.02549 12.3385C0.997928 12.335 0.96633 12.3339 0.923307 12.3331C0.895204 12.3325 0.867615 12.3324 0.845611 12.3326C0.834667 12.3327 0.824603 12.3329 0.816319 12.3333L0.815815 12.3333C0.810479 12.3335 0.797977 12.334 0.787209 12.336M1.10556 12.3574L0.380466 12.5798C0.482889 12.4522 0.624938 12.3674 0.787209 12.336M0.787209 12.336L0.806187 12.4342L0.787185 12.3361C0.787193 12.336 0.787201 12.336 0.787209 12.336ZM16.418 14.3683C16.419 14.3511 16.4205 14.3366 16.4217 14.3272L0.25855 12.8068L0.240555 12.8644L0.236052 12.8788L0.236005 12.8939L0.233913 13.5659C0.231745 14.2619 0.233498 14.345 0.259812 14.5445C0.307796 14.9083 0.434927 15.2836 0.620318 15.6099C0.774584 15.8814 1.00271 16.159 1.24876 16.3754C1.37202 16.4838 1.57758 16.63 1.72226 16.7123C2.03907 16.8925 2.41329 17.0213 2.76284 17.0701C2.7726 17.0714 2.78151 17.0728 2.79015 17.0741C2.82845 17.0798 2.86165 17.0847 2.94079 17.0883C3.03444 17.0926 3.19633 17.0952 3.52482 17.0969C4.1203 17.1 5.26934 17.1 7.56675 17.1C7.80819 17.1 8.06231 17.1 8.32981 17.1C8.59731 17.1 8.85143 17.1 9.09287 17.1C11.3903 17.1 12.5393 17.1 13.1348 17.0969C13.4633 17.0952 13.6252 17.0926 13.7188 17.0883C13.798 17.0847 13.8312 17.0798 13.8695 17.0741C13.8781 17.0728 13.887 17.0714 13.8968 17.0701C14.2464 17.0213 14.6225 16.8918 14.9375 16.7122C15.3378 16.4839 15.6977 16.143 15.9514 15.752C16.1154 15.4993 16.2462 15.2071 16.3265 14.9144C16.3707 14.7529 16.4082 14.5299 16.418 14.3683Z" fill="#2988F5" stroke="#2988F5" stroke-width="0.2"/>
</svg>
