<svg xmlns="http://www.w3.org/2000/svg" width="22" height="21" viewBox="0 0 22 21" fill="none">
    <path
            d="M3.29163 18.375V16.625C3.29163 15.6967 3.66037 14.8065 4.31675 14.1501C4.97313 13.4937 5.86337 13.125 6.79163 13.125H10.2916C11.2199 13.125 12.1101 13.4937 12.7665 14.1501C13.4229 14.8065 13.7916 15.6967 13.7916 16.625V18.375M14.6666 2.73875C15.4195 2.93152 16.0868 3.36937 16.5633 3.98328C17.0398 4.59718 17.2985 5.35223 17.2985 6.12938C17.2985 6.90653 17.0398 7.66157 16.5633 8.27548C16.0868 8.88939 15.4195 9.32724 14.6666 9.52M19.0416 18.375V16.625C19.0372 15.8525 18.7773 15.1032 18.3025 14.4939C17.8277 13.8845 17.1646 13.4494 16.4166 13.2563M12.0416 6.125C12.0416 8.058 10.4746 9.625 8.54163 9.625C6.60863 9.625 5.04163 8.058 5.04163 6.125C5.04163 4.192 6.60863 2.625 8.54163 2.625C10.4746 2.625 12.0416 4.192 12.0416 6.125Z"
            stroke="#2988F5" stroke-width="1.5" stroke-linecap="round" stroke-linejoin="round"/>
</svg>