<svg width="18" height="12" viewBox="0 0 18 12" fill="none" xmlns="http://www.w3.org/2000/svg">
    <path d="M11.5556 4.33904L15.4341 2.4487C15.5639 2.38544 15.7082 2.35558 15.8532 2.36195C15.9982 2.36831 16.1391 2.4107 16.2626 2.48508C16.3861 2.55947 16.488 2.66338 16.5587 2.78696C16.6295 2.91054 16.6666 3.0497 16.6667 3.19122V8.80909C16.6666 8.95061 16.6295 9.08977 16.5587 9.21335C16.488 9.33693 16.3861 9.44084 16.2626 9.51523C16.1391 9.58961 15.9982 9.632 15.8532 9.63836C15.7082 9.64473 15.5639 9.61487 15.4341 9.55161L11.5556 7.66127V4.33904Z" stroke="#2988F5" stroke-width="1.5" stroke-linecap="round" stroke-linejoin="round"/>
    <path d="M9.85189 1.01672H3.03708C2.09615 1.01672 1.33337 1.76043 1.33337 2.67783V9.32228C1.33337 10.2397 2.09615 10.9834 3.03708 10.9834H9.85189C10.7928 10.9834 11.5556 10.2397 11.5556 9.32228V2.67783C11.5556 1.76043 10.7928 1.01672 9.85189 1.01672Z" stroke="#2988F5" stroke-width="1.5" stroke-linecap="round" stroke-linejoin="round"/>
</svg>
