<svg width="22" height="14" viewBox="0 0 22 14" fill="none" xmlns="http://www.w3.org/2000/svg">
    <path d="M13.875 4L20.875 4M13.875 7.5L20.2917 7.5M13.875 11C13.875 11 18.0681 11 19.7083 11" stroke="white" stroke-width="2" stroke-linecap="round" stroke-linejoin="round"/>
    <path d="M1.125 13V11.6667C1.125 10.9594 1.40595 10.2811 1.90605 9.78105C2.40615 9.28095 3.08442 9 3.79167 9H6.45833C7.16558 9 7.84385 9.28095 8.34395 9.78105C8.84405 10.2811 9.125 10.9594 9.125 11.6667V13M7.79167 3.66667C7.79167 5.13943 6.59776 6.33333 5.125 6.33333C3.65224 6.33333 2.45833 5.13943 2.45833 3.66667C2.45833 2.19391 3.65224 1 5.125 1C6.59776 1 7.79167 2.19391 7.79167 3.66667Z" stroke="white" stroke-width="2" stroke-linecap="round" stroke-linejoin="round"/>
</svg>
