<svg width="18" height="20" viewBox="0 0 18 20" fill="none" xmlns="http://www.w3.org/2000/svg">
    <path d="M1.5 19V15C1.5 14.2044 1.81607 13.4413 2.37868 12.8787C2.94129 12.3161 3.70435 12 4.5 12H9.5M9.5 12L6.5 15M9.5 12L6.5 9M11.5 1V5C11.5 5.26522 11.6054 5.51957 11.7929 5.70711C11.9804 5.89464 12.2348 6 12.5 6H16.5M11.5 1H4.5C3.96957 1 3.46086 1.21071 3.08579 1.58579C2.71071 1.96086 2.5 2.46957 2.5 3V9M11.5 1L16.5 6M16.5 6V17C16.5 17.5304 16.2893 18.0391 15.9142 18.4142C15.5391 18.7893 15.0304 19 14.5 19H5" stroke="white" stroke-width="2" stroke-linecap="round" stroke-linejoin="round"/>
</svg>
