<svg width="20" height="20" viewBox="0 0 20 20" fill="none" xmlns="http://www.w3.org/2000/svg">
    <path d="M18.411 0.000139831H1.47098C1.28056 -0.00250479 1.09148 0.0323873 0.914542 0.102824C0.737607 0.17326 0.57628 0.27786 0.439774 0.410652C0.303268 0.543443 0.194258 0.701824 0.118968 0.876749C0.043679 1.05167 0.00358496 1.23972 0.000976562 1.43014V18.5701C0.00358496 18.7606 0.043679 18.9486 0.118968 19.1235C0.194258 19.2985 0.303268 19.4568 0.439774 19.5896C0.57628 19.7224 0.737607 19.827 0.914542 19.8975C1.09148 19.9679 1.28056 20.0028 1.47098 20.0001H18.411C18.6014 20.0028 18.7905 19.9679 18.9674 19.8975C19.1443 19.827 19.3057 19.7224 19.4422 19.5896C19.5787 19.4568 19.6877 19.2985 19.763 19.1235C19.8383 18.9486 19.8784 18.7606 19.881 18.5701V1.43014C19.8784 1.23972 19.8383 1.05167 19.763 0.876749C19.6877 0.701824 19.5787 0.543443 19.4422 0.410652C19.3057 0.27786 19.1443 0.17326 18.9674 0.102824C18.7905 0.0323873 18.6014 -0.00250479 18.411 0.000139831ZM6.03098 16.7401H3.03098V7.74014H6.03098V16.7401ZM4.53098 6.48014C4.11724 6.48014 3.72045 6.31578 3.42789 6.02323C3.13533 5.73067 2.97098 5.33388 2.97098 4.92014C2.97098 4.5064 3.13533 4.10961 3.42789 3.81705C3.72045 3.5245 4.11724 3.36014 4.53098 3.36014C4.75067 3.33522 4.97315 3.35699 5.18385 3.42402C5.39455 3.49105 5.58872 3.60183 5.75363 3.7491C5.91855 3.89637 6.0505 4.07682 6.14085 4.27862C6.23119 4.48043 6.27789 4.69904 6.27789 4.92014C6.27789 5.14124 6.23119 5.35985 6.14085 5.56166C6.0505 5.76346 5.91855 5.94391 5.75363 6.09118C5.58872 6.23845 5.39455 6.34923 5.18385 6.41626C4.97315 6.48329 4.75067 6.50505 4.53098 6.48014ZM16.851 16.7401H13.851V11.9101C13.851 10.7001 13.421 9.91014 12.331 9.91014C11.9936 9.91261 11.6652 10.0184 11.3898 10.2133C11.1145 10.4082 10.9055 10.6828 10.791 11.0001C10.7127 11.2352 10.6788 11.4827 10.691 11.7301V16.7301H7.69098V7.73014H10.691V9.00014C10.9635 8.52725 11.3599 8.13766 11.8374 7.87334C12.315 7.60902 12.8555 7.47999 13.401 7.50014C15.401 7.50014 16.851 8.79014 16.851 11.5601V16.7401Z" fill="#373B55"/>
</svg>
