<svg width="21" height="20" viewBox="0 0 21 20" fill="none" xmlns="http://www.w3.org/2000/svg">
    <path d="M10.8811 0C5.3611 0 0.881104 4.48 0.881104 10C0.881104 15.52 5.3611 20 10.8811 20C16.4011 20 20.8811 15.52 20.8811 10C20.8811 4.48 16.4011 0 10.8811 0ZM15.5211 6.8C15.3711 8.38 14.7211 12.22 14.3911 13.99C14.2511 14.74 13.9711 14.99 13.7111 15.02C13.1311 15.07 12.6911 14.64 12.1311 14.27C11.2511 13.69 10.7511 13.33 9.9011 12.77C8.9111 12.12 9.5511 11.76 10.1211 11.18C10.2711 11.03 12.8311 8.7 12.8811 8.49C12.888 8.45819 12.8871 8.42517 12.8784 8.3938C12.8697 8.36244 12.8535 8.33367 12.8311 8.31C12.7711 8.26 12.6911 8.28 12.6211 8.29C12.5311 8.31 11.1311 9.24 8.4011 11.08C8.0011 11.35 7.6411 11.49 7.3211 11.48C6.9611 11.47 6.2811 11.28 5.7711 11.11C5.1411 10.91 4.6511 10.8 4.6911 10.45C4.7111 10.27 4.9611 10.09 5.4311 9.9C8.3511 8.63 10.2911 7.79 11.2611 7.39C14.0411 6.23 14.6111 6.03 14.9911 6.03C15.0711 6.03 15.2611 6.05 15.3811 6.15C15.4811 6.23 15.5111 6.34 15.5211 6.42C15.5111 6.48 15.5311 6.66 15.5211 6.8Z" fill="#373B55"/>
</svg>
