<svg width="106" height="32" viewBox="0 0 106 32" fill="none" xmlns="http://www.w3.org/2000/svg">
    <g clip-path="url(#clip0_2441_39938)">
        <path d="M15.181 16.03C15.4997 16.03 15.7388 16.3064 15.7388 16.5827C15.7388 16.7801 15.6193 16.9776 15.4599 17.017V18.32L14.5435 19.307V21.1232C14.5435 21.2812 14.3841 21.4391 14.2247 21.4391C14.0653 21.4391 13.9059 21.2812 13.9059 21.1232V19.1886C13.9059 19.1491 13.9059 19.1491 13.9059 19.1096C13.9059 19.1096 13.9059 19.1096 13.9458 19.0701L14.7825 18.241V17.1355C14.6232 17.017 14.5036 16.8591 14.5036 16.7012C14.6232 16.2669 14.9021 16.03 15.181 16.03ZM12.1527 0C10.798 0.473792 9.48311 1.18448 8.40729 2.13207C7.25178 3.15862 6.29549 4.42206 5.69781 5.84344C5.29936 6.75154 5.06029 7.69913 4.94075 8.64671C4.66183 11.2921 5.73766 13.6215 7.76977 15.3588C8.08853 15.6351 8.36744 15.872 8.64636 16.1484C8.84559 16.3853 9.04481 16.5432 9.1245 16.8591C9.1245 16.8591 9.12451 16.8986 9.16435 16.8986C9.04481 17.0565 8.92528 17.2145 8.80574 17.2934C8.80574 17.175 8.7659 17.0565 8.72605 16.9776C8.64636 16.7407 8.48698 16.5827 8.3276 16.4248C8.04868 16.1484 7.76977 15.9115 7.451 15.6746C5.29936 13.8189 4.18369 11.4105 4.46261 8.56774C4.58214 7.54119 4.86106 6.59361 5.21967 5.64603C6.25565 3.47448 7.61038 1.93465 9.72218 0.750171C6.89317 1.65827 2.47034 4.46154 1.71328 8.37033C1.67344 8.29137 1.5539 8.09395 1.47421 7.9755C0.358544 10.4234 -0.159445 14.2927 1.07576 16.2669C0.876532 16.1879 0.717151 16.1089 0.677306 15.9905C0.996068 17.4514 1.51406 20.0177 3.70555 19.9782C3.18756 20.0967 2.58988 20.0967 2.23127 20.0177C2.74926 20.9653 3.62586 22.2682 4.90091 22.1893C4.70168 22.3472 4.30323 22.4657 4.06415 22.5051C4.46261 22.9394 5.21967 23.8475 6.45487 23.6896C6.29549 23.8475 6.05642 23.9265 5.69781 23.966C6.25565 24.4003 6.85332 24.7951 7.53069 25.111C7.61038 25.3084 7.72992 25.5058 7.80961 25.7032C6.77363 25.2294 5.81735 24.5582 4.94075 23.8081C5.06029 23.8081 5.13998 23.8081 5.21967 23.7686C4.26338 23.4132 3.82508 22.742 3.38678 22.2682C3.50632 22.2682 3.58601 22.2682 3.6657 22.2288C2.66957 21.755 1.9922 20.4126 1.5539 19.5834C1.67344 19.6229 1.87266 19.6229 1.95235 19.5834C0.796842 18.4779 0.398389 16.7012 0.159317 15.2403C0.239008 15.2798 0.278853 15.3193 0.318698 15.3193C-0.159445 13.1872 -0.0797546 10.3445 1.47421 7.18585C1.51406 7.26482 1.5539 7.3043 1.63359 7.34378C3.10787 3.15862 7.57054 0.355344 12.1527 0ZM18.0498 29.77C17.8108 29.9279 17.6115 30.0858 17.5319 30.3622C17.1733 30.5596 16.9342 30.6781 16.4162 30.757C16.8943 30.836 17.3725 30.7965 17.8506 30.6781C17.8506 30.3622 17.9303 30.0068 18.0498 29.77ZM19.1655 28.4275C19.1655 28.5855 19.1655 28.7829 19.1655 28.8618C19.0061 28.9803 18.7272 29.0987 18.4483 29.1382C18.9264 29.2172 19.4046 29.1777 19.803 28.9803C19.5241 28.8619 19.3647 28.7434 19.1655 28.4275ZM18.1694 29.5331C18.9264 29.77 19.803 29.77 20.6398 29.1382C19.9226 28.7434 19.3249 28.1512 18.9264 27.4405L19.2851 27.1246C19.6835 27.9932 20.4406 28.625 21.3969 29.0198C20.7992 29.77 19.803 30.1648 18.9663 30.1253C18.6475 30.4806 18.5678 31.1124 18.8468 31.5072C17.2928 31.7046 16.3763 31.9415 15.3404 31.1124L15.4201 30.6386C15.8185 30.9149 16.0576 31.1124 16.5357 31.1913C16.8545 31.2308 17.1733 31.2308 17.492 31.1913C17.7709 31.1518 17.9702 31.1124 18.2491 31.1124C18.2092 30.7175 18.2889 30.2437 18.5678 29.9674C18.4085 29.77 18.2491 29.691 18.1694 29.5331ZM9.68234 29.77C9.92141 29.9279 10.1206 30.0858 10.2003 30.3622C10.5589 30.5596 10.798 30.6781 11.316 30.757C10.8379 30.836 10.3597 30.7965 9.88157 30.6781C9.88157 30.3622 9.80187 30.0068 9.68234 29.77ZM8.56667 28.4275C8.56667 28.5855 8.56667 28.7829 8.56667 28.8618C8.72605 28.9803 9.00497 29.0987 9.28389 29.1382C8.80574 29.2172 8.3276 29.1777 7.92915 28.9803C8.20806 28.8619 8.36744 28.7434 8.56667 28.4275ZM9.5628 29.5331C8.80574 29.77 7.92915 29.77 7.0924 29.1382C7.80961 28.7434 8.40729 28.1512 8.80574 27.4405L8.44713 27.1246C8.04868 27.9932 7.29162 28.625 6.33534 29.0198C6.93301 29.77 7.92915 30.1648 8.7659 30.1253C9.08466 30.4806 9.16435 31.1124 8.88543 31.5072C10.4394 31.7046 11.3558 31.9415 12.3918 31.1124L12.3121 30.6386C11.9137 30.9149 11.6746 31.1124 11.1965 31.1913C10.8777 31.2308 10.5589 31.2308 10.2402 31.1913C9.96126 31.1518 9.76203 31.1124 9.48311 31.1124C9.52296 30.7175 9.44327 30.2437 9.16435 29.9674C9.36358 29.77 9.48311 29.691 9.5628 29.5331ZM18.5678 16.8986C18.6874 17.0565 18.8069 17.2145 18.9264 17.2934C18.9264 17.175 18.9663 17.0565 19.0061 16.9776C19.0858 16.7407 19.2452 16.5827 19.4046 16.4248C19.6835 16.1484 19.9624 15.9115 20.2812 15.6746C22.4328 13.8189 23.5485 11.4105 23.2696 8.56774C23.15 7.54119 22.8711 6.59361 22.5125 5.64603C21.4765 3.43499 20.1218 1.89517 18.01 0.750171C20.839 1.65827 25.3017 4.42206 26.0587 8.33085C26.0986 8.25188 26.2181 8.05447 26.2978 7.93602C27.4135 10.3839 27.8916 14.2927 26.6963 16.2274C26.8955 16.1484 27.0549 16.0695 27.0947 15.951C26.776 17.4119 26.258 19.9782 24.0665 19.9388C24.5845 20.0572 25.1822 20.0572 25.5408 19.9782C25.0228 20.9258 24.1462 22.2288 22.8711 22.1498C23.0704 22.3077 23.4688 22.4262 23.7079 22.4657C23.3094 22.9 22.5524 23.8081 21.3172 23.6501C21.4765 23.8081 21.7156 23.887 22.0742 23.9265C21.5164 24.3608 20.9187 24.7556 20.2413 25.0715C20.1616 25.2689 20.0421 25.4663 19.9624 25.6638C20.9984 25.19 21.9547 24.5188 22.8313 23.7686C22.7117 23.7686 22.6321 23.7686 22.5524 23.7291C23.5086 23.3738 23.9469 22.7026 24.3852 22.2288C24.2657 22.2288 24.186 22.2288 24.1063 22.1893C25.1025 21.7155 25.7798 20.3731 26.2181 19.5439C26.0986 19.5834 25.8994 19.5834 25.8197 19.5439C26.9752 18.4384 27.3736 16.6617 27.6127 15.2008C27.533 15.2403 27.4932 15.2798 27.4533 15.2798C27.9315 13.1477 27.8518 10.305 26.2978 7.14637C26.258 7.22533 26.2181 7.26482 26.1384 7.3043C24.6642 3.15862 20.2015 0.355344 15.5794 0C16.9342 0.473792 18.2491 1.18448 19.3249 2.13207C20.4804 3.15862 21.4367 4.42206 22.0344 5.84344C22.4328 6.75154 22.6719 7.69913 22.7914 8.64671C23.0704 11.2921 21.9945 13.6215 19.9624 15.3588C19.6437 15.6351 19.3647 15.872 19.0858 16.1484C18.8866 16.3853 18.7272 16.5827 18.5678 16.8986C18.6077 16.8591 18.6077 16.8591 18.5678 16.8986ZM13.3879 13.7795C12.9497 13.6215 12.7903 13.1872 12.9895 12.6739C12.9895 13.0293 13.109 13.2662 13.3879 13.3846C13.6669 13.1872 13.7466 12.9503 13.6669 12.595C13.8661 13.1083 13.7864 13.6215 13.3879 13.7795ZM16.6553 11.6869C16.4162 11.5684 16.217 11.5289 15.9779 11.5289C15.8584 11.5289 15.7388 11.45 15.7787 11.2131C15.5396 11.7264 15.4599 12.0422 14.7825 11.8843C14.3841 11.8053 14.2247 12.1212 14.3044 12.437C14.3442 12.6345 14.4239 12.9108 14.2247 13.1083C14.145 12.7924 13.9458 12.6739 13.7864 12.5555C14.145 13.0293 13.9856 13.3452 13.9059 13.5031C14.7028 13.3452 14.7028 13.9769 14.5833 14.2927C14.7825 14.2927 14.9818 14.3322 15.1013 14.3322C14.9021 13.7005 14.7427 13.0688 14.7028 12.3976C14.7028 12.2791 14.7028 12.2396 14.7825 12.2791C15.2208 12.3581 15.6591 12.2791 15.938 11.8843C16.3763 11.8448 16.735 12.0027 17.0936 12.2396C17.1733 11.5289 17.2131 10.8577 16.3365 10.5814C16.217 10.1865 15.8982 10.0286 15.4599 10.0681C14.9021 9.19947 12.87 10.1076 12.0731 9.55481C11.7941 9.3574 11.7144 9.04154 11.6746 8.72568C11.3957 9.00205 11.1965 9.15998 11.0769 9.55481C10.8777 10.0681 10.9972 10.6998 11.3558 11.1736C11.5949 11.4895 11.9137 11.6869 12.2723 11.7658C12.2324 11.8053 12.1926 11.8448 12.1926 11.8843C11.7543 12.595 11.7941 13.661 11.7941 14.4901C11.9137 14.4507 12.0731 14.4507 12.1926 14.4112C12.0731 14.0164 12.1926 13.582 12.7504 13.5426C12.6707 13.3846 12.5512 13.1083 12.87 12.595C12.6707 12.6739 12.4715 12.8714 12.4317 13.1477C12.2723 12.9108 12.2723 12.7134 12.352 12.516C12.3918 12.3976 12.4317 12.3186 12.4715 12.2396V12.2002C12.87 11.45 14.2247 11.9238 14.5833 10.7788C14.4638 10.9367 14.3044 11.0552 14.1849 11.1341C13.9458 11.2526 13.7864 10.7788 13.4676 10.7788C13.5872 10.8577 13.627 11.0157 13.627 11.1736C13.5872 11.3315 13.5075 11.371 13.3879 11.2526C13.2684 11.1341 13.1887 10.8972 12.9895 10.8577C13.109 10.9762 13.109 11.1341 13.0692 11.2526C13.0293 11.4105 12.9098 11.4895 12.7903 11.3315C12.7106 11.2526 12.6707 11.0946 12.5512 11.0157C12.591 11.2131 12.3918 11.4105 12.1527 11.2921C11.7941 11.1341 11.5949 10.8972 11.4355 10.5814C11.316 10.226 11.316 9.87067 11.4754 9.55481C11.4754 9.55481 11.4754 9.55481 11.4754 9.51533C12.1926 10.8183 14.7825 9.55481 15.1013 10.3839L15.1411 10.5419H15.3005C15.5794 10.5024 15.8584 10.5024 15.8982 10.8577V11.0157L16.0177 11.0552C16.456 11.0552 16.6553 11.3315 16.6553 11.6869ZM12.5512 14.3717C12.6309 14.2138 12.7504 14.1348 12.8301 14.0558C12.7903 14.1743 12.7504 14.2533 12.7106 14.3717C12.6309 14.3717 12.6309 14.3717 12.5512 14.3717ZM14.145 14.3322C14.1052 14.2138 13.9856 14.0558 13.8661 13.9374C14.0653 13.9769 14.2645 14.0953 14.3841 14.3322C14.3044 14.3322 14.1849 14.3322 14.145 14.3322ZM12.9497 14.3322C12.9497 14.2533 12.9895 14.1743 12.9895 14.0953C12.9895 14.1743 12.9895 14.2533 13.0293 14.2927L12.9497 14.3322ZM13.7466 14.3322C13.7466 14.2533 13.7067 14.1348 13.7067 14.0164C13.7864 14.1348 13.8262 14.2138 13.8661 14.3322H13.7466ZM4.14385 10.0286C4.06415 12.4765 5.10013 14.5296 7.25178 16.5038C7.69007 16.9776 7.72992 17.5303 7.8893 18.0041C7.96899 17.9646 8.04868 17.9251 8.12837 17.8462C8.08853 17.6093 8.08853 17.4514 8.04868 17.2934C8.16822 17.3724 8.24791 17.5303 8.3276 17.7277C8.40729 17.6882 8.44713 17.6093 8.52682 17.5698C8.52682 17.4908 8.48698 17.4119 8.48698 17.3329C8.48698 17.2539 8.44713 17.1355 8.40729 17.0565C8.24791 16.6617 7.57054 16.1484 7.25178 15.9115C5.41889 14.4112 4.26338 12.3581 4.14385 10.0286ZM4.22354 13.7005C1.63359 11.4105 2.27112 7.38326 4.26338 5.72499C4.02431 6.67258 3.98446 7.62016 4.104 8.56774C4.22354 7.50171 4.50245 6.51464 4.90091 5.52758C5.37905 4.38258 6.09626 3.27706 7.0127 2.29C5.06029 3.51396 3.02818 5.40913 2.27112 7.54119C1.67344 9.47585 1.95236 12.3186 4.22354 13.7005ZM1.35468 9.55481C0.239008 13.1083 0.597615 17.4908 4.02431 16.5432C1.91251 16.6222 1.15545 15.3193 1.35468 12.3976C1.87266 13.661 3.02818 14.3322 4.06415 14.6876C2.4305 13.5426 1.43437 12.2396 1.35468 9.55481ZM1.31483 17.017C1.83282 19.6624 3.58601 19.7808 4.62199 18.8332C3.42663 19.465 2.58988 18.9122 2.19143 18.0041C3.18756 18.0831 3.6657 17.8067 4.14385 17.4119C3.30709 17.6488 2.39065 17.6882 1.31483 17.017ZM2.98833 20.531C4.22354 22.4262 5.53843 21.5181 5.85719 20.8469C5.29936 21.3207 4.46261 21.3996 4.02431 20.8863C4.5423 20.6495 4.94075 20.2546 5.13998 19.8203C4.50245 20.3336 3.78524 20.531 2.98833 20.531ZM6.33534 21.3207C5.97673 22.0313 5.45874 22.4657 4.78137 22.6631C5.41889 23.3738 6.45487 23.4922 6.85332 22.9394C6.85332 22.821 6.81348 22.742 6.81348 22.6236C6.53456 22.9394 6.13611 23.0184 5.69781 22.742C6.05642 22.3077 6.25564 21.8734 6.33534 21.3207ZM7.21193 24.2424C7.17209 24.0844 7.13224 23.9265 7.0924 23.8475C6.93301 24.045 6.77363 24.1239 6.57441 24.1634C6.85332 24.3213 7.0924 24.3213 7.21193 24.2424ZM4.42276 14.4901C3.98446 16.8986 5.17982 16.6222 5.89704 16.5432C5.21967 16.4248 4.66183 16.1484 4.70168 15.4377C5.06029 15.6746 5.53843 15.7536 5.89704 15.7536C5.02044 15.3983 4.62199 14.727 4.42276 14.4901ZM4.46261 16.8986C4.42276 19.0307 5.73766 18.5174 6.2158 18.0436C5.57828 18.2805 5.06029 18.162 5.02044 17.5698C5.53843 17.6093 5.89704 17.3724 6.13611 17.175C5.10013 17.4514 4.70168 17.096 4.46261 16.8986ZM4.9806 19.0307C5.57828 20.531 6.25564 20.1362 6.6541 19.5834C6.6541 19.5045 6.6541 19.465 6.6541 19.386C6.25564 19.7413 5.85719 19.7808 5.69781 19.4255C6.17595 19.1886 6.37518 18.8332 6.45487 18.5174C5.73766 19.1886 5.21967 19.0701 4.9806 19.0307ZM5.89704 20.531C6.2158 20.9653 6.45487 21.2022 6.6541 21.3207C6.61425 21.0048 6.61425 20.6889 6.61425 20.3731C6.33534 20.5705 6.05642 20.531 5.89704 20.531ZM6.2158 16.5432C6.25565 18.1226 7.0127 17.8067 7.41116 17.6488C7.0127 17.6882 6.57441 17.6093 6.57441 17.1355C6.85332 17.2145 7.05255 17.175 7.29162 17.1355C6.69394 17.017 6.33534 16.6617 6.2158 16.5432ZM6.49472 18.0831C6.57441 18.3595 6.6541 18.5174 6.73379 18.6753V18.5569L6.93301 18.4779C6.93301 18.4384 6.93301 18.4384 6.89317 18.3989C7.25178 18.32 7.37131 18.1226 7.49085 17.9646C6.93301 18.2805 6.61425 18.162 6.49472 18.0831ZM3.50632 7.62016C2.8688 8.80464 2.74926 11.2131 4.18369 12.9108C3.82508 12.4765 3.34694 10.8972 3.54617 9.59429C3.38678 9.08102 3.34694 8.37033 3.50632 7.62016ZM1.91251 14.3322C2.15158 15.3983 2.70941 16.03 3.74539 16.0695C3.34694 15.872 2.98833 15.6746 2.78911 15.3983C3.06802 15.4377 3.34694 15.4377 3.6657 15.3193C2.94849 15.2008 2.39065 14.806 1.91251 14.3322ZM3.34694 18.4384C3.62586 18.6753 3.94462 18.7148 4.30323 18.5569C4.18369 18.5569 4.06415 18.5174 3.98446 18.4384C4.06415 18.3595 4.104 18.241 4.104 18.162C3.90477 18.3595 3.58601 18.4384 3.34694 18.4384ZM4.78137 20.8074C5.06029 20.8469 5.3392 20.8863 5.57828 20.61C5.45874 20.6495 5.37905 20.6495 5.29936 20.61C5.3392 20.4915 5.3392 20.3731 5.29936 20.2546C5.21967 20.4915 5.02044 20.6889 4.78137 20.8074ZM6.25564 22.4657C6.45487 22.4262 6.6541 22.3472 6.73379 22.1893C6.73379 22.1498 6.73379 22.1103 6.73379 22.0313C6.69394 22.0313 6.6541 22.0708 6.61425 22.0313C6.61425 21.9524 6.53456 21.7944 6.45487 21.7155C6.49472 22.0313 6.41503 22.2682 6.25564 22.4657ZM23.6282 10.0286C23.7079 12.4765 22.6719 14.5296 20.5203 16.5038C20.082 16.9776 20.0421 17.5303 19.8827 18.0041C19.803 17.9646 19.7233 17.9251 19.6437 17.8462C19.6835 17.6093 19.6835 17.4514 19.7233 17.2934C19.6038 17.3724 19.5241 17.5303 19.4444 17.7277C19.3647 17.6882 19.3249 17.6093 19.2452 17.5698C19.2452 17.4908 19.2851 17.4119 19.2851 17.3329C19.2851 17.2539 19.3249 17.1355 19.3647 17.0565C19.5241 16.6617 20.2015 16.1484 20.5203 15.9115C22.3531 14.4112 23.429 12.3581 23.6282 10.0286ZM23.4688 13.7005C26.0986 11.371 25.4212 7.34378 23.429 5.68551C23.668 6.63309 23.7079 7.58068 23.5883 8.52826C23.4688 7.46223 23.1899 6.47516 22.7914 5.48809C22.3133 4.3431 21.5961 3.23758 20.6796 2.25051C22.6321 3.47448 24.6642 5.36965 25.4212 7.50171C26.0986 9.47585 25.7798 12.3186 23.4688 13.7005ZM26.3775 9.55481C27.4932 13.1083 27.1346 17.4908 23.7079 16.5432C25.8197 16.6222 26.5767 15.3193 26.3775 12.3976C25.8595 13.661 24.704 14.3322 23.668 14.6876C25.3017 13.5426 26.2978 12.2396 26.3775 9.55481ZM26.4174 17.017C25.8994 19.6624 24.1462 19.7808 23.1102 18.8332C24.3056 19.465 25.1423 18.9122 25.5408 18.0041C24.5446 18.0831 24.0665 17.8067 23.5883 17.4119C24.4649 17.6488 25.3814 17.6882 26.4174 17.017ZM24.7439 20.531C23.5086 22.4262 22.1938 21.5181 21.875 20.8469C22.4328 21.3207 23.2696 21.3996 23.7079 20.8863C23.1899 20.6495 22.7914 20.2546 22.5922 19.8203C23.2696 20.3336 23.9868 20.531 24.7439 20.531ZM21.4367 21.3207C21.7953 21.9919 22.3133 22.4657 22.9907 22.6236C22.3531 23.3343 21.3172 23.4527 20.9187 22.9C20.9187 22.7815 20.9586 22.7025 20.9586 22.5841C21.2375 22.9 21.6359 22.9789 22.0742 22.7025C21.7156 22.3077 21.5164 21.8734 21.4367 21.3207ZM20.5601 24.2424C20.5999 24.0844 20.6398 23.9265 20.6796 23.8475C20.839 24.045 20.9984 24.1239 21.1976 24.1634C20.8789 24.3213 20.6796 24.3213 20.5601 24.2424ZM23.3094 14.4901C23.7477 16.8986 22.5524 16.6222 21.8351 16.5432C22.5125 16.4248 23.0704 16.1484 23.0305 15.4377C22.7117 15.7141 22.1938 15.7536 21.8351 15.7536C22.7117 15.3983 23.1102 14.727 23.3094 14.4901ZM23.2696 16.8986C23.3094 19.0307 21.9945 18.5174 21.5164 18.0436C22.1539 18.2805 22.6719 18.162 22.7117 17.5698C22.1938 17.6093 21.8351 17.3724 21.5961 17.175C22.5922 17.4514 23.0704 17.096 23.2696 16.8986ZM22.7516 19.0307C22.1539 20.531 21.4765 20.1362 21.0781 19.5834C21.0781 19.5045 21.0781 19.465 21.0781 19.386C21.4765 19.7413 21.875 19.7808 22.0344 19.4255C21.5562 19.1886 21.357 18.8332 21.2773 18.5174C21.9547 19.1886 22.5125 19.0701 22.7516 19.0307ZM21.8351 20.531C21.5164 20.9653 21.2773 21.2022 21.0781 21.3207C21.1179 21.0048 21.1179 20.6889 21.1179 20.3731C21.3969 20.5705 21.6758 20.531 21.8351 20.531ZM21.5562 16.5432C21.5164 18.1226 20.7593 17.8067 20.3609 17.6488C20.7593 17.6882 21.1976 17.6093 21.1976 17.1355C20.9187 17.2145 20.7195 17.175 20.4804 17.1355C21.0781 17.017 21.3969 16.6617 21.5562 16.5432ZM21.2773 18.0831C21.1976 18.3595 21.1179 18.5174 21.0382 18.6753V18.5569L20.7992 18.4779C20.7992 18.4384 20.7992 18.4384 20.839 18.3989C20.4804 18.32 20.3609 18.1226 20.2413 17.9646C20.7992 18.2805 21.1179 18.162 21.2773 18.0831ZM24.186 7.62016C24.8235 8.80464 24.9431 11.2131 23.5086 12.9108C23.8673 12.4765 24.3454 10.8972 24.1462 9.59429C24.3454 9.08102 24.4251 8.37033 24.186 7.62016ZM25.7798 14.3322C25.5408 15.3983 24.9829 16.03 23.9469 16.0695C24.3454 15.872 24.704 15.6746 24.9032 15.3983C24.6243 15.4377 24.3454 15.4377 24.0266 15.3193C24.8235 15.2008 25.3814 14.806 25.7798 14.3322ZM24.4251 18.4384C24.1462 18.6753 23.8274 18.7148 23.4688 18.5569C23.5883 18.5569 23.7079 18.5174 23.7876 18.4384C23.7079 18.3595 23.668 18.241 23.668 18.162C23.8673 18.3595 24.1462 18.4384 24.4251 18.4384ZM22.9907 20.8074C22.7117 20.8469 22.4328 20.8863 22.1938 20.61C22.3133 20.6495 22.393 20.6495 22.4727 20.61C22.4328 20.4915 22.4328 20.3731 22.4727 20.2546C22.5125 20.4915 22.7117 20.6889 22.9907 20.8074ZM21.5164 22.4657C21.3172 22.4262 21.1179 22.3472 21.0382 22.1893C21.0382 22.1498 21.0382 22.1103 21.0382 22.0313C21.0781 22.0313 21.1179 22.0708 21.1578 22.0313C21.1578 21.9524 21.2375 21.7944 21.3172 21.7155C21.2375 22.0313 21.3172 22.2682 21.5164 22.4657ZM13.9059 10.305C14.4239 10.5814 14.8224 10.3445 15.1013 10.5024C15.3404 10.6208 15.4599 11.0552 15.1411 11.1341C15.1411 10.8972 14.9419 10.9367 14.8224 10.9367C14.7028 10.9367 14.5833 10.8183 14.5833 10.6998C14.5833 10.6603 14.5833 10.6208 14.6232 10.5814C14.3841 10.6208 14.1052 10.5814 13.9059 10.305ZM11.7543 10.1865C11.7144 10.5814 11.8738 10.8577 12.1926 11.0552C12.1129 10.8972 12.0731 10.7393 12.0332 10.5814C12.591 10.6603 13.1887 10.5419 13.7067 10.305C12.9497 10.5024 12.3121 10.4234 11.7543 10.1865ZM18.2491 23.7291C18.5678 23.887 18.8468 23.887 19.1655 23.8081C19.4843 23.7291 19.7233 23.5712 19.9226 23.3343C20.2015 23.0184 20.2812 22.6631 20.2413 22.3077C20.2015 22.0313 20.082 21.755 19.8827 21.5181C19.9624 21.3601 20.0023 21.2022 20.0421 21.0443C20.082 20.7284 20.082 20.452 19.9624 20.1757C19.8429 19.8993 19.6835 19.7019 19.4843 19.465C19.2452 19.2676 18.9663 19.1491 18.6874 19.0701C18.3686 19.0307 18.0897 19.0701 17.8108 19.1491C17.6115 19.2281 17.4123 19.3465 17.2928 19.465C17.0139 19.307 16.7748 19.2676 16.4959 19.307C16.1373 19.3465 15.7787 19.5045 15.5396 19.7808C15.3404 20.0177 15.2208 20.2941 15.181 20.61C15.181 20.9258 15.2607 21.2022 15.4599 21.4786C15.5396 21.6365 15.7388 21.6365 15.8584 21.5576C16.0177 21.4786 16.0177 21.2812 15.938 21.1627C15.8185 21.0048 15.7787 20.8074 15.7787 20.6889C15.7787 20.4915 15.8584 20.3336 15.9779 20.2151C16.1373 20.0177 16.3365 19.9388 16.5357 19.8993C16.6553 19.8993 16.8146 19.8993 16.9342 19.9388C16.8545 20.0967 16.7748 20.2941 16.735 20.4126C16.6951 20.5705 16.8146 20.7284 16.974 20.7679C17.1334 20.8074 17.2928 20.6889 17.3326 20.531C17.3725 20.3336 17.4522 20.1362 17.5717 20.0572C17.6912 19.8993 17.8905 19.7808 18.01 19.7019C18.2092 19.6229 18.4085 19.6229 18.5678 19.6624C18.7671 19.7019 18.9264 19.7808 19.046 19.8993C19.2054 20.0177 19.3249 20.2151 19.4046 20.3336C19.4843 20.531 19.4843 20.7284 19.4444 20.8863C19.4046 21.0838 19.3249 21.2812 19.2054 21.3996C19.0858 21.5181 18.9264 21.676 18.7671 21.7155C18.6077 21.755 18.528 21.9524 18.5678 22.1103C18.6077 22.2682 18.8069 22.3472 18.9663 22.3077C19.2054 22.2288 19.3647 22.1103 19.4843 21.9524C19.564 22.0708 19.6038 22.1893 19.6038 22.3077C19.6437 22.5446 19.564 22.7025 19.4046 22.9C19.2851 23.0579 19.1257 23.1369 18.9663 23.1763C18.7671 23.2158 18.6077 23.2158 18.4483 23.1369C18.2889 23.0579 18.0897 23.1369 18.0498 23.2948C18.01 23.5317 18.0897 23.6896 18.2491 23.7291ZM17.9702 24.3213C17.9702 24.4398 17.9702 24.5188 17.9702 24.6372V24.7556L17.0936 25.1505L17.0537 25.2294C17.0139 25.3479 16.974 25.4663 16.9342 25.5848C16.8943 25.7032 16.8146 25.8217 16.7748 25.9401L16.6951 26.0191L17.0537 26.8877C16.974 27.0062 16.8545 27.1246 16.7748 27.2036C16.6553 27.322 16.5756 27.401 16.456 27.48L15.5794 27.1246L15.4998 27.2036C15.3802 27.2431 15.2607 27.322 15.1411 27.3615C15.0216 27.401 14.9021 27.4405 14.7825 27.48L14.6232 27.5194L14.2247 28.3881H14.1052C14.0255 28.3881 13.9059 28.3881 13.7864 28.3881C13.6669 28.3881 13.5872 28.3881 13.4676 28.3881H13.3481L12.9497 27.5194L12.7903 27.48C12.6707 27.4405 12.5512 27.401 12.4317 27.3615C12.3121 27.322 12.1926 27.2431 12.0731 27.2036L11.9535 27.1246L11.0769 27.48C10.9574 27.401 10.8379 27.2825 10.7582 27.2036C10.6386 27.0851 10.5589 27.0062 10.4792 26.8877L10.8379 26.0191L10.798 25.9401C10.7582 25.8217 10.6785 25.7032 10.6386 25.5848C10.5988 25.4663 10.5589 25.3479 10.5191 25.2294L10.4792 25.0715L9.60265 24.6767V24.5582C9.60265 24.4793 9.60265 24.3608 9.60265 24.2424C9.60265 24.0844 9.44327 23.9265 9.28389 23.9265C9.1245 23.9265 8.96512 24.0844 8.96512 24.2424C8.96512 24.3608 8.96512 24.4793 8.96512 24.5977C8.96512 24.7162 9.00497 24.8346 9.00497 24.9531L9.04481 25.111L9.96126 25.5058C10.0011 25.5848 10.0409 25.7032 10.0808 25.7822C10.1206 25.8612 10.1605 25.9796 10.2003 26.0586L9.80187 26.9667L9.92141 27.1246C10.0808 27.322 10.2003 27.48 10.3597 27.5984C10.5191 27.7563 10.7183 27.9143 10.8379 28.0327L10.9574 28.1512L11.9137 27.7563C11.9934 27.7958 12.1129 27.8353 12.1926 27.8748C12.2723 27.9143 12.3918 27.9537 12.4715 27.9932L12.87 28.9013L13.0293 28.9408C13.1489 28.9408 13.2684 28.9803 13.3879 28.9803C13.5075 28.9803 13.627 28.9803 13.7466 28.9803C13.8661 28.9803 13.9856 28.9803 14.1052 28.9803C14.2247 28.9803 14.3442 28.9408 14.4638 28.9408L14.6232 28.9013L15.0216 27.9932C15.1013 27.9537 15.2208 27.9143 15.3005 27.8748C15.3802 27.8353 15.4997 27.7958 15.5794 27.7563L16.4959 28.1512L16.6553 28.0327C16.8545 27.8748 17.0139 27.7563 17.1334 27.5984C17.2928 27.4405 17.4522 27.2431 17.5717 27.1246L17.6912 27.0062L17.2928 26.0586C17.3326 25.9796 17.3725 25.8612 17.4123 25.7822C17.4522 25.7032 17.492 25.5848 17.5319 25.5058L18.4483 25.111L18.4881 24.9531C18.4881 24.8346 18.528 24.7162 18.528 24.5977C18.528 24.4793 18.528 24.3608 18.528 24.2424C18.528 24.0844 18.3686 23.9265 18.2092 23.9265C18.0897 24.0844 17.9702 24.2029 17.9702 24.3213ZM9.76203 21.2812C10.2402 19.6229 9.04481 19.7413 8.64636 18.9912C9.00497 19.7808 8.12837 20.61 9.76203 21.2812ZM17.2928 21.7155C17.1733 21.8734 17.0537 22.0313 16.974 22.1103C16.9342 22.1893 16.8545 22.2682 16.8146 22.3077C16.6951 22.2288 16.6154 22.1893 16.4959 22.1103C16.2967 22.0313 16.0974 21.9524 15.8584 21.9129C15.699 21.8734 15.5396 21.9919 15.4998 22.1498C15.4599 22.3077 15.5794 22.4657 15.7388 22.5051C15.8982 22.5446 16.0974 22.5841 16.217 22.6631C16.2967 22.7026 16.3365 22.742 16.4162 22.7815C15.8982 23.3738 15.2607 23.9265 14.5833 24.4398C14.3044 24.6767 14.0255 24.8346 13.7067 25.032C13.627 24.9925 13.5473 24.9136 13.4676 24.8741C13.3083 24.7951 13.1489 24.7951 13.0692 24.9531C12.9895 25.111 12.9895 25.2689 13.1489 25.3479C12.8301 25.5453 12.5114 25.7032 12.1527 25.8217C11.9934 25.9006 11.9137 26.0586 11.9934 26.2165C12.0731 26.3744 12.2324 26.4534 12.3918 26.3744C12.8301 26.177 13.2684 25.9796 13.6669 25.7427C13.8262 25.8217 13.9856 25.9401 14.1052 26.0191C14.4638 26.2165 14.7825 26.4139 15.181 26.5324C15.3404 26.6113 15.5396 26.5324 15.5794 26.3744C15.6591 26.2165 15.5794 26.0191 15.4201 25.9796C15.0615 25.8217 14.7427 25.6638 14.3841 25.5058C14.3442 25.4663 14.2645 25.4269 14.2247 25.4269C14.4638 25.2689 14.663 25.111 14.9021 24.9925C15.5794 24.4793 16.217 23.8475 16.8146 23.2158C16.8545 23.2553 16.8943 23.3343 16.974 23.3738C17.0936 23.5317 17.1733 23.6896 17.2131 23.8081C17.2529 23.9265 17.4522 24.045 17.6115 24.0055C17.7709 23.966 17.8506 23.7686 17.8108 23.6107C17.7311 23.4132 17.6115 23.2158 17.492 23.0579C17.4123 22.9394 17.3326 22.8605 17.2529 22.742C17.3326 22.6631 17.3725 22.5841 17.4522 22.5051C17.5717 22.3472 17.6912 22.1893 17.8108 22.0708C17.8905 21.9129 17.8905 21.755 17.7311 21.676C17.6115 21.5576 17.4123 21.5576 17.2928 21.7155ZM13.1887 23.0579C13.9059 24.1634 13.0293 24.2424 12.9497 24.8741C12.4715 23.8081 13.109 23.6501 13.1887 23.0579ZM10.6386 24.6372C11.7941 25.7032 12.0731 24.7162 12.7903 24.7556C11.7144 23.966 11.3558 24.6767 10.6386 24.6372ZM9.64249 23.5317C10.6785 24.8741 11.1566 23.9265 11.9137 24.0844C10.9175 22.9789 10.3996 23.6896 9.64249 23.5317ZM11.7941 21.6365C11.7543 22.3077 11.0371 22.5446 11.6746 23.6896C11.7144 23.0184 12.6707 22.821 11.7941 21.6365ZM11.2363 20.6495C11.1566 21.3601 10.3597 21.5576 10.9574 22.821C11.1168 22.1103 12.1129 22.0313 11.2363 20.6495ZM8.88543 22.4262C9.76203 23.887 10.3597 22.9394 11.1168 23.2158C10.2003 22.0313 9.60265 22.7026 8.88543 22.4262ZM8.24791 21.2417C8.88543 22.821 9.64249 21.9919 10.3199 22.3472C9.60265 21.0443 8.92528 21.597 8.24791 21.2417ZM10.4394 19.7413C10.3996 20.531 9.60265 20.8074 10.3597 22.0708C10.3597 21.2812 11.4754 21.1232 10.4394 19.7413ZM12.591 22.2682C12.5114 22.9394 11.7543 23.1369 12.352 24.3213C12.4317 23.6107 13.3879 23.5317 12.591 22.2682ZM12.6707 20.3336V21.7944L14.3442 23.4527C14.4638 23.5712 14.663 23.5712 14.7427 23.4527C14.8622 23.3343 14.8622 23.1369 14.7427 23.0579L13.2684 21.597V18.9122L14.2247 17.9646V17.096C14.3841 16.9776 14.5036 16.8196 14.5036 16.6617C14.5036 16.3458 14.2247 16.1089 13.9458 16.1089C13.6669 16.1089 13.3879 16.3853 13.3879 16.6617C13.3879 16.8591 13.5075 17.0565 13.6669 17.096V17.7277L12.7106 18.6753V19.5439L12.0332 18.8727V17.096C12.1926 16.9776 12.3121 16.8196 12.3121 16.6617C12.3121 16.3458 12.0332 16.1089 11.7543 16.1089C11.4754 16.1089 11.1965 16.3853 11.1965 16.6617C11.1965 16.8591 11.316 17.0565 11.4754 17.096V19.1096L12.6707 20.3336ZM15.181 16.4248C15.0615 16.4248 14.9818 16.5038 14.9818 16.6222C14.9818 16.7407 15.0615 16.8196 15.181 16.8196C15.3005 16.8196 15.3802 16.7407 15.3802 16.6222C15.3802 16.5038 15.2607 16.4248 15.181 16.4248ZM13.9059 16.4248C13.7864 16.4248 13.7067 16.5038 13.7067 16.6222C13.7067 16.7407 13.7864 16.8196 13.9059 16.8196C14.0255 16.8196 14.1052 16.7407 14.1052 16.6222C14.1052 16.5038 14.0255 16.4248 13.9059 16.4248ZM11.7144 16.4248C11.5949 16.4248 11.5152 16.5038 11.5152 16.6222C11.5152 16.7407 11.5949 16.8196 11.7144 16.8196C11.834 16.8196 11.9137 16.7407 11.9137 16.6222C11.9137 16.5038 11.834 16.4248 11.7144 16.4248Z" fill="#00598E"/>
        <path d="M13.8661 31.9022C19.3249 29.2963 22.393 25.0717 21.5562 18.0833C19.6437 17.6095 18.4881 16.4645 18.3288 14.5693C17.0139 14.0165 15.4997 13.7007 13.8661 13.7007C12.2324 13.7007 10.7183 13.9771 9.40342 14.5693C9.20419 16.4645 8.08852 17.6095 6.17595 18.0833C5.3392 25.0717 8.40729 29.3358 13.8661 31.9022ZM10.28 15.201C11.4355 14.8062 12.6707 14.6088 13.9059 14.6088C15.1013 14.6088 16.3763 14.8062 17.5319 15.201C17.8905 17.0172 19.046 18.1622 20.7593 18.7545C21.2375 24.44 19.0061 28.3488 13.9458 30.9151C8.84558 28.3488 6.5744 24.44 7.13224 18.794C8.76589 18.2017 9.92141 17.0172 10.28 15.201Z" fill="#6CAF60"/>
        <path d="M34.28 10.3396V10.5418C34.28 10.8199 34.2434 11.0692 34.1703 11.29C34.0972 11.5107 33.9926 11.6986 33.8566 11.8536C33.7222 12.0087 33.5607 12.1275 33.3719 12.21C33.1832 12.2909 32.974 12.3313 32.7444 12.3313C32.5165 12.3313 32.3082 12.2909 32.1195 12.21C31.9324 12.1275 31.77 12.0087 31.6323 11.8536C31.4945 11.6986 31.3874 11.5107 31.3109 11.29C31.2361 11.0692 31.1986 10.8199 31.1986 10.5418V10.3396C31.1986 10.0616 31.2361 9.81304 31.3109 9.59398C31.3857 9.37324 31.4911 9.18536 31.6272 9.03033C31.7649 8.87362 31.9273 8.75483 32.1144 8.67394C32.3031 8.59138 32.5114 8.55009 32.7393 8.55009C32.9689 8.55009 33.1781 8.59138 33.3668 8.67394C33.5556 8.75483 33.718 8.87362 33.854 9.03033C33.9901 9.18536 34.0946 9.37324 34.1678 9.59398C34.2426 9.81304 34.28 10.0616 34.28 10.3396ZM33.6397 10.5418V10.3346C33.6397 10.129 33.6193 9.94784 33.5785 9.79113C33.5394 9.63274 33.4807 9.50046 33.4025 9.3943C33.326 9.28646 33.2316 9.20558 33.1194 9.15165C33.0071 9.09605 32.8805 9.06824 32.7393 9.06824C32.5982 9.06824 32.4723 9.09605 32.3618 9.15165C32.2513 9.20558 32.1569 9.28646 32.0787 9.3943C32.0021 9.50046 31.9435 9.63274 31.9027 9.79113C31.8618 9.94784 31.8414 10.129 31.8414 10.3346V10.5418C31.8414 10.7474 31.8618 10.9294 31.9027 11.0878C31.9435 11.2462 32.003 11.3801 32.0812 11.4897C32.1611 11.5975 32.2564 11.6792 32.3669 11.7348C32.4774 11.7888 32.6033 11.8157 32.7444 11.8157C32.8873 11.8157 33.0139 11.7888 33.1245 11.7348C33.235 11.6792 33.3285 11.5975 33.4051 11.4897C33.4816 11.3801 33.5394 11.2462 33.5785 11.0878C33.6193 10.9294 33.6397 10.7474 33.6397 10.5418Z" fill="#00598E"/>
        <path d="M35.3648 8.39844V8.75483C35.3648 8.86098 35.3452 8.97135 35.3061 9.08594C35.2687 9.19884 35.216 9.30752 35.148 9.41199C35.08 9.51478 35.0017 9.60409 34.9133 9.67992L34.6047 9.48782C34.6744 9.38335 34.7305 9.27298 34.773 9.15671C34.8172 9.03876 34.8393 8.90648 34.8393 8.75988V8.39844H35.3648Z" fill="#00598E"/>
        <path d="M38.4877 11.7778V12.2808H35.9088V11.7778H38.4877ZM38.429 8.99242L36.146 12.2808H35.7175V11.8789L38.0081 8.60064H38.429V8.99242ZM38.1918 8.60064V9.10616H35.7328V8.60064H38.1918Z" fill="#00598E"/>
        <path d="M40.3581 10.6176H39.4118L39.4067 10.1551H40.2331C40.3726 10.1551 40.4907 10.1349 40.5877 10.0944C40.6863 10.0523 40.7611 9.99249 40.8121 9.91498C40.8632 9.83578 40.8887 9.74058 40.8887 9.62937C40.8887 9.50636 40.8649 9.4061 40.8172 9.32858C40.7696 9.25107 40.6965 9.19462 40.5979 9.15924C40.5009 9.12385 40.3768 9.10616 40.2255 9.10616H39.6056V12.2808H38.9654V8.60064H40.2255C40.4295 8.60064 40.6115 8.62002 40.7713 8.65878C40.9329 8.69753 41.0698 8.7582 41.182 8.84076C41.2959 8.92165 41.3818 9.02443 41.4396 9.14913C41.4992 9.27382 41.5289 9.4221 41.5289 9.59398C41.5289 9.74563 41.4924 9.88465 41.4192 10.011C41.3461 10.1357 41.2381 10.2377 41.0953 10.3169C40.9524 10.3961 40.7747 10.4432 40.5622 10.4584L40.3581 10.6176ZM40.33 12.2808H39.2102L39.4985 11.7778H40.33C40.4746 11.7778 40.5953 11.7542 40.6923 11.707C40.7892 11.6582 40.8615 11.5916 40.9091 11.5074C40.9584 11.4214 40.983 11.3212 40.983 11.2066C40.983 11.0869 40.9618 10.9833 40.9193 10.8957C40.8768 10.8064 40.8096 10.7381 40.7178 10.6909C40.6259 10.6421 40.506 10.6176 40.3581 10.6176H39.6388L39.6439 10.1551H40.58L40.7254 10.3295C40.9295 10.3362 41.097 10.3809 41.2279 10.4635C41.3606 10.546 41.4592 10.653 41.5238 10.7845C41.5884 10.9159 41.6207 11.0574 41.6207 11.2091C41.6207 11.4433 41.5689 11.6396 41.4651 11.798C41.3631 11.9564 41.216 12.0769 41.0239 12.1595C40.8317 12.2403 40.6004 12.2808 40.33 12.2808Z" fill="#00598E"/>
        <path d="M44.6186 11.7778V12.2808H42.6469V11.7778H44.6186ZM42.828 8.60064V12.2808H42.1877V8.60064H42.828ZM44.361 10.1374V10.6328H42.6469V10.1374H44.361ZM44.6059 8.60064V9.10616H42.6469V8.60064H44.6059Z" fill="#00598E"/>
        <path d="M45.7034 8.60064V12.2808H45.0632V8.60064H45.7034ZM47.9354 8.60064L46.4304 10.3725L45.5733 11.2723L45.4611 10.6429L46.0733 9.89476L47.1548 8.60064H47.9354ZM47.2467 12.2808L46.0248 10.5368L46.4661 10.1045L48.0068 12.2808H47.2467Z" fill="#00598E"/>
        <path d="M48.9691 8.60064V12.2808H48.3289V8.60064H48.9691Z" fill="#00598E"/>
        <path d="M51.6405 11.333C51.6405 11.2571 51.6286 11.1897 51.6048 11.1307C51.5827 11.0718 51.5428 11.0178 51.4849 10.969C51.4271 10.9201 51.3455 10.8729 51.2401 10.8274C51.1363 10.7803 51.0037 10.7322 50.8421 10.6834C50.6653 10.6294 50.502 10.5696 50.3524 10.5039C50.2044 10.4365 50.0752 10.359 49.9647 10.2714C49.8541 10.1821 49.7683 10.0801 49.707 9.96553C49.6458 9.84926 49.6152 9.7153 49.6152 9.56365C49.6152 9.41368 49.6467 9.27719 49.7096 9.15418C49.7742 9.03117 49.8652 8.92502 49.9825 8.83571C50.1016 8.74472 50.2419 8.67479 50.4034 8.62592C50.565 8.57537 50.7435 8.55009 50.9391 8.55009C51.2146 8.55009 51.4518 8.60064 51.6507 8.70175C51.8514 8.80285 52.0053 8.9385 52.1124 9.10869C52.2213 9.27888 52.2757 9.46676 52.2757 9.67233H51.6405C51.6405 9.55101 51.6142 9.44401 51.5615 9.35133C51.5104 9.25697 51.4322 9.18283 51.3268 9.12891C51.2231 9.07498 51.0913 9.04802 50.9314 9.04802C50.7801 9.04802 50.6542 9.07077 50.5539 9.11627C50.4536 9.16176 50.3787 9.22327 50.3294 9.30078C50.2801 9.37829 50.2555 9.46592 50.2555 9.56365C50.2555 9.63274 50.2716 9.69593 50.3039 9.75322C50.3362 9.80882 50.3855 9.86106 50.4519 9.90993C50.5182 9.95711 50.6015 10.0018 50.7018 10.0439C50.8022 10.086 50.9204 10.1265 51.0564 10.1652C51.2622 10.2259 51.4416 10.2933 51.5946 10.3674C51.7477 10.4399 51.8752 10.5224 51.9772 10.6151C52.0793 10.7078 52.1558 10.8131 52.2068 10.9311C52.2578 11.0473 52.2833 11.1796 52.2833 11.3279C52.2833 11.4829 52.2519 11.6228 52.189 11.7475C52.126 11.8705 52.0359 11.9758 51.9186 12.0634C51.8029 12.1494 51.6635 12.2159 51.5002 12.2631C51.3387 12.3086 51.1584 12.3313 50.9595 12.3313C50.7809 12.3313 50.6049 12.3078 50.4315 12.2606C50.2597 12.2134 50.1033 12.1418 49.9621 12.0457C49.821 11.948 49.7087 11.8267 49.6254 11.6818C49.5421 11.5352 49.5004 11.3641 49.5004 11.1687H50.1407C50.1407 11.2883 50.1611 11.3902 50.2019 11.4745C50.2444 11.5587 50.3031 11.6278 50.3779 11.6818C50.4527 11.734 50.5394 11.7727 50.6381 11.798C50.7384 11.8233 50.8455 11.8359 50.9595 11.8359C51.1091 11.8359 51.2341 11.8149 51.3344 11.7727C51.4365 11.7306 51.513 11.6716 51.564 11.5958C51.615 11.52 51.6405 11.4324 51.6405 11.333Z" fill="#00598E"/>
        <path d="M54.2992 8.60064V12.2808H53.664V8.60064H54.2992ZM55.4649 8.60064V9.10616H52.5085V8.60064H55.4649Z" fill="#00598E"/>
        <path d="M58.7663 10.3396V10.5418C58.7663 10.8199 58.7297 11.0692 58.6566 11.29C58.5835 11.5107 58.4789 11.6986 58.3429 11.8536C58.2085 12.0087 58.047 12.1275 57.8582 12.21C57.6695 12.2909 57.4603 12.3313 57.2307 12.3313C57.0029 12.3313 56.7945 12.2909 56.6058 12.21C56.4187 12.1275 56.2563 12.0087 56.1186 11.8536C55.9809 11.6986 55.8737 11.5107 55.7972 11.29C55.7224 11.0692 55.685 10.8199 55.685 10.5418V10.3396C55.685 10.0616 55.7224 9.81304 55.7972 9.59398C55.872 9.37324 55.9774 9.18536 56.1135 9.03033C56.2512 8.87362 56.4136 8.75483 56.6007 8.67394C56.7894 8.59138 56.9978 8.55009 57.2256 8.55009C57.4552 8.55009 57.6644 8.59138 57.8531 8.67394C58.0419 8.75483 58.2043 8.87362 58.3403 9.03033C58.4764 9.18536 58.5809 9.37324 58.6541 9.59398C58.7289 9.81304 58.7663 10.0616 58.7663 10.3396ZM58.1261 10.5418V10.3346C58.1261 10.129 58.1057 9.94784 58.0648 9.79113C58.0257 9.63274 57.9671 9.50046 57.8888 9.3943C57.8123 9.28646 57.7179 9.20558 57.6057 9.15165C57.4935 9.09605 57.3668 9.06824 57.2256 9.06824C57.0845 9.06824 56.9587 9.09605 56.8481 9.15165C56.7376 9.20558 56.6432 9.28646 56.565 9.3943C56.4885 9.50046 56.4298 9.63274 56.389 9.79113C56.3482 9.94784 56.3278 10.129 56.3278 10.3346V10.5418C56.3278 10.7474 56.3482 10.9294 56.389 11.0878C56.4298 11.2462 56.4893 11.3801 56.5675 11.4897C56.6475 11.5975 56.7427 11.6792 56.8532 11.7348C56.9638 11.7888 57.0896 11.8157 57.2307 11.8157C57.3736 11.8157 57.5003 11.7888 57.6108 11.7348C57.7213 11.6792 57.8149 11.5975 57.8914 11.4897C57.9679 11.3801 58.0257 11.2462 58.0648 11.0878C58.1057 10.9294 58.1261 10.7474 58.1261 10.5418Z" fill="#00598E"/>
        <path d="M62.2744 8.60064V12.2808H61.6341L59.9684 9.64453V12.2808H59.3282V8.60064H59.9684L61.6392 11.242V8.60064H62.2744Z" fill="#00598E"/>
        <path d="M64.1812 8.60064H65.4949C65.7772 8.60064 66.0178 8.64277 66.2167 8.72702C66.4157 8.81127 66.5679 8.93597 66.6733 9.1011C66.7805 9.26455 66.834 9.46676 66.834 9.70772C66.834 9.89139 66.8 10.0532 66.732 10.193C66.664 10.3329 66.5679 10.4508 66.4438 10.5469C66.3196 10.6412 66.1717 10.7145 65.9999 10.7668L65.8061 10.8603H64.6251L64.62 10.3573H65.5051C65.6581 10.3573 65.7857 10.3303 65.8877 10.2764C65.9897 10.2225 66.0662 10.1492 66.1173 10.0565C66.17 9.96216 66.1963 9.85601 66.1963 9.73805C66.1963 9.60999 66.1708 9.49877 66.1198 9.40441C66.0705 9.30836 65.994 9.23506 65.8902 9.18451C65.7865 9.13228 65.6547 9.10616 65.4949 9.10616H64.8215V12.2808H64.1812V8.60064ZM66.3009 12.2808L65.4286 10.6278L66.0994 10.6252L66.9845 12.2479V12.2808H66.3009Z" fill="#00598E"/>
        <path d="M69.8243 11.7778V12.2808H67.8525V11.7778H69.8243ZM68.0336 8.60064V12.2808H67.3934V8.60064H68.0336ZM69.5666 10.1374V10.6328H67.8525V10.1374H69.5666ZM69.8115 8.60064V9.10616H67.8525V8.60064H69.8115Z" fill="#00598E"/>
        <path d="M72.2227 11.333C72.2227 11.2571 72.2108 11.1897 72.187 11.1307C72.1649 11.0718 72.1249 11.0178 72.0671 10.969C72.0093 10.9201 71.9277 10.8729 71.8222 10.8274C71.7185 10.7803 71.5859 10.7322 71.4243 10.6834C71.2475 10.6294 71.0842 10.5696 70.9346 10.5039C70.7866 10.4365 70.6574 10.359 70.5469 10.2714C70.4363 10.1821 70.3504 10.0801 70.2892 9.96553C70.228 9.84926 70.1974 9.7153 70.1974 9.56365C70.1974 9.41368 70.2289 9.27719 70.2918 9.15418C70.3564 9.03117 70.4474 8.92502 70.5647 8.83571C70.6837 8.74472 70.824 8.67479 70.9856 8.62592C71.1471 8.57537 71.3257 8.55009 71.5213 8.55009C71.7967 8.55009 72.034 8.60064 72.2329 8.70175C72.4336 8.80285 72.5875 8.9385 72.6946 9.10869C72.8035 9.27888 72.8579 9.46676 72.8579 9.67233H72.2227C72.2227 9.55101 72.1964 9.44401 72.1436 9.35133C72.0926 9.25697 72.0144 9.18283 71.909 9.12891C71.8052 9.07498 71.6735 9.04802 71.5136 9.04802C71.3623 9.04802 71.2364 9.07077 71.1361 9.11627C71.0358 9.16176 70.9609 9.22327 70.9116 9.30078C70.8623 9.37829 70.8376 9.46592 70.8376 9.56365C70.8376 9.63274 70.8538 9.69593 70.8861 9.75322C70.9184 9.80882 70.9677 9.86106 71.0341 9.90993C71.1004 9.95711 71.1837 10.0018 71.284 10.0439C71.3844 10.086 71.5025 10.1265 71.6386 10.1652C71.8444 10.2259 72.0238 10.2933 72.1768 10.3674C72.3299 10.4399 72.4574 10.5224 72.5594 10.6151C72.6615 10.7078 72.738 10.8131 72.789 10.9311C72.84 11.0473 72.8655 11.1796 72.8655 11.3279C72.8655 11.4829 72.8341 11.6228 72.7711 11.7475C72.7082 11.8705 72.6181 11.9758 72.5008 12.0634C72.3851 12.1494 72.2457 12.2159 72.0824 12.2631C71.9209 12.3086 71.7406 12.3313 71.5417 12.3313C71.3631 12.3313 71.1871 12.3078 71.0136 12.2606C70.8419 12.2134 70.6854 12.1418 70.5443 12.0457C70.4032 11.948 70.2909 11.8267 70.2076 11.6818C70.1243 11.5352 70.0826 11.3641 70.0826 11.1687H70.7229C70.7229 11.2883 70.7433 11.3902 70.7841 11.4745C70.8266 11.5587 70.8853 11.6278 70.9601 11.6818C71.0349 11.734 71.1216 11.7727 71.2203 11.798C71.3206 11.8233 71.4277 11.8359 71.5417 11.8359C71.6913 11.8359 71.8163 11.8149 71.9166 11.7727C72.0187 11.7306 72.0952 11.6716 72.1462 11.5958C72.1972 11.52 72.2227 11.4324 72.2227 11.333Z" fill="#00598E"/>
        <path d="M74.764 10.9083H73.7973V10.4053H74.764C74.9324 10.4053 75.0684 10.3784 75.1721 10.3244C75.2759 10.2705 75.3515 10.1964 75.3992 10.102C75.4485 10.006 75.4731 9.89645 75.4731 9.77344C75.4731 9.65717 75.4485 9.54848 75.3992 9.44738C75.3515 9.34459 75.2759 9.26203 75.1721 9.19968C75.0684 9.13733 74.9324 9.10616 74.764 9.10616H73.9937V12.2808H73.3534V8.60064H74.764C75.0514 8.60064 75.2954 8.65119 75.4961 8.7523C75.6985 8.85172 75.8524 8.98989 75.9578 9.16682C76.0632 9.34207 76.1159 9.54259 76.1159 9.76838C76.1159 10.006 76.0632 10.2099 75.9578 10.3801C75.8524 10.5502 75.6985 10.6808 75.4961 10.7718C75.2954 10.8628 75.0514 10.9083 74.764 10.9083Z" fill="#00598E"/>
        <path d="M78.6955 8.60064H79.3332V11.06C79.3332 11.3397 79.272 11.5739 79.1495 11.7626C79.0271 11.9514 78.8604 12.0938 78.6496 12.1898C78.4404 12.2842 78.2066 12.3313 77.9481 12.3313C77.6811 12.3313 77.4431 12.2842 77.2339 12.1898C77.0247 12.0938 76.8598 11.9514 76.739 11.7626C76.62 11.5739 76.5605 11.3397 76.5605 11.06V8.60064H77.1982V11.06C77.1982 11.2369 77.2288 11.3827 77.29 11.4972C77.3512 11.6101 77.438 11.6936 77.5502 11.7475C77.6624 11.8014 77.7951 11.8284 77.9481 11.8284C78.1012 11.8284 78.2329 11.8014 78.3435 11.7475C78.4557 11.6936 78.5424 11.6101 78.6037 11.4972C78.6649 11.3827 78.6955 11.2369 78.6955 11.06V8.60064Z" fill="#00598E"/>
        <path d="M81.3439 10.6176H80.3976L80.3925 10.1551H81.2189C81.3584 10.1551 81.4766 10.1349 81.5735 10.0944C81.6721 10.0523 81.7469 9.99249 81.798 9.91498C81.849 9.83578 81.8745 9.74058 81.8745 9.62937C81.8745 9.50636 81.8507 9.4061 81.8031 9.32858C81.7554 9.25107 81.6823 9.19462 81.5837 9.15924C81.4868 9.12385 81.3626 9.10616 81.2113 9.10616H80.5914V12.2808H79.9512V8.60064H81.2113C81.4153 8.60064 81.5973 8.62002 81.7571 8.65878C81.9187 8.69753 82.0556 8.7582 82.1678 8.84076C82.2818 8.92165 82.3676 9.02443 82.4255 9.14913C82.485 9.27382 82.5147 9.4221 82.5147 9.59398C82.5147 9.74563 82.4782 9.88465 82.405 10.011C82.3319 10.1357 82.2239 10.2377 82.0811 10.3169C81.9383 10.3961 81.7605 10.4432 81.548 10.4584L81.3439 10.6176ZM81.3159 12.2808H80.1961L80.4843 11.7778H81.3159C81.4604 11.7778 81.5811 11.7542 81.6781 11.707C81.775 11.6582 81.8473 11.5916 81.8949 11.5074C81.9442 11.4214 81.9689 11.3212 81.9689 11.2066C81.9689 11.0869 81.9476 10.9833 81.9051 10.8957C81.8626 10.8064 81.7954 10.7381 81.7036 10.6909C81.6118 10.6421 81.4919 10.6176 81.3439 10.6176H80.6246L80.6297 10.1551H81.5658L81.7112 10.3295C81.9153 10.3362 82.0828 10.3809 82.2137 10.4635C82.3464 10.546 82.445 10.653 82.5096 10.7845C82.5742 10.9159 82.6066 11.0574 82.6066 11.2091C82.6066 11.4433 82.5547 11.6396 82.451 11.798C82.3489 11.9564 82.2018 12.0769 82.0097 12.1595C81.8175 12.2403 81.5862 12.2808 81.3159 12.2808Z" fill="#00598E"/>
        <path d="M85.4999 11.7778V12.2808H83.6352V11.7778H85.4999ZM83.8138 8.60064V12.2808H83.1735V8.60064H83.8138Z" fill="#00598E"/>
        <path d="M86.6 8.60064V12.2808H85.9597V8.60064H86.6Z" fill="#00598E"/>
        <path d="M87.9577 8.60064V12.2808H87.3175V8.60064H87.9577ZM90.1896 8.60064L88.6847 10.3725L87.8276 11.2723L87.7154 10.6429L88.3276 9.89476L89.4091 8.60064H90.1896ZM89.5009 12.2808L88.2791 10.5368L88.7204 10.1045L90.2611 12.2808H89.5009Z" fill="#00598E"/>
        <path d="M91.9861 9.09099L90.8765 12.2808H90.2057L91.6035 8.60064H92.032L91.9861 9.09099ZM92.9146 12.2808L91.8024 9.09099L91.754 8.60064H92.1851L93.588 12.2808H92.9146ZM92.861 10.9159V11.4189H90.8408V10.9159H92.861Z" fill="#00598E"/>
        <path d="M95.8793 11.333C95.8793 11.2571 95.8674 11.1897 95.8436 11.1307C95.8215 11.0718 95.7815 11.0178 95.7237 10.969C95.6659 10.9201 95.5843 10.8729 95.4788 10.8274C95.3751 10.7803 95.2425 10.7322 95.0809 10.6834C94.9041 10.6294 94.7408 10.5696 94.5912 10.5039C94.4432 10.4365 94.314 10.359 94.2034 10.2714C94.0929 10.1821 94.007 10.0801 93.9458 9.96553C93.8846 9.84926 93.854 9.7153 93.854 9.56365C93.854 9.41368 93.8854 9.27719 93.9484 9.15418C94.013 9.03117 94.104 8.92502 94.2213 8.83571C94.3403 8.74472 94.4806 8.67479 94.6422 8.62592C94.8037 8.57537 94.9823 8.55009 95.1778 8.55009C95.4533 8.55009 95.6906 8.60064 95.8895 8.70175C96.0902 8.80285 96.2441 8.9385 96.3512 9.10869C96.46 9.27888 96.5145 9.46676 96.5145 9.67233H95.8793C95.8793 9.55101 95.853 9.44401 95.8002 9.35133C95.7492 9.25697 95.671 9.18283 95.5656 9.12891C95.4618 9.07498 95.33 9.04802 95.1702 9.04802C95.0189 9.04802 94.893 9.07077 94.7927 9.11627C94.6923 9.16176 94.6175 9.22327 94.5682 9.30078C94.5189 9.37829 94.4942 9.46592 94.4942 9.56365C94.4942 9.63274 94.5104 9.69593 94.5427 9.75322C94.575 9.80882 94.6243 9.86106 94.6906 9.90993C94.757 9.95711 94.8403 10.0018 94.9406 10.0439C95.041 10.086 95.1591 10.1265 95.2952 10.1652C95.5009 10.2259 95.6804 10.2933 95.8334 10.3674C95.9865 10.4399 96.114 10.5224 96.216 10.6151C96.318 10.7078 96.3946 10.8131 96.4456 10.9311C96.4966 11.0473 96.5221 11.1796 96.5221 11.3279C96.5221 11.4829 96.4907 11.6228 96.4277 11.7475C96.3648 11.8705 96.2747 11.9758 96.1573 12.0634C96.0417 12.1494 95.9023 12.2159 95.739 12.2631C95.5775 12.3086 95.3972 12.3313 95.1983 12.3313C95.0197 12.3313 94.8437 12.3078 94.6702 12.2606C94.4985 12.2134 94.342 12.1418 94.2009 12.0457C94.0598 11.948 93.9475 11.8267 93.8642 11.6818C93.7809 11.5352 93.7392 11.3641 93.7392 11.1687H94.3795C94.3795 11.2883 94.3999 11.3902 94.4407 11.4745C94.4832 11.5587 94.5419 11.6278 94.6167 11.6818C94.6915 11.734 94.7782 11.7727 94.8769 11.798C94.9772 11.8233 95.0843 11.8359 95.1983 11.8359C95.3479 11.8359 95.4729 11.8149 95.5732 11.7727C95.6753 11.7306 95.7518 11.6716 95.8028 11.5958C95.8538 11.52 95.8793 11.4324 95.8793 11.333Z" fill="#00598E"/>
        <path d="M97.6936 8.60064V12.2808H97.0534V8.60064H97.6936Z" fill="#00598E"/>
        <path d="M31.9588 14.0595V17.7396H31.3185V14.0595H31.9588ZM34.1907 14.0595L32.6857 15.8313L31.8287 16.7311L31.7165 16.1017L32.3286 15.3536L33.4102 14.0595H34.1907ZM33.502 17.7396L32.2802 15.9956L32.7215 15.5634L34.2621 17.7396H33.502Z" fill="#00598E"/>
        <path d="M35.9872 14.5498L34.8776 17.7396H34.2067L35.6046 14.0595H36.0331L35.9872 14.5498ZM36.9157 17.7396L35.8035 14.5498L35.7551 14.0595H36.1861L37.5891 17.7396H36.9157ZM36.8621 16.3747V16.8777H34.8419V16.3747H36.8621Z" fill="#00598E"/>
        <path d="M38.1867 14.0595H38.758L39.8319 16.8979L40.9033 14.0595H41.4746L40.0564 17.7396H39.6024L38.1867 14.0595ZM37.9265 14.0595H38.4698L38.5642 16.5163V17.7396H37.9265V14.0595ZM41.1915 14.0595H41.7374V17.7396H41.0971V16.5163L41.1915 14.0595Z" fill="#00598E"/>
        <path d="M43.8119 16.0765H42.8655L42.8604 15.6139H43.6869C43.8263 15.6139 43.9445 15.5937 44.0414 15.5533C44.1401 15.5111 44.2149 15.4513 44.2659 15.3738C44.3169 15.2946 44.3424 15.1994 44.3424 15.0882C44.3424 14.9652 44.3186 14.8649 44.271 14.7874C44.2234 14.7099 44.1503 14.6534 44.0516 14.6181C43.9547 14.5827 43.8306 14.565 43.6792 14.565H43.0594V17.7396H42.4191V14.0595H43.6792C43.8833 14.0595 44.0652 14.0788 44.2251 14.1176C44.3866 14.1564 44.5235 14.217 44.6358 14.2996C44.7497 14.3805 44.8356 14.4833 44.8934 14.608C44.9529 14.7326 44.9827 14.8809 44.9827 15.0528C44.9827 15.2045 44.9461 15.3435 44.873 15.4699C44.7999 15.5945 44.6919 15.6965 44.549 15.7757C44.4062 15.8549 44.2285 15.9021 44.0159 15.9172L43.8119 16.0765ZM43.7838 17.7396H42.664L42.9523 17.2366H43.7838C43.9284 17.2366 44.0491 17.213 44.146 17.1659C44.2429 17.117 44.3152 17.0504 44.3628 16.9662C44.4122 16.8802 44.4368 16.78 44.4368 16.6654C44.4368 16.5458 44.4156 16.4421 44.373 16.3545C44.3305 16.2652 44.2634 16.197 44.1715 16.1498C44.0797 16.1009 43.9598 16.0765 43.8119 16.0765H43.0925L43.0976 15.6139H44.0338L44.1792 15.7883C44.3832 15.7951 44.5507 15.8397 44.6817 15.9223C44.8143 16.0049 44.913 16.1119 44.9776 16.2433C45.0422 16.3747 45.0745 16.5163 45.0745 16.6679C45.0745 16.9021 45.0226 17.0985 44.9189 17.2568C44.8169 17.4152 44.6698 17.5357 44.4776 17.6183C44.2855 17.6992 44.0542 17.7396 43.7838 17.7396Z" fill="#00598E"/>
        <path d="M47.0878 14.5498L45.9782 17.7396H45.3073L46.7052 14.0595H47.1337L47.0878 14.5498ZM48.0163 17.7396L46.9041 14.5498L46.8557 14.0595H47.2868L48.6897 17.7396H48.0163ZM47.9627 16.3747V16.8777H45.9425V16.3747H47.9627Z" fill="#00598E"/>
        <path d="M51.8381 15.8591V17.2644C51.7854 17.3335 51.7029 17.4093 51.5906 17.4919C51.4801 17.5728 51.333 17.6427 51.1494 17.7017C50.9657 17.7607 50.737 17.7902 50.4632 17.7902C50.2302 17.7902 50.0168 17.7514 49.8229 17.6739C49.6291 17.5947 49.4616 17.4793 49.3204 17.3276C49.181 17.176 49.073 16.9915 48.9965 16.7741C48.92 16.555 48.8817 16.3056 48.8817 16.0259V15.7706C48.8817 15.4926 48.9166 15.2449 48.9863 15.0275C49.0577 14.8085 49.1597 14.6231 49.2924 14.4715C49.425 14.3198 49.5849 14.2052 49.7719 14.1277C49.9607 14.0485 50.1741 14.0089 50.4122 14.0089C50.7166 14.0089 50.9682 14.0595 51.1672 14.1606C51.3679 14.26 51.5226 14.3982 51.6315 14.5751C51.7403 14.752 51.8092 14.9542 51.8381 15.1817H51.2106C51.1902 15.0536 51.1502 14.9391 51.0907 14.838C51.0329 14.7369 50.9495 14.6577 50.8407 14.6004C50.7336 14.5414 50.5941 14.5119 50.4224 14.5119C50.2744 14.5119 50.1443 14.5397 50.0321 14.5953C49.9199 14.6509 49.8263 14.7326 49.7515 14.8405C49.6784 14.9483 49.6231 15.0798 49.5857 15.2348C49.5483 15.3898 49.5296 15.5667 49.5296 15.7656V16.0259C49.5296 16.2281 49.5509 16.4076 49.5934 16.5643C49.6376 16.721 49.7005 16.8533 49.7821 16.9611C49.8655 17.069 49.9666 17.1507 50.0857 17.2063C50.2047 17.2602 50.3391 17.2872 50.4887 17.2872C50.6349 17.2872 50.7548 17.2754 50.8484 17.2518C50.9419 17.2265 51.0159 17.197 51.0703 17.1633C51.1264 17.1279 51.1698 17.0942 51.2004 17.0622V16.3318H50.4275V15.8591H51.8381Z" fill="#00598E"/>
        <path d="M52.9917 13.8573V14.2136C52.9917 14.3198 52.9722 14.4302 52.9331 14.5448C52.8957 14.6577 52.8429 14.7663 52.7749 14.8708C52.7069 14.9736 52.6287 15.0629 52.5402 15.1387L52.2316 14.9466C52.3013 14.8422 52.3574 14.7318 52.4 14.6155C52.4442 14.4976 52.4663 14.3653 52.4663 14.2187V13.8573H52.9917Z" fill="#00598E"/>
        <path d="M54.6581 14.5498L53.5485 17.7396H52.8777L54.2755 14.0595H54.704L54.6581 14.5498ZM55.5866 17.7396L54.4745 14.5498L54.426 14.0595H54.8571L56.26 17.7396H55.5866ZM55.533 16.3747V16.8777H53.5128V16.3747H55.533Z" fill="#00598E"/>
        <path d="M58.9237 17.2366V17.7396H57.0591V17.2366H58.9237ZM57.2377 14.0595V17.7396H56.5974V14.0595H57.2377Z" fill="#00598E"/>
        <path d="M61.6665 17.2366V17.7396H59.8019V17.2366H61.6665ZM59.9805 14.0595V17.7396H59.3402V14.0595H59.9805Z" fill="#00598E"/>
        <path d="M62.7667 14.0595V17.7396H62.1264V14.0595H62.7667Z" fill="#00598E"/>
        <path d="M64.1244 14.0595V17.7396H63.4841V14.0595H64.1244ZM66.3563 14.0595L64.8514 15.8313L63.9943 16.7311L63.8821 16.1017L64.4942 15.3536L65.5758 14.0595H66.3563ZM65.6676 17.7396L64.4458 15.9956L64.8871 15.5634L66.4277 17.7396H65.6676Z" fill="#00598E"/>
        <path d="M69.6527 14.0595V17.7396H69.0124L67.3467 15.1034V17.7396H66.7065V14.0595H67.3467L69.0175 16.7008V14.0595H69.6527Z" fill="#00598E"/>
        <path d="M71.0206 14.0595V17.7396H70.3803V14.0595H71.0206Z" fill="#00598E"/>
        <path d="M74.9273 17.2493L75.9042 18.0176L75.4884 18.3791L74.5293 17.6183L74.9273 17.2493ZM75.9119 15.7984V16.0006C75.9119 16.2787 75.8753 16.5281 75.8022 16.7488C75.7291 16.9695 75.6245 17.1574 75.4884 17.3125C75.3524 17.4675 75.19 17.5863 75.0012 17.6688C74.8125 17.7497 74.6033 17.7902 74.3737 17.7902C74.1459 17.7902 73.9376 17.7497 73.7488 17.6688C73.5617 17.5863 73.3993 17.4675 73.2616 17.3125C73.1239 17.1574 73.0167 16.9695 72.9402 16.7488C72.8654 16.5281 72.828 16.2787 72.828 16.0006V15.7984C72.828 15.5204 72.8654 15.2719 72.9402 15.0528C73.015 14.8321 73.1205 14.6442 73.2565 14.4892C73.3942 14.3324 73.5566 14.2136 73.7437 14.1328C73.9325 14.0502 74.1408 14.0089 74.3686 14.0089C74.5982 14.0089 74.8074 14.0502 74.9961 14.1328C75.1866 14.2136 75.3498 14.3324 75.4859 14.4892C75.6219 14.6442 75.7265 14.8321 75.7996 15.0528C75.8745 15.2719 75.9119 15.5204 75.9119 15.7984ZM75.2691 16.0006V15.7934C75.2691 15.5878 75.2487 15.4067 75.2079 15.25C75.1687 15.0916 75.1101 14.9593 75.0318 14.8531C74.9553 14.7453 74.8609 14.6644 74.7487 14.6105C74.6382 14.5549 74.5115 14.5271 74.3686 14.5271C74.2292 14.5271 74.1042 14.5549 73.9937 14.6105C73.8831 14.6644 73.7888 14.7453 73.7105 14.8531C73.6323 14.9593 73.5728 15.0916 73.532 15.25C73.4912 15.4067 73.4708 15.5878 73.4708 15.7934V16.0006C73.4708 16.2062 73.4912 16.3882 73.532 16.5466C73.5728 16.705 73.6323 16.839 73.7105 16.9485C73.7905 17.0563 73.8857 17.1381 73.9962 17.1937C74.1085 17.2476 74.2343 17.2745 74.3737 17.2745C74.5166 17.2745 74.6433 17.2476 74.7538 17.1937C74.8643 17.1381 74.9579 17.0563 75.0344 16.9485C75.1109 16.839 75.1687 16.705 75.2079 16.5466C75.2487 16.3882 75.2691 16.2062 75.2691 16.0006Z" fill="#00598E"/>
        <path d="M77.1676 14.0595V17.7396H76.5273V14.0595H77.1676Z" fill="#00598E"/>
        <path d="M79.839 16.7918C79.839 16.7159 79.8271 16.6485 79.8032 16.5896C79.7811 16.5306 79.7412 16.4767 79.6834 16.4278C79.6255 16.3789 79.5439 16.3318 79.4385 16.2863C79.3348 16.2391 79.2021 16.1911 79.0406 16.1422C78.8637 16.0883 78.7005 16.0284 78.5508 15.9627C78.4029 15.8953 78.2736 15.8178 78.1631 15.7302C78.0526 15.6409 77.9667 15.5389 77.9055 15.4244C77.8442 15.3081 77.8136 15.1741 77.8136 15.0225C77.8136 14.8725 77.8451 14.736 77.908 14.613C77.9726 14.49 78.0636 14.3838 78.1809 14.2945C78.3 14.2035 78.4403 14.1336 78.6018 14.0847C78.7634 14.0342 78.9419 14.0089 79.1375 14.0089C79.413 14.0089 79.6502 14.0595 79.8492 14.1606C80.0498 14.2617 80.2037 14.3973 80.3109 14.5675C80.4197 14.7377 80.4741 14.9256 80.4741 15.1312H79.839C79.839 15.0098 79.8126 14.9028 79.7599 14.8102C79.7089 14.7158 79.6306 14.6417 79.5252 14.5877C79.4215 14.5338 79.2897 14.5068 79.1298 14.5068C78.9785 14.5068 78.8527 14.5296 78.7523 14.5751C78.652 14.6206 78.5772 14.6821 78.5279 14.7596C78.4785 14.8371 78.4539 14.9247 78.4539 15.0225C78.4539 15.0916 78.47 15.1547 78.5023 15.212C78.5347 15.2676 78.584 15.3199 78.6503 15.3688C78.7166 15.4159 78.7999 15.4606 78.9003 15.5027C79.0006 15.5448 79.1188 15.5853 79.2548 15.624C79.4606 15.6847 79.64 15.7521 79.793 15.8262C79.9461 15.8987 80.0736 15.9813 80.1757 16.0739C80.2777 16.1666 80.3542 16.2719 80.4052 16.3899C80.4562 16.5062 80.4818 16.6384 80.4818 16.7867C80.4818 16.9417 80.4503 17.0816 80.3874 17.2063C80.3245 17.3293 80.2343 17.4346 80.117 17.5222C80.0014 17.6082 79.8619 17.6747 79.6987 17.7219C79.5371 17.7674 79.3569 17.7902 79.1579 17.7902C78.9793 17.7902 78.8033 17.7666 78.6299 17.7194C78.4581 17.6722 78.3017 17.6006 78.1605 17.5046C78.0194 17.4068 77.9072 17.2855 77.8238 17.1406C77.7405 16.994 77.6988 16.8229 77.6988 16.6275H78.3391C78.3391 16.7471 78.3595 16.8491 78.4003 16.9333C78.4428 17.0176 78.5015 17.0867 78.5763 17.1406C78.6511 17.1928 78.7379 17.2316 78.8365 17.2568C78.9368 17.2821 79.044 17.2948 79.1579 17.2948C79.3075 17.2948 79.4325 17.2737 79.5329 17.2316C79.6349 17.1894 79.7114 17.1305 79.7624 17.0546C79.8134 16.9788 79.839 16.8912 79.839 16.7918Z" fill="#00598E"/>
        <path d="M82.9363 17.2493L83.9133 18.0176L83.4975 18.3791L82.5384 17.6183L82.9363 17.2493ZM83.9209 15.7984V16.0006C83.9209 16.2787 83.8844 16.5281 83.8112 16.7488C83.7381 16.9695 83.6335 17.1574 83.4975 17.3125C83.3615 17.4675 83.1991 17.5863 83.0103 17.6688C82.8215 17.7497 82.6124 17.7902 82.3828 17.7902C82.1549 17.7902 81.9466 17.7497 81.7579 17.6688C81.5708 17.5863 81.4084 17.4675 81.2707 17.3125C81.1329 17.1574 81.0258 16.9695 80.9493 16.7488C80.8744 16.5281 80.837 16.2787 80.837 16.0006V15.7984C80.837 15.5204 80.8744 15.2719 80.9493 15.0528C81.0241 14.8321 81.1295 14.6442 81.2656 14.4892C81.4033 14.3324 81.5657 14.2136 81.7528 14.1328C81.9415 14.0502 82.1498 14.0089 82.3777 14.0089C82.6073 14.0089 82.8164 14.0502 83.0052 14.1328C83.1957 14.2136 83.3589 14.3324 83.4949 14.4892C83.631 14.6442 83.7356 14.8321 83.8087 15.0528C83.8835 15.2719 83.9209 15.5204 83.9209 15.7984ZM83.2781 16.0006V15.7934C83.2781 15.5878 83.2577 15.4067 83.2169 15.25C83.1778 15.0916 83.1191 14.9593 83.0409 14.8531C82.9644 14.7453 82.87 14.6644 82.7578 14.6105C82.6472 14.5549 82.5205 14.5271 82.3777 14.5271C82.2383 14.5271 82.1133 14.5549 82.0027 14.6105C81.8922 14.6644 81.7978 14.7453 81.7196 14.8531C81.6414 14.9593 81.5819 15.0916 81.541 15.25C81.5002 15.4067 81.4798 15.5878 81.4798 15.7934V16.0006C81.4798 16.2062 81.5002 16.3882 81.541 16.5466C81.5819 16.705 81.6414 16.839 81.7196 16.9485C81.7995 17.0563 81.8948 17.1381 82.0053 17.1937C82.1175 17.2476 82.2434 17.2745 82.3828 17.2745C82.5257 17.2745 82.6523 17.2476 82.7629 17.1937C82.8734 17.1381 82.9669 17.0563 83.0435 16.9485C83.12 16.839 83.1778 16.705 83.2169 16.5466C83.2577 16.3882 83.2781 16.2062 83.2781 16.0006Z" fill="#00598E"/>
        <path d="M85.9393 14.5498L84.8297 17.7396H84.1589L85.5567 14.0595H85.9852L85.9393 14.5498ZM86.8678 17.7396L85.7557 14.5498L85.7072 14.0595H86.1383L87.5412 17.7396H86.8678ZM86.8142 16.3747V16.8777H84.794V16.3747H86.8142Z" fill="#00598E"/>
        <path d="M87.8786 14.0595H89.1923C89.4746 14.0595 89.7152 14.1016 89.9142 14.1858C90.1131 14.2701 90.2653 14.3948 90.3707 14.5599C90.4779 14.7234 90.5314 14.9256 90.5314 15.1665C90.5314 15.3502 90.4974 15.512 90.4294 15.6518C90.3614 15.7917 90.2653 15.9097 90.1412 16.0057C90.017 16.1001 89.8691 16.1734 89.6973 16.2256L89.5035 16.3191H88.3225L88.3174 15.8161H89.2025C89.3555 15.8161 89.4831 15.7892 89.5851 15.7352C89.6871 15.6813 89.7637 15.608 89.8147 15.5153C89.8674 15.421 89.8937 15.3148 89.8937 15.1969C89.8937 15.0688 89.8682 14.9576 89.8172 14.8632C89.7679 14.7672 89.6914 14.6939 89.5877 14.6433C89.4839 14.5911 89.3521 14.565 89.1923 14.565H88.5189V17.7396H87.8786V14.0595ZM89.9983 17.7396L89.126 16.0866L89.7968 16.0841L90.6819 17.7068V17.7396H89.9983Z" fill="#00598E"/>
        <path d="M92.4452 14.0595V17.7396H91.8101V14.0595H92.4452ZM93.611 14.0595V14.565H90.6546V14.0595H93.611Z" fill="#00598E"/>
        <path d="M94.706 14.0595V17.7396H94.0657V14.0595H94.706Z" fill="#00598E"/>
        <path d="M95.4234 14.0595H96.7371C97.0194 14.0595 97.26 14.1016 97.459 14.1858C97.6579 14.2701 97.8101 14.3948 97.9156 14.5599C98.0227 14.7234 98.0763 14.9256 98.0763 15.1665C98.0763 15.3502 98.0423 15.512 97.9742 15.6518C97.9062 15.7917 97.8101 15.9097 97.686 16.0057C97.5619 16.1001 97.4139 16.1734 97.2421 16.2256L97.0483 16.3191H95.8673L95.8622 15.8161H96.7473C96.9003 15.8161 97.0279 15.7892 97.1299 15.7352C97.2319 15.6813 97.3085 15.608 97.3595 15.5153C97.4122 15.421 97.4386 15.3148 97.4386 15.1969C97.4386 15.0688 97.4131 14.9576 97.362 14.8632C97.3127 14.7672 97.2362 14.6939 97.1325 14.6433C97.0287 14.5911 96.8969 14.565 96.7371 14.565H96.0637V17.7396H95.4234V14.0595ZM97.5431 17.7396L96.6708 16.0866L97.3416 16.0841L98.2268 17.7068V17.7396H97.5431Z" fill="#00598E"/>
        <path d="M99.3192 14.0595V17.7396H98.679V14.0595H99.3192Z" fill="#00598E"/>
        <path d="M101.991 16.7918C101.991 16.7159 101.979 16.6485 101.955 16.5896C101.933 16.5306 101.893 16.4767 101.835 16.4278C101.777 16.3789 101.696 16.3318 101.59 16.2863C101.486 16.2391 101.354 16.1911 101.192 16.1422C101.015 16.0883 100.852 16.0284 100.702 15.9627C100.554 15.8953 100.425 15.8178 100.315 15.7302C100.204 15.6409 100.118 15.5389 100.057 15.4244C99.9959 15.3081 99.9653 15.1741 99.9653 15.0225C99.9653 14.8725 99.9967 14.736 100.06 14.613C100.124 14.49 100.215 14.3838 100.333 14.2945C100.452 14.2035 100.592 14.1336 100.753 14.0847C100.915 14.0342 101.094 14.0089 101.289 14.0089C101.565 14.0089 101.802 14.0595 102.001 14.1606C102.201 14.2617 102.355 14.3973 102.462 14.5675C102.571 14.7377 102.626 14.9256 102.626 15.1312H101.991C101.991 15.0098 101.964 14.9028 101.912 14.8102C101.861 14.7158 101.782 14.6417 101.677 14.5877C101.573 14.5338 101.441 14.5068 101.281 14.5068C101.13 14.5068 101.004 14.5296 100.904 14.5751C100.804 14.6206 100.729 14.6821 100.679 14.7596C100.63 14.8371 100.606 14.9247 100.606 15.0225C100.606 15.0916 100.622 15.1547 100.654 15.212C100.686 15.2676 100.736 15.3199 100.802 15.3688C100.868 15.4159 100.952 15.4606 101.052 15.5027C101.152 15.5448 101.27 15.5853 101.406 15.624C101.612 15.6847 101.792 15.7521 101.945 15.8262C102.098 15.8987 102.225 15.9813 102.327 16.0739C102.429 16.1666 102.506 16.2719 102.557 16.3899C102.608 16.5062 102.633 16.6384 102.633 16.7867C102.633 16.9417 102.602 17.0816 102.539 17.2063C102.476 17.3293 102.386 17.4346 102.269 17.5222C102.153 17.6082 102.014 17.6747 101.85 17.7219C101.689 17.7674 101.508 17.7902 101.31 17.7902C101.131 17.7902 100.955 17.7666 100.782 17.7194C100.61 17.6722 100.453 17.6006 100.312 17.5046C100.171 17.4068 100.059 17.2855 99.9755 17.1406C99.8921 16.994 99.8505 16.8229 99.8505 16.6275H100.491C100.491 16.7471 100.511 16.8491 100.552 16.9333C100.594 17.0176 100.653 17.0867 100.728 17.1406C100.803 17.1928 100.89 17.2316 100.988 17.2568C101.088 17.2821 101.196 17.2948 101.31 17.2948C101.459 17.2948 101.584 17.2737 101.684 17.2316C101.787 17.1894 101.863 17.1305 101.914 17.0546C101.965 16.9788 101.991 16.8912 101.991 16.7918Z" fill="#00598E"/>
        <path d="M105.575 15.5962V16.0992H103.603V15.5962H105.575ZM103.762 14.0595V17.7396H103.121V14.0595H103.762ZM106.067 14.0595V17.7396H105.43V14.0595H106.067Z" fill="#00598E"/>
        <path d="M32.5914 22.5261L33.5683 19.5183H34.2749L32.9434 23.1984H32.4664L32.5914 22.5261ZM31.6884 19.5183L32.6577 22.5261L32.7903 23.1984H32.3108L30.9844 19.5183H31.6884Z" fill="#00598E"/>
        <path d="M35.8647 20.0086L34.7552 23.1984H34.0843L35.4821 19.5183H35.9107L35.8647 20.0086ZM36.7932 23.1984L35.6811 20.0086L35.6326 19.5183H36.0637L37.4666 23.1984H36.7932ZM36.7397 21.8335V22.3365H34.7194V21.8335H36.7397Z" fill="#00598E"/>
        <path d="M40.4193 21.5353H39.473L39.4679 21.0727H40.2943C40.4338 21.0727 40.552 21.0525 40.6489 21.0121C40.7475 20.97 40.8223 20.9101 40.8734 20.8326C40.9244 20.7534 40.9499 20.6582 40.9499 20.547C40.9499 20.424 40.9261 20.3237 40.8785 20.2462C40.8308 20.1687 40.7577 20.1123 40.6591 20.0769C40.5622 20.0415 40.438 20.0238 40.2867 20.0238H39.6668V23.1984H39.0266V19.5183H40.2867C40.4907 19.5183 40.6727 19.5377 40.8326 19.5764C40.9941 19.6152 41.131 19.6758 41.2432 19.7584C41.3572 19.8393 41.443 19.9421 41.5009 20.0668C41.5604 20.1915 41.5901 20.3398 41.5901 20.5116C41.5901 20.6633 41.5536 20.8023 41.4804 20.9287C41.4073 21.0534 41.2993 21.1553 41.1565 21.2345C41.0137 21.3137 40.836 21.3609 40.6234 21.3761L40.4193 21.5353ZM40.3913 23.1984H39.2715L39.5597 22.6955H40.3913C40.5358 22.6955 40.6565 22.6719 40.7535 22.6247C40.8504 22.5758 40.9227 22.5093 40.9703 22.425C41.0196 22.3391 41.0443 22.2388 41.0443 22.1242C41.0443 22.0046 41.023 21.901 40.9805 21.8133C40.938 21.724 40.8708 21.6558 40.779 21.6086C40.6872 21.5597 40.5673 21.5353 40.4193 21.5353H39.7L39.7051 21.0727H40.6412L40.7866 21.2472C40.9907 21.2539 41.1582 21.2985 41.2891 21.3811C41.4218 21.4637 41.5204 21.5707 41.585 21.7021C41.6497 21.8335 41.682 21.9751 41.682 22.1267C41.682 22.361 41.6301 22.5573 41.5264 22.7157C41.4243 22.8741 41.2772 22.9945 41.0851 23.0771C40.8929 23.158 40.6616 23.1984 40.3913 23.1984Z" fill="#00598E"/>
        <path d="M43.6952 20.0086L42.5857 23.1984H41.9148L43.3126 19.5183H43.7412L43.6952 20.0086ZM44.6237 23.1984L43.5116 20.0086L43.4631 19.5183H43.8942L45.2971 23.1984H44.6237ZM44.5702 21.8335V22.3365H42.5499V21.8335H44.5702Z" fill="#00598E"/>
        <path d="M48.5807 19.5183V23.1984H47.9405L46.2748 20.5622V23.1984H45.6346V19.5183H46.2748L47.9456 22.1596V19.5183H48.5807Z" fill="#00598E"/>
        <path d="M50.344 23.1984H49.5507L49.5558 22.6955H50.344C50.5736 22.6955 50.7658 22.6457 50.9205 22.5463C51.0769 22.4469 51.1943 22.3045 51.2725 22.1192C51.3524 21.9338 51.3924 21.7131 51.3924 21.4569V21.2573C51.3924 21.0584 51.3694 20.8823 51.3235 20.729C51.2793 20.5757 51.213 20.4468 51.1246 20.3423C51.0378 20.2378 50.9307 20.1586 50.8032 20.1047C50.6773 20.0508 50.5319 20.0238 50.367 20.0238H49.5354V19.5183H50.367C50.6136 19.5183 50.8389 19.5596 51.0429 19.6421C51.247 19.723 51.423 19.8401 51.5709 19.9935C51.7206 20.1468 51.8354 20.3305 51.9153 20.5445C51.9952 20.7585 52.0352 20.9978 52.0352 21.2623V21.4569C52.0352 21.7215 51.9952 21.9608 51.9153 22.1748C51.8354 22.3888 51.7206 22.5724 51.5709 22.7258C51.4213 22.8774 51.2427 22.9945 51.0353 23.0771C50.8295 23.158 50.5991 23.1984 50.344 23.1984ZM49.9053 19.5183V23.1984H49.265V19.5183H49.9053Z" fill="#00598E"/>
        <path d="M54.9259 22.6955V23.1984H53.0613V22.6955H54.9259ZM53.2399 19.5183V23.1984H52.5996V19.5183H53.2399Z" fill="#00598E"/>
        <path d="M56.026 19.5183V23.1984H55.3858V19.5183H56.026Z" fill="#00598E"/>
        <path d="M57.3838 19.5183V23.1984H56.7435V19.5183H57.3838ZM59.6157 19.5183L58.1108 21.2901L57.2537 22.1899L57.1415 21.5606L57.7536 20.8124L58.8352 19.5183H59.6157ZM58.927 23.1984L57.7052 21.4544L58.1465 21.0222L59.6871 23.1984H58.927Z" fill="#00598E"/>
        <path d="M62.4613 22.5261L63.4382 19.5183H64.1448L62.8133 23.1984H62.3363L62.4613 22.5261ZM61.5583 19.5183L62.5276 22.5261L62.6602 23.1984H62.1807L60.8543 19.5183H61.5583Z" fill="#00598E"/>
        <path d="M65.7346 20.0086L64.6251 23.1984H63.9542L65.352 19.5183H65.7806L65.7346 20.0086ZM66.6631 23.1984L65.551 20.0086L65.5025 19.5183H65.9336L67.3365 23.1984H66.6631ZM66.6096 21.8335V22.3365H64.5893V21.8335H66.6096Z" fill="#00598E"/>
        <path d="M70.2707 22.6955V23.1984H67.6918V22.6955H70.2707ZM70.212 19.9101L67.929 23.1984H67.5005V22.7966L69.7911 19.5183H70.212V19.9101ZM69.9748 19.5183V20.0238H67.5158V19.5183H69.9748Z" fill="#00598E"/>
        <path d="M71.432 19.5183V23.1984H70.7917V19.5183H71.432Z" fill="#00598E"/>
        <path d="M72.1495 19.5183H73.4631C73.7454 19.5183 73.986 19.5604 74.185 19.6447C74.3839 19.7289 74.5361 19.8536 74.6416 20.0188C74.7487 20.1822 74.8023 20.3844 74.8023 20.6254C74.8023 20.809 74.7683 20.9708 74.7002 21.1107C74.6322 21.2505 74.5361 21.3685 74.412 21.4645C74.2879 21.5589 74.1399 21.6322 73.9682 21.6844L73.7743 21.7779H72.5933L72.5882 21.275H73.4733C73.6264 21.275 73.7539 21.248 73.8559 21.1941C73.958 21.1402 74.0345 21.0669 74.0855 20.9742C74.1382 20.8798 74.1646 20.7737 74.1646 20.6557C74.1646 20.5276 74.1391 20.4164 74.0881 20.3221C74.0387 20.226 73.9622 20.1527 73.8585 20.1022C73.7548 20.0499 73.623 20.0238 73.4631 20.0238H72.7897V23.1984H72.1495V19.5183ZM74.2692 23.1984L73.3968 21.5454L74.0677 21.5429L74.9528 23.1656V23.1984H74.2692Z" fill="#00598E"/>
        <path d="M77.6879 22.6955V23.1984H75.8233V22.6955H77.6879ZM76.0019 19.5183V23.1984H75.3616V19.5183H76.0019Z" fill="#00598E"/>
        <path d="M78.788 19.5183V23.1984H78.1478V19.5183H78.788Z" fill="#00598E"/>
        <path d="M82.3573 21.3179V22.7233C82.3046 22.7923 82.2221 22.8682 82.1099 22.9507C81.9993 23.0316 81.8522 23.1015 81.6686 23.1605C81.4849 23.2195 81.2562 23.249 80.9824 23.249C80.7495 23.249 80.536 23.2102 80.3422 23.1327C80.1483 23.0535 79.9808 22.9381 79.8397 22.7864C79.7002 22.6348 79.5922 22.4503 79.5157 22.2329C79.4392 22.0138 79.4009 21.7645 79.4009 21.4847V21.2295C79.4009 20.9514 79.4358 20.7037 79.5055 20.4864C79.5769 20.2673 79.679 20.0819 79.8116 19.9303C79.9443 19.7786 80.1041 19.664 80.2912 19.5865C80.4799 19.5073 80.6933 19.4677 80.9314 19.4677C81.2358 19.4677 81.4875 19.5183 81.6864 19.6194C81.8871 19.7188 82.0419 19.857 82.1507 20.0339C82.2595 20.2108 82.3284 20.4131 82.3573 20.6405H81.7298C81.7094 20.5125 81.6694 20.3979 81.6099 20.2968C81.5521 20.1957 81.4688 20.1165 81.3599 20.0592C81.2528 20.0002 81.1134 19.9707 80.9416 19.9707C80.7937 19.9707 80.6636 19.9985 80.5513 20.0541C80.4391 20.1097 80.3456 20.1915 80.2708 20.2993C80.1976 20.4072 80.1424 20.5386 80.105 20.6936C80.0675 20.8486 80.0488 21.0256 80.0488 21.2244V21.4847C80.0488 21.6869 80.0701 21.8664 80.1126 22.0231C80.1568 22.1798 80.2197 22.3121 80.3014 22.4199C80.3847 22.5278 80.4859 22.6095 80.6049 22.6651C80.7239 22.719 80.8583 22.746 81.0079 22.746C81.1542 22.746 81.2741 22.7342 81.3676 22.7106C81.4611 22.6853 81.5351 22.6559 81.5895 22.6222C81.6456 22.5868 81.689 22.5531 81.7196 22.521V21.7906H80.9467V21.3179H82.3573Z" fill="#00598E"/>
        <path d="M83.6717 19.5183V23.1984H83.0314V19.5183H83.6717Z" fill="#00598E"/>
    </g>
    <defs>
        <clipPath id="clip0_2441_39938">
            <rect width="106" height="32" fill="white"/>
        </clipPath>
    </defs>
</svg>
