<svg width="29" height="32" viewBox="0 0 29 32" fill="none" xmlns="http://www.w3.org/2000/svg">
    <path d="M6.38617 15.3593C6.12732 15.3593 5.91748 15.1495 5.91748 14.8906V11.5823C5.91748 10.7029 6.63039 9.98999 7.5098 9.98999H8.75088C8.94486 9.98999 9.10212 10.1472 9.10212 10.3412C9.10212 10.5352 8.94486 10.6925 8.75088 10.6925H8.0266H7.6354C7.20432 10.6925 6.85487 11.0419 6.85487 11.473C6.85487 11.9041 7.20432 12.2535 7.6354 12.2535H7.83131H8.47326C8.6888 12.2535 8.86353 12.4283 8.86353 12.6438C8.86353 12.8593 8.6888 13.0341 8.47326 13.0341H7.8592C7.30452 13.0341 6.85487 13.4837 6.85487 14.0384V14.8906C6.85487 15.1495 6.64503 15.3593 6.38617 15.3593Z" fill="url(#paint0_linear_1270_40615)"/>
    <path d="M10.512 15.3593C10.2722 15.3593 10.0779 15.165 10.0779 14.9252V11.6697C10.0779 11.4834 10.2289 11.3323 10.4152 11.3323H10.5885C10.7453 11.3323 10.8522 11.4912 10.793 11.6364L10.6798 11.9144C10.6747 11.9269 10.6839 11.9406 10.6974 11.9406C10.7053 11.9406 10.7124 11.9356 10.7153 11.9281C10.7888 11.7346 10.9186 11.577 11.1048 11.4555C11.295 11.3315 11.5094 11.2694 11.748 11.2694C11.7929 11.2694 11.8491 11.2703 11.9166 11.272C12.0035 11.2743 12.0696 11.3461 12.0696 11.4331V11.7645C12.0696 11.8379 11.9996 11.8958 11.9269 11.8855C11.7775 11.8603 11.6236 11.9088 11.4852 11.9706C11.4083 12.0049 11.3432 12.0414 11.2684 12.0974C11.1713 12.1702 11.1346 12.2128 11.0925 12.2627C11.0302 12.3367 10.9792 12.3955 10.9205 12.4725C10.7752 12.6632 10.7349 12.9246 10.7604 13.163L10.8583 14.0796L10.9437 14.8791C10.9711 15.1356 10.77 15.3593 10.512 15.3593Z" fill="url(#paint1_linear_1270_40615)"/>
    <path d="M14.3439 15.4432C13.9601 15.4432 13.629 15.3576 13.3507 15.1863C13.0741 15.0133 12.8605 14.7721 12.7101 14.4627C12.5614 14.1516 12.4871 13.7898 12.4871 13.3773C12.4871 12.9648 12.5614 12.6013 12.7101 12.2866C12.8605 11.9703 13.0697 11.7238 13.3377 11.5473C13.6074 11.369 13.9221 11.2799 14.2817 11.2799C14.4892 11.2799 14.694 11.3148 14.8963 11.3848C15.0986 11.4547 15.2827 11.5683 15.4487 11.7256C15.6147 11.8811 15.7469 12.0874 15.8455 12.3443C15.944 12.6013 15.9933 12.9176 15.9933 13.2934C15.9933 13.4382 15.8759 13.5556 15.7311 13.5556H13.1902C13.0425 13.5556 12.9228 13.4358 12.9228 13.2882C12.9228 13.1405 13.0425 13.0207 13.1902 13.0207L14.705 13.0207C15.0294 13.0207 15.2974 12.7465 15.1514 12.4569C15.0632 12.2786 14.8927 12.1371 14.7285 12.034C14.5659 11.9309 14.4932 11.9269 14.2817 11.9269C14.0379 11.9269 13.8826 11.9635 13.6711 12.1045C13.54 12.1919 13.4328 12.3333 13.3377 12.5273C13.2672 12.7388 13.2482 12.8093 13.1777 13.0912C13.126 13.3417 13.1258 13.6018 13.1895 13.8495C13.2244 13.9853 13.2614 14.1021 13.3187 14.2189C13.4242 14.4287 13.5549 14.5317 13.7416 14.6418C13.9283 14.7502 14.0967 14.7828 14.3439 14.7828C14.5047 14.7828 14.6693 14.7577 14.7989 14.7123C14.9303 14.6651 14.9858 14.664 15.0809 14.5713C15.1089 14.5436 15.1383 14.5171 15.1672 14.4901C15.2876 14.3776 15.4621 14.2929 15.6206 14.3379C15.791 14.3862 15.8916 14.5683 15.8008 14.7204C15.7496 14.8063 15.6884 14.8864 15.6173 14.9608C15.4703 15.1129 15.2888 15.2317 15.0727 15.3174C14.8566 15.4013 14.6136 15.4432 14.3439 15.4432Z" fill="url(#paint2_linear_1270_40615)"/>
    <path d="M23.1686 12.769C23.3279 12.769 23.457 12.8982 23.457 13.0574C23.457 13.2167 23.3279 13.3458 23.1686 13.3458H21.4217C21.2624 13.3458 21.1333 13.2167 21.1333 13.0574C21.1333 12.8982 21.2624 12.769 21.4217 12.769H23.1686Z" fill="url(#paint3_linear_1270_40615)"/>
    <path d="M6.38618 16.2263C6.64503 16.2263 6.85487 16.4361 6.85487 16.695V21.127C6.85487 21.3858 6.64503 21.5957 6.38618 21.5957C6.12732 21.5957 5.91748 21.3858 5.91748 21.127V16.695C5.91748 16.4361 6.12732 16.2263 6.38618 16.2263Z" fill="url(#paint4_linear_1270_40615)"/>
    <path d="M8.80748 21.6196C8.55506 21.6196 8.31406 21.5491 8.1026 21.4786C7.89114 21.4081 7.65972 21.1687 7.5387 20.9852C7.41768 20.7999 7.39772 20.5426 7.39772 20.2804C7.39772 20.1221 7.42175 19.9831 7.46586 19.8652C7.5045 19.7618 7.55425 19.6606 7.62383 19.5749C7.69517 19.4871 7.78955 19.4196 7.89114 19.3641C8.04155 19.282 8.27351 19.1929 8.45504 19.1527C8.6383 19.1107 8.7933 19.0802 8.97829 19.0557C9.22034 19.0243 9.43243 19.0274 9.58285 19.0117C9.73259 18.9945 9.86199 18.9818 9.93196 18.9431C9.93421 18.9419 9.93638 18.9406 9.93849 18.9391C9.95226 18.9296 10.0058 18.8871 10.0058 18.8003V18.5183C10.0058 18.2364 9.8648 18.1659 9.72382 18.0954C9.58285 18.025 9.44173 17.9545 9.15992 17.9545C8.86773 17.9545 8.55053 18.1071 8.38455 18.2364C8.35763 18.2574 8.33565 18.277 8.31743 18.2957C8.19014 18.4265 8.03879 18.528 7.87258 18.4526C7.70866 18.3783 7.62947 18.1848 7.70886 18.0233C7.77851 17.8816 7.85833 17.754 7.96163 17.6725C8.13625 17.5345 8.31979 17.3743 8.52553 17.3201C8.73699 17.2497 8.95937 17.2497 9.15992 17.2497C9.28786 17.2497 9.48736 17.2887 9.65333 17.3201C9.82104 17.3499 9.99115 17.4372 10.1467 17.5316C10.3041 17.626 10.5364 17.8344 10.6402 18.025C10.7439 18.2155 10.7811 18.4804 10.7811 18.8003V21.2472C10.7811 21.4528 10.6144 21.6196 10.4088 21.6196H10.3915C10.1954 21.6196 10.0364 21.4606 10.0364 21.2645V20.9284C10.0364 20.9179 10.0278 20.9094 10.0173 20.9094C10.0099 20.9094 10.0032 20.9136 10.0003 20.9203C9.96342 21.0051 9.95759 21.1012 9.8648 21.1967C9.76336 21.301 9.60266 21.4792 9.44187 21.5491C9.28108 21.619 9.03915 21.6196 8.80748 21.6196ZM8.94846 21.0557C9.08734 21.0557 9.19785 20.9945 9.29818 20.9242C9.44055 20.8245 9.58338 20.7189 9.69031 20.5819C9.72582 20.5364 9.75736 20.4877 9.79431 20.4214C9.87665 20.2765 9.994 20.1518 10.0314 20.0172C10.0351 20.0039 10.0364 19.99 10.0364 19.9762V19.6248C10.0364 19.5594 9.92786 19.4986 9.86522 19.5172C9.77877 19.5417 9.69695 19.5563 9.58285 19.5756C9.47047 19.593 9.3376 19.6321 9.23041 19.6461C9.12494 19.6583 9.04399 19.6836 8.97829 19.6924C8.81923 19.7133 8.73433 19.7398 8.59602 19.787C8.45943 19.8325 8.18732 19.9058 8.1026 19.9985C8.01961 20.0893 7.96163 20.1936 7.96163 20.3509C7.96163 20.5659 8.08625 20.8046 8.24358 20.9147C8.40264 21.0231 8.70468 21.0557 8.94846 21.0557Z" fill="url(#paint5_linear_1270_40615)"/>
    <path d="M12.5324 18.8674C12.4244 19.0454 12.4013 19.2587 12.3992 19.4668L12.3813 21.2223C12.3792 21.4291 12.211 21.5957 12.0042 21.5957C11.7959 21.5957 11.627 21.4268 11.627 21.2185V17.9335C11.627 17.732 11.7904 17.5686 11.9919 17.5686H12.0422C12.2159 17.5686 12.3568 17.7095 12.3568 17.8833V18.1663C12.3568 18.1837 12.3709 18.1979 12.3884 18.1979C12.4007 18.1979 12.4119 18.1906 12.4172 18.1795C12.5106 17.9835 12.6495 17.8253 12.834 17.705C13.0241 17.5791 13.2696 17.5162 13.5705 17.5162C13.8402 17.5162 14.0762 17.5721 14.2785 17.684C14.4807 17.7941 14.6866 17.9619 14.7989 18.1874C14.9113 18.4111 14.9689 18.6691 14.9689 19.0117V21.2287C14.9689 21.4314 14.8046 21.5957 14.602 21.5957C14.3993 21.5957 14.235 21.4314 14.235 21.2287V19.0822C14.235 18.7658 14.1861 18.5539 14.0236 18.3774C13.8611 18.1991 13.6727 18.1874 13.3892 18.1874C13.1938 18.1874 13.0638 18.2798 12.9663 18.3774C12.8253 18.5183 12.8253 18.5183 12.7548 18.5888C12.6622 18.6815 12.5901 18.7722 12.5324 18.8674Z" fill="url(#paint6_linear_1270_40615)"/>
    <path d="M17.6556 21.6795C17.2822 21.6795 16.9606 21.5904 16.6909 21.4121C16.4212 21.2339 16.2137 20.9883 16.0685 20.6754C15.9233 20.3626 15.8507 20.0051 15.8507 19.6031C15.8507 19.1941 15.925 18.8332 16.0737 18.5203C16.2241 18.2057 16.4333 17.9602 16.7013 17.7836C16.971 17.6053 17.2857 17.5162 17.6453 17.5162C17.9254 17.5162 18.1778 17.5686 18.4025 17.6735C18.6273 17.7784 18.8114 17.9252 18.9549 18.114C19.018 18.197 19.0706 18.2861 19.1127 18.3813C19.2002 18.5794 19.029 18.7746 18.8125 18.7746C18.6491 18.7746 18.5084 18.6584 18.4062 18.531C18.3432 18.4524 18.2648 18.3795 18.1824 18.3069C17.9709 18.1659 17.9004 18.1659 17.6556 18.1487C17.4171 18.1487 17.2344 18.2515 17.0546 18.3774C16.8765 18.5015 16.8024 18.573 16.7021 18.8003C16.6036 19.0257 16.5611 19.2714 16.5611 19.5756C16.5611 19.8867 16.6053 20.0497 16.7021 20.2804C16.8007 20.5111 16.8765 20.6462 17.0546 20.7738C17.2344 20.9014 17.3764 20.9852 17.6185 20.9852C17.7775 20.9852 17.9117 21.0171 18.0414 20.9612C18.171 20.9053 18.2334 20.8786 18.3233 20.7738C18.3419 20.7521 18.3572 20.7306 18.3701 20.7088C18.4614 20.5549 18.5893 20.4211 18.7682 20.4211C19.0075 20.4211 19.2135 20.6404 19.1296 20.8645C19.1049 20.9303 19.0726 20.9938 19.0282 21.0557C18.8934 21.2445 18.6515 21.4025 18.4285 21.5144C18.2072 21.6245 17.9496 21.6795 17.6556 21.6795Z" fill="url(#paint7_linear_1270_40615)"/>
    <path d="M24.6492 21.5957C24.4935 21.5957 24.3672 21.4694 24.3672 21.3137V17.8506C24.3672 17.6949 24.4935 17.5686 24.6492 17.5686H24.8779C25.0347 17.5686 25.1416 17.7275 25.0824 17.8728L24.9692 18.1508C24.9641 18.1632 24.9733 18.1769 24.9867 18.1769C24.9947 18.1769 25.0018 18.1719 25.0047 18.1644C25.0782 17.9709 25.208 17.8134 25.3942 17.6919C25.5844 17.5678 25.7988 17.5057 26.0374 17.5057C26.0823 17.5057 26.1385 17.5066 26.2059 17.5083C26.2929 17.5106 26.3589 17.5824 26.3589 17.6694V18.0008C26.3589 18.0742 26.289 18.1321 26.2163 18.1218C26.1595 18.1123 26.1012 18.1177 26.0396 18.1205C26.0051 18.122 25.9708 18.1282 25.9386 18.1405C25.7758 18.2031 25.6796 18.2425 25.5578 18.3337C25.4108 18.4439 25.4021 18.485 25.304 18.587C25.2911 18.6004 25.2793 18.6148 25.2686 18.6299C25.2006 18.7262 25.1098 18.8259 25.0392 18.9721C25.0192 19.0135 25.0135 19.0601 25.0184 19.1059L25.1477 20.3159L25.2511 21.2838C25.2689 21.4504 25.1383 21.5957 24.9707 21.5957H24.6492Z" fill="url(#paint8_linear_1270_40615)"/>
    <path d="M18.5944 15.4327C18.2106 15.4327 17.8795 15.3471 17.6012 15.1758C17.3246 15.0028 17.111 14.7616 16.9606 14.4522C16.8119 14.1411 16.7376 13.7793 16.7376 13.3668C16.7376 12.9543 16.8119 12.5908 16.9606 12.2762C17.111 11.9598 17.3202 11.7134 17.5882 11.5368C17.8579 11.3585 18.1726 11.2694 18.5322 11.2694C18.7397 11.2694 18.9445 11.3044 19.1468 11.3743C19.3491 11.4442 19.5332 11.5578 19.6992 11.7151C19.8652 11.8707 19.9974 12.0769 20.096 12.3338C20.1945 12.5908 20.2438 12.9071 20.2438 13.2829C20.2438 13.4277 20.1264 13.5451 19.9816 13.5451H17.4407C17.293 13.5451 17.1733 13.4254 17.1733 13.2777C17.1733 13.13 17.293 13.0102 17.4407 13.0102L19.2609 13.0102C19.4166 13.0102 19.5483 12.882 19.5114 12.7308C19.4874 12.6325 19.4503 12.5423 19.4019 12.4464C19.3137 12.2681 19.1432 12.1266 18.979 12.0235C18.8164 11.9204 18.7437 11.9164 18.5322 11.9164C18.2884 11.9164 18.1331 11.953 17.9216 12.094C17.7905 12.1814 17.6833 12.3229 17.5882 12.5169C17.5177 12.7283 17.4987 12.7988 17.4282 13.0807L17.3624 13.3992C17.354 13.44 17.3548 13.4822 17.3644 13.5227C17.4333 13.8129 17.4722 14.0106 17.5692 14.2084C17.6747 14.4182 17.8054 14.5212 17.9921 14.6313C18.1789 14.7397 18.3472 14.7723 18.5944 14.7723C18.7552 14.7723 18.9198 14.7473 19.0494 14.7018C19.1808 14.6546 19.2363 14.6535 19.3314 14.5608C19.3667 14.5258 19.4044 14.4928 19.4405 14.4581C19.5464 14.356 19.6995 14.2787 19.841 14.3189L19.9045 14.3369C20.0566 14.38 20.1461 14.5421 20.0687 14.6799C20.0141 14.7772 19.9471 14.8673 19.8678 14.9503C19.7208 15.1024 19.5393 15.2213 19.3232 15.3069C19.1071 15.3908 18.8641 15.4327 18.5944 15.4327Z" fill="url(#paint9_linear_1270_40615)"/>
    <path d="M21.7869 21.69C21.403 21.69 21.072 21.6044 20.7936 21.4331C20.517 21.2601 20.3035 21.0189 20.153 20.7095C20.0044 20.3984 19.93 20.0366 19.93 19.6241C19.93 19.2116 20.0044 18.8481 20.153 18.5334C20.3035 18.2171 20.5127 17.9706 20.7806 17.7941C21.0503 17.6158 21.365 17.5267 21.7246 17.5267C21.9321 17.5267 22.137 17.5617 22.3392 17.6316C22.5415 17.7015 22.7257 17.8151 22.8916 17.9724C23.0576 18.128 23.1899 18.3342 23.2884 18.5911C23.387 18.8481 23.4362 19.1644 23.4362 19.5402C23.4362 19.685 23.3188 19.8024 23.174 19.8024H20.6331C20.4854 19.8024 20.3657 19.6826 20.3657 19.535C20.3657 19.3873 20.4854 19.2675 20.6331 19.2675L22.4533 19.2675C22.609 19.2675 22.7407 19.1393 22.7038 18.988C22.6798 18.8898 22.6427 18.7996 22.5943 18.7037C22.5061 18.5254 22.3356 18.3839 22.1714 18.2808C22.0089 18.1777 21.9361 18.1737 21.7246 18.1737C21.4808 18.1737 21.3255 18.2103 21.1141 18.3513C20.9829 18.4387 20.8757 18.5801 20.7806 18.7742C20.7102 18.9856 20.6911 19.0561 20.6206 19.338L20.5548 19.6565C20.5464 19.6973 20.5472 19.7395 20.5568 19.78C20.6257 20.0702 20.6646 20.2679 20.7616 20.4657C20.8671 20.6755 20.9978 20.7785 21.1846 20.8886C21.3713 20.997 21.5396 21.0296 21.7869 21.0296C21.9476 21.0296 22.1122 21.0045 22.2419 20.9591C22.3733 20.9119 22.4287 20.9108 22.5238 20.8181C22.5592 20.7831 22.5968 20.7501 22.6329 20.7154C22.7388 20.6133 22.8919 20.536 23.0334 20.5761L23.0969 20.5942C23.249 20.6373 23.3385 20.7994 23.2611 20.9372C23.2065 21.0345 23.1395 21.1246 23.0602 21.2076C22.9132 21.3597 22.7317 21.4785 22.5156 21.5642C22.2995 21.6481 22.0566 21.69 21.7869 21.69Z" fill="url(#paint10_linear_1270_40615)"/>
    <path d="M4.41614 24.6572C3.28871 23.7961 2.16128 22.0022 2.04856 20.603C2.04856 20.603 1.78551 18.522 1.74804 16.0572C1.75031 14.535 1.83804 13.0141 2.01108 11.5008C2.27328 9.91644 3.12758 8.47613 4.41614 7.44666C4.41614 7.44666 6.18223 6.2269 8.36185 4.97109C9.71259 4.20736 11.1051 3.51276 12.5331 2.89023C13.295 2.5898 14.114 2.44321 14.9382 2.45975C15.7613 2.44321 16.5794 2.58603 17.3432 2.87947C18.7715 3.50146 20.164 4.19606 21.5145 4.96033C23.694 6.18023 25.4602 7.4359 25.4602 7.4359C25.9859 7.83747 26.5116 8.4417 26.9382 9.11425C27.0919 9.35659 26.862 9.63901 26.5702 9.57983L25.1942 9.30051C25.0342 9.2681 24.892 9.18378 24.7838 9.06745C24.5929 8.86223 24.3953 8.68014 24.1976 8.53046C24.1976 8.53046 22.6433 7.43456 20.7253 6.36999C19.5369 5.70308 18.3115 5.09683 17.0546 4.55392C16.3825 4.29786 15.6625 4.1732 14.9382 4.18759C14.2128 4.1732 13.4922 4.30109 12.8217 4.56334C11.565 5.10665 10.3398 5.71276 9.151 6.3794C7.23301 7.4753 5.67871 8.53987 5.67871 8.53987C4.54489 9.43836 3.79308 10.6952 3.56226 12.078C3.41008 13.3988 3.33285 14.7261 3.33087 16.0545C3.36394 18.2057 3.59534 20.0218 3.59534 20.0218C3.69456 21.2429 4.68671 22.8084 5.67871 23.5599C6.79436 24.329 7.95344 25.0398 9.151 25.689C10.3395 26.3561 11.5649 26.9622 12.8217 27.5051C13.4932 27.7645 14.2131 27.8923 14.9382 27.8809C15.6635 27.8953 16.384 27.7674 17.0546 27.5051C18.3114 26.9619 19.5366 26.3557 20.7253 25.689C22.6433 24.5931 24.1976 23.5599 24.1976 23.5599C24.4888 23.3291 24.7548 23.0748 24.9932 22.8008C25.0785 22.7026 25.1878 22.625 25.3135 22.5806L26.8306 22.0447C27.1154 21.9441 27.3865 22.2016 27.2548 22.4612C26.8293 23.2995 26.2203 24.0498 25.4602 24.6572C25.4602 24.6572 23.694 25.8411 21.5145 27.0968C20.1637 27.8606 18.7713 28.5552 17.3432 29.1777C16.5812 29.4782 15.7624 29.6248 14.9382 29.6082C14.1143 29.6213 13.296 29.4749 12.5331 29.1777C11.1048 28.5557 9.7123 27.861 8.36185 27.0968C7.00105 26.3527 5.68382 25.5383 4.41614 24.6572Z" fill="url(#paint11_linear_1270_40615)"/>
    <defs>
        <linearGradient id="paint0_linear_1270_40615" x1="16.1382" y1="9.98999" x2="16.1382" y2="21.69" gradientUnits="userSpaceOnUse">
            <stop stop-color="#EE2F53"/>
            <stop offset="1" stop-color="#0166B3"/>
        </linearGradient>
        <linearGradient id="paint1_linear_1270_40615" x1="16.1382" y1="9.98999" x2="16.1382" y2="21.69" gradientUnits="userSpaceOnUse">
            <stop stop-color="#EE2F53"/>
            <stop offset="1" stop-color="#0166B3"/>
        </linearGradient>
        <linearGradient id="paint2_linear_1270_40615" x1="16.1382" y1="9.98999" x2="16.1382" y2="21.69" gradientUnits="userSpaceOnUse">
            <stop stop-color="#EE2F53"/>
            <stop offset="1" stop-color="#0166B3"/>
        </linearGradient>
        <linearGradient id="paint3_linear_1270_40615" x1="16.1382" y1="9.98999" x2="16.1382" y2="21.69" gradientUnits="userSpaceOnUse">
            <stop stop-color="#EE2F53"/>
            <stop offset="1" stop-color="#0166B3"/>
        </linearGradient>
        <linearGradient id="paint4_linear_1270_40615" x1="16.1382" y1="9.98999" x2="16.1382" y2="21.69" gradientUnits="userSpaceOnUse">
            <stop stop-color="#EE2F53"/>
            <stop offset="1" stop-color="#0166B3"/>
        </linearGradient>
        <linearGradient id="paint5_linear_1270_40615" x1="16.1382" y1="9.98999" x2="16.1382" y2="21.69" gradientUnits="userSpaceOnUse">
            <stop stop-color="#EE2F53"/>
            <stop offset="1" stop-color="#0166B3"/>
        </linearGradient>
        <linearGradient id="paint6_linear_1270_40615" x1="16.1382" y1="9.98999" x2="16.1382" y2="21.69" gradientUnits="userSpaceOnUse">
            <stop stop-color="#EE2F53"/>
            <stop offset="1" stop-color="#0166B3"/>
        </linearGradient>
        <linearGradient id="paint7_linear_1270_40615" x1="16.1382" y1="9.98999" x2="16.1382" y2="21.69" gradientUnits="userSpaceOnUse">
            <stop stop-color="#EE2F53"/>
            <stop offset="1" stop-color="#0166B3"/>
        </linearGradient>
        <linearGradient id="paint8_linear_1270_40615" x1="16.1382" y1="9.98999" x2="16.1382" y2="21.69" gradientUnits="userSpaceOnUse">
            <stop stop-color="#EE2F53"/>
            <stop offset="1" stop-color="#0166B3"/>
        </linearGradient>
        <linearGradient id="paint9_linear_1270_40615" x1="16.1382" y1="9.98999" x2="16.1382" y2="21.69" gradientUnits="userSpaceOnUse">
            <stop stop-color="#EE2F53"/>
            <stop offset="1" stop-color="#0166B3"/>
        </linearGradient>
        <linearGradient id="paint10_linear_1270_40615" x1="16.1382" y1="9.98999" x2="16.1382" y2="21.69" gradientUnits="userSpaceOnUse">
            <stop stop-color="#EE2F53"/>
            <stop offset="1" stop-color="#0166B3"/>
        </linearGradient>
        <linearGradient id="paint11_linear_1270_40615" x1="15.0988" y1="29.6095" x2="15.0988" y2="2.45841" gradientUnits="userSpaceOnUse">
            <stop stop-color="#0066B3"/>
            <stop offset="0.354167" stop-color="#0066B3"/>
            <stop offset="0.6875" stop-color="#EE2F53"/>
            <stop offset="1" stop-color="#EE2F53"/>
        </linearGradient>
    </defs>
</svg>
