<svg width="130" height="32" viewBox="0 0 130 32" fill="none" xmlns="http://www.w3.org/2000/svg">
    <path fill-rule="evenodd" clip-rule="evenodd" d="M12.743 31.1858C14.3794 30.3623 23.6584 25.3051 23.6584 16.5148C23.6584 10.1615 18.6618 5.01099 12.498 5.01099C6.33433 5.01099 1.33765 10.1615 1.33765 16.5148C1.33765 25.3051 10.6168 30.3623 12.2531 31.1858C12.4106 31.2651 12.5854 31.2651 12.743 31.1858ZM12.4981 21.4448C15.1398 21.4448 17.2812 19.2375 17.2812 16.5146C17.2812 13.7917 15.1398 11.5844 12.4981 11.5844C9.85652 11.5844 7.71511 13.7917 7.71511 16.5146C7.71511 19.2375 9.85652 21.4448 12.4981 21.4448Z" fill="#2F73FE"/>
    <path d="M1.54344 15.6467H23.4284C24.282 15.6467 24.9724 14.9346 24.9724 14.0559C24.9724 13.1772 24.2816 12.4658 23.4284 12.4658H23.0079C23.0079 8.23999 20.6599 4.58241 17.2363 2.79269L16.3645 7.88737C16.2956 8.29101 15.9549 8.57438 15.5708 8.57438C15.5241 8.57438 15.4771 8.57062 15.43 8.56198C14.9908 8.48118 14.6982 8.05086 14.776 7.59794L15.771 1.77907C15.3986 1.16309 14.7358 0.752686 13.9786 0.752686H10.9927C10.2361 0.752686 9.57417 1.16308 9.20028 1.77907L10.1961 7.59794C10.2734 8.05006 9.98051 8.48113 9.54206 8.56198C9.49501 8.57062 9.44795 8.57438 9.40126 8.57438C9.01681 8.57438 8.67613 8.29101 8.60682 7.88737L7.73579 2.79413C4.3118 4.58193 1.96418 8.23951 1.96418 12.4663H1.54326C0.690456 12.4663 0 13.1781 0 14.0564C0 14.9343 0.690654 15.6467 1.54344 15.6467Z" fill="#009FFF"/>
    <path d="M36.6369 10.125H38.4407L41.4573 18.6875L44.4663 10.125H46.2778L42.1774 21.5H40.7297L36.6369 10.125ZM35.7274 10.125H37.4934L37.8117 17.9922V21.5H35.7274V10.125ZM45.4137 10.125H47.1873V21.5H45.1029V17.9922L45.4137 10.125ZM52.8414 21.6562C52.22 21.6562 51.6615 21.5521 51.1664 21.3438C50.6712 21.1354 50.2493 20.8464 49.9006 20.4766C49.5571 20.1016 49.2918 19.6667 49.1048 19.1719C48.9229 18.6719 48.832 18.1354 48.832 17.5625V17.25C48.832 16.599 48.9229 16.0078 49.1048 15.4766C49.2867 14.9401 49.5444 14.4792 49.8779 14.0938C50.2114 13.7083 50.6106 13.4115 51.0755 13.2031C51.5403 12.9948 52.0532 12.8906 52.614 12.8906C53.1951 12.8906 53.708 12.9922 54.1526 13.1953C54.5973 13.3932 54.9687 13.6745 55.2668 14.0391C55.5649 14.4036 55.7897 14.8411 55.9414 15.3516C56.0929 15.8568 56.1688 16.4167 56.1688 17.0312V17.8984H49.7415V16.4766H54.1981V16.3203C54.188 15.9922 54.1274 15.6927 54.0162 15.4219C53.905 15.1458 53.7333 14.9271 53.5008 14.7656C53.2684 14.599 52.9677 14.5156 52.5989 14.5156C52.3008 14.5156 52.0406 14.5833 51.8182 14.7188C51.6009 14.849 51.419 15.0365 51.2725 15.2812C51.1311 15.5208 51.0249 15.8073 50.9542 16.1406C50.8835 16.474 50.8481 16.8438 50.8481 17.25V17.5625C50.8481 17.9167 50.8936 18.2448 50.9845 18.5469C51.0805 18.849 51.2194 19.112 51.4013 19.3359C51.5883 19.5547 51.8106 19.7266 52.0683 19.8516C52.331 19.9714 52.6292 20.0312 52.9627 20.0312C53.3821 20.0312 53.761 19.9479 54.0996 19.7812C54.4431 19.6094 54.7413 19.3568 54.9939 19.0234L56.002 20.1016C55.8302 20.362 55.5977 20.612 55.3046 20.8516C55.0167 21.0911 54.668 21.2865 54.2587 21.4375C53.8494 21.5833 53.3771 21.6562 52.8414 21.6562ZM59.4733 14.8516V21.5H57.4723V13.0469H59.352L59.4733 14.8516ZM59.155 16.9688H58.5638C58.5688 16.3542 58.6497 15.7969 58.8063 15.2969C58.963 14.7969 59.1827 14.3672 59.4657 14.0078C59.7537 13.6484 60.0948 13.3724 60.4889 13.1797C60.883 12.987 61.3227 12.8906 61.8077 12.8906C62.2018 12.8906 62.5581 12.9479 62.8764 13.0625C63.1948 13.1771 63.4676 13.3594 63.695 13.6094C63.9274 13.8594 64.1043 14.1875 64.2255 14.5938C64.3519 14.9948 64.415 15.4896 64.415 16.0781V21.5H62.3989V16.0625C62.3989 15.6771 62.3434 15.3724 62.2322 15.1484C62.1261 14.9245 61.9694 14.7656 61.7622 14.6719C61.5602 14.5781 61.3101 14.5312 61.0119 14.5312C60.7037 14.5312 60.4333 14.5964 60.2009 14.7266C59.9735 14.8516 59.7815 15.026 59.6249 15.25C59.4733 15.474 59.3571 15.7318 59.2762 16.0234C59.1954 16.3151 59.155 16.6302 59.155 16.9688ZM68.3032 13.0469V21.5H66.2947V13.0469H68.3032ZM66.1582 10.8359C66.1582 10.5286 66.2593 10.2734 66.4614 10.0703C66.6686 9.86719 66.9464 9.76562 67.2951 9.76562C67.6438 9.76562 67.9192 9.86719 68.1213 10.0703C68.3284 10.2734 68.432 10.5286 68.432 10.8359C68.432 11.138 68.3284 11.3906 68.1213 11.5938C67.9192 11.7969 67.6438 11.8984 67.2951 11.8984C66.9464 11.8984 66.6686 11.7969 66.4614 11.5938C66.2593 11.3906 66.1582 11.138 66.1582 10.8359ZM72.1762 14.8516V21.5H70.1753V13.0469H72.055L72.1762 14.8516ZM71.8578 16.9688H71.2667C71.2717 16.3542 71.3526 15.7969 71.5092 15.2969C71.6658 14.7969 71.8857 14.3672 72.1686 14.0078C72.4566 13.6484 72.7977 13.3724 73.1918 13.1797C73.5859 12.987 74.0255 12.8906 74.5106 12.8906C74.9048 12.8906 75.261 12.9479 75.5793 13.0625C75.8976 13.1771 76.1705 13.3594 76.3978 13.6094C76.6303 13.8594 76.8071 14.1875 76.9284 14.5938C77.0547 14.9948 77.1179 15.4896 77.1179 16.0781V21.5H75.1018V16.0625C75.1018 15.6771 75.0462 15.3724 74.935 15.1484C74.8289 14.9245 74.6723 14.7656 74.4651 14.6719C74.263 14.5781 74.0129 14.5312 73.7148 14.5312C73.4066 14.5312 73.1363 14.5964 72.9038 14.7266C72.6764 14.8516 72.4844 15.026 72.3278 15.25C72.1762 15.474 72.06 15.7318 71.9791 16.0234C71.8983 16.3151 71.8578 16.6302 71.8578 16.9688ZM84.0984 13.0469H85.9174V21.2422C85.9174 22.0078 85.7558 22.6562 85.4323 23.1875C85.114 23.724 84.6669 24.1302 84.0908 24.4062C83.5148 24.6875 82.8453 24.8281 82.0823 24.8281C81.7539 24.8281 81.3977 24.7812 81.0136 24.6875C80.6347 24.5938 80.2683 24.4453 79.9146 24.2422C79.566 24.0443 79.2755 23.7865 79.043 23.4688L79.945 22.25C80.2178 22.5781 80.526 22.8255 80.8696 22.9922C81.2133 23.1641 81.5846 23.25 81.9837 23.25C82.388 23.25 82.7316 23.1719 83.0145 23.0156C83.3026 22.8646 83.5224 22.6406 83.6739 22.3438C83.8306 22.0521 83.9089 21.6927 83.9089 21.2656V14.9766L84.0984 13.0469ZM78.558 17.375V17.2109C78.558 16.5651 78.6337 15.9792 78.7854 15.4531C78.9369 14.9219 79.1542 14.4661 79.4371 14.0859C79.7251 13.7057 80.0713 13.4115 80.4756 13.2031C80.8848 12.9948 81.3446 12.8906 81.8549 12.8906C82.3956 12.8906 82.8504 12.9922 83.2192 13.1953C83.5931 13.3984 83.9013 13.6875 84.1439 14.0625C84.3915 14.4375 84.5835 14.8828 84.72 15.3984C84.8614 15.9089 84.9701 16.4714 85.0458 17.0859V17.5312C84.9751 18.1302 84.8614 18.6797 84.7047 19.1797C84.5532 19.6797 84.3511 20.1172 84.0984 20.4922C83.8457 20.862 83.5325 21.1484 83.1586 21.3516C82.7847 21.5547 82.345 21.6562 81.8398 21.6562C81.3345 21.6562 80.8797 21.5495 80.4756 21.3359C80.0713 21.1224 79.7251 20.8229 79.4371 20.4375C79.1542 20.0521 78.9369 19.599 78.7854 19.0781C78.6337 18.5573 78.558 17.9896 78.558 17.375ZM80.5589 17.2109V17.375C80.5589 17.7396 80.5943 18.0807 80.665 18.3984C80.7357 18.7161 80.8444 18.9974 80.9909 19.2422C81.1375 19.4818 81.3219 19.6693 81.5442 19.8047C81.7665 19.9401 82.0318 20.0078 82.34 20.0078C82.7543 20.0078 83.0929 19.9193 83.3556 19.7422C83.6235 19.5599 83.8256 19.3125 83.962 19C84.1034 18.6823 84.1944 18.3255 84.2349 17.9297V16.7031C84.2096 16.3906 84.154 16.1016 84.0681 15.8359C83.9873 15.5703 83.8736 15.3411 83.727 15.1484C83.5805 14.9557 83.3936 14.8047 83.1662 14.6953C82.9388 14.5859 82.6685 14.5312 82.3552 14.5312C82.052 14.5312 81.7867 14.6016 81.5593 14.7422C81.332 14.8776 81.1451 15.0677 80.9985 15.3125C80.852 15.5573 80.7408 15.8411 80.665 16.1641C80.5943 16.487 80.5589 16.8359 80.5589 17.2109ZM93.5346 10.125V21.5H92.0718V10.125H93.5346ZM100.758 19.2578C100.758 19.0495 100.712 18.8568 100.621 18.6797C100.536 18.4974 100.356 18.3333 100.084 18.1875C99.8158 18.0365 99.4112 17.9062 98.8708 17.7969C98.4158 17.6979 98.0035 17.5807 97.6349 17.4453C97.2711 17.3099 96.9604 17.1458 96.7028 16.9531C96.4501 16.7604 96.2556 16.5339 96.1192 16.2734C95.9827 16.013 95.9145 15.7083 95.9145 15.3594C95.9145 15.026 95.9852 14.7109 96.1268 14.4141C96.2733 14.1172 96.478 13.8542 96.7407 13.625C97.0084 13.3958 97.3293 13.2161 97.7028 13.0859C98.0773 12.9557 98.4944 12.8906 98.9543 12.8906C99.6111 12.8906 100.172 13.0104 100.637 13.25C101.101 13.4896 101.457 13.8099 101.705 14.2109C101.953 14.6068 102.076 15.0469 102.076 15.5312H100.674C100.674 15.2969 100.606 15.0703 100.47 14.8516C100.339 14.6276 100.144 14.4427 99.8856 14.2969C99.6334 14.151 99.3229 14.0781 98.9543 14.0781C98.5643 14.0781 98.249 14.1406 98.0064 14.2656C97.7688 14.3854 97.5941 14.5391 97.4835 14.7266C97.3778 14.9141 97.3244 15.112 97.3244 15.3203C97.3244 15.4766 97.3497 15.6172 97.4001 15.7422C97.4554 15.862 97.5514 15.974 97.6882 16.0781C97.8241 16.1771 98.0161 16.2708 98.2645 16.3594C98.5119 16.4479 98.8272 16.5365 99.2114 16.625C99.8837 16.7812 100.437 16.9688 100.871 17.1875C101.306 17.4062 101.629 17.6745 101.841 17.9922C102.054 18.3099 102.16 18.6953 102.16 19.1484C102.16 19.5182 102.084 19.8568 101.933 20.1641C101.786 20.4714 101.571 20.737 101.288 20.9609C101.01 21.1797 100.677 21.3516 100.288 21.4766C99.9041 21.5964 99.4714 21.6562 98.9921 21.6562C98.2694 21.6562 97.6582 21.5234 97.1576 21.2578C96.6573 20.9922 96.2783 20.6484 96.0206 20.2266C95.763 19.8047 95.6341 19.3594 95.6341 18.8906H97.044C97.0644 19.2865 97.175 19.6016 97.3778 19.8359C97.5796 20.0651 97.827 20.2292 98.1199 20.3281C98.4129 20.4219 98.704 20.4688 98.9921 20.4688C99.3753 20.4688 99.6964 20.4167 99.9545 20.3125C100.217 20.2083 100.416 20.0651 100.553 19.8828C100.69 19.7005 100.758 19.4922 100.758 19.2578ZM105.404 9.5V21.5H104.002V9.5H105.404ZM105.07 16.9531L104.487 16.9297C104.492 16.3516 104.575 15.8177 104.736 15.3281C104.898 14.8333 105.126 14.4036 105.419 14.0391C105.712 13.6745 106.061 13.3932 106.465 13.1953C106.875 12.9922 107.327 12.8906 107.821 12.8906C108.226 12.8906 108.59 12.9479 108.913 13.0625C109.236 13.1719 109.511 13.349 109.739 13.5938C109.971 13.8385 110.149 14.1562 110.27 14.5469C110.391 14.9323 110.452 15.4036 110.452 15.9609V21.5H109.042V15.9453C109.042 15.5026 108.979 15.1484 108.853 14.8828C108.726 14.612 108.541 14.4167 108.299 14.2969C108.056 14.1719 107.758 14.1094 107.404 14.1094C107.056 14.1094 106.738 14.1849 106.45 14.3359C106.166 14.487 105.922 14.6953 105.714 14.9609C105.512 15.2266 105.353 15.5312 105.237 15.875C105.126 16.2135 105.07 16.5729 105.07 16.9531ZM114.074 13.0469V21.5H112.664V13.0469H114.074ZM112.559 10.8047C112.559 10.5703 112.627 10.3724 112.763 10.2109C112.905 10.0495 113.112 9.96875 113.385 9.96875C113.653 9.96875 113.858 10.0495 113.998 10.2109C114.145 10.3724 114.219 10.5703 114.219 10.8047C114.219 11.0286 114.145 11.2214 113.998 11.3828C113.858 11.5391 113.653 11.6172 113.385 11.6172C113.112 11.6172 112.905 11.5391 112.763 11.3828C112.627 11.2214 112.559 11.0286 112.559 10.8047ZM117.72 14.7266V21.5H116.31V13.0469H117.644L117.72 14.7266ZM117.432 16.9531L116.781 16.9297C116.786 16.3516 116.858 15.8177 117 15.3281C117.142 14.8333 117.351 14.4036 117.63 14.0391C117.907 13.6745 118.253 13.3932 118.668 13.1953C119.082 12.9922 119.562 12.8906 120.107 12.8906C120.492 12.8906 120.846 12.9479 121.169 13.0625C121.492 13.1719 121.772 13.3464 122.01 13.5859C122.248 13.8255 122.432 14.1328 122.563 14.5078C122.695 14.8828 122.761 15.3359 122.761 15.8672V21.5H121.358V15.9375C121.358 15.4948 121.285 15.1406 121.139 14.875C120.997 14.6094 120.795 14.4167 120.532 14.2969C120.269 14.1719 119.961 14.1094 119.608 14.1094C119.194 14.1094 118.847 14.1849 118.569 14.3359C118.291 14.487 118.069 14.6953 117.902 14.9609C117.735 15.2266 117.614 15.5312 117.538 15.875C117.468 16.2135 117.432 16.5729 117.432 16.9531ZM122.745 16.1562L121.805 16.4531C121.81 15.9896 121.884 15.5443 122.025 15.1172C122.172 14.6901 122.381 14.3099 122.654 13.9766C122.932 13.6432 123.273 13.3802 123.678 13.1875C124.082 12.9896 124.544 12.8906 125.065 12.8906C125.504 12.8906 125.893 12.9505 126.232 13.0703C126.575 13.1901 126.864 13.375 127.095 13.625C127.333 13.8698 127.513 14.1849 127.634 14.5703C127.755 14.9557 127.816 15.4141 127.816 15.9453V21.5H126.406V15.9297C126.406 15.4557 126.333 15.0885 126.186 14.8281C126.045 14.5625 125.843 14.3776 125.58 14.2734C125.322 14.1641 125.014 14.1094 124.655 14.1094C124.347 14.1094 124.074 14.1641 123.837 14.2734C123.599 14.3828 123.399 14.5339 123.238 14.7266C123.076 14.9141 122.953 15.1302 122.867 15.375C122.786 15.6198 122.745 15.8802 122.745 16.1562Z" fill="#333333"/>
</svg>
