<svg width="82" height="32" viewBox="0 0 82 32" fill="none" xmlns="http://www.w3.org/2000/svg">
    <g clip-path="url(#clip0_2441_39785)">
        <path fill-rule="evenodd" clip-rule="evenodd" d="M15.3176 15.9381C15.6231 15.9381 15.8905 16.2034 15.8905 16.5067C15.8905 16.6962 15.7759 16.8858 15.6231 16.9616V18.2883L14.6683 19.236V21.0556C14.6683 21.2072 14.5156 21.3588 14.3628 21.3588C14.2101 21.3588 14.0573 21.2072 14.0573 21.0556V19.0844C14.0573 19.0465 14.0573 19.0465 14.0573 19.0086C14.0573 19.0086 14.0573 19.0086 14.0955 18.9707L14.9357 18.1367V17.0374C14.7829 16.9236 14.6683 16.772 14.6683 16.5825C14.7447 16.1655 15.0121 15.9381 15.3176 15.9381ZM12.2623 -0.286377C10.8874 0.206421 9.5507 0.926666 8.48136 1.87436C7.29741 2.89787 6.34265 4.18671 5.73157 5.6272C5.34967 6.53698 5.08234 7.48468 4.96777 8.47029C4.70041 11.1617 5.76978 13.512 7.8321 15.2557C8.13764 15.5211 8.44318 15.7864 8.71051 16.0518C8.90147 16.2792 9.09241 16.4688 9.20698 16.772C9.20698 16.772 9.20698 16.8099 9.24519 16.8099C9.13062 16.9616 9.01605 17.1132 8.90147 17.2269C8.90147 17.1132 8.86326 16.9995 8.82508 16.9236C8.74869 16.6962 8.59593 16.5446 8.44318 16.355C8.17582 16.0897 7.87028 15.8244 7.56477 15.5969C5.38785 13.7394 4.28033 11.2754 4.54766 8.43236C4.66223 7.40886 4.92956 6.42326 5.31149 5.47558C6.30447 3.23904 7.67935 1.68482 9.81806 0.509681C6.9537 1.41946 2.48532 4.22461 1.7215 8.16702C1.68331 8.09119 1.56873 7.90164 1.49235 7.75003C0.384801 10.214 -0.149875 14.1185 1.11044 16.1276C0.919481 16.0518 0.766714 15.976 0.690334 15.8623C0.995864 17.3406 1.53054 19.9184 3.74564 19.8805C3.21096 19.9942 2.63809 19.9942 2.25618 19.9184C2.79086 20.8661 3.66925 22.1928 4.96777 22.117C4.7768 22.2686 4.35669 22.3823 4.12754 22.4203C4.54766 22.8752 5.31149 23.7849 6.53361 23.6333C6.38083 23.7849 6.1135 23.8608 5.76978 23.8987C6.34265 24.3535 6.95369 24.7326 7.60295 25.0738C7.67935 25.2633 7.79392 25.4908 7.87028 25.6803C6.83912 25.1875 5.84614 24.5431 4.96777 23.7849C5.08234 23.7849 5.1587 23.7849 5.2351 23.747C4.28033 23.4059 3.82201 22.7235 3.40192 22.2307C3.5165 22.2307 3.59286 22.2307 3.66925 22.1928C2.67628 21.7 1.98884 20.3732 1.53054 19.5393C1.64512 19.5772 1.83607 19.5772 1.91245 19.5393C0.728524 18.44 0.346611 16.6204 0.117464 15.142C0.193846 15.1799 0.232038 15.2178 0.270228 15.2178C-0.226258 13.0571 -0.149875 10.1761 1.45416 6.99187C1.49235 7.06769 1.53054 7.10559 1.60692 7.14352C3.13457 2.93577 7.64113 0.0926988 12.2623 -0.286377ZM18.2201 29.8122C17.991 29.9639 17.7618 30.1155 17.6855 30.4187C17.3417 30.6083 17.0744 30.722 16.5779 30.7978C17.0744 30.8737 17.5327 30.8357 18.0292 30.722C17.991 30.3808 18.0674 30.0397 18.2201 29.8122ZM19.3277 28.4476C19.3277 28.5992 19.3277 28.7887 19.3277 28.9025C19.1749 29.0162 18.8694 29.1299 18.6021 29.1678C19.0985 29.2436 19.5568 29.2057 19.9769 29.0162C19.7096 28.9025 19.5186 28.7508 19.3277 28.4476ZM18.3347 29.5469C19.0985 29.7743 19.9769 29.7743 20.8172 29.1299C20.0915 28.7129 19.4805 28.1443 19.0985 27.4241L19.4422 27.1208C19.8624 27.9927 20.6262 28.6371 21.581 29.0162C20.9699 29.7743 19.9769 30.1913 19.1367 30.1155C18.8312 30.4567 18.7166 31.101 19.0222 31.5182C17.4563 31.7077 16.5397 31.973 15.4704 31.1389L15.5468 30.6462C15.9287 30.9116 16.196 31.1389 16.6543 31.2147C16.9598 31.2526 17.3035 31.2526 17.6091 31.2147C17.8764 31.1768 18.1055 31.1389 18.3729 31.1389C18.3347 30.722 18.4111 30.2671 18.6784 29.9639C18.5639 29.8122 18.4111 29.7364 18.3347 29.5469ZM9.77985 29.8122C10.009 29.9639 10.2382 30.1155 10.3145 30.4187C10.6583 30.6083 10.9256 30.722 11.4221 30.7978C10.9256 30.8737 10.4673 30.8357 9.97081 30.722C9.97081 30.3808 9.89442 30.0397 9.77985 29.8122ZM8.63411 28.4476C8.63411 28.5992 8.63411 28.7887 8.63411 28.9025C8.7869 29.0162 9.09241 29.1299 9.35977 29.1678C8.86326 29.2436 8.40497 29.2057 7.98485 29.0162C8.29039 28.9025 8.44318 28.7508 8.63411 28.4476ZM9.62709 29.5469C8.86326 29.7743 7.98485 29.7743 7.14466 29.1299C7.87028 28.7129 8.48136 28.1443 8.86326 27.4241L8.51954 27.1208C8.09943 27.9927 7.33563 28.6371 6.38083 29.0162C6.99191 29.7743 7.98485 30.1913 8.82508 30.1155C9.13062 30.4567 9.24519 31.101 8.93965 31.5182C10.5055 31.7077 11.4221 31.973 12.4915 31.1389L12.4151 30.6462C12.0331 30.9116 11.7658 31.1389 11.3075 31.2147C11.002 31.2526 10.6583 31.2526 10.3527 31.2147C10.0854 31.1768 9.85624 31.1389 9.58891 31.1389C9.62709 30.722 9.5507 30.2671 9.28337 29.9639C9.43613 29.8122 9.5507 29.7364 9.62709 29.5469ZM18.7166 16.8099C18.8312 16.9616 18.9458 17.1132 19.0603 17.2269C19.0603 17.1132 19.0985 16.9995 19.1367 16.9236C19.2131 16.6962 19.3659 16.5446 19.5186 16.355C19.786 16.0897 20.0915 15.8244 20.397 15.5969C22.5739 13.7394 23.6815 11.2754 23.4142 8.43236C23.2996 7.40886 23.0322 6.42326 22.6503 5.47558C21.6573 3.20111 20.2825 1.64691 18.1438 0.471774C21.0081 1.38156 25.5147 4.18671 26.2785 8.12909C26.3167 8.05329 26.4313 7.86375 26.5076 7.71213C27.6152 10.1761 28.1117 14.1185 26.8896 16.0897C27.0805 16.0139 27.2333 15.9381 27.3096 15.8243C27.0041 17.3027 26.4695 19.8805 24.2544 19.8426C24.789 19.9563 25.3619 19.9563 25.7438 19.8805C25.2092 20.8281 24.3307 22.1549 23.0322 22.0791C23.2232 22.2307 23.6433 22.3444 23.8725 22.3823C23.4523 22.8372 22.6885 23.747 21.4664 23.5954C21.6192 23.747 21.8865 23.8228 22.2302 23.8608C21.6573 24.3156 21.0463 24.6947 20.397 25.0359C20.3207 25.2254 20.2061 25.4529 20.1297 25.6424C21.1609 25.1496 22.1539 24.5052 23.0322 23.747C22.9177 23.747 22.8413 23.747 22.7649 23.7091C23.7197 23.3679 24.178 22.6856 24.5981 22.1928C24.4835 22.1928 24.4071 22.1928 24.3307 22.1549C25.3237 21.6621 26.0112 20.3353 26.4695 19.5014C26.3549 19.5393 26.1639 19.5393 26.0876 19.5014C27.2715 18.4021 27.6534 16.5825 27.8825 15.1041C27.8062 15.142 27.7679 15.1799 27.7298 15.1799C28.2263 13.0192 28.1499 10.1382 26.5459 6.95397C26.5076 7.0298 26.4695 7.06769 26.3931 7.10559C24.8654 2.93577 20.3589 0.0926988 15.6995 -0.286377C17.0744 0.206421 18.4111 0.926666 19.4805 1.87436C20.6644 2.89787 21.6192 4.18671 22.2302 5.6272C22.6121 6.53698 22.8795 7.48468 22.994 8.47029C23.2614 11.1617 22.192 13.512 20.1297 15.2557C19.8242 15.5211 19.5186 15.7864 19.2513 16.0518C19.0603 16.2792 18.8694 16.4688 18.7548 16.772C18.7548 16.772 18.7548 16.772 18.7166 16.8099ZM13.4844 13.6636C13.0261 13.512 12.8734 13.0571 13.0643 12.5643C13.0643 12.9054 13.1789 13.1708 13.4462 13.2845C13.7135 13.095 13.7899 12.8297 13.7135 12.4885C13.9809 12.9813 13.9045 13.4741 13.4844 13.6636ZM16.8071 11.5408C16.5779 11.4271 16.3488 11.3892 16.1196 11.3892C16.005 11.3892 15.8905 11.3133 15.9287 11.0859C15.6995 11.6166 15.6231 11.9198 14.9357 11.7682C14.5538 11.6924 14.3628 11.9957 14.4392 12.3368C14.4774 12.5264 14.5538 12.8297 14.3628 13.0192C14.2864 12.7159 14.0955 12.5643 13.9045 12.4506C14.2482 12.9434 14.0955 13.2466 14.0191 13.3983C14.8211 13.2466 14.8211 13.891 14.7065 14.1943C14.8975 14.1943 15.0885 14.2322 15.2412 14.2322C15.0502 13.5878 14.8975 12.9434 14.8211 12.261C14.8211 12.1473 14.8211 12.1094 14.8975 12.1473C15.3558 12.2231 15.7759 12.1473 16.0432 11.7682C16.5015 11.7303 16.8452 11.8819 17.189 12.1094C17.2654 11.3892 17.3035 10.7068 16.4252 10.4415C16.3106 10.0245 15.9668 9.87285 15.5468 9.91075C14.9739 9.0389 12.9497 9.94867 12.1477 9.38006C11.8804 9.19052 11.804 8.84935 11.7658 8.54608C11.4985 8.81145 11.2693 9.00097 11.1548 9.38006C10.9638 9.91075 11.0784 10.5552 11.4221 11.0101C11.6512 11.3133 11.995 11.5408 12.3387 11.6166C12.3005 11.6545 12.2623 11.6924 12.2623 11.7303C11.804 12.4506 11.8804 13.512 11.8804 14.3459C11.995 14.308 12.1477 14.308 12.2623 14.2701C12.1477 13.891 12.2623 13.4362 12.8352 13.3983C12.7588 13.2466 12.6442 12.9434 12.9497 12.4506C12.7588 12.5264 12.5678 12.7159 12.4915 13.0192C12.3387 12.7917 12.3387 12.5643 12.4151 12.3748C12.4532 12.261 12.4915 12.1852 12.5296 12.1094V12.0715C12.9115 11.3133 14.2864 11.8061 14.6683 10.631C14.5538 10.7826 14.401 10.8963 14.2482 10.9722C14.0191 11.0859 13.8281 10.631 13.5226 10.631C13.6372 10.7068 13.6754 10.8584 13.6754 11.0101C13.6372 11.1617 13.5608 11.1996 13.4462 11.0859C13.3316 10.9722 13.2553 10.7447 13.0261 10.7068C13.1407 10.8206 13.1407 10.9722 13.1025 11.0859C13.0643 11.2375 12.9497 11.3133 12.8352 11.1617C12.7588 11.0859 12.7206 10.9343 12.606 10.8584C12.6442 11.048 12.4532 11.2375 12.2241 11.1238C11.8804 10.9722 11.6512 10.7447 11.4985 10.4036C11.3839 10.0624 11.3839 9.6833 11.5367 9.38006C11.5367 9.38006 11.5367 9.38006 11.5367 9.34213C12.2623 10.6689 14.8593 9.38006 15.203 10.214L15.2412 10.3657H15.394C15.6613 10.3277 15.9668 10.3277 16.005 10.6689V10.8206L16.1196 10.8584C16.6161 10.8963 16.8071 11.1617 16.8071 11.5408ZM12.6442 14.2322C12.7206 14.0806 12.8352 14.0048 12.9115 13.929C12.8734 14.0427 12.8352 14.1185 12.797 14.2322C12.7588 14.2322 12.7206 14.2322 12.6442 14.2322ZM14.2482 14.1943C14.2101 14.0806 14.0955 13.9289 13.9809 13.7773C14.1718 13.8152 14.3628 13.929 14.5156 14.1943C14.4392 14.1943 14.3246 14.1943 14.2482 14.1943ZM13.0643 14.1943C13.0643 14.1185 13.1025 14.0427 13.1025 13.9669C13.1025 14.0427 13.1025 14.1185 13.1407 14.1564L13.0643 14.1943ZM13.8663 14.1943C13.8663 14.1185 13.8281 14.0048 13.8281 13.891C13.9045 14.0048 13.9427 14.0806 13.9809 14.1943H13.8663ZM4.16573 9.87285C4.08936 12.3368 5.12052 14.4218 7.29741 16.4309C7.75571 16.9236 7.79392 17.4544 7.94667 17.9472C8.02307 17.9093 8.09943 17.8714 8.17582 17.7955C8.13764 17.5681 8.13764 17.3785 8.09943 17.2269C8.21403 17.3027 8.29039 17.4544 8.36679 17.6818C8.44318 17.6439 8.48136 17.5681 8.55775 17.5302C8.55775 17.4544 8.51954 17.3785 8.51954 17.3027C8.51954 17.2269 8.48136 17.1132 8.44318 17.0374C8.29039 16.6583 7.60295 16.1276 7.29741 15.8623C5.46424 14.2701 4.31851 12.2231 4.16573 9.87285ZM4.28033 13.5878C1.64512 11.2754 2.29437 7.18142 4.31851 5.51348C4.08936 6.46119 4.05115 7.40886 4.16573 8.39446C4.28033 7.33303 4.54766 6.30954 4.96777 5.32393C5.46424 4.18671 6.18989 3.04949 7.10648 2.06389C5.12052 3.31483 3.09639 5.21021 2.33256 7.37096C1.68331 9.30424 1.98884 12.1852 4.28033 13.5878ZM1.37778 9.38006C0.270228 12.9813 0.613951 17.3785 4.08936 16.4309C1.95065 16.5067 1.18682 15.1799 1.37778 12.261C1.91245 13.5499 3.0582 14.2322 4.12754 14.5734C2.44713 13.3983 1.45416 12.1094 1.37778 9.38006ZM1.33958 16.9236C1.87426 19.6151 3.63107 19.7288 4.66223 18.7432C3.4401 19.3876 2.5999 18.819 2.21799 17.9093C3.21096 17.9851 3.70743 17.7197 4.20394 17.3027C3.32553 17.5681 2.40894 17.606 1.33958 16.9236ZM3.02 20.487C4.28033 22.4203 5.57882 21.4726 5.92254 20.7902C5.34967 21.283 4.50948 21.3588 4.08936 20.8281C4.62405 20.6007 5.00595 20.1837 5.19692 19.7667C4.54766 20.2595 3.82201 20.487 3.02 20.487ZM6.38083 21.283C6.03711 21.9654 5.50242 22.4203 4.81498 22.6098C5.46424 23.33 6.4954 23.4438 6.91551 22.8752C6.91551 22.7614 6.87733 22.6856 6.87733 22.5719C6.60998 22.8752 6.18986 22.9889 5.76978 22.6856C6.1135 22.2686 6.30447 21.8137 6.38083 21.283ZM7.25923 24.2019C7.22105 24.0503 7.18284 23.8987 7.14466 23.7849C6.99191 23.9745 6.83912 24.0503 6.60998 24.0882C6.91551 24.2777 7.14466 24.3156 7.25923 24.2019ZM4.47126 14.3839C4.01297 16.8099 5.2351 16.5446 5.96072 16.4688C5.27328 16.355 4.70041 16.0897 4.73862 15.3694C5.08234 15.5969 5.57882 15.6727 5.96072 15.6727C5.08234 15.2936 4.66223 14.6113 4.47126 14.3839ZM4.50948 16.8099C4.47126 18.9707 5.80796 18.44 6.26626 17.9851C5.617 18.2125 5.08234 18.0988 5.04413 17.4923C5.57882 17.5302 5.92254 17.3027 6.15168 17.0753C5.1587 17.3406 4.73862 16.9995 4.50948 16.8099ZM5.00595 18.9707C5.617 20.487 6.30447 20.07 6.68637 19.5393C6.68637 19.4635 6.68637 19.4256 6.68637 19.3497C6.26626 19.6909 5.88436 19.7288 5.73157 19.3877C6.22808 19.1602 6.41904 18.7811 6.4954 18.4779C5.80796 19.1223 5.27328 19.0086 5.00595 18.9707ZM5.96072 20.487C6.26626 20.9419 6.53361 21.1693 6.72455 21.283C6.68637 20.9798 6.68637 20.6386 6.68637 20.3353C6.38083 20.5249 6.1135 20.487 5.96072 20.487ZM6.26626 16.4309C6.30447 18.023 7.06827 17.7197 7.48838 17.5302C7.06827 17.5681 6.64819 17.4923 6.64819 16.9995C6.91551 17.0753 7.14466 17.0374 7.37381 16.9995C6.76276 16.9236 6.38083 16.5446 6.26626 16.4309ZM6.53361 17.9851C6.60998 18.2504 6.68637 18.44 6.76276 18.5916V18.4779L6.95369 18.4021C6.95369 18.3641 6.9537 18.3641 6.91551 18.3262C7.25923 18.2504 7.41199 18.0609 7.52656 17.8714C6.99191 18.2125 6.68637 18.0609 6.53361 17.9851ZM3.55468 7.44676C2.90543 8.6598 2.79086 11.0859 4.24212 12.7917C3.8984 12.3368 3.40192 10.7447 3.59286 9.45586C3.40192 8.88725 3.36371 8.16702 3.55468 7.44676ZM1.95065 14.1943C2.17979 15.2557 2.75266 15.9002 3.78382 15.9381C3.36371 15.7485 3.02 15.559 2.82905 15.2557C3.09639 15.2936 3.40192 15.2936 3.70743 15.1799C2.98181 15.0662 2.40894 14.6871 1.95065 14.1943ZM3.36371 18.3641C3.63107 18.5916 3.97479 18.6295 4.31851 18.4779C4.20394 18.4779 4.08936 18.44 4.01297 18.3641C4.08936 18.2883 4.12754 18.1746 4.12754 18.0988C3.93658 18.2883 3.63107 18.3641 3.36371 18.3641ZM4.81498 20.7523C5.08234 20.7902 5.38785 20.8281 5.617 20.5628C5.50242 20.6007 5.42606 20.6007 5.34967 20.5628C5.38785 20.4491 5.38785 20.3353 5.34967 20.2216C5.27328 20.4491 5.08234 20.6386 4.81498 20.7523ZM6.30447 22.4203C6.4954 22.3823 6.68637 22.3065 6.80094 22.1549C6.80094 22.117 6.80094 22.0791 6.80094 22.0033C6.76276 22.0033 6.72455 22.0412 6.68637 22.0033C6.68637 21.9275 6.60998 21.7758 6.53361 21.7C6.57179 21.9654 6.45722 22.2307 6.30447 22.4203ZM23.8343 9.87285C23.9106 12.3368 22.8795 14.4218 20.7026 16.4309C20.2443 16.9236 20.2061 17.4544 20.0533 17.9472C19.9769 17.9093 19.9005 17.8714 19.8242 17.7955C19.8624 17.5681 19.8624 17.3785 19.9005 17.2269C19.786 17.3027 19.7096 17.4544 19.6332 17.6818C19.5568 17.6439 19.5186 17.5681 19.4422 17.5302C19.4422 17.4544 19.4805 17.3785 19.4805 17.3027C19.4805 17.2269 19.5186 17.1132 19.5568 17.0374C19.7096 16.6583 20.397 16.1276 20.7026 15.8623C22.5358 14.2701 23.6433 12.2231 23.8343 9.87285ZM23.6815 13.5878C26.3167 11.2375 25.6674 7.18142 23.6433 5.47558C23.8725 6.42326 23.9106 7.37096 23.7961 8.35656C23.6815 7.29514 23.4142 6.27164 22.994 5.28604C22.4976 4.14882 21.7719 3.01159 20.8553 2.02598C22.8413 3.27694 24.8654 5.17231 25.6292 7.33303C26.3167 9.30424 26.0112 12.1852 23.6815 13.5878ZM26.584 9.38006C27.6916 12.9813 27.3479 17.3785 23.8725 16.4309C26.0112 16.5067 26.775 15.1799 26.584 12.261C26.0493 13.5499 24.9036 14.2322 23.8343 14.5734C25.5147 13.3983 26.5076 12.1094 26.584 9.38006ZM26.6222 16.9236C26.0875 19.6151 24.3307 19.7288 23.2996 18.7432C24.5217 19.3876 25.3619 18.819 25.7438 17.9093C24.7509 17.9851 24.2544 17.7197 23.7579 17.3027C24.6745 17.5681 25.5911 17.606 26.6222 16.9236ZM24.9418 20.487C23.6815 22.4203 22.383 21.4726 22.0393 20.7902C22.6121 21.283 23.4523 21.3588 23.8725 20.8281C23.3378 20.6007 22.9559 20.1837 22.7649 19.7667C23.4523 20.2595 24.178 20.487 24.9418 20.487ZM21.6192 21.283C21.9629 21.9654 22.4976 22.4203 23.185 22.6098C22.5358 23.33 21.5046 23.4438 21.0845 22.8752C21.0845 22.7614 21.1227 22.6856 21.1227 22.5719C21.39 22.8752 21.8101 22.9889 22.2302 22.6856C21.8865 22.2686 21.6955 21.8137 21.6192 21.283ZM20.7408 24.2019C20.7789 24.0503 20.8172 23.8987 20.8553 23.7849C21.0081 23.9745 21.1609 24.0503 21.39 24.0882C21.0463 24.2777 20.8553 24.3156 20.7408 24.2019ZM23.4905 14.3839C23.9488 16.8099 22.7267 16.5446 22.0011 16.4688C22.6885 16.355 23.2614 16.0897 23.2232 15.3694C22.9177 15.5969 22.383 15.6348 22.0393 15.6348C22.9177 15.2936 23.2996 14.6113 23.4905 14.3839ZM23.4523 16.8099C23.4905 18.9707 22.1539 18.44 21.6955 17.9851C22.3448 18.2125 22.8795 18.0988 22.9177 17.4923C22.383 17.5302 22.0392 17.3027 21.8101 17.0753C22.8031 17.3406 23.2614 16.9995 23.4523 16.8099ZM22.9559 18.9707C22.3448 20.487 21.6573 20.07 21.2754 19.5393C21.2754 19.4635 21.2754 19.4256 21.2754 19.3497C21.6955 19.6909 22.0775 19.7288 22.2302 19.3877C21.7337 19.1602 21.5428 18.7811 21.4664 18.4779C22.1539 19.1223 22.6885 19.0086 22.9559 18.9707ZM22.0393 20.487C21.7337 20.9419 21.4664 21.1693 21.2754 21.283C21.3136 20.9798 21.3136 20.6386 21.3136 20.3353C21.581 20.5249 21.8483 20.487 22.0393 20.487ZM21.7337 16.4309C21.6955 18.023 20.9317 17.7197 20.5116 17.5302C20.9317 17.5681 21.3518 17.4923 21.3518 16.9995C21.0845 17.0753 20.8553 17.0374 20.6262 16.9995C21.2372 16.9236 21.581 16.5446 21.7337 16.4309ZM21.4664 17.9851C21.39 18.2504 21.3136 18.44 21.2372 18.5916V18.4779L21.0081 18.4021C21.0081 18.3641 21.0081 18.3641 21.0463 18.3262C20.7026 18.2504 20.5498 18.0609 20.4352 17.8714C20.9699 18.2125 21.3136 18.0609 21.4664 17.9851ZM24.4071 7.44676C25.0564 8.6598 25.1709 11.0859 23.7197 12.7917C24.0634 12.3368 24.5599 10.7447 24.3689 9.45586C24.5599 8.88725 24.6363 8.16702 24.4071 7.44676ZM26.0112 14.1943C25.782 15.2557 25.2092 15.9002 24.178 15.9381C24.5981 15.7485 24.9418 15.559 25.1328 15.2557C24.8654 15.2936 24.5599 15.2936 24.2544 15.1799C25.0182 15.0662 25.5911 14.6871 26.0112 14.1943ZM24.6363 18.3641C24.3689 18.5916 24.0252 18.6295 23.6815 18.4779C23.7961 18.4779 23.9106 18.44 23.987 18.3641C23.9106 18.2883 23.8725 18.1746 23.8725 18.0988C24.0634 18.2883 24.3307 18.3641 24.6363 18.3641ZM23.185 20.7523C22.9177 20.7902 22.6121 20.8281 22.383 20.5628C22.4976 20.6007 22.5739 20.6007 22.6503 20.5628C22.6121 20.4491 22.6121 20.3353 22.6503 20.2216C22.6885 20.4491 22.9177 20.6386 23.185 20.7523ZM21.6955 22.4203C21.5046 22.3823 21.3136 22.3065 21.1991 22.1549C21.1991 22.117 21.1991 22.0791 21.1991 22.0033C21.2372 22.0033 21.2754 22.0412 21.3136 22.0033C21.3136 21.9275 21.39 21.7758 21.4664 21.7C21.4282 21.9654 21.5046 22.2307 21.6955 22.4203ZM14.0191 10.1382C14.5538 10.4036 14.9357 10.1761 15.2412 10.3277C15.4704 10.4415 15.5849 10.8963 15.2794 10.9722C15.2794 10.7447 15.0885 10.7826 14.9739 10.7826C14.8593 10.7826 14.7447 10.6689 14.7447 10.5552C14.7447 10.5173 14.7447 10.4794 14.7829 10.4415C14.5156 10.4415 14.2101 10.4036 14.0191 10.1382ZM11.8422 10.0245C11.804 10.4036 11.9568 10.7068 12.3005 10.8963C12.2241 10.7447 12.1859 10.5931 12.1477 10.4036C12.7206 10.4794 13.3316 10.3657 13.8281 10.1382C13.0643 10.3277 12.4151 10.2519 11.8422 10.0245ZM18.4111 23.7091C18.7166 23.8608 19.0222 23.8608 19.3277 23.7849C19.6332 23.7091 19.9005 23.5575 20.0915 23.2921C20.3589 22.9889 20.4352 22.6098 20.397 22.2686C20.3589 22.0033 20.2443 21.7 20.0533 21.4726C20.1297 21.3209 20.1679 21.1693 20.2061 20.9798C20.2443 20.6765 20.2443 20.3732 20.1297 20.1079C20.0151 19.8426 19.8624 19.6151 19.6332 19.3877C19.4041 19.1981 19.0985 19.0844 18.8312 19.0086C18.5257 18.9707 18.2201 19.0086 17.9528 19.0844C17.7618 19.1602 17.5709 19.2739 17.4181 19.3877C17.1508 19.236 16.8835 19.1981 16.6161 19.236C16.2724 19.2739 15.8905 19.4256 15.6613 19.7288C15.4704 19.9563 15.3558 20.2595 15.3176 20.5628C15.3176 20.8661 15.394 21.1693 15.5849 21.4347C15.6613 21.5863 15.8523 21.5863 16.005 21.5105C16.1578 21.4347 16.1578 21.2451 16.0814 21.0935C15.9668 20.9419 15.9287 20.7523 15.9287 20.6007C15.9287 20.4112 16.005 20.2595 16.1196 20.1079C16.2724 19.9184 16.4633 19.8426 16.6925 19.8046C16.8071 19.8046 16.9598 19.8046 17.0744 19.8426C16.998 19.9942 16.9216 20.1837 16.8835 20.3353C16.8452 20.487 16.9598 20.6386 17.1126 20.6765C17.2654 20.7144 17.4181 20.6007 17.4563 20.4491C17.4945 20.2595 17.5709 20.07 17.6855 19.9563C17.8 19.8046 17.991 19.6909 18.1438 19.6151C18.3347 19.5393 18.5257 19.5393 18.7166 19.5772C18.9076 19.6151 19.0603 19.6909 19.2131 19.8046C19.3659 19.9184 19.4805 20.1079 19.5568 20.2595C19.6332 20.4491 19.6332 20.6386 19.595 20.8281C19.5568 21.0177 19.4805 21.2072 19.3659 21.3588C19.2513 21.5105 19.0985 21.6242 18.9076 21.6621C18.7548 21.7 18.6784 21.8896 18.7166 22.0412C18.7548 22.1928 18.9458 22.2686 19.0985 22.2307C19.3277 22.1549 19.4805 22.0412 19.6332 21.8896C19.7096 22.0033 19.7478 22.117 19.7478 22.2307C19.786 22.4582 19.7096 22.6477 19.5568 22.8372C19.4422 22.9889 19.2895 23.0647 19.0985 23.1026C18.9076 23.1405 18.7548 23.1405 18.5639 23.0647C18.4111 22.9889 18.2201 23.0647 18.1819 23.2163C18.1819 23.4817 18.2583 23.6712 18.4111 23.7091ZM18.1056 24.3156C18.1056 24.4294 18.1056 24.5052 18.1056 24.6189V24.7326L17.2272 25.1117L17.189 25.2254C17.1508 25.3391 17.1126 25.4529 17.0744 25.5666C17.0362 25.6803 16.9598 25.794 16.9216 25.9078L16.8452 26.0215L17.189 26.8934C17.1126 27.0071 16.998 27.1208 16.9216 27.1966C16.8071 27.3104 16.7307 27.3861 16.6161 27.462L15.7377 27.1208L15.6231 27.1966C15.5085 27.2345 15.394 27.3104 15.2794 27.3482C15.1648 27.3861 15.0502 27.4241 14.9357 27.462L14.7829 27.4999L14.401 28.3717H14.2864C14.2101 28.3717 14.0955 28.3717 13.9809 28.3717C13.8663 28.3717 13.7899 28.3717 13.6754 28.3717H13.5608L13.1789 27.4999L13.0261 27.462C12.9115 27.4241 12.797 27.3861 12.6824 27.3482C12.5678 27.3104 12.4532 27.2345 12.3387 27.1966L12.2241 27.1208L11.3457 27.462C11.2311 27.3861 11.1165 27.2724 11.0402 27.1966C10.9256 27.0829 10.8492 27.0071 10.7728 26.8934L11.1165 26.0215L11.0784 25.9457C11.0402 25.8319 10.9638 25.7182 10.9256 25.6045C10.8874 25.4908 10.8492 25.377 10.811 25.2633L10.7728 25.1117L9.89442 24.7326V24.6189C9.89442 24.5431 9.89442 24.4294 9.89442 24.3156C9.89442 24.164 9.74167 24.0124 9.58891 24.0124C9.43613 24.0124 9.28337 24.164 9.28337 24.3156C9.28337 24.4294 9.28337 24.5431 9.28337 24.6568C9.28337 24.7705 9.32155 24.8843 9.32155 24.998L9.35977 25.1496L10.2764 25.5666C10.3145 25.6424 10.3527 25.7561 10.3909 25.8319C10.4291 25.9078 10.4673 26.0215 10.5055 26.0973L10.1236 27.0071L10.2382 27.1587C10.3909 27.3482 10.5055 27.4999 10.6965 27.6515C10.8492 27.8031 11.0402 27.9548 11.1929 28.1064L11.3075 28.2201L12.2623 27.841C12.3387 27.879 12.4532 27.9169 12.5296 27.9548C12.606 27.9927 12.7206 28.0306 12.797 28.0685L13.1789 28.9783L13.3316 29.0162C13.4462 29.0162 13.5608 29.0541 13.6754 29.0541C13.7899 29.0541 13.9045 29.0541 14.0191 29.0541C14.1337 29.0541 14.2482 29.0541 14.3628 29.0541C14.4774 29.0541 14.592 29.0162 14.7065 29.0162L14.8593 28.9783L15.2794 28.0685C15.3558 28.0306 15.4704 27.9927 15.5468 27.9548C15.6231 27.9169 15.7377 27.879 15.8141 27.841L16.7307 28.2201L16.8835 28.1064C17.0744 27.9548 17.2272 27.841 17.3799 27.6515C17.5327 27.4999 17.6855 27.3104 17.8382 27.1587L17.9528 27.045L17.5709 26.0973C17.6091 26.0215 17.6473 25.9078 17.6855 25.8319C17.7236 25.7561 17.7618 25.6424 17.8 25.5666L18.7166 25.1875L18.7548 25.0359C18.7548 24.9222 18.793 24.8084 18.793 24.6947C18.793 24.581 18.793 24.4673 18.793 24.3535C18.793 24.2019 18.6402 24.0503 18.4875 24.0503C18.2583 24.0503 18.1056 24.164 18.1056 24.3156ZM9.85624 21.2451C10.3527 19.5772 9.13062 19.6909 8.74869 18.9327C9.09241 19.7288 8.214 20.5628 9.85624 21.2451ZM17.4563 21.6621C17.3417 21.8137 17.2272 21.9654 17.1508 22.0791C17.1126 22.1549 17.0362 22.2307 16.998 22.2686C16.8835 22.1928 16.8071 22.1549 16.6925 22.0791C16.5015 22.0033 16.2724 21.9275 16.0432 21.8896C15.8905 21.8517 15.7377 21.9654 15.6995 22.117C15.6613 22.2686 15.7759 22.4203 15.9287 22.4582C16.0814 22.4961 16.2724 22.534 16.4252 22.6098C16.5015 22.6477 16.5397 22.6856 16.6161 22.7235C16.0814 23.33 15.4704 23.8987 14.7829 24.3914C14.5156 24.6189 14.2101 24.8084 13.9045 24.998C13.8281 24.9601 13.7518 24.8843 13.6754 24.8463C13.5226 24.7705 13.3698 24.7705 13.2553 24.9222C13.1789 25.0738 13.1789 25.2254 13.3316 25.3391C13.0261 25.5287 12.6824 25.6803 12.3387 25.8319C12.1859 25.9078 12.1095 26.0594 12.1859 26.211C12.2623 26.3626 12.4151 26.4385 12.5678 26.3626C13.0261 26.1731 13.4462 25.9457 13.8663 25.7182C14.0191 25.794 14.1718 25.9078 14.3246 25.9836C14.6683 26.1731 15.0121 26.3626 15.394 26.5143C15.5468 26.5901 15.7377 26.5143 15.7759 26.3626C15.8523 26.211 15.7759 26.0215 15.6231 25.9836C15.2794 25.8319 14.9357 25.6803 14.592 25.4908C14.5538 25.4529 14.4774 25.415 14.4392 25.415C14.6683 25.2633 14.8975 25.1117 15.1266 24.9601C15.8141 24.4294 16.4633 23.8228 17.0362 23.1784C17.0744 23.2163 17.1126 23.2921 17.189 23.33C17.3035 23.4817 17.3799 23.6333 17.4181 23.7849C17.4563 23.9366 17.6473 24.0124 17.8 23.9745C17.9528 23.9366 18.0292 23.747 17.991 23.5954C17.9146 23.4058 17.8 23.1784 17.6855 23.0268C17.6091 22.9131 17.5327 22.8372 17.4563 22.7235C17.5327 22.6477 17.5709 22.5719 17.6473 22.4961C17.7618 22.3444 17.8764 22.1928 17.991 22.0412C18.0674 21.8896 18.0674 21.7379 17.9146 21.6242C17.7618 21.5105 17.5709 21.5105 17.4563 21.6621ZM13.2935 23.0268C14.0191 24.1261 13.1407 24.2398 13.0643 24.8463C12.5678 23.7849 13.2171 23.6333 13.2935 23.0268ZM10.7346 24.6189C11.8804 25.6803 12.1859 24.6947 12.9115 24.7326C11.804 23.9366 11.4603 24.6568 10.7346 24.6189ZM9.74167 23.4817C10.7728 24.8463 11.2693 23.8608 12.0331 24.0503C11.002 22.9509 10.5055 23.6712 9.74167 23.4817ZM11.8804 21.5863C11.8422 22.2686 11.1165 22.4961 11.7658 23.6712C11.804 22.9889 12.797 22.7993 11.8804 21.5863ZM11.3457 20.6007C11.2693 21.3209 10.4673 21.5105 11.0784 22.7993C11.1929 22.0791 12.2241 21.9654 11.3457 20.6007ZM8.97783 22.3823C9.85624 23.8608 10.4673 22.9131 11.2311 23.1784C10.2764 22.0033 9.70349 22.6477 8.97783 22.3823ZM8.32861 21.1693C8.97783 22.7614 9.74166 21.9275 10.4291 22.2686C9.70348 20.9798 9.01605 21.5484 8.32861 21.1693ZM10.5437 19.6909C10.5055 20.487 9.70348 20.7523 10.4673 22.0412C10.4673 21.2451 11.5748 21.0556 10.5437 19.6909ZM12.6824 22.2307C12.606 22.9131 11.8422 23.1026 12.4532 24.3156C12.5296 23.5954 13.4844 23.5196 12.6824 22.2307ZM12.797 20.2595V21.7379L14.4774 23.4058C14.592 23.5196 14.7829 23.5196 14.8975 23.4058C15.0121 23.2921 15.0121 23.1026 14.8975 22.9889L13.408 21.5105V18.7811L14.3628 17.8335V16.9616C14.5156 16.8479 14.6302 16.6962 14.6302 16.5067C14.6302 16.2034 14.3628 15.9381 14.0573 15.9381C13.7518 15.9381 13.4844 16.2034 13.4844 16.5067C13.4844 16.6962 13.599 16.8858 13.7518 16.9616V17.606L12.797 18.5537V19.4256L12.1095 18.7432V16.9616C12.2623 16.8479 12.3769 16.6962 12.3769 16.5067C12.3769 16.2034 12.1095 15.9381 11.804 15.9381C11.4985 15.9381 11.2311 16.2034 11.2311 16.5067C11.2311 16.6962 11.3457 16.8858 11.4985 16.9616V19.0086L12.797 20.2595ZM15.3176 16.3171C15.203 16.3171 15.1266 16.393 15.1266 16.5067C15.1266 16.6204 15.203 16.6962 15.3176 16.6962C15.4322 16.6962 15.5085 16.6204 15.5085 16.5067C15.5085 16.393 15.394 16.3171 15.3176 16.3171ZM14.0191 16.3171C13.9045 16.3171 13.8281 16.393 13.8281 16.5067C13.8281 16.6204 13.9045 16.6962 14.0191 16.6962C14.1337 16.6962 14.2101 16.6204 14.2101 16.5067C14.2101 16.393 14.1337 16.3171 14.0191 16.3171ZM11.804 16.3171C11.6894 16.3171 11.6131 16.393 11.6131 16.5067C11.6131 16.6204 11.6894 16.6962 11.804 16.6962C11.9186 16.6962 11.995 16.6204 11.995 16.5067C11.995 16.393 11.9186 16.3171 11.804 16.3171Z" fill="#373B55"/>
        <path fill-rule="evenodd" clip-rule="evenodd" d="M14.0412 32.0005C19.517 29.4059 22.5971 25.1568 21.7605 18.1627C19.8212 17.6739 18.6804 16.5458 18.5283 14.6281C17.1974 14.064 15.6764 13.7632 14.0412 13.7632C12.4061 13.7632 10.8851 14.0264 9.55417 14.6281C9.36406 16.5082 8.22326 17.6739 6.32196 18.1627C5.4854 25.1568 8.56549 29.4059 14.0412 32.0005ZM10.4288 15.2673C11.5695 14.8537 12.8244 14.6656 14.0793 14.6656C15.2961 14.6656 16.551 14.8537 17.7298 15.2673C18.072 17.0722 19.2508 18.2379 20.962 18.8396C21.4563 24.5176 19.2128 28.4283 14.1173 30.9853C9.02183 28.4283 6.74025 24.5176 7.27262 18.8396C8.90775 18.2379 10.0865 17.0722 10.4288 15.2673Z" fill="#373B55"/>
        <path d="M31.1415 3.57275H30.5132V28.4271H31.1415V3.57275Z" fill="#F5F5F5"/>
        <path d="M31.1415 3.57275H30.5132V11.8576H31.1415V3.57275Z" fill="#4BA1EB"/>
        <path d="M31.1414 11.8567H30.5131V20.1415H31.1414V11.8567Z" fill="white"/>
        <path d="M31.1414 20.1433H30.5131V28.4281H31.1414V20.1433Z" fill="#1DA01D"/>
        <path d="M34.9179 10.5631H34.1325V6.21362H35.3075L36.4574 9.4509H36.4951L37.645 6.21362H38.8074V10.5631H38.022V7.25129H37.9906L36.803 10.5631H36.1369L34.9493 7.25129H34.9179V10.5631ZM40.5511 10.5631H39.7656V6.21362H40.5511V10.5631ZM44.3862 10.5631H41.5084V6.21362H42.2938V9.86722H44.3862V10.5631ZM47.8654 10.5631H44.9876V6.21362H45.773V9.86722H47.8654V10.5631ZM49.2522 10.5631H48.4668V6.21362H49.2522V10.5631ZM52.0129 10.5631H51.2274V8.99731L49.688 6.21362H50.5237L51.6107 8.23304H51.6421L52.7229 6.21362H53.5523L52.0129 8.99731V10.5631ZM36.2123 18.3301H35.207L33.6801 13.9806H34.5158L35.6971 17.4727H35.7285L36.9098 13.9806H37.7392L36.2123 18.3301ZM41.7233 18.3301H40.919L40.586 17.4167H38.6883L38.3553 18.3301H37.5636L39.1722 13.9806H40.1147L41.7233 18.3301ZM39.6183 14.8381L38.9334 16.7394H40.3409L39.6497 14.8381H39.6183ZM42.9809 18.3301H42.1955V13.9806H42.9809V15.9627L44.6963 13.9806H45.6137L43.7664 16.1119L45.708 18.3301H44.7717L42.9809 16.2796V18.3301ZM49.7618 18.3301H48.9575L48.6245 17.4167H46.7269L46.3938 18.3301H45.6021L47.2107 13.9806H48.1532L49.7618 18.3301ZM47.6568 14.8381L46.9719 16.7394H48.3794L47.6882 14.8381H47.6568ZM51.0194 18.3301H50.234V13.9806H51.2771L53.1496 17.2552H53.181V13.9806H53.9664V18.3301H52.9171L51.0509 15.0556H51.0194V18.3301ZM56.3485 18.3923C55.8753 18.3923 55.4858 18.2804 55.1798 18.0567C54.8741 17.8289 54.6919 17.5099 54.6331 17.0998H55.4185C55.4688 17.2945 55.5737 17.4457 55.7327 17.5534C55.8961 17.6611 56.1016 17.715 56.3485 17.715C56.6586 17.715 56.8889 17.6591 57.0397 17.5472C57.1905 17.4312 57.2659 17.28 57.2659 17.0936C57.2659 16.9652 57.2219 16.8616 57.1339 16.7829C57.0504 16.7042 56.9435 16.6442 56.8135 16.6027C56.6878 16.5613 56.5119 16.5158 56.2857 16.4661C55.9633 16.3956 55.7013 16.3231 55.5002 16.2486C55.3036 16.1699 55.1339 16.0435 54.9913 15.8695C54.8489 15.6956 54.7776 15.4574 54.7776 15.155C54.7776 14.9064 54.8427 14.689 54.9724 14.5026C55.1066 14.312 55.2929 14.167 55.5316 14.0676C55.7704 13.9682 56.0428 13.9185 56.3485 13.9185C56.8179 13.9185 57.1905 14.0262 57.467 14.2416C57.7434 14.457 57.9131 14.747 57.9759 15.1115H57.1905C57.1446 14.9541 57.0504 14.8298 56.9077 14.7387C56.7695 14.6434 56.5895 14.5958 56.3673 14.5958C56.116 14.5958 55.9212 14.6496 55.783 14.7573C55.6491 14.8609 55.5819 14.9934 55.5819 15.155C55.5819 15.2958 55.6259 15.4097 55.7139 15.4967C55.8062 15.5796 55.9193 15.6438 56.0532 15.6894C56.1873 15.7349 56.3717 15.7846 56.6061 15.8385C56.9203 15.913 57.1738 15.9876 57.3664 16.0622C57.5593 16.1367 57.7246 16.2569 57.8628 16.4226C58.0011 16.5882 58.0702 16.8119 58.0702 17.0936C58.0702 17.3339 58.0033 17.5534 57.8691 17.7523C57.7353 17.947 57.5383 18.1023 57.2785 18.2183C57.019 18.3343 56.7089 18.3923 56.3485 18.3923ZM59.549 18.3301H58.7636V13.9806H59.549V18.3301ZM62.3094 18.3301H61.5239V16.7643L59.9845 13.9806H60.8202L61.9072 16H61.9386L63.0194 13.9806H63.8488L62.3094 16.7643V18.3301ZM67.6369 18.3301H66.8326L66.4995 17.4167H64.6019L64.2686 18.3301H63.4768L65.0857 13.9806H66.0283L67.6369 18.3301ZM65.5319 14.8381L64.847 16.7394H66.2545L65.5633 14.8381H65.5319ZM68.8945 18.3301H68.1091V13.9806H68.8945V15.9627L70.6099 13.9806H71.5273L69.6799 16.1119L71.6216 18.3301H70.6853L68.8945 16.2796V18.3301ZM75.675 18.3301H74.8708L74.5377 17.4167H72.6401L72.3071 18.3301H71.5154L73.1239 13.9806H74.0665L75.675 18.3301ZM73.5701 14.8381L72.8852 16.7394H74.2927L73.6015 14.8381H73.5701ZM79.5218 18.3301H78.6358L77.5237 16.727H76.933V18.3301H76.1476V13.9806H77.9572C78.2419 13.9806 78.4932 14.0386 78.7113 14.1546C78.929 14.2664 79.0964 14.428 79.2139 14.6393C79.3352 14.8464 79.3962 15.0866 79.3962 15.36C79.3962 15.708 79.2997 16 79.1071 16.2361C78.9142 16.4723 78.6713 16.6255 78.3782 16.696L79.5218 18.3301ZM76.933 14.6765V16.0497H77.907C78.1247 16.0497 78.2965 15.9876 78.4222 15.8633C78.5479 15.7391 78.6107 15.5713 78.6107 15.36C78.6107 15.1529 78.5479 14.9872 78.4222 14.8629C78.2965 14.7387 78.1247 14.6765 77.907 14.6765H76.933ZM34.1325 26.0971V21.7476H36.1181C36.5413 21.7476 36.868 21.8553 37.0983 22.0707C37.3286 22.2861 37.4439 22.5823 37.4439 22.9593C37.4439 23.1664 37.3914 23.3548 37.2868 23.5247C37.1822 23.6904 37.0458 23.8126 36.8784 23.8913C37.0584 23.9659 37.2073 24.0922 37.3245 24.2703C37.4461 24.4484 37.5067 24.6535 37.5067 24.8855C37.5067 25.2624 37.3914 25.5586 37.1611 25.774C36.9308 25.9894 36.6041 26.0971 36.1809 26.0971H34.1325ZM36.0301 23.6117C36.2271 23.6117 36.3798 23.5599 36.4888 23.4563C36.6019 23.3486 36.6584 23.2016 36.6584 23.0152C36.6584 22.8329 36.6019 22.69 36.4888 22.5864C36.3798 22.4787 36.2271 22.4249 36.0301 22.4249H34.9179V23.6117H36.0301ZM36.0929 25.4198C36.2899 25.4198 36.4426 25.368 36.5516 25.2645C36.6647 25.1568 36.7213 25.0118 36.7213 24.8295C36.7213 24.6431 36.6647 24.4981 36.5516 24.3946C36.4426 24.2869 36.2899 24.233 36.0929 24.233H34.9179V25.4198H36.0929ZM41.9504 26.0971H41.1461L40.8131 25.1837H38.9155L38.5825 26.0971H37.7907L39.3993 21.7476H40.3418L41.9504 26.0971ZM39.8454 22.6051L39.1605 24.5064H40.5681L39.8769 22.6051H39.8454ZM45.445 26.0971H42.165V25.5317L44.4208 22.4249H42.2278V21.7476H45.4136V22.313L43.1515 25.4198H45.445V26.0971ZM49.8171 26.0971H49.0128L48.6798 25.1837H46.7821L46.4491 26.0971H45.6574L47.266 21.7476H48.2085L49.8171 26.0971ZM47.7121 22.6051L47.0272 24.5064H48.4347L47.7435 22.6051H47.7121ZM51.6299 26.1593C51.1564 26.1593 50.7668 26.0474 50.4612 25.8237C50.1555 25.5959 49.9732 25.2769 49.9145 24.8668H50.6999C50.7502 25.0615 50.8548 25.2127 51.0141 25.3204C51.1775 25.4281 51.3826 25.482 51.6299 25.482C51.94 25.482 52.1703 25.4261 52.3211 25.3142C52.4719 25.1982 52.5473 25.047 52.5473 24.8606C52.5473 24.7322 52.5033 24.6286 52.4153 24.5499C52.3314 24.4712 52.2246 24.4112 52.0949 24.3697C51.9692 24.3283 51.7933 24.2827 51.5671 24.233C51.2444 24.1626 50.9827 24.0901 50.7816 24.0156C50.5846 23.9369 50.415 23.8105 50.2726 23.6365C50.1303 23.4626 50.059 23.2244 50.059 22.922C50.059 22.6734 50.124 22.456 50.2538 22.2695C50.3879 22.079 50.5743 21.934 50.813 21.8346C51.0518 21.7352 51.3242 21.6855 51.6299 21.6855C52.099 21.6855 52.4719 21.7932 52.7484 22.0086C53.0248 22.224 53.1945 22.514 53.2573 22.8785H52.4719C52.4257 22.7211 52.3314 22.5968 52.1891 22.5057C52.0509 22.4104 51.8709 22.3628 51.6487 22.3628C51.3974 22.3628 51.2026 22.4166 51.0644 22.5243C50.9302 22.6279 50.8633 22.7604 50.8633 22.922C50.8633 23.0628 50.9073 23.1767 50.9952 23.2637C51.0873 23.3466 51.2004 23.4108 51.3346 23.4563C51.4687 23.5019 51.6528 23.5516 51.8875 23.6055C52.2017 23.68 52.4552 23.7546 52.6478 23.8292C52.8404 23.9037 53.006 24.0239 53.1442 24.1895C53.2825 24.3552 53.3516 24.5789 53.3516 24.8606C53.3516 25.1009 53.2847 25.3204 53.1505 25.5193C53.0163 25.714 52.8197 25.8693 52.5599 25.9853C52.3 26.1012 51.9902 26.1593 51.6299 26.1593ZM54.8301 26.0971H54.0446V21.7476H54.8301V26.0971Z" fill="#373B55"/>
    </g>
    <defs>
        <clipPath id="clip0_2441_39785">
            <rect width="82" height="32" fill="white"/>
        </clipPath>
    </defs>
</svg>
