<svg width="107" height="32" viewBox="0 0 107 32" fill="none" xmlns="http://www.w3.org/2000/svg">
    <path d="M32.6356 3.58398H32.0088V28.5147H32.6356V3.58398Z" fill="#F5F5F5"/>
    <path d="M32.6356 3.58398H32.0088V11.8942H32.6356V3.58398Z" fill="#4BA1EB"/>
    <path d="M32.6356 11.8933H32.0088V20.2035H32.6356V11.8933Z" fill="white"/>
    <path d="M32.6356 20.2051H32.0088V28.5153H32.6356V20.2051Z" fill="#1DA01D"/>
    <path d="M15.3035 16.0792C15.6261 16.0792 15.8681 16.3564 15.8681 16.6337C15.8681 16.8317 15.7471 17.0297 15.5858 17.0693V18.3762L14.6583 19.3663V21.1881C14.6583 21.3465 14.497 21.5049 14.3357 21.5049C14.1744 21.5049 14.013 21.3465 14.013 21.1881V19.2475C14.013 19.2079 14.013 19.2079 14.013 19.1683C14.013 19.1683 14.013 19.1683 14.0534 19.1287L14.9002 18.297V17.1881C14.7389 17.0693 14.618 16.9109 14.618 16.7525C14.7389 16.3168 15.0212 16.0792 15.3035 16.0792ZM12.2386 0C10.8675 0.475247 9.5367 1.18812 8.44786 2.13861C7.27837 3.16831 6.31051 4.43564 5.7056 5.86138C5.30232 6.77227 5.06036 7.72277 4.93938 8.67326C4.65709 11.3267 5.74593 13.6634 7.80262 15.4059C8.12524 15.6832 8.40754 15.9208 8.68983 16.198C8.89146 16.4356 9.0931 16.594 9.17376 16.9109C9.17376 16.9109 9.17376 16.9505 9.21408 16.9505C9.0931 17.1089 8.97212 17.2673 8.85114 17.3465C8.85114 17.2277 8.81081 17.1089 8.77048 17.0297C8.68983 16.7921 8.52852 16.6337 8.36721 16.4752C8.08492 16.198 7.80262 15.9604 7.48 15.7228C5.30232 13.8614 4.17316 11.4455 4.45545 8.59405C4.57643 7.56435 4.85872 6.61386 5.22167 5.66336C6.27018 3.48515 7.64131 1.94059 9.77867 0.752475C6.91542 1.66337 2.43908 4.47524 1.67286 8.39603C1.63253 8.31683 1.51155 8.11881 1.43089 7.99999C0.301726 10.4554 -0.22253 14.3366 1.02762 16.3168C0.825982 16.2376 0.664673 16.1584 0.624345 16.0396C0.946965 17.5049 1.47122 20.0792 3.68923 20.0396C3.16497 20.1584 2.56006 20.1584 2.19711 20.0792C2.72137 21.0297 3.60857 22.3366 4.89905 22.2574C4.69741 22.4158 4.29414 22.5346 4.05218 22.5742C4.45545 23.0099 5.22167 23.9208 6.47182 23.7624C6.31051 23.9208 6.06855 24 5.7056 24.0396C6.27018 24.4752 6.87509 24.8713 7.56066 25.1881C7.64131 25.3861 7.7623 25.5841 7.84295 25.7822C6.79444 25.3069 5.82658 24.6336 4.93938 23.8812C5.06036 23.8812 5.14102 23.8812 5.22167 23.8416C4.25381 23.4851 3.81021 22.8119 3.36661 22.3366C3.48759 22.3366 3.56825 22.3366 3.6489 22.297C2.64072 21.8218 1.95515 20.4752 1.51155 19.6436C1.63253 19.6832 1.83417 19.6832 1.91482 19.6436C0.745327 18.5346 0.342053 16.7525 0.100089 15.2871C0.180744 15.3267 0.221071 15.3663 0.261399 15.3663C-0.22253 13.2277 -0.141876 10.3762 1.43089 7.20792C1.47122 7.28712 1.51155 7.32673 1.5922 7.36633C3.08432 3.16831 7.60099 0.356435 12.2386 0ZM18.2071 29.8614C17.9651 30.0198 17.7635 30.1782 17.6828 30.4554C17.3199 30.6534 17.0779 30.7723 16.5537 30.8515C17.0376 30.9307 17.5215 30.8911 18.0055 30.7723C18.0055 30.4554 18.0861 30.099 18.2071 29.8614ZM19.3363 28.5148C19.3363 28.6733 19.3363 28.8713 19.3363 28.9505C19.175 29.0693 18.8927 29.1881 18.6104 29.2277C19.0943 29.3069 19.5782 29.2673 19.9815 29.0693C19.6992 28.9505 19.5379 28.8317 19.3363 28.5148ZM18.3281 29.6237C19.0943 29.8614 19.9815 29.8614 20.8284 29.2277C20.1025 28.8317 19.4976 28.2376 19.0943 27.5247L19.4572 27.2079C19.8605 28.0792 20.6267 28.7129 21.5946 29.1089C20.9897 29.8614 19.9815 30.2574 19.1346 30.2178C18.812 30.5742 18.7314 31.2079 19.0136 31.6039C17.4409 31.802 16.5133 32.0396 15.4648 31.2079L15.5455 30.7327C15.9488 31.0099 16.1907 31.2079 16.6747 31.2871C16.9973 31.3267 17.3199 31.3267 17.6425 31.2871C17.9248 31.2475 18.1264 31.2079 18.4087 31.2079C18.3684 30.8119 18.4491 30.3366 18.7314 30.0594C18.57 29.8614 18.4087 29.7822 18.3281 29.6237ZM9.73834 29.8614C9.9803 30.0198 10.1819 30.1782 10.2626 30.4554C10.6255 30.6534 10.8675 30.7723 11.3918 30.8515C10.9078 30.9307 10.4239 30.8911 9.93998 30.7723C9.93998 30.4554 9.85932 30.099 9.73834 29.8614ZM8.60917 28.5148C8.60917 28.6733 8.60917 28.8713 8.60917 28.9505C8.77048 29.0693 9.05277 29.1881 9.33506 29.2277C8.85114 29.3069 8.36721 29.2673 7.96393 29.0693C8.24623 28.9505 8.40753 28.8317 8.60917 28.5148ZM9.61736 29.6237C8.85114 29.8614 7.96393 29.8614 7.11706 29.2277C7.84295 28.8317 8.44786 28.2376 8.85114 27.5247L8.48819 27.2079C8.08492 28.0792 7.3187 28.7129 6.35084 29.1089C6.95575 29.8614 7.96393 30.2574 8.81081 30.2178C9.13343 30.5742 9.21408 31.2079 8.93179 31.6039C10.5046 31.802 11.4321 32.0396 12.4806 31.2079L12.3999 30.7327C11.9967 31.0099 11.7547 31.2079 11.2708 31.2871C10.9482 31.3267 10.6255 31.3267 10.3029 31.2871C10.0206 31.2475 9.81899 31.2079 9.5367 31.2079C9.57703 30.8119 9.49638 30.3366 9.21408 30.0594C9.41572 29.8614 9.5367 29.7822 9.61736 29.6237ZM18.7314 16.9505C18.8523 17.1089 18.9733 17.2673 19.0943 17.3465C19.0943 17.2277 19.1346 17.1089 19.175 17.0297C19.2556 16.7921 19.4169 16.6337 19.5782 16.4752C19.8605 16.198 20.1428 15.9604 20.4654 15.7228C22.6431 13.8614 23.7723 11.4455 23.49 8.59405C23.369 7.56435 23.0867 6.61386 22.7238 5.66336C21.6753 3.44554 20.3041 1.90099 18.1668 0.752475C21.03 1.66337 25.5467 4.43564 26.3129 8.35643C26.3532 8.27722 26.4742 8.0792 26.5549 7.96039C27.684 10.4158 28.168 14.3366 26.9581 16.2772C27.1598 16.198 27.3211 16.1188 27.3614 16C27.0388 17.4653 26.5145 20.0396 24.2965 20C24.8208 20.1188 25.4257 20.1188 25.7886 20.0396C25.2644 20.9901 24.3772 22.297 23.0867 22.2178C23.2883 22.3762 23.6916 22.495 23.9336 22.5346C23.5303 22.9703 22.7641 23.8812 21.5139 23.7228C21.6753 23.8812 21.9172 23.9604 22.2802 24C21.7156 24.4356 21.1107 24.8317 20.4251 25.1485C20.3444 25.3465 20.2235 25.5445 20.1428 25.7426C21.1913 25.2673 22.1592 24.594 23.0464 23.8416C22.9254 23.8416 22.8447 23.8416 22.7641 23.802C23.7319 23.4455 24.1756 22.7723 24.6192 22.297C24.4982 22.297 24.4175 22.297 24.3369 22.2574C25.345 21.7822 26.0306 20.4356 26.4742 19.6039C26.3532 19.6436 26.1516 19.6436 26.0709 19.6039C27.2404 18.495 27.6437 16.7129 27.8857 15.2475C27.805 15.2871 27.7647 15.3267 27.7244 15.3267C28.2083 13.1881 28.1276 10.3366 26.5549 7.16831C26.5145 7.24752 26.4742 7.28712 26.3936 7.32673C24.9014 3.16831 20.3848 0.356435 15.7068 0C17.0779 0.475247 18.4087 1.18812 19.4976 2.13861C20.6671 3.16831 21.6349 4.43564 22.2398 5.86138C22.6431 6.77227 22.8851 7.72277 23.0061 8.67326C23.2883 11.3267 22.1995 13.6634 20.1428 15.4059C19.8202 15.6832 19.5379 15.9208 19.2556 16.198C19.054 16.4356 18.8927 16.6337 18.7314 16.9505C18.7717 16.9109 18.7717 16.9109 18.7314 16.9505ZM13.4888 13.8218C13.0452 13.6634 12.8839 13.2277 13.0855 12.7129C13.0855 13.0693 13.2065 13.3069 13.4888 13.4257C13.7711 13.2277 13.8517 12.9901 13.7711 12.6337C13.9727 13.1485 13.8921 13.6634 13.4888 13.8218ZM16.7956 11.7228C16.5537 11.604 16.352 11.5643 16.1101 11.5643C15.9891 11.5643 15.8681 11.4851 15.9084 11.2475C15.6665 11.7624 15.5858 12.0792 14.9002 11.9208C14.497 11.8416 14.3357 12.1584 14.4163 12.4752C14.4566 12.6733 14.5373 12.9505 14.3357 13.1485C14.255 12.8317 14.0534 12.7129 13.8921 12.5941C14.255 13.0693 14.0937 13.3861 14.013 13.5445C14.8196 13.3861 14.8196 14.0198 14.6986 14.3366C14.9002 14.3366 15.1019 14.3762 15.2229 14.3762C15.0212 13.7426 14.8599 13.1089 14.8196 12.4356C14.8196 12.3168 14.8196 12.2772 14.9002 12.3168C15.3438 12.396 15.7875 12.3168 16.0697 11.9208C16.5133 11.8812 16.8763 12.0396 17.2392 12.2772C17.3199 11.5643 17.3602 10.8911 16.473 10.6139C16.352 10.2178 16.0294 10.0594 15.5858 10.099C15.0212 9.22772 12.9645 10.1386 12.158 9.58415C11.8757 9.38613 11.795 9.0693 11.7547 8.75247C11.4724 9.0297 11.2708 9.18811 11.1498 9.58415C10.9482 10.099 11.0691 10.7327 11.4321 11.2079C11.6741 11.5247 11.9967 11.7228 12.3596 11.802C12.3193 11.8416 12.279 11.8812 12.279 11.9208C11.8354 12.6337 11.8757 13.703 11.8757 14.5346C11.9967 14.495 12.158 14.495 12.279 14.4554C12.158 14.0594 12.279 13.6238 12.8435 13.5842C12.7629 13.4257 12.6419 13.1485 12.9645 12.6337C12.7629 12.7129 12.5613 12.9109 12.5209 13.1881C12.3596 12.9505 12.3596 12.7525 12.4403 12.5544C12.4806 12.4356 12.5209 12.3564 12.5613 12.2772V12.2376C12.9645 11.4851 14.3357 11.9604 14.6986 10.8119C14.5776 10.9703 14.4163 11.0891 14.2953 11.1683C14.0534 11.2871 13.8921 10.8119 13.5694 10.8119C13.6904 10.8911 13.7308 11.0495 13.7308 11.2079C13.6904 11.3663 13.6098 11.4059 13.4888 11.2871C13.3678 11.1683 13.2872 10.9307 13.0855 10.8911C13.2065 11.0099 13.2065 11.1683 13.1662 11.2871C13.1258 11.4455 13.0049 11.5247 12.8839 11.3663C12.8032 11.2871 12.7629 11.1287 12.6419 11.0495C12.6822 11.2475 12.4806 11.4455 12.2386 11.3267C11.8757 11.1683 11.6741 10.9307 11.5127 10.6139C11.3918 10.2574 11.3918 9.90098 11.5531 9.58415C11.5531 9.58415 11.5531 9.58415 11.5531 9.54455C12.279 10.8515 14.9002 9.58415 15.2229 10.4158L15.2632 10.5743H15.4245C15.7068 10.5346 15.9891 10.5346 16.0294 10.8911V11.0495L16.1504 11.0891C16.594 11.0891 16.7956 11.3663 16.7956 11.7228ZM12.6419 14.4158C12.7226 14.2574 12.8436 14.1782 12.9242 14.099C12.8839 14.2178 12.8435 14.297 12.8032 14.4158C12.7226 14.4158 12.7226 14.4158 12.6419 14.4158ZM14.255 14.3762C14.2147 14.2574 14.0937 14.099 13.9727 13.9802C14.1744 14.0198 14.376 14.1386 14.497 14.3762C14.4163 14.3762 14.2953 14.3762 14.255 14.3762ZM13.0452 14.3762C13.0452 14.297 13.0855 14.2178 13.0855 14.1386C13.0855 14.2178 13.0855 14.297 13.1258 14.3366L13.0452 14.3762ZM13.8517 14.3762C13.8517 14.297 13.8114 14.1782 13.8114 14.0594C13.8921 14.1782 13.9324 14.2574 13.9727 14.3762H13.8517ZM4.13283 10.0594C4.05218 12.5148 5.10069 14.5743 7.27837 16.5544C7.72197 17.0297 7.7623 17.5841 7.92361 18.0594C8.00426 18.0198 8.08492 17.9802 8.16557 17.901C8.12524 17.6634 8.12524 17.5049 8.08492 17.3465C8.2059 17.4257 8.28655 17.5841 8.36721 17.7822C8.44786 17.7426 8.48819 17.6634 8.56884 17.6238C8.56884 17.5445 8.52852 17.4653 8.52852 17.3861C8.52852 17.3069 8.48819 17.1881 8.44786 17.1089C8.28655 16.7129 7.60099 16.198 7.27837 15.9604C5.42331 14.4554 4.25381 12.396 4.13283 10.0594ZM4.21348 13.7426C1.5922 11.4455 2.23744 7.40594 4.25381 5.74257C4.01185 6.69307 3.97152 7.64356 4.0925 8.59405C4.21348 7.52475 4.49578 6.53465 4.89905 5.54455C5.38298 4.39604 6.10887 3.28713 7.0364 2.29703C5.06036 3.52475 3.00366 5.42574 2.23744 7.56435C1.63253 9.50494 1.91482 12.3564 4.21348 13.7426ZM1.30991 9.58415C0.180744 13.1485 0.543691 17.5445 4.01185 16.594C1.8745 16.6733 1.10827 15.3663 1.30991 12.4356C1.83417 13.703 3.00366 14.3762 4.05218 14.7327C2.39875 13.5842 1.39057 12.2772 1.30991 9.58415ZM1.26958 17.0693C1.79384 19.7228 3.56825 19.8416 4.61676 18.8911C3.40694 19.5247 2.56006 18.9703 2.15679 18.0594C3.16497 18.1386 3.6489 17.8614 4.13283 17.4653C3.28595 17.703 2.35842 17.7426 1.26958 17.0693ZM2.96334 20.594C4.21348 22.495 5.54429 21.5841 5.86691 20.9109C5.30232 21.3861 4.45545 21.4653 4.01185 20.9505C4.5361 20.7129 4.93938 20.3168 5.14102 19.8812C4.49578 20.396 3.76988 20.594 2.96334 20.594ZM6.35084 21.3861C5.98789 22.099 5.46363 22.5346 4.77807 22.7327C5.42331 23.4455 6.47182 23.5643 6.87509 23.0099C6.87509 22.8911 6.83477 22.8119 6.83477 22.6931C6.55247 23.0099 6.1492 23.0891 5.7056 22.8119C6.06855 22.3762 6.27018 21.9406 6.35084 21.3861ZM7.23804 24.3168C7.19771 24.1584 7.15738 24 7.11706 23.9208C6.95575 24.1188 6.79444 24.198 6.5928 24.2376C6.87509 24.396 7.11706 24.396 7.23804 24.3168ZM4.41512 14.5346C3.97152 16.9505 5.18134 16.6733 5.90724 16.594C5.22167 16.4752 4.65709 16.198 4.69741 15.4851C5.06036 15.7228 5.54429 15.802 5.90724 15.802C5.02003 15.4455 4.61676 14.7723 4.41512 14.5346ZM4.45545 16.9505C4.41512 19.0891 5.74593 18.5742 6.22986 18.099C5.58462 18.3366 5.06036 18.2178 5.02003 17.6238C5.54429 17.6634 5.90724 17.4257 6.1492 17.2277C5.10069 17.5049 4.69741 17.1485 4.45545 16.9505ZM4.97971 19.0891C5.58462 20.594 6.27018 20.198 6.67346 19.6436C6.67346 19.5643 6.67346 19.5247 6.67346 19.4455C6.27018 19.802 5.86691 19.8416 5.7056 19.4851C6.18953 19.2475 6.39116 18.8911 6.47182 18.5742C5.74593 19.2475 5.22167 19.1287 4.97971 19.0891ZM5.90724 20.594C6.22986 21.0297 6.47182 21.2673 6.67346 21.3861C6.63313 21.0693 6.63313 20.7525 6.63313 20.4356C6.35084 20.6337 6.06855 20.594 5.90724 20.594ZM6.22986 16.594C6.27018 18.1782 7.0364 17.8614 7.43968 17.703C7.0364 17.7426 6.5928 17.6634 6.5928 17.1881C6.87509 17.2673 7.07673 17.2277 7.31869 17.1881C6.71378 17.0693 6.35084 16.7129 6.22986 16.594ZM6.51215 18.1386C6.5928 18.4158 6.67346 18.5742 6.75411 18.7327V18.6138L6.95575 18.5346C6.95575 18.495 6.95575 18.495 6.91542 18.4554C7.27837 18.3762 7.39935 18.1782 7.52033 18.0198C6.95575 18.3366 6.63313 18.2178 6.51215 18.1386ZM3.48759 7.64356C2.84235 8.83168 2.72137 11.2475 4.17316 12.9505C3.81021 12.5148 3.32628 10.9307 3.52792 9.62376C3.36661 9.1089 3.32628 8.39603 3.48759 7.64356ZM1.8745 14.3762C2.11646 15.4455 2.68104 16.0792 3.72956 16.1188C3.32628 15.9208 2.96334 15.7228 2.7617 15.4455C3.04399 15.4851 3.32628 15.4851 3.6489 15.3663C2.92301 15.2475 2.35842 14.8515 1.8745 14.3762ZM3.32628 18.495C3.60857 18.7327 3.93119 18.7723 4.29414 18.6138C4.17316 18.6138 4.05218 18.5742 3.97152 18.495C4.05218 18.4158 4.0925 18.297 4.0925 18.2178C3.89087 18.4158 3.56825 18.495 3.32628 18.495ZM4.77807 20.8713C5.06036 20.9109 5.34265 20.9505 5.58462 20.6733C5.46363 20.7129 5.38298 20.7129 5.30232 20.6733C5.34265 20.5544 5.34265 20.4356 5.30232 20.3168C5.22167 20.5544 5.02003 20.7525 4.77807 20.8713ZM6.27018 22.5346C6.47182 22.495 6.67346 22.4158 6.75411 22.2574C6.75411 22.2178 6.75411 22.1782 6.75411 22.099C6.71378 22.099 6.67346 22.1386 6.63313 22.099C6.63313 22.0198 6.55247 21.8614 6.47182 21.7822C6.51215 22.099 6.43149 22.3366 6.27018 22.5346ZM23.8529 10.0594C23.9336 12.5148 22.8851 14.5743 20.7074 16.5544C20.2638 17.0297 20.2235 17.5841 20.0622 18.0594C19.9815 18.0198 19.9008 17.9802 19.8202 17.901C19.8605 17.6634 19.8605 17.5049 19.9008 17.3465C19.7799 17.4257 19.6992 17.5841 19.6186 17.7822C19.5379 17.7426 19.4976 17.6634 19.4169 17.6238C19.4169 17.5445 19.4572 17.4653 19.4572 17.3861C19.4572 17.3069 19.4976 17.1881 19.5379 17.1089C19.6992 16.7129 20.3848 16.198 20.7074 15.9604C22.5625 14.4554 23.6513 12.396 23.8529 10.0594ZM23.6916 13.7426C26.3532 11.4059 25.6677 7.36633 23.6513 5.70297C23.8933 6.65346 23.9336 7.60396 23.8126 8.55445C23.6916 7.48514 23.4093 6.49505 23.0061 5.50495C22.5221 4.35643 21.7962 3.24752 20.8687 2.25742C22.8447 3.48515 24.9014 5.38614 25.6677 7.52475C26.3532 9.50494 26.0306 12.3564 23.6916 13.7426ZM26.6355 9.58415C27.7647 13.1485 27.4017 17.5445 23.9336 16.594C26.0709 16.6733 26.8372 15.3663 26.6355 12.4356C26.1113 13.703 24.9418 14.3762 23.8933 14.7327C25.5467 13.5842 26.5549 12.2772 26.6355 9.58415ZM26.6759 17.0693C26.1516 19.7228 24.3772 19.8416 23.3287 18.8911C24.5385 19.5247 25.3854 18.9703 25.7886 18.0594C24.7805 18.1386 24.2965 17.8614 23.8126 17.4653C24.6998 17.703 25.6273 17.7426 26.6759 17.0693ZM24.9821 20.594C23.7319 22.495 22.4011 21.5841 22.0785 20.9109C22.6431 21.3861 23.49 21.4653 23.9336 20.9505C23.4093 20.7129 23.0061 20.3168 22.8044 19.8812C23.49 20.396 24.2159 20.594 24.9821 20.594ZM21.6349 21.3861C21.9979 22.0594 22.5221 22.5346 23.2077 22.6931C22.5625 23.4059 21.5139 23.5247 21.1107 22.9703C21.1107 22.8515 21.151 22.7723 21.151 22.6535C21.4333 22.9703 21.8366 23.0495 22.2802 22.7723C21.9172 22.3762 21.7156 21.9406 21.6349 21.3861ZM20.7477 24.3168C20.788 24.1584 20.8284 24 20.8687 23.9208C21.03 24.1188 21.1913 24.198 21.393 24.2376C21.0703 24.396 20.8687 24.396 20.7477 24.3168ZM23.5303 14.5346C23.9739 16.9505 22.7641 16.6733 22.0382 16.594C22.7238 16.4752 23.2883 16.198 23.248 15.4851C22.9254 15.7624 22.4011 15.802 22.0382 15.802C22.9254 15.4455 23.3287 14.7723 23.5303 14.5346ZM23.49 16.9505C23.5303 19.0891 22.1995 18.5742 21.7156 18.099C22.3608 18.3366 22.8851 18.2178 22.9254 17.6238C22.4011 17.6634 22.0382 17.4257 21.7962 17.2277C22.8044 17.5049 23.2883 17.1485 23.49 16.9505ZM22.9657 19.0891C22.3608 20.594 21.6753 20.198 21.272 19.6436C21.272 19.5643 21.272 19.5247 21.272 19.4455C21.6753 19.802 22.0785 19.8416 22.2398 19.4851C21.7559 19.2475 21.5543 18.8911 21.4736 18.5742C22.1592 19.2475 22.7238 19.1287 22.9657 19.0891ZM22.0382 20.594C21.7156 21.0297 21.4736 21.2673 21.272 21.3861C21.3123 21.0693 21.3123 20.7525 21.3123 20.4356C21.5946 20.6337 21.8769 20.594 22.0382 20.594ZM21.7559 16.594C21.7156 18.1782 20.9494 17.8614 20.5461 17.703C20.9494 17.7426 21.393 17.6634 21.393 17.1881C21.1107 17.2673 20.909 17.2277 20.6671 17.1881C21.272 17.0693 21.5946 16.7129 21.7559 16.594ZM21.4736 18.1386C21.393 18.4158 21.3123 18.5742 21.2317 18.7327V18.6138L20.9897 18.5346C20.9897 18.495 20.9897 18.495 21.03 18.4554C20.6671 18.3762 20.5461 18.1782 20.4251 18.0198C20.9897 18.3366 21.3123 18.2178 21.4736 18.1386ZM24.4175 7.64356C25.0628 8.83168 25.1837 11.2475 23.732 12.9505C24.0949 12.5148 24.5788 10.9307 24.3772 9.62376C24.5788 9.1089 24.6595 8.39603 24.4175 7.64356ZM26.0306 14.3762C25.7886 15.4455 25.2241 16.0792 24.1756 16.1188C24.5788 15.9208 24.9418 15.7228 25.1434 15.4455C24.8611 15.4851 24.5788 15.4851 24.2562 15.3663C25.0628 15.2475 25.6273 14.8515 26.0306 14.3762ZM24.6595 18.495C24.3772 18.7327 24.0546 18.7723 23.6916 18.6138C23.8126 18.6138 23.9336 18.5742 24.0142 18.495C23.9336 18.4158 23.8933 18.297 23.8933 18.2178C24.0949 18.4158 24.3772 18.495 24.6595 18.495ZM23.2077 20.8713C22.9254 20.9109 22.6431 20.9505 22.4011 20.6733C22.5221 20.7129 22.6028 20.7129 22.6834 20.6733C22.6431 20.5544 22.6431 20.4356 22.6834 20.3168C22.7238 20.5544 22.9254 20.7525 23.2077 20.8713ZM21.7156 22.5346C21.5139 22.495 21.3123 22.4158 21.2317 22.2574C21.2317 22.2178 21.2317 22.1782 21.2317 22.099C21.272 22.099 21.3123 22.1386 21.3526 22.099C21.3526 22.0198 21.4333 21.8614 21.5139 21.7822C21.4333 22.099 21.5139 22.3366 21.7156 22.5346ZM14.013 10.3366C14.5373 10.6139 14.9406 10.3762 15.2229 10.5346C15.4648 10.6535 15.5858 11.0891 15.2632 11.1683C15.2632 10.9307 15.0616 10.9703 14.9406 10.9703C14.8196 10.9703 14.6986 10.8515 14.6986 10.7327C14.6986 10.6931 14.6986 10.6535 14.7389 10.6139C14.497 10.6535 14.2147 10.6139 14.013 10.3366ZM11.8354 10.2178C11.795 10.6139 11.9563 10.8911 12.279 11.0891C12.1983 10.9307 12.158 10.7723 12.1177 10.6139C12.6822 10.6931 13.2872 10.5743 13.8114 10.3366C13.0452 10.5346 12.3999 10.4554 11.8354 10.2178ZM18.4087 23.802C18.7314 23.9604 19.0136 23.9604 19.3363 23.8812C19.6589 23.802 19.9008 23.6436 20.1025 23.4059C20.3848 23.0891 20.4654 22.7327 20.4251 22.3762C20.3848 22.099 20.2638 21.8218 20.0622 21.5841C20.1428 21.4257 20.1831 21.2673 20.2235 21.1089C20.2638 20.7921 20.2638 20.5148 20.1428 20.2376C20.0218 19.9604 19.8605 19.7624 19.6589 19.5247C19.4169 19.3267 19.1346 19.2079 18.8523 19.1287C18.5297 19.0891 18.2474 19.1287 17.9651 19.2079C17.7635 19.2871 17.5619 19.4059 17.4409 19.5247C17.1586 19.3663 16.9166 19.3267 16.6343 19.3663C16.2714 19.4059 15.9084 19.5643 15.6665 19.8416C15.4648 20.0792 15.3438 20.3564 15.3035 20.6733C15.3035 20.9901 15.3842 21.2673 15.5858 21.5445C15.6665 21.703 15.8681 21.703 15.9891 21.6238C16.1504 21.5445 16.1504 21.3465 16.0697 21.2277C15.9488 21.0693 15.9084 20.8713 15.9084 20.7525C15.9084 20.5544 15.9891 20.396 16.1101 20.2772C16.2714 20.0792 16.473 20 16.6747 19.9604C16.7956 19.9604 16.9569 19.9604 17.0779 20C16.9973 20.1584 16.9166 20.3564 16.8763 20.4752C16.836 20.6337 16.9569 20.7921 17.1183 20.8317C17.2796 20.8713 17.4409 20.7525 17.4812 20.594C17.5215 20.396 17.6022 20.198 17.7232 20.1188C17.8441 19.9604 18.0458 19.8416 18.1668 19.7624C18.3684 19.6832 18.57 19.6832 18.7314 19.7228C18.933 19.7624 19.0943 19.8416 19.2153 19.9604C19.3766 20.0792 19.4976 20.2772 19.5782 20.396C19.6589 20.594 19.6589 20.7921 19.6186 20.9505C19.5782 21.1485 19.4976 21.3465 19.3766 21.4653C19.2556 21.5841 19.0943 21.7426 18.933 21.7822C18.7717 21.8218 18.691 22.0198 18.7314 22.1782C18.7717 22.3366 18.9733 22.4158 19.1346 22.3762C19.3766 22.297 19.5379 22.1782 19.6589 22.0198C19.7395 22.1386 19.7799 22.2574 19.7799 22.3762C19.8202 22.6138 19.7395 22.7723 19.5782 22.9703C19.4572 23.1287 19.2959 23.2079 19.1346 23.2475C18.933 23.2871 18.7717 23.2871 18.6104 23.2079C18.4491 23.1287 18.2474 23.2079 18.2071 23.3663C18.1668 23.6039 18.2474 23.7624 18.4087 23.802ZM18.1264 24.396C18.1264 24.5148 18.1264 24.594 18.1264 24.7129V24.8317L17.2392 25.2277L17.1989 25.3069C17.1586 25.4257 17.1183 25.5445 17.0779 25.6634C17.0376 25.7822 16.9569 25.901 16.9166 26.0198L16.836 26.099L17.1989 26.9703C17.1183 27.0891 16.9973 27.2079 16.9166 27.2871C16.7956 27.4059 16.715 27.4851 16.594 27.5643L15.7068 27.2079L15.6261 27.2871C15.5052 27.3267 15.3842 27.4059 15.2632 27.4455C15.1422 27.4851 15.0212 27.5247 14.9002 27.5643L14.7389 27.6039L14.3357 28.4752H14.2147C14.134 28.4752 14.013 28.4752 13.8921 28.4752C13.7711 28.4752 13.6904 28.4752 13.5694 28.4752H13.4485L13.0452 27.6039L12.8839 27.5643C12.7629 27.5247 12.6419 27.4851 12.5209 27.4455C12.3999 27.4059 12.279 27.3267 12.158 27.2871L12.037 27.2079L11.1498 27.5643C11.0288 27.4851 10.9078 27.3663 10.8272 27.2871C10.7062 27.1683 10.6255 27.0891 10.5449 26.9703L10.9078 26.099L10.8675 26.0198C10.8272 25.901 10.7465 25.7822 10.7062 25.6634C10.6659 25.5445 10.6255 25.4257 10.5852 25.3069L10.5449 25.1485L9.65768 24.7525V24.6336C9.65768 24.5544 9.65768 24.4356 9.65768 24.3168C9.65768 24.1584 9.49638 24 9.33506 24C9.17376 24 9.01245 24.1584 9.01245 24.3168C9.01245 24.4356 9.01245 24.5544 9.01245 24.6733C9.01245 24.7921 9.05277 24.9109 9.05277 25.0297L9.0931 25.1881L10.0206 25.5841C10.061 25.6634 10.1013 25.7822 10.1416 25.8614C10.1819 25.9406 10.2223 26.0594 10.2626 26.1386L9.85932 27.0495L9.9803 27.2079C10.1416 27.4059 10.2626 27.5643 10.4239 27.6832C10.5852 27.8416 10.7869 28 10.9078 28.1188L11.0288 28.2376L11.9967 27.8416C12.0773 27.8812 12.1983 27.9208 12.279 27.9604C12.3596 28 12.4806 28.0396 12.5613 28.0792L12.9645 28.9901L13.1258 29.0297C13.2468 29.0297 13.3678 29.0693 13.4888 29.0693C13.6098 29.0693 13.7308 29.0693 13.8517 29.0693C13.9727 29.0693 14.0937 29.0693 14.2147 29.0693C14.3357 29.0693 14.4566 29.0297 14.5776 29.0297L14.7389 28.9901L15.1422 28.0792C15.2229 28.0396 15.3439 28 15.4245 27.9604C15.5052 27.9208 15.6261 27.8812 15.7068 27.8416L16.6343 28.2376L16.7956 28.1188C16.9973 27.9604 17.1586 27.8416 17.2796 27.6832C17.4409 27.5247 17.6022 27.3267 17.7232 27.2079L17.8441 27.0891L17.4409 26.1386C17.4812 26.0594 17.5215 25.9406 17.5619 25.8614C17.6022 25.7822 17.6425 25.6634 17.6828 25.5841L18.6104 25.1881L18.6507 25.0297C18.6507 24.9109 18.691 24.7921 18.691 24.6733C18.691 24.5544 18.691 24.4356 18.691 24.3168C18.691 24.1584 18.5297 24 18.3684 24C18.2474 24.1584 18.1264 24.2772 18.1264 24.396ZM9.81899 21.3465C10.3029 19.6832 9.0931 19.802 8.68983 19.0495C9.05277 19.8416 8.16557 20.6733 9.81899 21.3465ZM17.4409 21.7822C17.3199 21.9406 17.1989 22.099 17.1183 22.1782C17.0779 22.2574 16.9973 22.3366 16.9569 22.3762C16.836 22.297 16.7553 22.2574 16.6343 22.1782C16.4327 22.099 16.2311 22.0198 15.9891 21.9802C15.8278 21.9406 15.6665 22.0594 15.6261 22.2178C15.5858 22.3762 15.7068 22.5346 15.8681 22.5742C16.0294 22.6138 16.2311 22.6535 16.352 22.7327C16.4327 22.7723 16.473 22.8119 16.5537 22.8515C16.0294 23.4455 15.3842 24 14.6986 24.5148C14.4163 24.7525 14.134 24.9109 13.8114 25.1089C13.7308 25.0693 13.6501 24.9901 13.5694 24.9505C13.4081 24.8713 13.2468 24.8713 13.1662 25.0297C13.0855 25.1881 13.0855 25.3465 13.2468 25.4257C12.9242 25.6237 12.6016 25.7822 12.2386 25.901C12.0773 25.9802 11.9967 26.1386 12.0773 26.297C12.158 26.4554 12.3193 26.5346 12.4806 26.4554C12.9242 26.2574 13.3678 26.0594 13.7711 25.8218C13.9324 25.901 14.0937 26.0198 14.2147 26.099C14.5776 26.297 14.9002 26.495 15.3035 26.6138C15.4648 26.6931 15.6665 26.6138 15.7068 26.4554C15.7874 26.297 15.7068 26.099 15.5455 26.0594C15.1825 25.901 14.8599 25.7426 14.497 25.5841C14.4566 25.5445 14.376 25.5049 14.3357 25.5049C14.5776 25.3465 14.7793 25.1881 15.0212 25.0693C15.7068 24.5544 16.352 23.9208 16.9569 23.2871C16.9973 23.3267 17.0376 23.4059 17.1183 23.4455C17.2392 23.6039 17.3199 23.7624 17.3602 23.8812C17.4005 24 17.6022 24.1188 17.7635 24.0792C17.9248 24.0396 18.0055 23.8416 17.9651 23.6832C17.8845 23.4851 17.7635 23.2871 17.6425 23.1287C17.5619 23.0099 17.4812 22.9307 17.4005 22.8119C17.4812 22.7327 17.5215 22.6535 17.6022 22.5742C17.7232 22.4158 17.8441 22.2574 17.9651 22.1386C18.0458 21.9802 18.0458 21.8218 17.8845 21.7426C17.7635 21.6238 17.5619 21.6237 17.4409 21.7822ZM13.2872 23.1287C14.013 24.2376 13.1258 24.3168 13.0452 24.9505C12.5613 23.8812 13.2065 23.7228 13.2872 23.1287ZM10.7062 24.7129C11.8757 25.7822 12.158 24.7921 12.8839 24.8317C11.795 24.0396 11.4321 24.7525 10.7062 24.7129ZM9.69801 23.6039C10.7465 24.9505 11.2305 24 11.9967 24.1584C10.9885 23.0495 10.4642 23.7624 9.69801 23.6039ZM11.8757 21.703C11.8354 22.3762 11.1095 22.6138 11.7547 23.7624C11.795 23.0891 12.7629 22.8911 11.8757 21.703ZM11.3111 20.7129C11.2305 21.4257 10.4239 21.6238 11.0288 22.8911C11.1901 22.1782 12.1983 22.099 11.3111 20.7129ZM8.93179 22.495C9.81899 23.9604 10.4239 23.0099 11.1901 23.2871C10.2626 22.099 9.65768 22.7723 8.93179 22.495ZM8.28655 21.3069C8.93179 22.8911 9.69801 22.0594 10.3836 22.4158C9.65768 21.1089 8.97212 21.6634 8.28655 21.3069ZM10.5046 19.802C10.4642 20.594 9.65768 20.8713 10.4239 22.1386C10.4239 21.3465 11.5531 21.1881 10.5046 19.802ZM12.6822 22.3366C12.6016 23.0099 11.8354 23.2079 12.4403 24.396C12.5209 23.6832 13.4888 23.6039 12.6822 22.3366ZM12.7629 20.396V21.8614L14.4566 23.5247C14.5776 23.6436 14.7793 23.6436 14.8599 23.5247C14.9809 23.4059 14.9809 23.2079 14.8599 23.1287L13.3678 21.6634V18.9703L14.3357 18.0198V17.1485C14.497 17.0297 14.618 16.8713 14.618 16.7129C14.618 16.396 14.3357 16.1584 14.0534 16.1584C13.7711 16.1584 13.4888 16.4356 13.4888 16.7129C13.4888 16.9109 13.6098 17.1089 13.7711 17.1485V17.7822L12.8032 18.7327V19.6039L12.1177 18.9307V17.1485C12.279 17.0297 12.3999 16.8713 12.3999 16.7129C12.3999 16.396 12.1177 16.1584 11.8354 16.1584C11.5531 16.1584 11.2708 16.4356 11.2708 16.7129C11.2708 16.9109 11.3918 17.1089 11.5531 17.1485V19.1683L12.7629 20.396ZM15.3035 16.4752C15.1825 16.4752 15.1019 16.5544 15.1019 16.6733C15.1019 16.7921 15.1825 16.8713 15.3035 16.8713C15.4245 16.8713 15.5052 16.7921 15.5052 16.6733C15.5052 16.5544 15.3842 16.4752 15.3035 16.4752ZM14.013 16.4752C13.8921 16.4752 13.8114 16.5544 13.8114 16.6733C13.8114 16.7921 13.8921 16.8713 14.013 16.8713C14.134 16.8713 14.2147 16.7921 14.2147 16.6733C14.2147 16.5544 14.134 16.4752 14.013 16.4752ZM11.795 16.4752C11.6741 16.4752 11.5934 16.5544 11.5934 16.6733C11.5934 16.7921 11.6741 16.8713 11.795 16.8713C11.916 16.8713 11.9967 16.7921 11.9967 16.6733C11.9967 16.5544 11.916 16.4752 11.795 16.4752Z" fill="#00598E"/>
    <path d="M13.974 32.0001C19.4988 29.3862 22.604 25.1486 21.7572 18.1387C19.8214 17.6635 18.652 16.515 18.4906 14.614C17.1598 14.0595 15.6274 13.7427 13.974 13.7427C12.3206 13.7427 10.7881 14.0199 9.45731 14.614C9.25567 16.515 8.1265 17.6635 6.19079 18.1387C5.34391 25.1486 8.44912 29.4258 13.974 32.0001ZM10.3445 15.2476C11.514 14.8516 12.7642 14.6536 14.0143 14.6536C15.2241 14.6536 16.5146 14.8516 17.6841 15.2476C18.047 17.0694 19.2165 18.2179 20.9506 18.812C21.4345 24.5149 19.1762 28.4357 14.0546 31.01C8.89272 28.4357 6.59406 24.5149 7.15864 18.8516C8.81207 18.2575 9.98156 17.0694 10.3445 15.2476Z" fill="#6CAF60"/>
    <path d="M37.4722 9.12746H37V5.04489H37.7499L38.9165 8.39843H38.9443L40.1108 5.04489H40.8607V9.12746H40.3886V5.65728H40.3608L39.1387 9.12746H38.7221L37.5 5.65728H37.4722V9.12746ZM42.6674 9.12746H42.173L42.6952 7.93185L41.362 5.04489H41.8675L42.923 7.34863H42.9507L43.9506 5.04489H44.445L42.6674 9.12746ZM46.3617 9.18578C46.0173 9.18578 45.7118 9.10609 45.4451 8.94666C45.1822 8.78336 44.9767 8.54423 44.8285 8.22929C44.6841 7.91435 44.6119 7.5333 44.6119 7.08618C44.6119 6.63904 44.6841 6.258 44.8285 5.94306C44.9767 5.62812 45.1822 5.39094 45.4451 5.23153C45.7118 5.06822 46.0173 4.98657 46.3617 4.98657C46.7394 4.98657 47.0635 5.08183 47.3338 5.27235C47.6042 5.46287 47.8079 5.74671 47.9449 6.12386H47.4449C47.3376 5.88279 47.1931 5.70588 47.0116 5.59312C46.8339 5.48037 46.6172 5.42399 46.3617 5.42399C46.1099 5.42399 45.8877 5.48814 45.6951 5.61645C45.5025 5.74476 45.3526 5.93334 45.2451 6.18218C45.1378 6.43102 45.0841 6.73236 45.0841 7.08618C45.0841 7.44 45.1378 7.74134 45.2451 7.99017C45.3526 8.239 45.5025 8.42759 45.6951 8.5559C45.8877 8.68421 46.1099 8.74836 46.3617 8.74836C46.6172 8.74836 46.8339 8.692 47.0116 8.57923C47.1931 8.46646 47.3376 8.28957 47.4449 8.04849H47.9449C47.8079 8.42563 47.6042 8.70949 47.3338 8.9C47.0635 9.09051 46.7394 9.18578 46.3617 9.18578ZM49.8622 9.12746H49.3901V5.48231H48.1402V5.04489H51.1121V5.48231H49.8622V9.12746ZM54.3599 9.12746H53.8877L53.5266 8.10682H51.7212L51.3601 9.12746H50.888L52.3601 5.04489H52.8878L54.3599 9.12746ZM52.61 5.59896L51.8768 7.6694H53.3711L52.6378 5.59896H52.61ZM57.7193 9.97313H57.3027V9.12746H57.1361L55.3307 7.11534V9.12746H54.8585V5.04489H55.3307V6.99869L57.0527 5.04489H57.6082L55.8306 7.05701L57.2971 8.69004H57.7193V9.97313ZM58.8288 9.12746H58.1622V5.04489H58.6344V8.56173H58.6622L60.6064 5.04489H61.273V9.12746H60.8009V5.61062H60.7731L58.8288 9.12746ZM61.8033 9.15662V8.69004H61.8589C62.0293 8.69004 62.1607 8.62976 62.2533 8.50924C62.3496 8.38872 62.4181 8.18847 62.4588 7.90852C62.5033 7.62857 62.5255 7.23781 62.5255 6.73624V5.04489H65.0252V9.12746H64.5531V5.48231H62.9977V6.73624C62.9977 7.32724 62.9662 7.79383 62.9032 8.13598C62.844 8.47812 62.7329 8.73474 62.5699 8.90583C62.407 9.07301 62.17 9.15662 61.8589 9.15662H61.8033ZM68.4694 9.12746H67.9972V5.48231H66.7473V5.04489H69.7192V5.48231H68.4694V9.12746ZM70.8023 7.2903V8.69004H72.8298V9.12746H70.3301V5.04489H72.7743V5.48231H70.8023V6.85289H72.6632V7.2903H70.8023ZM74.0788 9.12746H73.6067V5.04489H74.0788V6.99869L75.8009 5.04489H76.3565L74.5788 7.05701L76.4398 9.12746H75.8842L74.0788 7.11534V9.12746ZM81.1612 9.12746H76.856V5.04489H77.3282V8.69004H78.7725V5.04489H79.2447V8.69004H80.689V5.04489H81.1612V9.12746ZM82.7741 9.12746H82.1075V5.04489H82.5797V8.56173H82.6075L84.5517 5.04489H85.2183V9.12746H84.7461V5.61062H84.7184L82.7741 9.12746ZM86.165 9.12746V5.04489H87.6371C87.8891 5.04489 88.1093 5.10127 88.2982 5.21403C88.487 5.3229 88.6315 5.47453 88.7315 5.66894C88.8354 5.86335 88.887 6.08303 88.887 6.32799C88.887 6.57294 88.8354 6.79262 88.7315 6.98703C88.6315 7.18144 88.487 7.33502 88.2982 7.44777C88.1093 7.55663 87.8891 7.61108 87.6371 7.61108H86.6372V9.12746H86.165ZM87.6094 7.17366C87.8577 7.17366 88.0537 7.09589 88.1982 6.94037C88.3426 6.78485 88.4148 6.58072 88.4148 6.32799C88.4148 6.07525 88.3426 5.87113 88.1982 5.7156C88.0537 5.56008 87.8577 5.48231 87.6094 5.48231H86.6372V7.17366H87.6094ZM90.3035 9.12746H89.6369V5.04489H90.1091V8.56173H90.1369L92.0811 5.04489H92.7477V9.12746H92.2756V5.61062H92.2478L90.3035 9.12746ZM98 9.12746H93.6949V5.04489H94.167V8.69004H95.6113V5.04489H96.0835V8.69004H97.5278V5.04489H98V9.12746Z" fill="#222765"/>
    <path d="M40.2628 27.7724H38V17.1067H46.5987V27.7724H44.3358V19.1637H40.2628V27.7724ZM53.2356 27.9248C52.2299 27.9248 51.3499 27.7115 50.5957 27.2848C49.8514 26.8481 49.2732 26.2183 48.8609 25.3955C48.4586 24.5727 48.2574 23.5874 48.2574 22.4396C48.2574 21.2917 48.4586 20.3064 48.8609 19.4836C49.2732 18.6609 49.8514 18.0362 50.5957 17.6095C51.3499 17.1728 52.2299 16.9543 53.2356 16.9543C54.2413 16.9543 55.1163 17.1728 55.8605 17.6095C56.6147 18.0362 57.193 18.6609 57.5953 19.4836C58.0076 20.3064 58.2138 21.2917 58.2138 22.4396C58.2138 23.5874 58.0076 24.5727 57.5953 25.3955C57.193 26.2183 56.6147 26.8481 55.8605 27.2848C55.1163 27.7115 54.2413 27.9248 53.2356 27.9248ZM53.2356 25.8678C54.0603 25.8678 54.719 25.5732 55.2118 24.9841C55.7046 24.395 55.951 23.5467 55.951 22.4396C55.951 21.3324 55.7046 20.4842 55.2118 19.895C54.719 19.3059 54.0603 19.0113 53.2356 19.0113C52.411 19.0113 51.7522 19.3059 51.2594 19.895C50.7667 20.4842 50.5202 21.3324 50.5202 22.4396C50.5202 23.5467 50.7667 24.395 51.2594 24.9841C51.7522 25.5732 52.411 25.8678 53.2356 25.8678ZM59.8767 27.7724V17.1067H64.2514C64.9755 17.1067 65.6142 17.2642 66.1673 17.5791C66.7305 17.8838 67.168 18.3155 67.4797 18.8742C67.7915 19.4328 67.9474 20.0626 67.9474 20.7635C67.9474 21.4644 67.7915 22.0942 67.4797 22.6529C67.168 23.2115 66.7305 23.6484 66.1673 23.9632C65.6142 24.268 64.9755 24.4203 64.2514 24.4203H62.1395V27.7724H59.8767ZM64.0252 22.3634C64.5482 22.3634 64.9555 22.2212 65.2471 21.9367C65.5387 21.6523 65.6846 21.2612 65.6846 20.7635C65.6846 20.2658 65.5387 19.8747 65.2471 19.5903C64.9555 19.3059 64.5482 19.1637 64.0252 19.1637H62.1395V22.3634H64.0252ZM73.744 27.7724H71.4812V19.1637H68.3133V17.1067H76.9119V19.1637H73.744V27.7724ZM86.3299 27.7724H83.9917L83.3128 25.7916H78.9682L78.289 27.7724H75.9962L79.7678 17.1067H82.5586L86.3299 27.7724ZM81.0953 19.6208L79.6471 23.8109H82.6189L81.1707 19.6208H81.0953ZM86.4021 27.9248V25.6393H86.6284C87.0004 25.6393 87.2922 25.5275 87.5034 25.3041C87.7245 25.0806 87.8857 24.659 87.9861 24.0394C88.0865 23.4096 88.137 22.4954 88.137 21.2968V17.1067H95.6042V27.7724H93.3414V19.1637H90.3998V21.5254C90.3998 23.0795 90.2993 24.3137 90.0981 25.2279C89.8968 26.1319 89.53 26.8074 88.9968 27.2544C88.4637 27.7013 87.6995 27.9248 86.7039 27.9248H86.4021ZM100.589 27.7724H97.7225V17.1067H99.9853V24.5727H100.061L104.134 17.1067H107V27.7724H104.737V20.3064H104.662L100.589 27.7724Z" fill="#222765"/>
</svg>
