<svg width="154" height="26" viewBox="0 0 154 26" fill="none" xmlns="http://www.w3.org/2000/svg">
    <path d="M47.672 17.7903H44.8222V12.3277C44.8222 10.937 44.3278 10.2416 43.3388 10.2416C43.112 10.239 42.8882 10.295 42.6876 10.4044C42.4871 10.5139 42.3161 10.6733 42.1902 10.8684C41.8829 11.3258 41.7274 11.8738 41.7468 12.4304V17.7903H38.8885V12.2716C38.8885 10.9183 38.4033 10.2416 37.4328 10.2416C37.2051 10.235 36.9792 10.2861 36.775 10.3904C36.5707 10.4948 36.3943 10.6492 36.261 10.8403C35.9459 11.3183 35.7917 11.8903 35.8223 12.468V17.7903H32.9626V8.21163H35.821V9.70865H35.8574C36.1614 9.18879 36.5898 8.75873 37.1013 8.45999C37.6327 8.14052 38.2375 7.97507 38.8521 7.98106C39.4264 7.93902 39.9985 8.0903 40.4828 8.4123C40.9671 8.73429 41.3377 9.2097 41.5391 9.76749C41.8497 9.20391 42.3039 8.7393 42.8522 8.42429C43.4006 8.10929 44.0221 7.95597 44.6489 7.98106C46.663 7.98106 47.67 9.26574 47.67 11.8351L47.672 17.7903ZM58.7555 8.21163L54.99 18.5573C54.0853 21.0455 52.7222 22.2896 50.9009 22.2896C50.3219 22.3069 49.7442 22.2248 49.1912 22.0467V19.689C49.5663 19.9184 49.9947 20.0381 50.4305 20.0352C50.7648 20.0518 51.0953 19.956 51.3725 19.7621C51.6497 19.5682 51.8587 19.2867 51.9682 18.9596L52.4565 17.7719L48.6943 8.21163H51.8603L53.5879 14.0396C53.708 14.4584 53.7928 14.8872 53.8413 15.3211H53.8777C53.9474 14.8931 54.0471 14.471 54.1761 14.0581L55.9222 8.21163H58.7555ZM60.1555 18.0243C59.7221 18.0385 59.3003 17.8775 58.9798 17.5755C58.829 17.4375 58.709 17.2674 58.6278 17.0769C58.5466 16.8864 58.5062 16.68 58.5093 16.4719C58.5041 16.2621 58.5449 16.0538 58.6287 15.8627C58.7125 15.6716 58.837 15.5025 58.993 15.3683C59.3305 15.0759 59.7605 14.9226 60.2005 14.9379C60.6392 14.9195 61.0682 15.0751 61.3995 15.3731C61.5496 15.5101 61.6689 15.6795 61.7489 15.8693C61.829 16.0592 61.8678 16.2649 61.8626 16.4719C61.8685 16.683 61.8289 16.8928 61.7467 17.0862C61.6646 17.2795 61.5419 17.4516 61.3876 17.5899C61.044 17.8891 60.6043 18.0442 60.1555 18.0243ZM78.6099 17.7903H75.7601V12.3277C75.7601 10.937 75.2656 10.2416 74.2767 10.2416C74.0499 10.239 73.8261 10.295 73.6255 10.4044C73.425 10.5139 73.254 10.6733 73.128 10.8684C72.8208 11.3258 72.6653 11.8738 72.6847 12.4304V17.7903H69.8264V12.2716C69.8264 10.9183 69.3411 10.2416 68.3707 10.2416C68.143 10.235 67.9171 10.2861 67.7129 10.3904C67.5086 10.4948 67.3322 10.6492 67.1989 10.8403C66.8843 11.3185 66.7306 11.8905 66.7616 12.468V17.7903H63.9032V8.21163H66.7616V9.70865H66.7979C67.1019 9.18879 67.5303 8.75873 68.0419 8.45999C68.5732 8.14052 69.178 7.97507 69.7926 7.98106C70.367 7.93902 70.939 8.0903 71.4234 8.4123C71.9077 8.73429 72.2782 9.2097 72.4796 9.76749C72.7902 9.20391 73.2444 8.7393 73.7928 8.42429C74.3411 8.10929 74.9626 7.95597 75.5894 7.98106C77.6035 7.98106 78.6106 9.26574 78.6106 11.8351L78.6099 17.7903ZM89.1964 13.8425H83.1509C83.2475 15.2333 84.0948 15.9286 85.693 15.9286C86.6393 15.9492 87.5717 15.6895 88.38 15.1801V17.3114C87.3401 17.8276 86.1938 18.0724 85.0412 18.0243C84.4067 18.0648 83.7709 17.9716 83.1722 17.7505C82.5735 17.5294 82.0244 17.185 81.5583 16.738C81.1286 16.2573 80.7974 15.6917 80.5844 15.0753C80.3714 14.4588 80.2811 13.8042 80.319 13.1508C80.2845 12.4606 80.3853 11.7702 80.6155 11.1213C80.8456 10.4724 81.2003 9.87829 81.6582 9.37476C82.0852 8.92121 82.5979 8.56341 83.1645 8.32364C83.731 8.08387 84.3392 7.96725 84.9512 7.98106C85.5293 7.94448 86.1083 8.03658 86.649 8.25117C87.1897 8.46575 87.6795 8.79781 88.0855 9.22492C88.8601 10.1606 89.2563 11.3688 89.1918 12.5987L89.1964 13.8425ZM86.5452 12.0281C86.5452 10.656 86.0084 9.97001 84.9347 9.97001C84.7063 9.97059 84.481 10.0238 84.275 10.1257C84.0689 10.2276 83.8875 10.3756 83.7437 10.5591C83.4002 10.9727 83.1871 11.485 83.133 12.0274L86.5452 12.0281ZM99.787 17.7903H96.9372V12.3462C96.9372 10.9432 96.4427 10.2416 95.4538 10.2416C95.2187 10.2349 94.9852 10.2845 94.7718 10.3867C94.5584 10.4889 94.3708 10.6409 94.2237 10.8307C93.8995 11.2559 93.7327 11.7867 93.7533 12.3277V17.7903H90.8949V3.60907H93.7533V9.62996H93.7897C94.0808 9.11813 94.4979 8.69524 94.9985 8.40438C95.4991 8.11352 96.0653 7.96509 96.6395 7.97422C98.7382 7.97422 99.7876 9.28376 99.7876 11.9029L99.787 17.7903ZM110.995 17.7903H108.145V12.468C108.145 10.9838 107.632 10.2416 106.607 10.2416C106.374 10.2366 106.142 10.287 105.93 10.3892C105.719 10.4913 105.532 10.6424 105.386 10.8307C105.056 11.2533 104.886 11.7852 104.906 12.3277V17.7903H102.048V8.21163H104.906V9.72712H104.943C105.235 9.17986 105.667 8.72679 106.193 8.41802C106.718 8.10926 107.316 7.95684 107.92 7.97764C109.97 7.97764 110.995 9.29357 110.995 11.9254L110.995 17.7903ZM120.963 17.7903H118.259V16.4151H118.222C117.952 16.9213 117.55 17.3398 117.063 17.6239C116.576 17.9081 116.022 18.0467 115.463 18.0243C115.076 18.0465 114.689 17.9879 114.325 17.8521C113.961 17.7164 113.627 17.5062 113.342 17.2341C113.08 16.9557 112.876 16.6245 112.743 16.2612C112.61 15.8978 112.551 15.5101 112.569 15.122C112.569 13.2637 113.633 12.1918 115.762 11.9063L118.276 11.5601C118.276 10.511 117.728 9.98643 116.63 9.98643C115.506 9.9929 114.409 10.348 113.482 11.0059V8.77951C114.002 8.52454 114.551 8.33613 115.115 8.21847C115.733 8.06554 116.366 7.98407 117.001 7.97559C119.643 7.97559 120.963 9.33827 120.963 12.0636V17.7903ZM118.276 13.8993V13.2541L116.594 13.4785C115.665 13.6031 115.201 14.0364 115.201 14.7785C115.196 14.9337 115.224 15.088 115.283 15.2309C115.342 15.3739 115.429 15.5019 115.54 15.6064C115.795 15.8322 116.124 15.9479 116.459 15.9293C116.705 15.9377 116.949 15.8906 117.176 15.7912C117.402 15.6919 117.605 15.5426 117.77 15.3539C118.114 14.9545 118.295 14.4336 118.276 13.8993ZM128.825 17.6781C128.223 17.9449 127.57 18.0634 126.916 18.0243C124.902 18.0243 123.895 16.9424 123.895 14.7785V10.3915H122.393V8.21163H123.895V6.14469L126.745 5.30313V8.21163H128.825V10.3915H126.744V14.264C126.744 15.262 127.127 15.761 127.893 15.761C128.221 15.7528 128.541 15.6587 128.825 15.4873L128.825 17.6781ZM131.711 18.0243C131.277 18.0385 130.856 17.8775 130.535 17.5755C130.384 17.4375 130.264 17.2674 130.183 17.0769C130.102 16.8864 130.061 16.68 130.065 16.4719C130.059 16.2621 130.1 16.0538 130.184 15.8627C130.268 15.6716 130.392 15.5025 130.548 15.3683C130.886 15.0759 131.316 14.9226 131.756 14.9379C132.194 14.9195 132.623 15.0751 132.955 15.3731C133.105 15.5101 133.224 15.6795 133.304 15.8693C133.384 16.0592 133.423 16.2649 133.418 16.4719C133.424 16.683 133.384 16.8928 133.302 17.0862C133.22 17.2795 133.097 17.4516 132.943 17.5899C132.599 17.8891 132.16 18.0442 131.711 18.0243ZM144.257 17.7903H141.407V16.3309H141.362C141.079 16.848 140.667 17.2775 140.169 17.5752C139.671 17.8728 139.106 18.0279 138.531 18.0243C136.384 18.0243 135.311 16.6803 135.311 13.9924V8.21163H138.161V13.7303C138.161 15.0837 138.679 15.7603 139.717 15.7603C139.949 15.7697 140.181 15.7245 140.394 15.6282C140.607 15.5319 140.796 15.3869 140.947 15.2041C141.274 14.7755 141.438 14.2384 141.41 13.6934V8.21163H144.26L144.257 17.7903ZM154 17.7903H145.687V16.5649L150.336 10.3915H146.148V8.21163H153.964V9.67102L149.559 15.6112H154.001L154 17.7903Z" fill="black"/>
    <path d="M3.96996 2.73859H17.8648C18.9177 2.73859 19.9275 3.17109 20.672 3.94096C21.4165 4.71082 21.8348 5.75499 21.8348 6.84374V21.896C21.8348 22.9847 21.4165 24.0289 20.672 24.7988C19.9275 25.5686 18.9177 26.0011 17.8648 26.0011H3.96996C2.91706 26.0011 1.90729 25.5686 1.16277 24.7988C0.418262 24.0289 0 22.9847 0 21.896L0 6.84374C0 5.75499 0.418262 4.71082 1.16277 3.94096C1.90729 3.17109 2.91706 2.73859 3.96996 2.73859Z" fill="white"/>
    <path d="M21.1731 23.2625H6.61657C5.56404 23.2613 4.55498 22.8284 3.81073 22.0588C3.06649 21.2892 2.64783 20.2458 2.64661 19.1574L2.64661 8.07347C2.89279 7.66729 3.23762 7.33491 3.64673 7.10946C4.05584 6.88401 4.51495 6.77337 4.9783 6.78856C6.62451 6.78856 7.60773 7.86342 7.60773 9.66217V18.1017C7.60773 19.6192 8.3832 20.4895 9.73497 20.4895C11.0867 20.4895 11.8774 19.6192 11.8774 18.1017V9.93106C11.8774 8.05089 13.0022 6.78787 14.6736 6.78787C16.3886 6.78787 17.3328 7.85932 17.3328 9.80516V18.1017C17.316 18.4253 17.3614 18.7491 17.4663 19.0544C17.5712 19.3597 17.7337 19.6405 17.9442 19.8806C18.1566 20.0872 18.4069 20.2477 18.6804 20.3527C18.9538 20.4576 19.2448 20.5048 19.5361 20.4916C19.8306 20.505 20.1248 20.4579 20.4015 20.353C20.6783 20.2482 20.9322 20.0876 21.1486 19.8806C21.3619 19.642 21.5267 19.3617 21.6334 19.0562C21.7401 18.7506 21.7865 18.4261 21.7699 18.1017V8.65982C21.7699 5.27649 19.6261 3.00361 16.4363 3.00361C15.3476 2.95166 14.2711 3.25837 13.3619 3.87954C12.4526 4.50072 11.7574 5.4043 11.3765 6.46015H11.2852C11.0612 5.44168 10.4968 4.53766 9.6913 3.90742C8.82863 3.28396 7.79349 2.96702 6.74162 3.00429C5.93573 2.98569 5.13828 3.17704 4.42267 3.56072C3.70705 3.9444 3.09629 4.50808 2.64661 5.19986L2.64661 4.10515C2.64766 3.01673 3.06626 1.9732 3.81054 1.20357C4.55483 0.433942 5.56399 0.00108679 6.61657 0L21.1731 0C22.2256 0.00126754 23.2347 0.434181 23.9789 1.20377C24.7232 1.97336 25.1418 3.01679 25.143 4.10515V19.1574C25.1418 20.2458 24.7232 21.2892 23.9789 22.0588C23.2347 22.8284 22.2256 23.2613 21.1731 23.2625Z" fill="#364BE0"/>
</svg>
