<svg width="83" height="32" viewBox="0 0 83 32" fill="none" xmlns="http://www.w3.org/2000/svg">
    <g clip-path="url(#clip0_2441_39825)">
        <path d="M28.3355 5.7528C28.3404 5.75883 28.3452 5.76486 28.3489 5.76971L28.3452 5.76363L28.3549 5.77451C28.3501 5.76848 28.3452 5.76244 28.3416 5.7576L28.0489 5.38182C27.7173 5.03746 27.2764 4.57465 26.929 4.246C25.8711 3.34097 25.7351 3.22376 24.8157 2.60751C24.0493 2.14352 23.9109 2.06015 23.0339 1.63965L23.1797 1.7484C24.1817 2.30544 26.5306 3.60801 28.3355 5.7528Z" fill="url(#paint0_linear_2441_39825)"/>
        <path d="M29.6217 7.46435C29.3557 7.08008 29.006 6.56291 28.7229 6.19199L28.6987 6.16177L28.6331 6.08081L28.7873 6.29347C29.0424 6.64026 29.3849 7.10307 29.6217 7.46435Z" fill="url(#paint1_linear_2441_39825)"/>
        <path d="M29.9874 9.27472C30.3785 10.309 31.0137 11.4147 31.1522 11.1718C31.3186 10.8793 30.4538 8.6947 29.8623 8.11111C29.7105 7.97941 29.6886 8.10503 29.6971 8.23312C29.7117 8.43975 29.8234 8.83852 29.9874 9.27472Z" fill="url(#paint2_linear_2441_39825)"/>
        <path d="M31.3015 16.5325C31.3003 16.5421 31.2991 16.5518 31.2979 16.5614L31.304 16.5481L31.3052 16.5675C31.3064 16.5578 31.3076 16.5481 31.3088 16.5385C31.7339 15.6612 32.0703 14.9689 31.9221 13.6107L31.876 13.3244L31.6464 12.2127C31.6234 12.2888 31.5966 12.3746 31.2493 12.493C30.5959 11.4587 30.1209 10.7603 28.6489 9.5L28.5007 9.78517C31.1303 13.8185 31.2954 16.1132 31.3015 16.5325Z" fill="url(#paint3_linear_2441_39825)"/>
        <path d="M32.0959 16.2719C32.0898 16.5619 32.0704 17.1346 32.0084 17.7183C32.0424 17.2107 32.0935 16.5329 32.1007 16.0242L32.0959 15.5735C32.0971 15.6738 32.1032 15.907 32.0959 16.2719Z" fill="url(#paint4_linear_2441_39825)"/>
        <path d="M30.2983 23.3176C30.2934 23.3261 30.2898 23.3333 30.2849 23.3418L30.2898 23.3357L30.2837 23.349C30.2885 23.3406 30.2922 23.3333 30.297 23.3249L30.5217 22.9153C30.7136 22.4742 30.976 21.8882 31.1448 21.4387C31.3403 20.8273 31.5845 20.0068 31.7387 19.3845C31.9233 18.1654 31.9318 17.8137 31.6233 16.5256L31.4837 16.8314C31.5529 18.1508 31.6816 20.6061 30.2983 23.3176Z" fill="url(#paint5_linear_2441_39825)"/>
        <path d="M29.4324 24.8196L30.0494 23.8143L30.1247 23.6802L29.9923 23.905C29.8247 24.1792 29.6109 24.5526 29.4324 24.8196Z" fill="url(#paint6_linear_2441_39825)"/>
        <path d="M29.6218 20.4487C29.2513 21.4952 29.2574 22.5561 29.7906 22.3011C30.4841 21.97 31.31 19.696 30.7865 19.122C30.4525 18.8526 29.9218 19.6005 29.6218 20.4487Z" fill="url(#paint7_linear_2441_39825)"/>
        <path d="M26.2903 26.5766C26.2843 26.5826 26.2794 26.5874 26.2733 26.5935L26.2843 26.5874L26.2782 26.5983C26.2843 26.5923 26.2891 26.5874 26.2952 26.5814C27.4587 25.8975 29.0534 24.9623 30.0943 23.592L30.3008 23.151C29.9874 23.261 29.7919 23.3214 28.7984 23.4966C28.6514 22.6773 28.5348 22.0309 27.6336 20.7573L27.2656 21.0557C27.5741 24.4946 26.6863 26.0631 26.2903 26.5766Z" fill="url(#paint8_linear_2441_39825)"/>
        <path d="M11.9669 31.4814C11.973 31.4826 11.9778 31.4838 11.9827 31.485L11.9706 31.4814L11.9754 31.4826C11.9706 31.4814 11.9645 31.4802 11.9584 31.479L11.271 31.2869L11.6244 31.3908L11.8382 31.45L11.9669 31.4814Z" fill="url(#paint9_linear_2441_39825)"/>
        <path d="M15.9884 31.3677C15.0811 31.7906 14.3597 31.9247 12.4807 31.6009L12.318 31.5719C13.1172 31.7423 13.6613 31.8498 14.4848 31.8981C14.571 31.9235 14.6888 31.9428 14.7787 31.9537C14.9037 31.9621 15.0702 31.9743 15.1953 31.9803L15.4673 31.9924C15.4394 31.9839 15.4017 31.9718 15.3726 31.9634C15.3823 31.8208 15.4576 31.7483 15.9884 31.3677Z" fill="url(#paint10_linear_2441_39825)"/>
        <path d="M15.9885 31.3677C16.365 31.7036 16.365 31.7036 16.4318 31.8981C16.3905 31.9525 16.2958 31.9888 16.229 32.0008C16.3383 31.9984 16.4853 31.996 16.5946 31.9924L16.9565 31.9754C17.0598 31.9646 17.1982 31.9477 17.299 31.9259C17.9512 31.886 18.4905 31.8401 19.4974 31.6238L19.3504 31.6504C17.8152 31.8824 16.9213 31.9005 15.9885 31.3677Z" fill="url(#paint11_linear_2441_39825)"/>
        <path d="M19.7888 31.555C19.784 31.5561 19.7779 31.5574 19.773 31.5586L19.7767 31.5574L19.7657 31.5598C19.7706 31.5586 19.7755 31.5574 19.7816 31.5561L19.9164 31.5199L20.4969 31.364L19.7888 31.555Z" fill="url(#paint12_linear_2441_39825)"/>
        <path d="M27.5073 26.7076C26.3025 27.9172 26.3086 28.0151 26.3122 28.061C26.515 28.218 28.4316 26.3306 28.6697 25.7398C28.6769 25.7144 28.6769 25.7144 28.6709 25.6939C28.6368 25.683 28.5543 25.6564 27.5073 26.7076Z" fill="url(#paint13_linear_2441_39825)"/>
        <path d="M21.6628 30.524C21.6556 30.5264 21.647 30.5288 21.6398 30.5312L21.6507 30.5288L21.6385 30.5336C21.6458 30.5312 21.6543 30.5288 21.6616 30.5264C22.8191 30.2219 24.0155 29.9077 25.1486 29.1646L25.8118 28.6837C25.7061 28.732 25.6672 28.7502 25.2021 28.819C25.7024 28.2668 26.1336 27.7907 26.4008 26.8567L26.0413 27.0585C25.5118 27.7497 24.1041 29.5875 21.6628 30.524Z" fill="url(#paint14_linear_2441_39825)"/>
        <path d="M22.2398 30.6404C21.788 30.8059 21.4042 30.9303 21.1759 31.0052C20.8115 31.1237 20.6743 31.1684 20.6196 31.2058C20.6245 31.2107 20.6306 31.2155 20.6342 31.2203C21.1407 31.207 22.4512 30.7261 23.4386 30.1897C23.4544 30.1812 23.4702 30.1715 23.486 30.1619C23.4459 30.1691 23.4459 30.1691 23.2115 30.2645C22.9479 30.3697 22.6273 30.499 22.2398 30.6404Z" fill="url(#paint15_linear_2441_39825)"/>
        <path d="M15.9885 31.3675C17.4605 31.5657 18.5087 31.6877 19.6164 31.5814L19.9893 31.4992C19.9407 31.475 19.8545 31.4485 19.3966 31.4086C20.1459 31.2189 20.6974 31.0642 21.5123 30.6582L21.1419 30.7404C19.2897 31.3373 18.1067 31.5693 15.9885 31.3675Z" fill="url(#paint16_linear_2441_39825)"/>
        <path d="M22.133 29.2723C20.797 30.088 20.9318 30.1351 20.984 30.1532C21.08 30.187 21.8816 30.0324 22.9528 29.4476C23.5018 29.1479 24.0569 28.6887 23.9755 28.522C23.9718 28.5147 23.9646 28.5074 23.9597 28.5014C23.8638 28.4313 23.4982 28.4386 22.133 29.2723Z" fill="url(#paint17_linear_2441_39825)"/>
        <path d="M15.9885 31.3659C17.9415 31.1967 19.1537 31.0493 21.1783 30.6228L21.5755 30.4572C21.0629 30.4959 20.4824 30.5394 19.6322 30.6348C20.0791 30.3062 20.3634 30.0669 20.5334 29.522L20.1363 29.6887C18.997 30.6324 18.1286 31.0988 15.9885 31.3659Z" fill="url(#paint18_linear_2441_39825)"/>
        <path d="M22.7461 1.52046C22.7521 1.52408 22.7582 1.52771 22.7655 1.53133L22.7619 1.52891L22.7752 1.53496L22.7546 1.52408C22.6174 1.44312 22.434 1.33316 22.2894 1.26792L21.885 1.10358C20.9971 0.779752 20.9631 0.766463 20.4093 0.608173L19.8749 0.466797C20.6255 0.678253 21.6542 0.968251 22.7461 1.52046Z" fill="url(#paint19_linear_2441_39825)"/>
        <path d="M17.356 0.635579C17.3572 0.637998 17.3584 0.640411 17.3596 0.64283L17.3645 0.639205L17.3742 0.64283C17.373 0.640411 17.3718 0.637998 17.3706 0.635579C17.9293 0.259791 17.9633 0.224748 17.9767 0.126874C17.9657 0.123249 17.9512 0.117208 17.9402 0.113583L17.5673 0.0737079C17.3864 0.0579995 17.1447 0.0386665 16.9637 0.0265832L16.7961 0.0205413L16.4912 0.00604197C16.3868 0.00362533 16.2459 0 16.1414 0C15.9593 0 15.7164 0.00241701 15.5354 0.00604197C16.3018 0.0930414 17.3512 0.630747 17.356 0.635579Z" fill="url(#paint20_linear_2441_39825)"/>
        <path d="M19.1657 0.542409C20.0462 1.0644 20.9073 1.23719 20.8697 1.03299C20.8308 0.821532 19.8774 0.442118 19.0139 0.294703C18.8705 0.271745 18.8547 0.278995 18.8365 0.287453C18.8365 0.305578 18.8341 0.345453 19.1657 0.542409Z" fill="url(#paint21_linear_2441_39825)"/>
        <path d="M22.4923 3.70479C22.4947 3.70963 22.4971 3.71446 22.4996 3.71929L22.5045 3.71325L22.519 3.72292C22.5166 3.71809 22.5141 3.71325 22.5117 3.70842C22.9417 3.07647 23.4773 2.29106 22.8481 1.63735L22.4473 1.4404C22.1522 1.47906 21.749 1.53102 21.1113 1.63131C20.1251 1.30144 19.3454 1.04044 17.9 0.698486L17.764 0.807236C20.7627 2.31522 22.485 3.69633 22.4923 3.70479Z" fill="url(#paint22_linear_2441_39825)"/>
        <path d="M13.5617 0.465414C13.3626 0.639416 13.4901 0.794081 13.8532 0.817039C14.5467 0.861747 15.3544 0.413459 15.1601 0.187503C15.0787 0.0920451 14.8346 0.105337 14.7301 0.11017C14.2528 0.142795 13.7609 0.291417 13.5617 0.465414Z" fill="url(#paint23_linear_2441_39825)"/>
        <path d="M13.1512 3.29682C13.1499 3.30166 13.1487 3.30649 13.1475 3.31132L13.1621 3.30287L13.1706 3.31011C13.1718 3.30528 13.173 3.30044 13.1742 3.29561C14.622 2.30116 14.6669 2.27337 17.0499 0.772637L16.8058 0.646973C15.8718 0.818552 15.1078 0.967178 13.7876 1.30792C12.9204 1.15809 12.5257 1.08922 11.5297 0.981679L11.1581 1.14722C11.2796 1.52663 11.3682 1.79971 13.1512 3.29682Z" fill="url(#paint24_linear_2441_39825)"/>
        <path d="M11.2092 1.01111C11.2043 1.01352 11.1995 1.01715 11.1958 1.01956L11.2067 1.01473L11.2079 1.01715C11.2128 1.01473 11.2177 1.01111 11.2213 1.00869C12.3424 0.56403 13.1525 0.242614 14.4909 0.0698242C14.3051 0.0903655 14.0573 0.11695 13.8715 0.141117C12.9168 0.286115 12.6509 0.341698 11.6731 0.595445C11.5954 0.631696 11.4788 0.660693 11.4156 0.717484C11.3355 0.789987 11.276 0.926526 11.2092 1.01111Z" fill="url(#paint25_linear_2441_39825)"/>
        <path d="M8.61493 1.79647C8.51533 1.85084 8.49344 1.86897 8.48254 1.87743C8.51046 1.88589 8.61006 1.8448 9.1797 1.57051C9.76023 1.29139 10.1756 1.09564 10.6335 0.922852C10.4173 1.00381 10.1295 1.10894 9.91571 1.19473C9.53674 1.36268 9.0315 1.58864 8.65986 1.77351C8.64525 1.77956 8.62828 1.78922 8.61493 1.79647Z" fill="url(#paint26_linear_2441_39825)"/>
        <path d="M5.29682 4.79125C5.29315 4.79605 5.28828 4.80213 5.28467 4.80693L5.29802 4.79605L5.29682 4.80213C5.30043 4.79729 5.3053 4.79125 5.30897 4.78641C6.3741 3.87049 7.98463 2.48576 10.6409 1.24602L10.6797 1.14331C9.60118 1.53481 8.80688 1.83809 7.62267 2.4773C7.59717 2.46763 7.56197 2.45434 7.53643 2.44347C7.53281 2.43501 7.52794 2.42292 7.52553 2.41446C7.52794 2.41205 7.53035 2.40963 7.53281 2.40842L7.31784 2.54375C7.02632 2.74555 6.63159 3.00534 6.34739 3.218C6.12148 3.41375 5.81179 3.67596 5.64658 3.92366C5.46926 4.18828 5.41826 4.50365 5.29682 4.79125Z" fill="url(#paint27_linear_2441_39825)"/>
        <path d="M24.8147 3.65656C25.6309 4.6341 26.7094 5.24549 26.7714 4.89024C26.8418 4.48184 25.4973 3.20102 24.6556 2.87477C24.3264 2.76361 24.3629 2.95452 24.4528 3.13456C24.522 3.27473 24.6507 3.46081 24.8147 3.65656Z" fill="url(#paint28_linear_2441_39825)"/>
        <path d="M28.2456 9.25717C28.2468 9.26444 28.2493 9.27166 28.2505 9.27893L28.2554 9.27047L28.2675 9.28496L28.2602 9.26202C28.7241 8.35093 29.2489 7.31779 28.5711 6.08048L28.242 5.70106C28.0586 5.76634 28.0586 5.76634 27.0189 5.96085C25.8578 5.21653 25.055 4.71994 23.2696 3.9043L23.1348 4.11455C27.0809 7.29123 28.2371 9.24026 28.2456 9.25717Z" fill="url(#paint29_linear_2441_39825)"/>
        <path d="M16.6758 2.62182C16.8349 3.54377 18.6009 3.9546 19.0976 3.18611C19.4426 2.65324 18.7988 1.81588 17.7422 1.73975C16.9855 1.718 16.5993 2.18079 16.6758 2.62182Z" fill="url(#paint30_linear_2441_39825)"/>
        <path d="M18.42 7.64443C18.42 7.65165 18.4212 7.65892 18.4212 7.66615L18.4322 7.6565L18.448 7.66738C18.448 7.66011 18.4468 7.65289 18.4468 7.64562C20.3111 5.93344 21.4358 4.90153 22.2192 3.96628L21.8329 3.67024C20.6755 3.91191 19.7366 4.1137 18.1953 4.50882C16.7743 4.0557 15.8124 3.75482 14.0197 3.31982L13.6638 3.58324C18.2463 7.34354 18.4188 7.64201 18.42 7.64443Z" fill="url(#paint31_linear_2441_39825)"/>
        <path d="M22.2688 7.08155C22.5919 8.40347 24.2947 9.19131 24.8716 8.28507C25.3452 7.54194 24.5765 6.05568 23.3109 5.80439C22.4449 5.68352 22.0963 6.37349 22.2688 7.08155Z" fill="url(#paint32_linear_2441_39825)"/>
        <path d="M24.0397 13.9844C24.0397 13.9941 24.0385 14.0037 24.0385 14.0134L24.0494 13.9989L24.0616 14.0182C24.0628 14.0086 24.0628 13.9989 24.0628 13.9893C24.9628 13.0963 26.8368 11.2367 27.9214 9.58614L27.5911 9.13421C26.6753 9.32996 25.6369 9.55108 24.0239 9.95469C22.547 9.17407 21.5317 8.65211 19.3807 7.79419L19.0358 8.13371C22.9005 11.9279 24.0373 13.9711 24.0397 13.9844Z" fill="url(#paint33_linear_2441_39825)"/>
        <path d="M11.0707 6.92275C11.0148 8.15041 12.6788 8.60714 13.7269 7.65377C14.6755 6.78982 14.2698 5.43046 13.0371 5.3447C12.9715 5.33985 12.8828 5.34228 12.816 5.34346C11.7776 5.42927 11.1023 6.23037 11.0707 6.92275Z" fill="url(#paint34_linear_2441_39825)"/>
        <path d="M12.4309 13.4792C12.4309 13.4889 12.4309 13.4985 12.4322 13.5082L12.4479 13.49L12.4601 13.5058C12.4601 13.4961 12.4601 13.4864 12.4589 13.4767C13.9491 11.8238 15.0253 10.6287 17.7884 8.07797L17.4058 7.70581C15.7115 8.24231 14.452 8.65434 12.4686 9.44821C10.6917 8.95281 10.1342 8.80295 7.87877 8.31116L7.49011 8.73411C8.38285 9.64277 8.38285 9.64277 9.70065 10.8825C10.1561 11.3114 12.4273 13.4707 12.4309 13.4792Z" fill="url(#paint35_linear_2441_39825)"/>
        <path d="M8.07794 3.41622C7.72085 3.95996 7.97226 4.29468 8.6269 4.14726C9.82567 3.8778 10.8276 2.57885 10.3006 2.25744C10.156 2.16923 9.94956 2.20186 9.85117 2.21757C9.14553 2.36377 8.38156 2.95343 8.07794 3.41622Z" fill="url(#paint36_linear_2441_39825)"/>
        <path d="M7.21806 8.32971C7.21685 8.33693 7.2156 8.3442 7.2144 8.35147L7.22654 8.33935L7.23749 8.34781C7.23869 8.34059 7.2399 8.33332 7.24115 8.3261C8.28324 7.27243 9.71033 5.82845 12.7662 3.63537L12.5148 3.4082C10.7318 4.01599 9.62047 4.42803 8.12656 5.12404C6.10308 4.74461 6.10308 4.74461 5.74845 4.67092L5.36707 5.01528C5.44965 5.69917 5.54197 6.47494 7.21806 8.32971Z" fill="url(#paint37_linear_2441_39825)"/>
        <path d="M3.16765 6.3796C3.28182 6.23341 4.34455 4.95016 5.14981 4.20947C4.05548 5.28246 3.9899 5.34651 3.35104 6.1428L3.15186 6.40017C3.15671 6.39414 3.16279 6.38568 3.16765 6.3796Z" fill="url(#paint38_linear_2441_39825)"/>
        <path d="M0.873262 10.9482C0.870832 10.9554 0.868402 10.9639 0.867188 10.9712L0.873262 10.9567V10.9639C0.875687 10.9567 0.878117 10.9482 0.879331 10.9409C1.49633 9.55378 2.34166 7.6555 4.77926 5.26062L4.82544 5.05518C3.83556 5.84663 3.17849 6.4037 2.41817 7.47547L2.42789 7.44041L1.90442 8.32251C1.66636 8.79616 1.35058 9.42811 1.13925 9.91387C1.03966 10.2196 0.946135 10.6364 0.873262 10.9482Z" fill="url(#paint39_linear_2441_39825)"/>
        <path d="M2.56524 8.93741C2.31139 9.75062 2.54702 10.2122 3.06928 9.92461C4.01906 9.40141 4.9057 7.17929 4.24133 6.98838C4.14173 6.9594 4.03728 6.99808 3.97534 7.02102C3.39114 7.28443 2.78872 8.22089 2.56524 8.93741Z" fill="url(#paint40_linear_2441_39825)"/>
        <path d="M2.66966 15.3406C2.67087 15.3503 2.67208 15.36 2.67208 15.3697L2.67937 15.3491L2.68787 15.3624C2.68666 15.3527 2.68545 15.3431 2.68545 15.3334C3.3243 13.7239 4.11984 11.7217 6.58658 8.90877L6.34611 8.60669C4.93725 9.48029 3.99109 10.0978 2.74132 11.2976C1.90934 11.085 1.42231 10.9556 1.07859 10.7938L0.880615 11.2759C0.936485 11.9863 1.04094 13.3095 2.58585 15.2331C2.61015 15.2658 2.65387 15.3032 2.66966 15.3406Z" fill="url(#paint41_linear_2441_39825)"/>
        <path d="M0.615781 11.6147L0.660717 11.3308C0.589059 11.5519 0.479749 11.8431 0.422667 12.0679L0.165182 13.2726L0 14.5184C0.0461531 14.1837 0.0838054 13.733 0.153035 13.4031C0.269633 12.8617 0.490683 12.1549 0.615781 11.6147Z" fill="url(#paint42_linear_2441_39825)"/>
        <path d="M27.5887 13.2412C27.6458 14.7383 28.7171 15.7799 29.379 14.9824C30.0203 14.2103 29.7009 12.1706 28.6539 11.7332C27.9422 11.5061 27.5536 12.3217 27.5887 13.2412Z" fill="url(#paint43_linear_2441_39825)"/>
        <path d="M27.3227 20.5226C27.3191 20.531 27.3154 20.5407 27.313 20.5491L27.3239 20.5395L27.3287 20.554L27.3373 20.5262C29.2514 18.9638 30.4368 17.8727 31.2214 16.5798L31.1388 16.0614C30.234 16.2717 29.3219 16.4408 28.4134 16.6317C27.4308 15.6615 26.7397 15.0065 24.9798 13.8345L24.6288 14.1958C27.313 18.5675 27.3251 20.5056 27.3227 20.5226Z" fill="url(#paint44_linear_2441_39825)"/>
        <path d="M16.8606 11.8681C16.9783 13.4232 18.8354 14.1265 19.7828 12.9737C20.616 11.96 20.0742 10.1898 18.5196 10.0592C17.4083 10.0363 16.7925 10.98 16.8606 11.8681Z" fill="url(#paint45_linear_2441_39825)"/>
        <path d="M18.2231 19.0239C18.2219 19.0335 18.2219 19.042 18.2207 19.0516L18.2317 19.0395L18.245 19.0528C18.2462 19.0432 18.2462 19.0347 18.2474 19.025C19.977 17.3262 21.7709 15.6949 23.5162 14.0105L23.198 13.5405C21.562 14.0032 20.3474 14.3537 18.4527 14.9892C16.8543 14.3102 15.7612 13.8559 13.5192 13.1067L13.139 13.5465C17.3365 17.6608 18.2207 19.0178 18.2231 19.0239Z" fill="url(#paint46_linear_2441_39825)"/>
        <path d="M22.0939 18.3113C21.9542 19.7275 23.1311 20.5394 24.1258 19.7117C25.1594 18.8514 25.1327 16.9447 23.7858 16.6583C22.853 16.5363 22.1813 17.4208 22.0939 18.3113Z" fill="url(#paint47_linear_2441_39825)"/>
        <path d="M21.4005 24.8642C21.3981 24.8702 21.3945 24.8775 21.392 24.8835L21.403 24.8751L21.4078 24.886C21.4102 24.8799 21.4139 24.8727 21.4163 24.8666C23.1871 23.5302 24.9907 22.2385 26.7421 20.8767L26.6583 20.4212C25.3357 20.7088 24.3483 20.9299 22.7268 21.3649C21.6386 20.6 20.8515 20.072 19.0965 19.1875L18.7236 19.5669C21.4151 23.3816 21.4018 24.8509 21.4005 24.8642Z" fill="url(#paint48_linear_2441_39825)"/>
        <path d="M11.1726 18.1548C11.469 19.6156 13.1949 20.0869 13.9698 18.9173C14.69 17.8309 14.0536 16.1369 12.5706 16.1659C11.5115 16.2602 10.9929 17.2703 11.1726 18.1548Z" fill="url(#paint49_linear_2441_39825)"/>
        <path d="M13.5838 24.5212C13.585 24.5284 13.5862 24.5344 13.5874 24.5417L13.5959 24.5308L13.6056 24.5405C13.6044 24.5332 13.6032 24.5272 13.602 24.5199C14.293 23.3926 15.0764 22.1154 17.5954 19.5139L17.276 19.103C15.7068 19.706 14.638 20.1301 13.0165 20.9373C11.4899 20.4479 10.8583 20.2449 8.50204 19.6601L8.30164 20.106C9.81863 21.3107 13.3712 24.1333 13.5838 24.5212Z" fill="url(#paint50_linear_2441_39825)"/>
        <path d="M5.52494 12.9191C5.6282 14.3002 6.96905 14.7376 7.87876 13.6864C8.89293 12.5131 8.36215 10.6197 7.0553 10.749C7.02372 10.7526 6.9812 10.7598 6.94842 10.7647C5.9865 10.9737 5.46058 12.0455 5.52494 12.9191Z" fill="url(#paint51_linear_2441_39825)"/>
        <path d="M7.84597 19.6635C7.84839 19.6732 7.85084 19.6816 7.85326 19.6913L7.85933 19.678L7.87514 19.6877C7.87268 19.678 7.87027 19.6695 7.86781 19.6599C8.51035 18.3754 9.31072 16.778 12.0495 13.6146L11.6536 13.2207C9.6921 14.1524 8.50914 14.7589 7.08808 15.6881C5.81646 15.3848 4.54238 15.09 3.27074 14.7843L3.0752 15.2882C3.93996 16.2452 4.83507 17.2348 7.70752 19.5523C7.75004 19.585 7.81681 19.6188 7.84597 19.6635Z" fill="url(#paint52_linear_2441_39825)"/>
        <path d="M0.0315991 15.7997C0.0546755 16.6262 0.207708 17.1288 0.386247 16.9693C0.787052 16.6117 0.872074 13.4845 0.483416 13.4096C0.440905 13.4011 0.411756 13.4326 0.381392 13.4664C0.165201 13.7673 0.00487885 14.8354 0.0315991 15.7997Z" fill="url(#paint53_linear_2441_39825)"/>
        <path d="M1.97115 22.088C1.97479 22.0965 1.97965 22.105 1.98329 22.1134L1.97965 22.1001L1.98815 22.1073C1.98451 22.0989 1.97965 22.0904 1.976 22.082C1.72095 20.6658 1.37116 18.7253 2.36345 15.5861L2.12904 15.261C1.47561 16.2011 0.960637 16.943 0.647282 18.3422C0.296276 18.2093 0.10316 18.1368 0.0570068 17.9894L0.252553 19.1844C0.358218 19.5554 0.497891 20.0605 0.694647 20.3927C1.05537 21.0042 1.57034 21.5032 1.97115 22.088Z" fill="url(#paint54_linear_2441_39825)"/>
        <path d="M2.87726 20.1182C3.33393 21.2141 4.21084 21.6128 4.55213 20.8794C5.03186 19.8487 4.13311 17.6181 3.12745 17.9577C2.55175 18.2283 2.53353 19.2929 2.87726 20.1182Z" fill="url(#paint55_linear_2441_39825)"/>
        <path d="M7.01041 25.7724C7.01523 25.7785 7.0201 25.7845 7.02497 25.7905L7.02376 25.7784L7.03591 25.7857C7.03104 25.7796 7.02617 25.7736 7.0213 25.7676C6.77235 24.61 6.43228 23.0235 7.48527 20.2612L7.08812 19.9302C6.21486 20.7023 5.52498 21.3125 4.84118 22.4882C2.64163 22.0339 2.64163 22.0339 2.23718 21.9444L2.33556 22.3964C3.15417 23.1262 4.17318 24.0348 6.87677 25.689C6.91688 25.7156 6.97517 25.741 7.01041 25.7724Z" fill="url(#paint56_linear_2441_39825)"/>
        <path d="M2.0671 23.9683C1.7756 23.4608 1.05416 21.9287 0.780884 21.1396L1.12946 22.0652C1.39666 22.6464 1.7671 23.4149 2.07317 23.9768C2.07074 23.9744 2.06831 23.9707 2.0671 23.9683Z" fill="url(#paint57_linear_2441_39825)"/>
        <path d="M5.39126 27.904C5.39733 27.9088 5.40341 27.9136 5.40948 27.9185L5.39859 27.9076L5.40587 27.9124C5.39979 27.9076 5.39372 27.9027 5.38764 27.8979C4.4087 26.9083 2.92815 25.4112 2.0974 22.7046L1.85327 22.4412C1.96744 23.2906 2.05732 23.9612 2.81884 25.1369L2.80184 25.1188C3.11763 25.5357 3.54029 26.0927 3.87794 26.4914L4.5508 27.214C4.79491 27.4327 5.13503 27.7034 5.39126 27.904Z" fill="url(#paint58_linear_2441_39825)"/>
        <path d="M24.2814 24.5361C23.8126 25.3759 23.7907 26.1867 24.5085 26.0091C25.7474 25.7022 26.9134 23.7169 26.1081 23.2855C26.0911 23.2759 26.0668 23.2674 26.0486 23.259C25.4851 23.0849 24.7077 23.7713 24.2814 24.5361Z" fill="url(#paint59_linear_2441_39825)"/>
        <path d="M20.4822 29.4124C20.4761 29.416 20.4701 29.4209 20.464 29.4245L20.4761 29.4197L20.4701 29.4269L20.4871 29.4148C22.6721 28.4578 24.336 27.7159 25.8712 26.893L26.0777 26.5439C24.9494 26.7142 24.3287 26.8085 23.2903 27.0139C23.0146 26.3529 22.7887 25.8913 21.9725 25.0588L21.5899 25.3428C21.7879 27.7316 21.0968 28.8747 20.4822 29.4124Z" fill="url(#paint60_linear_2441_39825)"/>
        <path d="M16.6006 23.5567C16.6261 24.6926 17.5868 25.4006 18.4491 24.5548C19.3418 23.6788 19.2265 22.0451 17.9888 21.9303C17.203 21.9183 16.5799 22.6468 16.6006 23.5567Z" fill="url(#paint61_linear_2441_39825)"/>
        <path d="M16.8701 28.8232C16.8689 28.828 16.8677 28.8329 16.8665 28.8377L16.8726 28.8305L16.8762 28.8377C16.8774 28.8329 16.8786 28.828 16.8799 28.8232C17.5588 28.0668 18.3276 27.2089 20.8672 25.2297L20.7847 24.8696C19.5482 25.255 18.7066 25.5269 17.4301 26.0537C16.4949 25.5293 15.8207 25.1692 14.3317 24.5808L14.1277 24.9288C16.7523 27.7055 16.8665 28.7169 16.8701 28.8232Z" fill="url(#paint62_linear_2441_39825)"/>
        <path d="M18.737 28.308C18.7309 28.3201 18.0945 29.5103 18.8074 29.288C19.7366 28.9992 20.9317 27.5153 20.2868 27.2048C20.2576 27.1915 20.2163 27.1807 20.1848 27.1734C19.7366 27.119 19.1281 27.5963 18.737 28.308Z" fill="url(#paint63_linear_2441_39825)"/>
        <path d="M15.9884 31.3669C16.9005 30.9585 16.9005 30.9585 19.9442 29.6233L20.1531 29.3913C19.3041 29.5943 18.7296 29.7393 17.9038 30.0281C17.8309 29.7127 17.7689 29.4409 17.1981 28.908L16.9904 29.14C17.1204 30.1888 17.0074 30.7591 15.9884 31.3669Z" fill="url(#paint64_linear_2441_39825)"/>
        <path d="M13.8107 28.2374C14.0803 28.757 14.8844 29.61 15.1504 28.8343C15.3945 28.1226 14.9876 26.901 14.1411 26.9082C13.6139 26.9577 13.4621 27.5668 13.8107 28.2374Z" fill="url(#paint65_linear_2441_39825)"/>
        <path d="M15.9884 31.3678C15.7029 30.7818 15.7223 30.3396 16.5762 29.124L16.4875 28.8787C15.8802 29.2388 15.4868 29.4877 15.1394 29.9094C14.5394 29.6158 14.175 29.4466 13.0588 29.0962L13.1536 29.3415C14.6135 30.2404 15.3228 30.7044 15.9884 31.3678Z" fill="url(#paint66_linear_2441_39825)"/>
        <path d="M8.48732 24.3089C9.13221 25.3686 10.3614 25.8423 10.6128 24.8635C10.8702 23.8582 9.87555 22.3454 8.78853 22.4915C8.11562 22.6414 7.97837 23.4739 8.48732 24.3089Z" fill="url(#paint67_linear_2441_39825)"/>
        <path d="M12.7529 29.0756C12.7577 29.0804 12.7614 29.0852 12.7662 29.0889L12.7638 29.0816L12.7747 29.0876C12.7699 29.0828 12.7662 29.078 12.7614 29.0744C12.5488 28.2986 12.2561 27.2365 13.4209 24.9709L13.0893 24.6543C11.9695 25.3636 11.3658 25.7925 10.744 26.4632C9.75289 26.2082 9.03751 26.0233 7.49988 25.6971L7.5922 26.0584C8.67194 26.7 8.83836 26.7991 10.2084 27.5905C12.5634 28.9499 12.7407 29.0659 12.7529 29.0756Z" fill="url(#paint68_linear_2441_39825)"/>
        <path d="M4.55351 26.3698C5.21059 27.0187 5.88465 27.3655 5.88832 27.0574C5.89439 26.5535 3.96566 24.2565 3.56365 24.6383C3.40454 24.8824 3.86729 25.692 4.55351 26.3698Z" fill="url(#paint69_linear_2441_39825)"/>
        <path d="M10.421 30.0359C10.4283 30.0395 10.4356 30.0419 10.4441 30.0455L10.4332 30.0395L10.4453 30.0432C10.438 30.0395 10.4308 30.0371 10.4222 30.0335C9.43967 29.3967 7.95425 28.4348 7.12958 26.2478L6.73846 26.011C6.64739 26.6477 6.57575 27.1504 6.95347 28.0216C5.62232 27.8162 5.62232 27.8162 5.37573 27.7703L5.70852 28.0844C6.26601 28.3986 6.79193 28.6959 7.78301 29.1067C8.64533 29.4644 9.54655 29.7133 10.421 30.0359Z" fill="url(#paint70_linear_2441_39825)"/>
        <path d="M10.0688 29.1238C10.7672 29.554 11.74 29.9226 11.689 29.6833C11.621 29.3594 9.65341 27.6908 9.04857 27.8744C8.78743 28.0049 9.1676 28.568 10.0688 29.1238Z" fill="url(#paint71_linear_2441_39825)"/>
        <path d="M15.9885 31.3675C14.4485 30.9808 13.6311 30.605 12.8538 29.3991L12.5064 29.2021C12.459 29.5695 12.4189 29.8873 12.8124 30.3513C12.0971 30.2159 11.6088 30.1253 10.6117 29.9899L10.9578 30.1869C12.2501 30.5494 13.5874 30.9264 15.9885 31.3675Z" fill="url(#paint72_linear_2441_39825)"/>
        <path d="M9.56581 30.4753C10.1561 30.6951 10.7791 30.8438 10.8715 30.7894C10.8205 30.6855 7.94193 29.4699 7.79132 29.4892C7.78766 29.4941 7.78284 29.5013 7.77917 29.5073C7.78159 29.5122 7.78404 29.5182 7.78646 29.5231C7.92371 29.6946 8.66704 30.1405 9.56581 30.4753Z" fill="url(#paint73_linear_2441_39825)"/>
        <path d="M12.1698 31.3329C13.4038 31.4199 14.2078 31.4428 15.9872 31.3655C14.0499 31.3571 12.8524 31.2012 10.869 30.2962L10.4609 30.1802C10.9832 30.5523 11.3621 30.8001 12.2354 31.1021C11.7143 31.1021 11.5321 31.1033 11.1508 31.1287C11.4848 31.2097 11.8249 31.2786 12.1698 31.3329Z" fill="url(#paint74_linear_2441_39825)"/>
        <path d="M45.0547 14.7537V22.9508H43.9712V16.8385L41.2326 22.9508H40.4706L37.7202 16.8266V22.9508H36.6367V14.7537H37.8035L40.8516 21.5293L43.8997 14.7537H45.0547Z" fill="black"/>
        <path d="M46.4874 19.6813C46.4874 19.018 46.6224 18.4376 46.8922 17.9401C47.1621 17.4347 47.5312 17.0438 47.9995 16.7674C48.4757 16.491 49.0034 16.3528 49.583 16.3528C50.1547 16.3528 50.6509 16.4752 51.0714 16.72C51.492 16.9648 51.8055 17.2728 52.0118 17.6439V16.4594H53.1075V22.9507H52.0118V21.7425C51.7976 22.1215 51.4762 22.4374 51.0478 22.6901C50.6268 22.9349 50.1348 23.0573 49.5709 23.0573C48.9918 23.0573 48.4678 22.9152 47.9995 22.6309C47.5312 22.3466 47.1621 21.9478 46.8922 21.4345C46.6224 20.9212 46.4874 20.3368 46.4874 19.6813ZM52.0118 19.6932C52.0118 19.2036 51.9126 18.7771 51.7146 18.4139C51.5161 18.0506 51.2462 17.7742 50.9045 17.5847C50.5711 17.3873 50.202 17.2886 49.7972 17.2886C49.3924 17.2886 49.0233 17.3833 48.6899 17.5729C48.3565 17.7624 48.0909 18.0388 47.8924 18.402C47.6939 18.7653 47.5947 19.1917 47.5947 19.6813C47.5947 20.1788 47.6939 20.6132 47.8924 20.9844C48.0909 21.3476 48.3565 21.6279 48.6899 21.8254C49.0233 22.0149 49.3924 22.1097 49.7972 22.1097C50.202 22.1097 50.5711 22.0149 50.9045 21.8254C51.2462 21.6279 51.5161 21.3476 51.7146 20.9844C51.9126 20.6132 52.0118 20.1828 52.0118 19.6932Z" fill="black"/>
        <path d="M58.177 16.3397C58.669 16.3397 59.1136 16.4463 59.5106 16.6596C59.9075 16.8649 60.2172 17.1768 60.4393 17.5954C60.6693 18.0139 60.7848 18.5233 60.7848 19.1234V22.9496H59.7132V19.2774C59.7132 18.6299 59.5504 18.1363 59.2249 17.7967C58.8994 17.4493 58.4547 17.2755 57.8914 17.2755C57.3196 17.2755 56.8634 17.4532 56.5221 17.8086C56.1887 18.164 56.0218 18.6812 56.0218 19.3603V22.9496H54.9386V14.1838H56.0218V17.3821C56.2365 17.0505 56.53 16.7938 56.9032 16.6122C57.2839 16.4306 57.7087 16.3397 58.177 16.3397Z" fill="black"/>
        <path d="M62.1498 19.6813C62.1498 19.018 62.2847 18.4376 62.5546 17.9401C62.8244 17.4347 63.1935 17.0438 63.6619 16.7674C64.1381 16.491 64.6658 16.3528 65.2454 16.3528C65.8166 16.3528 66.3128 16.4752 66.7338 16.72C67.1544 16.9648 67.4678 17.2728 67.6741 17.6439V16.4594H68.7698V22.9507H67.6741V21.7425C67.4599 22.1215 67.1386 22.4374 66.7097 22.6901C66.2891 22.9349 65.7971 23.0573 65.2333 23.0573C64.6542 23.0573 64.1302 22.9152 63.6619 22.6309C63.1935 22.3466 62.8244 21.9478 62.5546 21.4345C62.2847 20.9212 62.1498 20.3368 62.1498 19.6813ZM67.6741 19.6932C67.6741 19.2036 67.5749 18.7771 67.3765 18.4139C67.178 18.0506 66.9081 17.7742 66.5669 17.5847C66.2335 17.3873 65.8644 17.2886 65.4596 17.2886C65.0548 17.2886 64.6857 17.3833 64.3523 17.5729C64.0189 17.7624 63.7532 18.0388 63.5548 18.402C63.3563 18.7653 63.2571 19.1917 63.2571 19.6813C63.2571 20.1788 63.3563 20.6132 63.5548 20.9844C63.7532 21.3476 64.0189 21.6279 64.3523 21.8254C64.6857 22.0149 65.0548 22.1097 65.4596 22.1097C65.8644 22.1097 66.2335 22.0149 66.5669 21.8254C66.9081 21.6279 67.178 21.3476 67.3765 20.9844C67.5749 20.6132 67.6741 20.1828 67.6741 19.6932Z" fill="black"/>
        <path d="M71.6841 14.1838V22.9496H70.6005V14.1838H71.6841Z" fill="black"/>
        <path d="M74.6142 14.1838V22.9496H73.531V14.1838H74.6142Z" fill="black"/>
        <path d="M76.0563 19.6813C76.0563 19.018 76.1912 18.4376 76.4611 17.9401C76.7309 17.4347 77.1 17.0438 77.5684 16.7674C78.0446 16.491 78.5722 16.3528 79.1519 16.3528C79.7236 16.3528 80.2197 16.4752 80.6403 16.72C81.0609 16.9648 81.3743 17.2728 81.5811 17.6439V16.4594H82.6763V22.9507H81.5811V21.7425C81.3664 22.1215 81.0451 22.4374 80.6166 22.6901C80.1956 22.9349 79.7036 23.0573 79.1398 23.0573C78.5607 23.0573 78.0367 22.9152 77.5684 22.6309C77.1 22.3466 76.7309 21.9478 76.4611 21.4345C76.1912 20.9212 76.0563 20.3368 76.0563 19.6813ZM81.5811 19.6932C81.5811 19.2036 81.4819 18.7771 81.2834 18.4139C81.085 18.0506 80.8151 17.7742 80.4734 17.5847C80.14 17.3873 79.7709 17.2886 79.3661 17.2886C78.9613 17.2886 78.5922 17.3833 78.2588 17.5729C77.9254 17.7624 77.6597 18.0388 77.4612 18.402C77.2628 18.7653 77.1636 19.1917 77.1636 19.6813C77.1636 20.1788 77.2628 20.6132 77.4612 20.9844C77.6597 21.3476 77.9254 21.6279 78.2588 21.8254C78.5922 22.0149 78.9613 22.1097 79.3661 22.1097C79.7709 22.1097 80.14 22.0149 80.4734 21.8254C80.8151 21.6279 81.085 21.3476 81.2834 20.9844C81.4819 20.6132 81.5811 20.1828 81.5811 19.6932Z" fill="black"/>
        <path d="M38.0714 11.2995C37.6865 11.2995 37.3392 11.2107 37.0296 11.033C36.72 10.8513 36.4779 10.5987 36.3033 10.2749C36.1287 9.95109 36.0414 9.58588 36.0414 9.17916C36.0414 8.76851 36.1287 8.40329 36.3033 8.08348C36.4779 7.75968 36.72 7.50894 37.0296 7.33125C37.3392 7.14963 37.6865 7.05884 38.0714 7.05884C38.4564 7.05884 38.8037 7.14963 39.1133 7.33125C39.4229 7.50894 39.665 7.75968 39.8396 8.08348C40.0142 8.40329 40.1015 8.76851 40.1015 9.17916C40.1015 9.58588 40.0142 9.95109 39.8396 10.2749C39.665 10.5987 39.4229 10.8513 39.1133 11.033C38.8037 11.2107 38.4564 11.2995 38.0714 11.2995ZM38.0714 11.0626C38.4009 11.0626 38.6985 10.9856 38.9645 10.8316C39.2303 10.6776 39.4387 10.4585 39.5896 10.1742C39.7443 9.88992 39.8217 9.55822 39.8217 9.17916C39.8217 8.79616 39.7443 8.46249 39.5896 8.17824C39.4387 7.89395 39.2303 7.67479 38.9645 7.52078C38.6985 7.36682 38.4009 7.28983 38.0714 7.28983C37.742 7.28983 37.4444 7.36682 37.1784 7.52078C36.9126 7.67479 36.7022 7.89395 36.5474 8.17824C36.3926 8.46249 36.3152 8.79616 36.3152 9.17916C36.3152 9.55822 36.3926 9.88992 36.5474 10.1742C36.7022 10.4585 36.9126 10.6776 37.1784 10.8316C37.4444 10.9856 37.742 11.0626 38.0714 11.0626Z" fill="black"/>
        <path d="M42.37 7.97437C42.755 7.97437 43.0685 8.09281 43.3106 8.32975C43.5527 8.56271 43.6737 8.91018 43.6737 9.37213V11.2556H43.4118V9.38991C43.4118 9.00691 43.3145 8.71471 43.1201 8.51334C42.9256 8.30803 42.6617 8.20536 42.3283 8.20536C41.979 8.20536 41.6992 8.3159 41.4889 8.53702C41.2825 8.75814 41.1793 9.08586 41.1793 9.52019V11.2556H40.9114V8.03951H41.1793V8.72065C41.2706 8.47978 41.4214 8.29615 41.6318 8.16979C41.8461 8.03951 42.0922 7.97437 42.37 7.97437Z" fill="black"/>
        <path d="M44.8885 6.87134V11.2541H44.6206V6.87134H44.8885Z" fill="black"/>
        <path d="M46.0075 7.32229C45.944 7.32229 45.8904 7.30259 45.8467 7.26309C45.8031 7.21967 45.7812 7.16239 45.7812 7.09135C45.7812 7.02419 45.8031 6.96892 45.8467 6.92549C45.8904 6.88207 45.944 6.86035 46.0075 6.86035C46.071 6.86035 46.1246 6.88207 46.1682 6.92549C46.2119 6.96892 46.2337 7.02419 46.2337 7.09135C46.2337 7.16239 46.2119 7.21967 46.1682 7.26309C46.1246 7.30259 46.071 7.32229 46.0075 7.32229ZM46.1384 8.03896V11.255H45.8706V8.03896H46.1384Z" fill="black"/>
        <path d="M48.579 7.97437C48.9639 7.97437 49.2773 8.09281 49.5194 8.32975C49.7619 8.56271 49.8829 8.91018 49.8829 9.37213V11.2556H49.6209V9.38991C49.6209 9.00691 49.5235 8.71471 49.3292 8.51334C49.1345 8.30803 48.8707 8.20536 48.5373 8.20536C48.1881 8.20536 47.908 8.3159 47.698 8.53702C47.4917 8.75814 47.3882 9.08586 47.3882 9.52019V11.2556H47.1202V8.03951H47.3882V8.72065C47.4796 8.47978 47.6303 8.29615 47.8408 8.16979C48.055 8.03951 48.3012 7.97437 48.579 7.97437Z" fill="black"/>
        <path d="M53.7409 9.42966C53.7409 9.57179 53.7367 9.67839 53.7289 9.74948H50.937C50.9449 10.0377 51.0084 10.2805 51.1276 10.478C51.2463 10.6754 51.403 10.8235 51.5978 10.9222C51.792 11.0209 52.0044 11.0703 52.2349 11.0703C52.552 11.0703 52.8182 10.9933 53.0324 10.8393C53.2466 10.6813 53.3816 10.4681 53.4372 10.1996H53.7173C53.6537 10.5274 53.491 10.7939 53.229 10.9992C52.967 11.2005 52.6355 11.3013 52.2349 11.3013C51.933 11.3013 51.6631 11.2341 51.4253 11.0999C51.1869 10.9656 51.0005 10.7741 50.8656 10.5253C50.7307 10.2727 50.663 9.97851 50.663 9.64287C50.663 9.30724 50.7283 9.01508 50.8596 8.7663C50.9945 8.51757 51.1809 8.32804 51.4192 8.19771C51.6571 8.06349 51.9293 7.99634 52.2349 7.99634C52.5441 7.99634 52.8122 8.06349 53.0384 8.19771C53.2684 8.32804 53.4432 8.50372 53.5624 8.72484C53.6816 8.94203 53.7409 9.17695 53.7409 9.42966ZM53.4729 9.53033C53.485 9.24603 53.4335 9.00521 53.318 8.80777C53.2072 8.61033 53.0542 8.46422 52.8599 8.3695C52.6652 8.27076 52.4551 8.22143 52.2288 8.22143C52.0026 8.22143 51.792 8.27076 51.5978 8.3695C51.4072 8.46422 51.2505 8.61033 51.1276 8.80777C51.0084 9.00521 50.9449 9.24603 50.937 9.53033H53.4729Z" fill="black"/>
    </g>
    <defs>
        <linearGradient id="paint0_linear_2441_39825" x1="19.4253" y1="-6.68697" x2="37.5791" y2="23.7254" gradientUnits="userSpaceOnUse">
            <stop stop-color="#18FFD9"/>
            <stop offset="0.494" stop-color="#1792FF"/>
            <stop offset="1" stop-color="#7C2DFB"/>
        </linearGradient>
        <linearGradient id="paint1_linear_2441_39825" x1="20.5922" y1="-7.38053" x2="38.746" y2="23.0319" gradientUnits="userSpaceOnUse">
            <stop stop-color="#18FFD9"/>
            <stop offset="0.494" stop-color="#1792FF"/>
            <stop offset="1" stop-color="#7C2DFB"/>
        </linearGradient>
        <linearGradient id="paint2_linear_2441_39825" x1="20.2826" y1="-7.19897" x2="38.4365" y2="23.2135" gradientUnits="userSpaceOnUse">
            <stop stop-color="#18FFD9"/>
            <stop offset="0.494" stop-color="#1792FF"/>
            <stop offset="1" stop-color="#7C2DFB"/>
        </linearGradient>
        <linearGradient id="paint3_linear_2441_39825" x1="18.9388" y1="-6.39632" x2="37.0926" y2="24.0161" gradientUnits="userSpaceOnUse">
            <stop stop-color="#18FFD9"/>
            <stop offset="0.494" stop-color="#1792FF"/>
            <stop offset="1" stop-color="#7C2DFB"/>
        </linearGradient>
        <linearGradient id="paint4_linear_2441_39825" x1="18.3621" y1="-6.05189" x2="36.5156" y2="24.361" gradientUnits="userSpaceOnUse">
            <stop stop-color="#18FFD9"/>
            <stop offset="0.494" stop-color="#1792FF"/>
            <stop offset="1" stop-color="#7C2DFB"/>
        </linearGradient>
        <linearGradient id="paint5_linear_2441_39825" x1="16.0955" y1="-4.69868" x2="34.2493" y2="25.7137" gradientUnits="userSpaceOnUse">
            <stop stop-color="#18FFD9"/>
            <stop offset="0.494" stop-color="#1792FF"/>
            <stop offset="1" stop-color="#7C2DFB"/>
        </linearGradient>
        <linearGradient id="paint6_linear_2441_39825" x1="13.319" y1="-3.04253" x2="31.4728" y2="27.3699" gradientUnits="userSpaceOnUse">
            <stop stop-color="#18FFD9"/>
            <stop offset="0.494" stop-color="#1792FF"/>
            <stop offset="1" stop-color="#7C2DFB"/>
        </linearGradient>
        <linearGradient id="paint7_linear_2441_39825" x1="15.1607" y1="-4.14089" x2="33.3145" y2="26.2714" gradientUnits="userSpaceOnUse">
            <stop stop-color="#18FFD9"/>
            <stop offset="0.494" stop-color="#1792FF"/>
            <stop offset="1" stop-color="#7C2DFB"/>
        </linearGradient>
        <linearGradient id="paint8_linear_2441_39825" x1="11.9459" y1="-2.22265" x2="30.0997" y2="28.1896" gradientUnits="userSpaceOnUse">
            <stop stop-color="#18FFD9"/>
            <stop offset="0.494" stop-color="#1792FF"/>
            <stop offset="1" stop-color="#7C2DFB"/>
        </linearGradient>
        <linearGradient id="paint9_linear_2441_39825" x1="-3.19163" y1="6.81378" x2="14.9628" y2="37.2268" gradientUnits="userSpaceOnUse">
            <stop stop-color="#18FFD9"/>
            <stop offset="0.494" stop-color="#1792FF"/>
            <stop offset="1" stop-color="#7C2DFB"/>
        </linearGradient>
        <linearGradient id="paint10_linear_2441_39825" x1="-1.37116" y1="5.72885" x2="16.7827" y2="36.1412" gradientUnits="userSpaceOnUse">
            <stop stop-color="#18FFD9"/>
            <stop offset="0.494" stop-color="#1792FF"/>
            <stop offset="1" stop-color="#7C2DFB"/>
        </linearGradient>
        <linearGradient id="paint11_linear_2441_39825" x1="1.20519" y1="4.19098" x2="19.3591" y2="34.6035" gradientUnits="userSpaceOnUse">
            <stop stop-color="#18FFD9"/>
            <stop offset="0.494" stop-color="#1792FF"/>
            <stop offset="1" stop-color="#7C2DFB"/>
        </linearGradient>
        <linearGradient id="paint12_linear_2441_39825" x1="3.02654" y1="3.10246" x2="21.1809" y2="33.516" gradientUnits="userSpaceOnUse">
            <stop stop-color="#18FFD9"/>
            <stop offset="0.494" stop-color="#1792FF"/>
            <stop offset="1" stop-color="#7C2DFB"/>
        </linearGradient>
        <linearGradient id="paint13_linear_2441_39825" x1="10.4732" y1="-1.34063" x2="28.627" y2="29.0717" gradientUnits="userSpaceOnUse">
            <stop stop-color="#18FFD9"/>
            <stop offset="0.494" stop-color="#1792FF"/>
            <stop offset="1" stop-color="#7C2DFB"/>
        </linearGradient>
        <linearGradient id="paint14_linear_2441_39825" x1="7.11328" y1="0.662845" x2="25.2671" y2="31.0752" gradientUnits="userSpaceOnUse">
            <stop stop-color="#18FFD9"/>
            <stop offset="0.494" stop-color="#1792FF"/>
            <stop offset="1" stop-color="#7C2DFB"/>
        </linearGradient>
        <linearGradient id="paint15_linear_2441_39825" x1="4.78509" y1="2.05139" x2="22.9392" y2="32.4641" gradientUnits="userSpaceOnUse">
            <stop stop-color="#18FFD9"/>
            <stop offset="0.494" stop-color="#1792FF"/>
            <stop offset="1" stop-color="#7C2DFB"/>
        </linearGradient>
        <linearGradient id="paint16_linear_2441_39825" x1="2.21164" y1="3.59004" x2="20.3655" y2="34.0024" gradientUnits="userSpaceOnUse">
            <stop stop-color="#18FFD9"/>
            <stop offset="0.494" stop-color="#1792FF"/>
            <stop offset="1" stop-color="#7C2DFB"/>
        </linearGradient>
        <linearGradient id="paint17_linear_2441_39825" x1="5.68967" y1="1.5129" x2="23.8435" y2="31.9254" gradientUnits="userSpaceOnUse">
            <stop stop-color="#18FFD9"/>
            <stop offset="0.494" stop-color="#1792FF"/>
            <stop offset="1" stop-color="#7C2DFB"/>
        </linearGradient>
        <linearGradient id="paint18_linear_2441_39825" x1="2.27934" y1="3.54824" x2="20.4331" y2="33.9606" gradientUnits="userSpaceOnUse">
            <stop stop-color="#18FFD9"/>
            <stop offset="0.494" stop-color="#1792FF"/>
            <stop offset="1" stop-color="#7C2DFB"/>
        </linearGradient>
        <linearGradient id="paint19_linear_2441_39825" x1="17.4133" y1="-5.48554" x2="35.567" y2="24.9267" gradientUnits="userSpaceOnUse">
            <stop stop-color="#18FFD9"/>
            <stop offset="0.494" stop-color="#1792FF"/>
            <stop offset="1" stop-color="#7C2DFB"/>
        </linearGradient>
        <linearGradient id="paint20_linear_2441_39825" x1="14.4675" y1="-3.72624" x2="32.6213" y2="26.6862" gradientUnits="userSpaceOnUse">
            <stop stop-color="#18FFD9"/>
            <stop offset="0.494" stop-color="#1792FF"/>
            <stop offset="1" stop-color="#7C2DFB"/>
        </linearGradient>
        <linearGradient id="paint21_linear_2441_39825" x1="16.4817" y1="-4.92993" x2="34.6356" y2="25.4826" gradientUnits="userSpaceOnUse">
            <stop stop-color="#18FFD9"/>
            <stop offset="0.494" stop-color="#1792FF"/>
            <stop offset="1" stop-color="#7C2DFB"/>
        </linearGradient>
        <linearGradient id="paint22_linear_2441_39825" x1="16.5802" y1="-4.98614" x2="34.734" y2="25.4263" gradientUnits="userSpaceOnUse">
            <stop stop-color="#18FFD9"/>
            <stop offset="0.494" stop-color="#1792FF"/>
            <stop offset="1" stop-color="#7C2DFB"/>
        </linearGradient>
        <linearGradient id="paint23_linear_2441_39825" x1="12.5179" y1="-2.56114" x2="30.6718" y2="27.8515" gradientUnits="userSpaceOnUse">
            <stop stop-color="#18FFD9"/>
            <stop offset="0.494" stop-color="#1792FF"/>
            <stop offset="1" stop-color="#7C2DFB"/>
        </linearGradient>
        <linearGradient id="paint24_linear_2441_39825" x1="12.0991" y1="-2.31204" x2="30.2529" y2="28.1004" gradientUnits="userSpaceOnUse">
            <stop stop-color="#18FFD9"/>
            <stop offset="0.494" stop-color="#1792FF"/>
            <stop offset="1" stop-color="#7C2DFB"/>
        </linearGradient>
        <linearGradient id="paint25_linear_2441_39825" x1="11.3783" y1="-1.88371" x2="29.5322" y2="28.5288" gradientUnits="userSpaceOnUse">
            <stop stop-color="#18FFD9"/>
            <stop offset="0.494" stop-color="#1792FF"/>
            <stop offset="1" stop-color="#7C2DFB"/>
        </linearGradient>
        <linearGradient id="paint26_linear_2441_39825" x1="8.58367" y1="-0.215581" x2="26.7376" y2="30.197" gradientUnits="userSpaceOnUse">
            <stop stop-color="#18FFD9"/>
            <stop offset="0.494" stop-color="#1792FF"/>
            <stop offset="1" stop-color="#7C2DFB"/>
        </linearGradient>
        <linearGradient id="paint27_linear_2441_39825" x1="6.7266" y1="0.89356" x2="24.8803" y2="31.3058" gradientUnits="userSpaceOnUse">
            <stop stop-color="#18FFD9"/>
            <stop offset="0.494" stop-color="#1792FF"/>
            <stop offset="1" stop-color="#7C2DFB"/>
        </linearGradient>
        <linearGradient id="paint28_linear_2441_39825" x1="19.26" y1="-6.58917" x2="37.4137" y2="23.823" gradientUnits="userSpaceOnUse">
            <stop stop-color="#18FFD9"/>
            <stop offset="0.494" stop-color="#1792FF"/>
            <stop offset="1" stop-color="#7C2DFB"/>
        </linearGradient>
        <linearGradient id="paint29_linear_2441_39825" x1="18.9262" y1="-6.38758" x2="37.08" y2="24.0248" gradientUnits="userSpaceOnUse">
            <stop stop-color="#18FFD9"/>
            <stop offset="0.494" stop-color="#1792FF"/>
            <stop offset="1" stop-color="#7C2DFB"/>
        </linearGradient>
        <linearGradient id="paint30_linear_2441_39825" x1="14.1688" y1="-3.54581" x2="32.3225" y2="26.8664" gradientUnits="userSpaceOnUse">
            <stop stop-color="#18FFD9"/>
            <stop offset="0.494" stop-color="#1792FF"/>
            <stop offset="1" stop-color="#7C2DFB"/>
        </linearGradient>
        <linearGradient id="paint31_linear_2441_39825" x1="13.6953" y1="-3.26349" x2="31.8491" y2="27.1489" gradientUnits="userSpaceOnUse">
            <stop stop-color="#18FFD9"/>
            <stop offset="0.494" stop-color="#1792FF"/>
            <stop offset="1" stop-color="#7C2DFB"/>
        </linearGradient>
        <linearGradient id="paint32_linear_2441_39825" x1="16.331" y1="-4.83909" x2="34.4847" y2="25.5733" gradientUnits="userSpaceOnUse">
            <stop stop-color="#18FFD9"/>
            <stop offset="0.494" stop-color="#1792FF"/>
            <stop offset="1" stop-color="#7C2DFB"/>
        </linearGradient>
        <linearGradient id="paint33_linear_2441_39825" x1="15.5131" y1="-4.35111" x2="33.6669" y2="26.0613" gradientUnits="userSpaceOnUse">
            <stop stop-color="#18FFD9"/>
            <stop offset="0.494" stop-color="#1792FF"/>
            <stop offset="1" stop-color="#7C2DFB"/>
        </linearGradient>
        <linearGradient id="paint34_linear_2441_39825" x1="8.48802" y1="-0.155537" x2="26.6419" y2="30.2569" gradientUnits="userSpaceOnUse">
            <stop stop-color="#18FFD9"/>
            <stop offset="0.494" stop-color="#1792FF"/>
            <stop offset="1" stop-color="#7C2DFB"/>
        </linearGradient>
        <linearGradient id="paint35_linear_2441_39825" x1="7.74277" y1="0.288192" x2="25.8966" y2="30.7005" gradientUnits="userSpaceOnUse">
            <stop stop-color="#18FFD9"/>
            <stop offset="0.494" stop-color="#1792FF"/>
            <stop offset="1" stop-color="#7C2DFB"/>
        </linearGradient>
        <linearGradient id="paint36_linear_2441_39825" x1="7.51247" y1="0.425574" x2="25.6662" y2="30.8378" gradientUnits="userSpaceOnUse">
            <stop stop-color="#18FFD9"/>
            <stop offset="0.494" stop-color="#1792FF"/>
            <stop offset="1" stop-color="#7C2DFB"/>
        </linearGradient>
        <linearGradient id="paint37_linear_2441_39825" x1="6.76568" y1="0.869397" x2="24.9194" y2="31.2817" gradientUnits="userSpaceOnUse">
            <stop stop-color="#18FFD9"/>
            <stop offset="0.494" stop-color="#1792FF"/>
            <stop offset="1" stop-color="#7C2DFB"/>
        </linearGradient>
        <linearGradient id="paint38_linear_2441_39825" x1="2.87705" y1="3.19201" x2="21.031" y2="33.6047" gradientUnits="userSpaceOnUse">
            <stop stop-color="#18FFD9"/>
            <stop offset="0.494" stop-color="#1792FF"/>
            <stop offset="1" stop-color="#7C2DFB"/>
        </linearGradient>
        <linearGradient id="paint39_linear_2441_39825" x1="0.717092" y1="4.48243" x2="18.8709" y2="34.8948" gradientUnits="userSpaceOnUse">
            <stop stop-color="#18FFD9"/>
            <stop offset="0.494" stop-color="#1792FF"/>
            <stop offset="1" stop-color="#7C2DFB"/>
        </linearGradient>
        <linearGradient id="paint40_linear_2441_39825" x1="0.965009" y1="4.33557" x2="19.1188" y2="34.7479" gradientUnits="userSpaceOnUse">
            <stop stop-color="#18FFD9"/>
            <stop offset="0.494" stop-color="#1792FF"/>
            <stop offset="1" stop-color="#7C2DFB"/>
        </linearGradient>
        <linearGradient id="paint41_linear_2441_39825" x1="0.154394" y1="4.81976" x2="18.3082" y2="35.2321" gradientUnits="userSpaceOnUse">
            <stop stop-color="#18FFD9"/>
            <stop offset="0.494" stop-color="#1792FF"/>
            <stop offset="1" stop-color="#7C2DFB"/>
        </linearGradient>
        <linearGradient id="paint42_linear_2441_39825" x1="-3.3111" y1="6.88528" x2="14.8427" y2="37.2977" gradientUnits="userSpaceOnUse">
            <stop stop-color="#18FFD9"/>
            <stop offset="0.494" stop-color="#1792FF"/>
            <stop offset="1" stop-color="#7C2DFB"/>
        </linearGradient>
        <linearGradient id="paint43_linear_2441_39825" x1="17.2642" y1="-5.39393" x2="35.4181" y2="25.0185" gradientUnits="userSpaceOnUse">
            <stop stop-color="#18FFD9"/>
            <stop offset="0.494" stop-color="#1792FF"/>
            <stop offset="1" stop-color="#7C2DFB"/>
        </linearGradient>
        <linearGradient id="paint44_linear_2441_39825" x1="15.5499" y1="-4.37075" x2="33.7037" y2="26.0416" gradientUnits="userSpaceOnUse">
            <stop stop-color="#18FFD9"/>
            <stop offset="0.494" stop-color="#1792FF"/>
            <stop offset="1" stop-color="#7C2DFB"/>
        </linearGradient>
        <linearGradient id="paint45_linear_2441_39825" x1="10.558" y1="-1.39376" x2="28.7118" y2="29.0186" gradientUnits="userSpaceOnUse">
            <stop stop-color="#18FFD9"/>
            <stop offset="0.494" stop-color="#1792FF"/>
            <stop offset="1" stop-color="#7C2DFB"/>
        </linearGradient>
        <linearGradient id="paint46_linear_2441_39825" x1="9.54152" y1="-0.78706" x2="27.6953" y2="29.6253" gradientUnits="userSpaceOnUse">
            <stop stop-color="#18FFD9"/>
            <stop offset="0.494" stop-color="#1792FF"/>
            <stop offset="1" stop-color="#7C2DFB"/>
        </linearGradient>
        <linearGradient id="paint47_linear_2441_39825" x1="11.2983" y1="-1.83412" x2="29.452" y2="28.578" gradientUnits="userSpaceOnUse">
            <stop stop-color="#18FFD9"/>
            <stop offset="0.494" stop-color="#1792FF"/>
            <stop offset="1" stop-color="#7C2DFB"/>
        </linearGradient>
        <linearGradient id="paint48_linear_2441_39825" x1="9.79812" y1="-0.937223" x2="27.9519" y2="29.4751" gradientUnits="userSpaceOnUse">
            <stop stop-color="#18FFD9"/>
            <stop offset="0.494" stop-color="#1792FF"/>
            <stop offset="1" stop-color="#7C2DFB"/>
        </linearGradient>
        <linearGradient id="paint49_linear_2441_39825" x1="3.60144" y1="2.76082" x2="21.7552" y2="33.1732" gradientUnits="userSpaceOnUse">
            <stop stop-color="#18FFD9"/>
            <stop offset="0.494" stop-color="#1792FF"/>
            <stop offset="1" stop-color="#7C2DFB"/>
        </linearGradient>
        <linearGradient id="paint50_linear_2441_39825" x1="2.91333" y1="3.17022" x2="21.0671" y2="33.5825" gradientUnits="userSpaceOnUse">
            <stop stop-color="#18FFD9"/>
            <stop offset="0.494" stop-color="#0060FE"/>
            <stop offset="1" stop-color="#7C2DFB"/>
        </linearGradient>
        <linearGradient id="paint51_linear_2441_39825" x1="1.74857" y1="3.86565" x2="19.9024" y2="34.2781" gradientUnits="userSpaceOnUse">
            <stop stop-color="#18FFD9"/>
            <stop offset="0.494" stop-color="#1792FF"/>
            <stop offset="1" stop-color="#7C2DFB"/>
        </linearGradient>
        <linearGradient id="paint52_linear_2441_39825" x1="1.32989" y1="4.11621" x2="19.4837" y2="34.5286" gradientUnits="userSpaceOnUse">
            <stop stop-color="#18FFD9"/>
            <stop offset="0.494" stop-color="#1792FF"/>
            <stop offset="1" stop-color="#7C2DFB"/>
        </linearGradient>
        <linearGradient id="paint53_linear_2441_39825" x1="-4.27404" y1="7.46185" x2="13.8797" y2="37.8741" gradientUnits="userSpaceOnUse">
            <stop stop-color="#18FFD9"/>
            <stop offset="0.494" stop-color="#1792FF"/>
            <stop offset="1" stop-color="#7C2DFB"/>
        </linearGradient>
        <linearGradient id="paint54_linear_2441_39825" x1="-4.67562" y1="7.70176" x2="13.4781" y2="38.1141" gradientUnits="userSpaceOnUse">
            <stop stop-color="#18FFD9"/>
            <stop offset="0.494" stop-color="#1792FF"/>
            <stop offset="1" stop-color="#7C2DFB"/>
        </linearGradient>
        <linearGradient id="paint55_linear_2441_39825" x1="-3.80594" y1="7.18112" x2="14.3478" y2="37.5934" gradientUnits="userSpaceOnUse">
            <stop stop-color="#18FFD9"/>
            <stop offset="0.494" stop-color="#1792FF"/>
            <stop offset="1" stop-color="#7C2DFB"/>
        </linearGradient>
        <linearGradient id="paint56_linear_2441_39825" x1="-3.6718" y1="7.10037" x2="14.482" y2="37.5127" gradientUnits="userSpaceOnUse">
            <stop stop-color="#18FFD9"/>
            <stop offset="0.494" stop-color="#1792FF"/>
            <stop offset="1" stop-color="#7C2DFB"/>
        </linearGradient>
        <linearGradient id="paint57_linear_2441_39825" x1="-6.77703" y1="8.95501" x2="11.3767" y2="39.3673" gradientUnits="userSpaceOnUse">
            <stop stop-color="#18FFD9"/>
            <stop offset="0.494" stop-color="#1792FF"/>
            <stop offset="1" stop-color="#7C2DFB"/>
        </linearGradient>
        <linearGradient id="paint58_linear_2441_39825" x1="-6.56431" y1="8.82699" x2="11.5894" y2="39.2393" gradientUnits="userSpaceOnUse">
            <stop stop-color="#18FFD9"/>
            <stop offset="0.494" stop-color="#1792FF"/>
            <stop offset="1" stop-color="#7C2DFB"/>
        </linearGradient>
        <linearGradient id="paint59_linear_2441_39825" x1="9.73406" y1="-0.900749" x2="27.8878" y2="29.5116" gradientUnits="userSpaceOnUse">
            <stop stop-color="#18FFD9"/>
            <stop offset="0.494" stop-color="#1792FF"/>
            <stop offset="1" stop-color="#7C2DFB"/>
        </linearGradient>
        <linearGradient id="paint60_linear_2441_39825" x1="6.87712" y1="0.802719" x2="25.031" y2="31.2151" gradientUnits="userSpaceOnUse">
            <stop stop-color="#18FFD9"/>
            <stop offset="0.494" stop-color="#1792FF"/>
            <stop offset="1" stop-color="#7C2DFB"/>
        </linearGradient>
        <linearGradient id="paint61_linear_2441_39825" x1="4.90585" y1="1.98299" x2="23.0596" y2="32.3952" gradientUnits="userSpaceOnUse">
            <stop stop-color="#18FFD9"/>
            <stop offset="0.494" stop-color="#1792FF"/>
            <stop offset="1" stop-color="#7C2DFB"/>
        </linearGradient>
        <linearGradient id="paint62_linear_2441_39825" x1="3.97134" y1="2.54019" x2="22.1251" y2="32.9526" gradientUnits="userSpaceOnUse">
            <stop stop-color="#18FFD9"/>
            <stop offset="0.494" stop-color="#1792FF"/>
            <stop offset="1" stop-color="#7C2DFB"/>
        </linearGradient>
        <linearGradient id="paint63_linear_2441_39825" x1="3.94561" y1="2.55521" x2="22.0994" y2="32.9675" gradientUnits="userSpaceOnUse">
            <stop stop-color="#18FFD9"/>
            <stop offset="0.494" stop-color="#1792FF"/>
            <stop offset="1" stop-color="#7C2DFB"/>
        </linearGradient>
        <linearGradient id="paint64_linear_2441_39825" x1="1.99283" y1="3.72015" x2="20.1466" y2="34.1324" gradientUnits="userSpaceOnUse">
            <stop stop-color="#18FFD9"/>
            <stop offset="0.494" stop-color="#1792FF"/>
            <stop offset="1" stop-color="#7C2DFB"/>
        </linearGradient>
        <linearGradient id="paint65_linear_2441_39825" x1="0.412144" y1="4.66384" x2="18.5659" y2="35.0762" gradientUnits="userSpaceOnUse">
            <stop stop-color="#18FFD9"/>
            <stop offset="0.494" stop-color="#1792FF"/>
            <stop offset="1" stop-color="#7C2DFB"/>
        </linearGradient>
        <linearGradient id="paint66_linear_2441_39825" x1="0.166312" y1="4.81137" x2="18.3201" y2="35.2237" gradientUnits="userSpaceOnUse">
            <stop stop-color="#18FFD9"/>
            <stop offset="0.494" stop-color="#1792FF"/>
            <stop offset="1" stop-color="#7C2DFB"/>
        </linearGradient>
        <linearGradient id="paint67_linear_2441_39825" x1="-1.49081" y1="5.80181" x2="16.6629" y2="36.2141" gradientUnits="userSpaceOnUse">
            <stop stop-color="#18FFD9"/>
            <stop offset="0.494" stop-color="#1792FF"/>
            <stop offset="1" stop-color="#7C2DFB"/>
        </linearGradient>
        <linearGradient id="paint68_linear_2441_39825" x1="-1.41079" y1="5.75267" x2="16.7431" y2="36.1651" gradientUnits="userSpaceOnUse">
            <stop stop-color="#18FFD9"/>
            <stop offset="0.494" stop-color="#1792FF"/>
            <stop offset="1" stop-color="#7C2DFB"/>
        </linearGradient>
        <linearGradient id="paint69_linear_2441_39825" x1="-5.86727" y1="8.41386" x2="12.2865" y2="38.8262" gradientUnits="userSpaceOnUse">
            <stop stop-color="#18FFD9"/>
            <stop offset="0.494" stop-color="#1792FF"/>
            <stop offset="1" stop-color="#7C2DFB"/>
        </linearGradient>
        <linearGradient id="paint70_linear_2441_39825" x1="-4.82487" y1="7.78927" x2="13.3289" y2="38.2016" gradientUnits="userSpaceOnUse">
            <stop stop-color="#18FFD9"/>
            <stop offset="0.494" stop-color="#1792FF"/>
            <stop offset="1" stop-color="#7C2DFB"/>
        </linearGradient>
        <linearGradient id="paint71_linear_2441_39825" x1="-3.03525" y1="6.72238" x2="15.1186" y2="37.1349" gradientUnits="userSpaceOnUse">
            <stop stop-color="#18FFD9"/>
            <stop offset="0.494" stop-color="#1792FF"/>
            <stop offset="1" stop-color="#7C2DFB"/>
        </linearGradient>
        <linearGradient id="paint72_linear_2441_39825" x1="-1.64743" y1="5.89377" x2="16.5063" y2="36.3061" gradientUnits="userSpaceOnUse">
            <stop stop-color="#18FFD9"/>
            <stop offset="0.494" stop-color="#1792FF"/>
            <stop offset="1" stop-color="#7C2DFB"/>
        </linearGradient>
        <linearGradient id="paint73_linear_2441_39825" x1="-4.33488" y1="7.49856" x2="13.8189" y2="37.911" gradientUnits="userSpaceOnUse">
            <stop stop-color="#18FFD9"/>
            <stop offset="0.494" stop-color="#1792FF"/>
            <stop offset="1" stop-color="#7C2DFB"/>
        </linearGradient>
        <linearGradient id="paint74_linear_2441_39825" x1="-1.7456" y1="5.95031" x2="16.4081" y2="36.3627" gradientUnits="userSpaceOnUse">
            <stop stop-color="#18FFD9"/>
            <stop offset="0.494" stop-color="#1792FF"/>
            <stop offset="1" stop-color="#7C2DFB"/>
        </linearGradient>
        <clipPath id="clip0_2441_39825">
            <rect width="83" height="32" fill="white"/>
        </clipPath>
    </defs>
</svg>
