<svg width="174" height="32" viewBox="0 0 174 32" fill="none" xmlns="http://www.w3.org/2000/svg">
    <path d="M49.7358 11.2003C49.6104 11.2003 49.5477 11.1363 49.5477 11.0083V3.86586H47.8296C47.7042 3.86586 47.6415 3.80186 47.6415 3.67386V2.43226C47.6415 2.30426 47.7042 2.24026 47.8296 2.24026H53.0465C53.1719 2.24026 53.2346 2.30426 53.2346 2.43226V3.67386C53.2346 3.80186 53.1719 3.86586 53.0465 3.86586H51.341V11.0083C51.341 11.1363 51.2783 11.2003 51.1529 11.2003H49.7358ZM56.0457 3.53306C55.8701 3.7208 55.6444 3.81466 55.3685 3.81466C55.0926 3.81466 54.8627 3.7208 54.6787 3.53306C54.4948 3.3368 54.4028 3.10213 54.4028 2.82906C54.4028 2.556 54.4948 2.3256 54.6787 2.13786C54.8627 1.95013 55.0926 1.85626 55.3685 1.85626C55.6444 1.85626 55.8701 1.95013 56.0457 2.13786C56.2296 2.3256 56.3215 2.556 56.3215 2.82906C56.3215 3.11066 56.2296 3.34533 56.0457 3.53306ZM54.6787 11.2003C54.5533 11.2003 54.4906 11.1363 54.4906 11.0083V5.12026C54.4906 4.99226 54.5533 4.92826 54.6787 4.92826H56.0457C56.1711 4.92826 56.2338 4.99226 56.2338 5.12026V11.0083C56.2338 11.1363 56.1711 11.2003 56.0457 11.2003H54.6787ZM61.385 11.3539C60.5072 11.3539 59.8383 11.0083 59.3785 10.3171L59.3535 11.0083C59.3535 11.1363 59.2908 11.2003 59.1653 11.2003H57.9364C57.8026 11.2003 57.7357 11.1363 57.7357 11.0083V2.24026C57.7357 2.11226 57.7984 2.04826 57.9238 2.04826H59.2908C59.4162 2.04826 59.4789 2.11226 59.4789 2.24026V5.65786C59.9136 5.06906 60.549 4.77466 61.385 4.77466C62.2378 4.77466 62.9358 5.0904 63.4793 5.72186C64.0227 6.3448 64.2944 7.1256 64.2944 8.06426C64.2944 9.01146 64.0227 9.7965 63.4793 10.4195C62.9358 11.0424 62.2378 11.3539 61.385 11.3539ZM61.0213 9.74106C61.4811 9.74106 61.8573 9.58746 62.15 9.28026C62.451 8.97306 62.6015 8.5677 62.6015 8.06426C62.6015 7.56933 62.451 7.16826 62.15 6.86106C61.8573 6.54533 61.4811 6.38746 61.0213 6.38746C60.5531 6.38746 60.1727 6.54106 59.8802 6.84826C59.5959 7.15546 59.4538 7.5608 59.4538 8.06426C59.4538 8.5677 59.5959 8.97306 59.8802 9.28026C60.1727 9.58746 60.5531 9.74106 61.0213 9.74106ZM69.1249 11.3539C68.2471 11.3539 67.5782 11.0083 67.1184 10.3171L67.0933 11.0083C67.0933 11.1363 67.0306 11.2003 66.9052 11.2003H65.6762C65.5424 11.2003 65.4756 11.1363 65.4756 11.0083V2.24026C65.4756 2.11226 65.5383 2.04826 65.6637 2.04826H67.0306C67.156 2.04826 67.2187 2.11226 67.2187 2.24026V5.65786C67.6534 5.06906 68.2888 4.77466 69.1249 4.77466C69.9776 4.77466 70.6757 5.0904 71.2192 5.72186C71.7626 6.3448 72.0343 7.1256 72.0343 8.06426C72.0343 9.01146 71.7626 9.7965 71.2192 10.4195C70.6757 11.0424 69.9776 11.3539 69.1249 11.3539ZM68.7612 9.74106C69.221 9.74106 69.5972 9.58746 69.8899 9.28026C70.1908 8.97306 70.3413 8.5677 70.3413 8.06426C70.3413 7.56933 70.1908 7.16826 69.8899 6.86106C69.5972 6.54533 69.221 6.38746 68.7612 6.38746C68.293 6.38746 67.9126 6.54106 67.62 6.84826C67.3357 7.15546 67.1936 7.5608 67.1936 8.06426C67.1936 8.5677 67.3357 8.97306 67.62 9.28026C67.9126 9.58746 68.293 9.74106 68.7612 9.74106ZM74.783 3.53306C74.6075 3.7208 74.3817 3.81466 74.1058 3.81466C73.8299 3.81466 73.6 3.7208 73.4161 3.53306C73.2322 3.3368 73.1402 3.10213 73.1402 2.82906C73.1402 2.556 73.2322 2.3256 73.4161 2.13786C73.6 1.95013 73.8299 1.85626 74.1058 1.85626C74.3817 1.85626 74.6075 1.95013 74.783 2.13786C74.9669 2.3256 75.0589 2.556 75.0589 2.82906C75.0589 3.11066 74.9669 3.34533 74.783 3.53306ZM73.4161 11.2003C73.2907 11.2003 73.228 11.1363 73.228 11.0083V5.12026C73.228 4.99226 73.2907 4.92826 73.4161 4.92826H74.783C74.9084 4.92826 74.9711 4.99226 74.9711 5.12026V11.0083C74.9711 11.1363 74.9084 11.2003 74.783 11.2003H73.4161ZM77.7396 13.6323C77.5724 13.6323 77.5223 13.5597 77.5891 13.4147L78.4795 11.2131L76.1093 5.14586C76.0592 5.0008 76.1093 4.92826 76.2598 4.92826H77.6393C77.7563 4.92826 77.8316 4.97946 77.865 5.08186L79.3323 9.15226L80.787 5.08186C80.8207 4.97946 80.8959 4.92826 81.0127 4.92826H82.3922C82.5426 4.92826 82.5928 5.0008 82.5426 5.14586L79.2946 13.4787C79.2609 13.5811 79.1857 13.6323 79.0689 13.6323H77.7396ZM83.7371 8.37146C83.6117 8.37146 83.549 8.30746 83.549 8.17946V7.12986C83.549 7.00186 83.6117 6.93786 83.7371 6.93786H87.4993C87.6247 6.93786 87.6874 7.00186 87.6874 7.12986V8.17946C87.6874 8.30746 87.6247 8.37146 87.4993 8.37146H83.7371ZM90.618 3.53306C90.4424 3.7208 90.2167 3.81466 89.9408 3.81466C89.6649 3.81466 89.4352 3.7208 89.251 3.53306C89.0669 3.3368 88.9752 3.10213 88.9752 2.82906C88.9752 2.556 89.0669 2.3256 89.251 2.13786C89.4352 1.95013 89.6649 1.85626 89.9408 1.85626C90.2167 1.85626 90.4424 1.95013 90.618 2.13786C90.8022 2.3256 90.8939 2.556 90.8939 2.82906C90.8939 3.11066 90.8022 3.34533 90.618 3.53306ZM89.251 11.2003C89.1256 11.2003 89.0629 11.1363 89.0629 11.0083V5.12026C89.0629 4.99226 89.1256 4.92826 89.251 4.92826H90.618C90.7434 4.92826 90.8061 4.99226 90.8061 5.12026V11.0083C90.8061 11.1363 90.7434 11.2003 90.618 11.2003H89.251ZM93.9757 3.53306C93.8001 3.7208 93.5744 3.81466 93.2985 3.81466C93.0226 3.81466 92.793 3.7208 92.6088 3.53306C92.4246 3.3368 92.3329 3.10213 92.3329 2.82906C92.3329 2.556 92.4246 2.3256 92.6088 2.13786C92.793 1.95013 93.0226 1.85626 93.2985 1.85626C93.5744 1.85626 93.8001 1.95013 93.9757 2.13786C94.1599 2.3256 94.2516 2.556 94.2516 2.82906C94.2516 3.11066 94.1599 3.34533 93.9757 3.53306ZM92.057 13.7603C91.6894 13.7603 91.3759 13.6963 91.1165 13.5683C91.0412 13.5256 91.0036 13.4616 91.0036 13.3763V12.2115C91.0036 12.1347 91.0577 12.1048 91.1666 12.1219C91.3923 12.1645 91.564 12.1859 91.6808 12.1859C91.9653 12.1859 92.1573 12.1176 92.2576 11.9811C92.3666 11.8531 92.4207 11.6611 92.4207 11.4051V5.12026C92.4207 4.99226 92.4834 4.92826 92.6088 4.92826H93.9757C94.1011 4.92826 94.1638 4.99226 94.1638 5.12026V11.6483C94.1638 13.0563 93.4615 13.7603 92.057 13.7603ZM98.1086 11.3539C97.5654 11.3539 97.1179 11.2088 96.7667 10.9187C96.4242 10.6285 96.2526 10.1635 96.2526 9.52346V6.29786H95.4751C95.3497 6.29786 95.287 6.23386 95.287 6.10586V5.12026C95.287 4.99226 95.3497 4.92826 95.4751 4.92826H96.2526V3.45626C96.2526 3.32826 96.3153 3.26426 96.4407 3.26426H97.8076C97.933 3.26426 97.9957 3.32826 97.9957 3.45626V4.92826H98.9613C99.0868 4.92826 99.1495 4.99226 99.1495 5.12026V6.10586C99.1495 6.23386 99.0868 6.29786 98.9613 6.29786H97.9957V9.33146C97.9957 9.69842 98.176 9.88186 98.535 9.88186C98.6941 9.88186 98.8234 9.87762 98.9237 9.86906C99.0742 9.85202 99.1495 9.9117 99.1495 10.0483V10.9827C99.1495 11.2301 98.803 11.3539 98.1086 11.3539ZM101.824 3.53306C101.648 3.7208 101.422 3.81466 101.147 3.81466C100.871 3.81466 100.64 3.7208 100.457 3.53306C100.273 3.3368 100.181 3.10213 100.181 2.82906C100.181 2.556 100.273 2.3256 100.457 2.13786C100.64 1.95013 100.871 1.85626 101.147 1.85626C101.422 1.85626 101.648 1.95013 101.824 2.13786C102.007 2.3256 102.1 2.556 102.1 2.82906C102.1 3.11066 102.007 3.34533 101.824 3.53306ZM100.457 11.2003C100.331 11.2003 100.269 11.1363 100.269 11.0083V5.12026C100.269 4.99226 100.331 4.92826 100.457 4.92826H101.824C101.949 4.92826 102.012 4.99226 102.012 5.12026V11.0083C102.012 11.1363 101.949 11.2003 101.824 11.2003H100.457ZM103.702 11.2003C103.576 11.2003 103.514 11.1363 103.514 11.0083V5.12026C103.514 4.99226 103.576 4.92826 103.702 4.92826H105.006C105.131 4.92826 105.194 4.99653 105.194 5.13306L105.232 5.79866C105.624 5.116 106.201 4.77466 106.962 4.77466C107.781 4.77466 108.363 5.14586 108.705 5.88826C109.098 5.14586 109.73 4.77466 110.599 4.77466C111.26 4.77466 111.778 5.0008 112.154 5.45306C112.53 5.8968 112.718 6.524 112.718 7.33466V11.0083C112.718 11.1363 112.656 11.2003 112.53 11.2003H111.176C111.05 11.2003 110.988 11.1363 110.988 11.0083V7.71866C110.988 6.83973 110.662 6.40026 110.01 6.40026C109.684 6.40026 109.429 6.51546 109.245 6.74586C109.069 6.96773 108.981 7.292 108.981 7.71866V11.0083C108.981 11.1363 108.919 11.2003 108.793 11.2003H107.451C107.317 11.2003 107.251 11.1363 107.251 11.0083V7.71866C107.251 6.83973 106.925 6.40026 106.272 6.40026C105.946 6.40026 105.692 6.51546 105.508 6.74586C105.332 6.96773 105.244 7.292 105.244 7.71866V11.0083C105.244 11.1363 105.181 11.2003 105.056 11.2003H103.702ZM119.397 10.4067C118.786 11.0381 118.021 11.3539 117.102 11.3539C116.183 11.3539 115.413 11.0381 114.795 10.4067C114.184 9.77522 113.879 8.99442 113.879 8.06426C113.879 7.13413 114.184 6.35333 114.795 5.72186C115.413 5.0904 116.183 4.77466 117.102 4.77466C118.021 4.77466 118.786 5.0904 119.397 5.72186C120.008 6.35333 120.312 7.13413 120.312 8.06426C120.312 8.99442 120.008 9.77522 119.397 10.4067ZM117.102 9.72826C117.545 9.72826 117.913 9.5789 118.206 9.28026C118.498 8.97306 118.645 8.5677 118.645 8.06426C118.645 7.5608 118.498 7.15973 118.206 6.86106C117.913 6.55386 117.545 6.40026 117.102 6.40026C116.651 6.40026 116.278 6.55386 115.986 6.86106C115.694 7.15973 115.547 7.5608 115.547 8.06426C115.547 8.5677 115.694 8.97306 115.986 9.28026C116.278 9.5789 116.651 9.72826 117.102 9.72826ZM123.047 3.53306C122.871 3.7208 122.646 3.81466 122.37 3.81466C122.094 3.81466 121.864 3.7208 121.68 3.53306C121.496 3.3368 121.404 3.10213 121.404 2.82906C121.404 2.556 121.496 2.3256 121.68 2.13786C121.864 1.95013 122.094 1.85626 122.37 1.85626C122.646 1.85626 122.871 1.95013 123.047 2.13786C123.231 2.3256 123.323 2.556 123.323 2.82906C123.323 3.11066 123.231 3.34533 123.047 3.53306ZM121.68 11.2003C121.555 11.2003 121.492 11.1363 121.492 11.0083V5.12026C121.492 4.99226 121.555 4.92826 121.68 4.92826H123.047C123.172 4.92826 123.235 4.99226 123.235 5.12026V11.0083C123.235 11.1363 123.172 11.2003 123.047 11.2003H121.68ZM126.003 13.6323C125.837 13.6323 125.786 13.5597 125.853 13.4147L126.743 11.2131L124.373 5.14586C124.323 5.0008 124.373 4.92826 124.524 4.92826H125.903C126.02 4.92826 126.095 4.97946 126.129 5.08186L127.596 9.15226L129.051 5.08186C129.085 4.97946 129.16 4.92826 129.277 4.92826H130.656C130.806 4.92826 130.857 5.0008 130.806 5.14586L127.558 13.4787C127.525 13.5811 127.45 13.6323 127.333 13.6323H126.003ZM47.5537 27.2003C47.4785 27.2003 47.4283 27.1789 47.4033 27.1363C47.3782 27.0936 47.3866 27.0381 47.4283 26.9699L49.2843 23.9875L47.5036 21.1587C47.4618 21.0904 47.4534 21.0349 47.4785 20.9923C47.5036 20.9496 47.5537 20.9283 47.629 20.9283H49.1088C49.2091 20.9283 49.2843 20.9709 49.3345 21.0563L50.3252 22.7331L51.3034 21.0563C51.3535 20.9709 51.4288 20.9283 51.5291 20.9283H53.0089C53.0841 20.9283 53.1343 20.9496 53.1594 20.9923C53.1844 21.0349 53.1761 21.0904 53.1343 21.1587L51.3661 23.9875L53.2095 26.9699C53.2513 27.0381 53.2597 27.0936 53.2346 27.1363C53.2095 27.1789 53.1594 27.2003 53.0841 27.2003H51.6043C51.504 27.2003 51.4288 27.1576 51.3786 27.0723L50.3252 25.2419L49.2593 27.0723C49.2091 27.1576 49.1339 27.2003 49.0335 27.2003H47.5537ZM55.9355 19.5331C55.7599 19.7208 55.5342 19.8147 55.2583 19.8147C54.9824 19.8147 54.7524 19.7208 54.5685 19.5331C54.3846 19.3368 54.2926 19.1021 54.2926 18.8291C54.2926 18.556 54.3846 18.3256 54.5685 18.1379C54.7524 17.9501 54.9824 17.8563 55.2583 17.8563C55.5342 17.8563 55.7599 17.9501 55.9355 18.1379C56.1193 18.3256 56.2113 18.556 56.2113 18.8291C56.2113 19.1107 56.1193 19.3453 55.9355 19.5331ZM54.5685 27.2003C54.4431 27.2003 54.3804 27.1363 54.3804 27.0083V21.1203C54.3804 20.9923 54.4431 20.9283 54.5685 20.9283H55.9355C56.0609 20.9283 56.1236 20.9923 56.1236 21.1203V27.0083C56.1236 27.1363 56.0609 27.2003 55.9355 27.2003H54.5685ZM57.5627 27.2003C57.4373 27.2003 57.3746 27.1363 57.3746 27.0083V25.9075C57.3746 25.8051 57.404 25.724 57.4624 25.6643L60.3467 22.3619H57.6004C57.475 22.3619 57.4123 22.2979 57.4123 22.1699V21.1203C57.4123 20.9923 57.475 20.9283 57.6004 20.9283H62.0773C62.2027 20.9283 62.2654 20.9923 62.2654 21.1203V22.2211C62.2654 22.3235 62.2362 22.4045 62.1777 22.4643L59.3059 25.7667H62.0899C62.2153 25.7667 62.278 25.8307 62.278 25.9587V27.0083C62.278 27.1363 62.2153 27.2003 62.0899 27.2003H57.5627ZM63.7042 27.2003C63.5788 27.2003 63.5161 27.1363 63.5161 27.0083V21.1203C63.5161 20.9923 63.5788 20.9283 63.7042 20.9283H65.0085C65.1339 20.9283 65.1966 20.9965 65.1966 21.1331L65.2342 21.7987C65.6271 21.116 66.204 20.7747 66.9648 20.7747C67.7841 20.7747 68.3651 21.1459 68.7079 21.8883C69.1008 21.1459 69.732 20.7747 70.6015 20.7747C71.262 20.7747 71.7803 21.0008 72.1566 21.4531C72.5328 21.8968 72.7209 22.524 72.7209 23.3347V27.0083C72.7209 27.1363 72.6582 27.2003 72.5328 27.2003H71.1784C71.053 27.2003 70.9903 27.1363 70.9903 27.0083V23.7187C70.9903 22.8397 70.6642 22.4003 70.0121 22.4003C69.6861 22.4003 69.431 22.5155 69.2472 22.7459C69.0716 22.9677 68.9838 23.292 68.9838 23.7187V27.0083C68.9838 27.1363 68.9211 27.2003 68.7957 27.2003H67.4539C67.3201 27.2003 67.2532 27.1363 67.2532 27.0083V23.7187C67.2532 22.8397 66.9272 22.4003 66.2751 22.4003C65.949 22.4003 65.694 22.5155 65.5101 22.7459C65.3345 22.9677 65.2467 23.292 65.2467 23.7187V27.0083C65.2467 27.1363 65.184 27.2003 65.0586 27.2003H63.7042ZM76.8036 27.3539C75.9425 27.3539 75.2402 27.0424 74.6968 26.4195C74.1533 25.7965 73.8817 25.0115 73.8817 24.0643C73.8817 23.1256 74.1533 22.3448 74.6968 21.7219C75.2486 21.0904 75.9509 20.7747 76.8036 20.7747C77.7065 20.7747 78.3753 21.1203 78.8103 21.8115L78.8353 21.1203C78.8353 20.9923 78.898 20.9283 79.0234 20.9283H80.2524C80.3778 20.9283 80.4405 20.9923 80.4405 21.1203V27.0083C80.4405 27.1363 80.3731 27.2003 80.2399 27.2003H79.0234C78.898 27.2003 78.8353 27.1363 78.8353 27.0083L78.8103 26.3171C78.3503 27.0083 77.6815 27.3539 76.8036 27.3539ZM76.0261 25.2803C76.3271 25.5875 76.7075 25.7411 77.1673 25.7411C77.6271 25.7411 77.9991 25.5875 78.2834 25.2803C78.5759 24.9731 78.7225 24.5677 78.7225 24.0643C78.7225 23.5608 78.5759 23.1555 78.2834 22.8483C77.9991 22.5411 77.6271 22.3875 77.1673 22.3875C76.7075 22.3875 76.3271 22.5453 76.0261 22.8611C75.7251 23.1683 75.5746 23.5693 75.5746 24.0643C75.5746 24.5677 75.7251 24.9731 76.0261 25.2803ZM84.3806 27.3539C83.8367 27.3539 83.3899 27.2088 83.0388 26.9187C82.6955 26.6285 82.5246 26.1635 82.5246 25.5235V22.2979H81.7471C81.6217 22.2979 81.559 22.2339 81.559 22.1059V21.1203C81.559 20.9923 81.6217 20.9283 81.7471 20.9283H82.5246V19.4563C82.5246 19.3283 82.5873 19.2643 82.7127 19.2643H84.0796C84.205 19.2643 84.2677 19.3283 84.2677 19.4563V20.9283H85.2334C85.3588 20.9283 85.4215 20.9923 85.4215 21.1203V22.1059C85.4215 22.2339 85.3588 22.2979 85.2334 22.2979H84.2677V25.3315C84.2677 25.6984 84.4472 25.8819 84.807 25.8819C84.9653 25.8819 85.0954 25.8776 85.1957 25.8691C85.3462 25.852 85.4215 25.9117 85.4215 26.0483V26.9827C85.4215 27.2301 85.0743 27.3539 84.3806 27.3539ZM86.7155 27.2003C86.5901 27.2003 86.5274 27.1363 86.5274 27.0083V18.2403C86.5274 18.1123 86.5901 18.0483 86.7155 18.0483H88.0824C88.2078 18.0483 88.2705 18.1123 88.2705 18.2403V27.0083C88.2705 27.1363 88.2078 27.2003 88.0824 27.2003H86.7155ZM92.3689 27.3539C91.5076 27.3539 90.8053 27.0424 90.2621 26.4195C89.719 25.7965 89.447 25.0115 89.447 24.0643C89.447 23.1256 89.719 22.3448 90.2621 21.7219C90.8139 21.0904 91.5162 20.7747 92.3689 20.7747C93.2719 20.7747 93.9404 21.1203 94.3754 21.8115L94.4005 21.1203C94.4005 20.9923 94.4632 20.9283 94.5886 20.9283H95.8176C95.943 20.9283 96.0057 20.9923 96.0057 21.1203V27.0083C96.0057 27.1363 95.9391 27.2003 95.805 27.2003H94.5886C94.4632 27.2003 94.4005 27.1363 94.4005 27.0083L94.3754 26.3171C93.9153 27.0083 93.2468 27.3539 92.3689 27.3539ZM91.5914 25.2803C91.8924 25.5875 92.2725 25.7411 92.7326 25.7411C93.1927 25.7411 93.5642 25.5875 93.8487 25.2803C94.1411 24.9731 94.2876 24.5677 94.2876 24.0643C94.2876 23.5608 94.1411 23.1555 93.8487 22.8483C93.5642 22.5411 93.1927 22.3875 92.7326 22.3875C92.2725 22.3875 91.8924 22.5453 91.5914 22.8611C91.2905 23.1683 91.14 23.5693 91.14 24.0643C91.14 24.5677 91.2905 24.9731 91.5914 25.2803ZM97.6885 27.2003C97.5631 27.2003 97.5004 27.1363 97.5004 27.0083V21.1203C97.5004 20.9923 97.5631 20.9283 97.6885 20.9283H98.9927C99.1181 20.9283 99.1808 20.9965 99.1808 21.1331L99.231 21.9395C99.4818 21.1629 99.9246 20.7747 100.56 20.7747C100.802 20.7747 100.991 20.8259 101.125 20.9283C101.2 20.9795 101.237 21.0648 101.237 21.1843V22.2851C101.237 22.4301 101.154 22.4813 100.987 22.4387C100.836 22.396 100.686 22.3747 100.535 22.3747C100.117 22.3747 99.7953 22.5112 99.5696 22.7843C99.3438 23.0488 99.231 23.4115 99.231 23.8723V27.0083C99.231 27.1363 99.1683 27.2003 99.0429 27.2003H97.6885ZM104.865 29.6323C104.739 29.6323 104.677 29.5683 104.677 29.4403V21.1203C104.677 20.9923 104.739 20.9283 104.865 20.9283H106.106C106.232 20.9283 106.294 20.9923 106.294 21.1203L106.32 21.8115C106.755 21.1203 107.423 20.7747 108.326 20.7747C109.179 20.7747 109.877 21.0904 110.42 21.7219C110.964 22.3448 111.235 23.1256 111.235 24.0643C111.235 25.0115 110.964 25.7965 110.42 26.4195C109.877 27.0424 109.179 27.3539 108.326 27.3539C107.507 27.3539 106.871 27.0552 106.42 26.4579V29.4403C106.42 29.5683 106.357 29.6323 106.232 29.6323H104.865ZM107.962 25.7411C108.422 25.7411 108.799 25.5875 109.091 25.2803C109.392 24.9731 109.542 24.5677 109.542 24.0643C109.542 23.5693 109.392 23.1683 109.091 22.8611C108.799 22.5453 108.422 22.3875 107.962 22.3875C107.494 22.3875 107.114 22.5411 106.821 22.8483C106.537 23.1555 106.395 23.5608 106.395 24.0643C106.395 24.5677 106.537 24.9731 106.821 25.2803C107.114 25.5875 107.494 25.7411 107.962 25.7411ZM112.605 27.2003C112.479 27.2003 112.417 27.1363 112.417 27.0083V18.2403C112.417 18.1123 112.479 18.0483 112.605 18.0483H113.972C114.097 18.0483 114.16 18.1123 114.16 18.2403V27.0083C114.16 27.1363 114.097 27.2003 113.972 27.2003H112.605ZM118.258 27.3539C117.398 27.3539 116.695 27.0424 116.151 26.4195C115.608 25.7965 115.336 25.0115 115.336 24.0643C115.336 23.1256 115.608 22.3448 116.151 21.7219C116.703 21.0904 117.405 20.7747 118.258 20.7747C119.161 20.7747 119.83 21.1203 120.265 21.8115L120.29 21.1203C120.29 20.9923 120.352 20.9283 120.478 20.9283H121.707C121.832 20.9283 121.895 20.9923 121.895 21.1203V27.0083C121.895 27.1363 121.828 27.2003 121.694 27.2003H120.478C120.352 27.2003 120.29 27.1363 120.29 27.0083L120.265 26.3171C119.805 27.0083 119.136 27.3539 118.258 27.3539ZM117.481 25.2803C117.782 25.5875 118.162 25.7411 118.622 25.7411C119.082 25.7411 119.454 25.5875 119.738 25.2803C120.031 24.9731 120.177 24.5677 120.177 24.0643C120.177 23.5608 120.031 23.1555 119.738 22.8483C119.454 22.5411 119.082 22.3875 118.622 22.3875C118.162 22.3875 117.782 22.5453 117.481 22.8611C117.18 23.1683 117.029 23.5693 117.029 24.0643C117.029 24.5677 117.18 24.9731 117.481 25.2803ZM125.835 27.3539C125.292 27.3539 124.844 27.2088 124.493 26.9187C124.151 26.6285 123.979 26.1635 123.979 25.5235V22.2979H123.201C123.076 22.2979 123.013 22.2339 123.013 22.1059V21.1203C123.013 20.9923 123.076 20.9283 123.201 20.9283H123.979V19.4563C123.979 19.3283 124.042 19.2643 124.167 19.2643H125.534C125.659 19.2643 125.722 19.3283 125.722 19.4563V20.9283H126.688C126.813 20.9283 126.876 20.9923 126.876 21.1203V22.1059C126.876 22.2339 126.813 22.2979 126.688 22.2979H125.722V25.3315C125.722 25.6984 125.902 25.8819 126.261 25.8819C126.42 25.8819 126.55 25.8776 126.65 25.8691C126.801 25.852 126.876 25.9117 126.876 26.0483V26.9827C126.876 27.2301 126.529 27.3539 125.835 27.3539ZM128.71 27.2003C128.584 27.2003 128.522 27.1363 128.522 27.0083V22.2979H127.794C127.669 22.2979 127.606 22.2339 127.606 22.1059V21.1203C127.606 20.9923 127.669 20.9283 127.794 20.9283H128.522V19.9555C128.522 18.5475 129.224 17.8435 130.629 17.8435C131.005 17.8435 131.318 17.9075 131.569 18.0355C131.644 18.0696 131.682 18.1336 131.682 18.2275V19.3923C131.682 19.4691 131.627 19.4989 131.519 19.4819C131.293 19.4392 131.125 19.4179 131.017 19.4179C130.733 19.4179 130.536 19.4861 130.428 19.6227C130.319 19.7507 130.265 19.9427 130.265 20.1987V20.9283H131.494C131.619 20.9283 131.682 20.9923 131.682 21.1203V22.1059C131.682 22.2339 131.619 22.2979 131.494 22.2979H130.265V27.0083C130.265 27.1363 130.202 27.2003 130.077 27.2003H128.71ZM137.62 26.4067C137.009 27.0381 136.244 27.3539 135.325 27.3539C134.406 27.3539 133.636 27.0381 133.018 26.4067C132.407 25.7752 132.102 24.9944 132.102 24.0643C132.102 23.1341 132.407 22.3533 133.018 21.7219C133.636 21.0904 134.406 20.7747 135.325 20.7747C136.244 20.7747 137.009 21.0904 137.62 21.7219C138.23 22.3533 138.535 23.1341 138.535 24.0643C138.535 24.9944 138.23 25.7752 137.62 26.4067ZM135.325 25.7283C135.768 25.7283 136.136 25.5789 136.429 25.2803C136.721 24.9731 136.867 24.5677 136.867 24.0643C136.867 23.5608 136.721 23.1597 136.429 22.8611C136.136 22.5539 135.768 22.4003 135.325 22.4003C134.874 22.4003 134.501 22.5539 134.209 22.8611C133.917 23.1597 133.77 23.5608 133.77 24.0643C133.77 24.5677 133.917 24.9731 134.209 25.2803C134.501 25.5789 134.874 25.7283 135.325 25.7283ZM139.891 27.2003C139.765 27.2003 139.702 27.1363 139.702 27.0083V21.1203C139.702 20.9923 139.765 20.9283 139.891 20.9283H141.195C141.32 20.9283 141.383 20.9965 141.383 21.1331L141.433 21.9395C141.684 21.1629 142.127 20.7747 142.762 20.7747C143.005 20.7747 143.193 20.8259 143.327 20.9283C143.402 20.9795 143.44 21.0648 143.44 21.1843V22.2851C143.44 22.4301 143.356 22.4813 143.189 22.4387C143.038 22.396 142.888 22.3747 142.737 22.3747C142.319 22.3747 141.997 22.5112 141.772 22.7843C141.546 23.0488 141.433 23.4115 141.433 23.8723V27.0083C141.433 27.1363 141.37 27.2003 141.245 27.2003H139.891ZM144.74 27.2003C144.614 27.2003 144.552 27.1363 144.552 27.0083V21.1203C144.552 20.9923 144.614 20.9283 144.74 20.9283H146.044C146.169 20.9283 146.232 20.9965 146.232 21.1331L146.27 21.7987C146.663 21.116 147.24 20.7747 148 20.7747C148.82 20.7747 149.401 21.1459 149.743 21.8883C150.137 21.1459 150.768 20.7747 151.637 20.7747C152.298 20.7747 152.816 21.0008 153.192 21.4531C153.568 21.8968 153.756 22.524 153.756 23.3347V27.0083C153.756 27.1363 153.694 27.2003 153.568 27.2003H152.214C152.089 27.2003 152.026 27.1363 152.026 27.0083V23.7187C152.026 22.8397 151.7 22.4003 151.048 22.4003C150.722 22.4003 150.467 22.5155 150.283 22.7459C150.107 22.9677 150.019 23.292 150.019 23.7187V27.0083C150.019 27.1363 149.957 27.2003 149.831 27.2003H148.489C148.356 27.2003 148.289 27.1363 148.289 27.0083V23.7187C148.289 22.8397 147.963 22.4003 147.311 22.4003C146.985 22.4003 146.73 22.5155 146.546 22.7459C146.37 22.9677 146.282 23.292 146.282 23.7187V27.0083C146.282 27.1363 146.22 27.2003 146.094 27.2003H144.74ZM157.839 27.3539C156.979 27.3539 156.276 27.0424 155.732 26.4195C155.189 25.7965 154.917 25.0115 154.917 24.0643C154.917 23.1256 155.189 22.3448 155.732 21.7219C156.284 21.0904 156.986 20.7747 157.839 20.7747C158.742 20.7747 159.411 21.1203 159.846 21.8115L159.871 21.1203C159.871 20.9923 159.933 20.9283 160.059 20.9283H161.288C161.413 20.9283 161.476 20.9923 161.476 21.1203V27.0083C161.476 27.1363 161.409 27.2003 161.275 27.2003H160.059C159.933 27.2003 159.871 27.1363 159.871 27.0083L159.846 26.3171C159.386 27.0083 158.717 27.3539 157.839 27.3539ZM157.062 25.2803C157.363 25.5875 157.744 25.7411 158.203 25.7411C158.663 25.7411 159.035 25.5875 159.319 25.2803C159.612 24.9731 159.758 24.5677 159.758 24.0643C159.758 23.5608 159.612 23.1555 159.319 22.8483C159.035 22.5411 158.663 22.3875 158.203 22.3875C157.744 22.3875 157.363 22.5453 157.062 22.8611C156.761 23.1683 156.61 23.5693 156.61 24.0643C156.61 24.5677 156.761 24.9731 157.062 25.2803ZM165.065 27.3539C164.112 27.3539 163.347 27.0083 162.77 26.3171C162.695 26.2232 162.703 26.0995 162.795 25.9459L163.234 25.3187C163.318 25.1907 163.422 25.1736 163.547 25.2675C164.074 25.6771 164.547 25.8819 164.965 25.8819C165.425 25.8819 165.654 25.7069 165.654 25.3571C165.654 25.212 165.604 25.0925 165.504 24.9987C165.412 24.9048 165.249 24.8067 165.015 24.7043L164.237 24.3843C163.343 24.0259 162.895 23.4541 162.895 22.6691C162.895 22.0888 163.105 21.628 163.522 21.2867C163.941 20.9453 164.446 20.7747 165.04 20.7747C165.885 20.7747 166.57 21.0947 167.096 21.7347C167.164 21.82 167.159 21.9096 167.084 22.0035L166.532 22.6819C166.457 22.7757 166.361 22.7757 166.244 22.6819C165.835 22.332 165.462 22.1571 165.128 22.1571C164.936 22.1571 164.789 22.204 164.689 22.2979C164.588 22.3917 164.538 22.5112 164.538 22.6563C164.538 22.9208 164.735 23.1256 165.128 23.2707L165.993 23.6163C166.921 24.0003 167.381 24.6061 167.372 25.4339C167.365 26.0397 167.139 26.5133 166.695 26.8547C166.261 27.1875 165.717 27.3539 165.065 27.3539ZM170.172 19.5331C169.996 19.7208 169.771 19.8147 169.495 19.8147C169.219 19.8147 168.989 19.7208 168.805 19.5331C168.621 19.3368 168.529 19.1021 168.529 18.8291C168.529 18.556 168.621 18.3256 168.805 18.1379C168.989 17.9501 169.219 17.8563 169.495 17.8563C169.771 17.8563 169.996 17.9501 170.172 18.1379C170.356 18.3256 170.448 18.556 170.448 18.8291C170.448 19.1107 170.356 19.3453 170.172 19.5331ZM168.805 27.2003C168.68 27.2003 168.617 27.1363 168.617 27.0083V21.1203C168.617 20.9923 168.68 20.9283 168.805 20.9283H170.172C170.297 20.9283 170.36 20.9923 170.36 21.1203V27.0083C170.36 27.1363 170.297 27.2003 170.172 27.2003H168.805Z" fill="#373B55"/>
    <path fill-rule="evenodd" clip-rule="evenodd" d="M6.67499 7.83323C8.74483 1.98955 16.2049 0.647856 19.8406 4.84495C21.7875 2.86291 24.8 2.18205 27.4322 2.81093C29.0215 3.19063 30.5325 4.05567 31.6462 5.45844C32.7654 6.86805 33.4316 8.75555 33.4316 11.0833C33.4316 12.9213 32.8875 14.6999 32.0353 16.3574C32.2793 16.7453 32.4207 17.2068 32.4207 17.702C32.4207 19.0787 31.3274 20.1947 29.9786 20.1947C28.6299 20.1947 27.5365 19.0787 27.5365 17.702C27.5365 16.3254 28.6299 15.2094 29.9786 15.2094C30.0361 15.2094 30.093 15.2114 30.1494 15.2154C30.8439 13.8353 31.2422 12.4442 31.2422 11.0833C31.2422 9.20659 30.7125 7.83193 29.9452 6.86544C29.1724 5.89211 28.1064 5.26718 26.9332 4.98689C24.5298 4.41269 21.9201 5.3167 20.7346 7.26421C20.2782 8.01403 19.225 7.95648 18.8205 7.22038C16.8779 3.6858 11.3649 3.77802 9.20178 7.56622C11.4523 7.64278 13.0419 8.44435 14.5972 9.79187C15.3865 10.4757 16.1728 11.3043 17.0252 12.2254C17.19 12.4035 17.3578 12.5856 17.5293 12.7718C18.2553 13.5598 19.0492 14.4213 19.9741 15.3654C21.054 16.4676 21.9917 17.5505 22.8402 18.5319L22.8606 18.5555C23.7102 19.5381 24.4566 20.4015 25.1979 21.1319C26.673 22.5851 27.9924 23.3755 29.7263 23.3755C33.4005 23.3755 36.379 20.3354 36.379 16.5852C36.379 15.9681 36.8691 15.4679 37.4737 15.4679C38.0783 15.4679 38.5684 15.9681 38.5684 16.5852C38.5684 21.5696 34.6097 25.6103 29.7263 25.6103C27.9986 25.6103 26.5964 25.0435 25.3528 24.1661C23.5295 25.6791 21.7219 26.8968 20.3357 27.6952C20.0028 27.8869 19.5886 27.894 19.2435 27.6952C16.5389 26.1375 12.1301 22.9229 9.19371 18.9769C9.10624 18.9866 9.01743 18.9915 8.92745 18.9915C7.57874 18.9915 6.48537 17.8755 6.48537 16.4989C6.48537 15.1223 7.57874 14.0063 8.92745 14.0063C10.2762 14.0063 11.3696 15.1223 11.3696 16.4989C11.3696 16.9578 11.2481 17.3877 11.0361 17.757C13.5496 21.0786 17.2563 23.8928 19.7895 25.4348C20.9033 24.7567 22.2569 23.8248 23.6406 22.7035C22.8479 21.9185 22.0633 21.0109 21.2535 20.0741L21.1985 20.0106C20.3472 19.0259 19.4513 17.9922 18.4259 16.9455C17.4749 15.9749 16.6538 15.0836 15.9264 14.2942C15.7573 14.1105 15.5931 13.9323 15.4335 13.7599C14.5782 12.8358 13.8668 12.0903 13.1803 11.4956C11.8658 10.3567 10.6776 9.79499 8.8421 9.79499C5.16796 9.79499 2.18948 12.8351 2.18948 16.5852C2.18948 17.2023 1.69935 17.7026 1.09473 17.7026C0.490132 17.7026 0 17.2023 0 16.5852C0 12.3639 2.83933 8.81963 6.67499 7.83323Z" fill="#63C175"/>
</svg>
