<svg width="28" height="30" viewBox="0 0 28 30" fill="none" xmlns="http://www.w3.org/2000/svg">
    <path d="M7.72831 3.15074C10.7892 1.38358 12.3196 0.5 14 0.5C15.6805 0.5 17.2109 1.38358 20.2717 3.15074L21.1259 3.6439C24.1868 5.41106 25.7171 6.29466 26.5574 7.74998C27.3976 9.2053 27.3976 10.9725 27.3976 14.5068V15.4932C27.3976 19.0275 27.3976 20.7947 26.5574 22.25C25.7171 23.7053 24.1868 24.5889 21.1259 26.3561L20.2717 26.8492C17.2109 28.6164 15.6805 29.5 14 29.5C12.3196 29.5 10.7892 28.6164 7.72831 26.8492L6.87413 26.3561C3.81333 24.5889 2.28292 23.7053 1.44267 22.25C0.602417 20.7947 0.602417 19.0275 0.602417 15.4932V14.5068C0.602417 10.9725 0.602417 9.2053 1.44267 7.74998C2.28292 6.29466 3.81333 5.41106 6.87413 3.6439L7.72831 3.15074Z" fill="white"/>
    <path d="M6.50288 14.4077C6.26371 14.4077 6.06982 14.2138 6.06982 13.9746V10.9178C6.06982 10.1052 6.72853 9.44653 7.54108 9.44653H8.68781C8.86704 9.44653 9.01234 9.59183 9.01234 9.77107V9.77107C9.01234 9.9503 8.86704 10.0956 8.68781 10.0956H8.0186H7.65714C7.25883 10.0956 6.93594 10.4185 6.93594 10.8168V10.8168C6.93594 11.2151 7.25883 11.538 7.65714 11.538H7.83815H8.4313C8.63045 11.538 8.79189 11.6994 8.79189 11.8986V11.8986C8.79189 12.0977 8.63045 12.2592 8.4313 12.2592H7.86392C7.35141 12.2592 6.93594 12.6746 6.93594 13.1871V13.9746C6.93594 14.2138 6.74206 14.4077 6.50288 14.4077V14.4077Z" fill="url(#paint0_linear_1270_40457)"/>
    <path d="M10.315 14.4077C10.0935 14.4077 9.91391 14.2281 9.91391 14.0065V10.9985C9.91391 10.8264 10.0535 10.6868 10.2256 10.6868H10.3857C10.5306 10.6868 10.6293 10.8336 10.5747 10.9678L10.4701 11.2247C10.4654 11.2362 10.4739 11.2488 10.4863 11.2488V11.2488C10.4937 11.2488 10.5002 11.2442 10.5029 11.2373C10.5708 11.0585 10.6908 10.9129 10.8628 10.8007C11.0385 10.686 11.2366 10.6287 11.4571 10.6287C11.4986 10.6287 11.5505 10.6295 11.6128 10.6311V10.6311C11.6932 10.6332 11.7542 10.6996 11.7542 10.78V11.0861C11.7542 11.1539 11.6895 11.2074 11.6224 11.1979V11.1979V11.1979C11.4843 11.1747 11.3421 11.2195 11.2142 11.2766C11.1432 11.3083 11.083 11.342 11.0139 11.3937C10.9242 11.461 10.8903 11.5003 10.8514 11.5465C10.7939 11.6149 10.7467 11.6692 10.6925 11.7403V11.7403C10.5582 11.9165 10.521 12.158 10.5445 12.3783L10.635 13.2252L10.7139 13.9639C10.7392 14.201 10.5534 14.4077 10.315 14.4077V14.4077Z" fill="url(#paint1_linear_1270_40457)"/>
    <path d="M13.8556 14.4852C13.501 14.4852 13.1951 14.406 12.9379 14.2478C12.6823 14.0879 12.485 13.865 12.346 13.5792C12.2087 13.2917 12.14 12.9574 12.14 12.5763C12.14 12.1952 12.2087 11.8593 12.346 11.5686C12.485 11.2763 12.6783 11.0486 12.9259 10.8855C13.1751 10.7207 13.4659 10.6384 13.7981 10.6384C13.9898 10.6384 14.1791 10.6707 14.366 10.7353C14.5529 10.7999 14.7231 10.9048 14.8764 11.0502C15.0298 11.1939 15.152 11.3845 15.243 11.6219C15.3341 11.8593 15.3796 12.1516 15.3796 12.4988V12.4988C15.3796 12.6326 15.2712 12.741 15.1374 12.741H12.7896C12.6531 12.741 12.5425 12.6304 12.5425 12.4939V12.4939C12.5425 12.3575 12.6531 12.2469 12.7896 12.2469L14.1893 12.2469C14.489 12.2468 14.7366 11.9935 14.6017 11.7259V11.7259C14.5202 11.5611 14.3627 11.4304 14.2109 11.3351C14.0608 11.2398 13.9935 11.2362 13.7981 11.2362C13.5729 11.2362 13.4294 11.27 13.234 11.4002C13.1128 11.481 13.0138 11.6117 12.9259 11.791C12.8608 11.9864 12.8432 12.0515 12.7781 12.312V12.312C12.7303 12.5435 12.7301 12.7837 12.789 13.0127C12.8212 13.1381 12.8554 13.246 12.9083 13.3539C13.0058 13.5477 13.1266 13.6429 13.2991 13.7447C13.4716 13.8448 13.6272 13.8749 13.8556 13.8749C14.0042 13.8749 14.1562 13.8518 14.276 13.8098C14.3975 13.7662 14.4487 13.7652 14.5366 13.6796C14.5624 13.6539 14.5896 13.6295 14.6163 13.6045C14.7276 13.5006 14.8888 13.4223 15.0353 13.4639V13.4639C15.1927 13.5086 15.2857 13.6768 15.2018 13.8173C15.1544 13.8966 15.0979 13.9707 15.0322 14.0395C14.8964 14.18 14.7286 14.2898 14.529 14.3689C14.3293 14.4464 14.1048 14.4852 13.8556 14.4852Z" fill="url(#paint2_linear_1270_40457)"/>
    <path d="M22.0094 12.0143C22.1565 12.0143 22.2758 12.1336 22.2758 12.2808V12.2808C22.2758 12.4279 22.1565 12.5472 22.0094 12.5472H20.3953C20.2482 12.5472 20.1289 12.4279 20.1289 12.2808V12.2808C20.1289 12.1336 20.2482 12.0143 20.3953 12.0143H22.0094Z" fill="url(#paint3_linear_1270_40457)"/>
    <path d="M6.50289 15.2087C6.74206 15.2087 6.93594 15.4026 6.93594 15.6418V19.7368C6.93594 19.976 6.74206 20.1698 6.50289 20.1698V20.1698C6.26371 20.1698 6.06983 19.976 6.06983 19.7368V15.6418C6.06983 15.4026 6.26371 15.2087 6.50289 15.2087V15.2087Z" fill="url(#paint4_linear_1270_40457)"/>
    <path d="M8.7401 20.1919C8.50688 20.1919 8.2842 20.1268 8.08882 20.0617C7.89343 19.9966 7.67961 19.7754 7.56779 19.6058C7.45596 19.4346 7.43753 19.1968 7.43753 18.9546C7.43753 18.8136 7.45816 18.6892 7.49616 18.5828C7.53326 18.4788 7.58309 18.3772 7.6545 18.293C7.71938 18.2166 7.80334 18.1572 7.89343 18.108C8.03241 18.0321 8.24673 17.9497 8.41446 17.9126C8.58379 17.8738 8.727 17.8456 8.89793 17.823C9.12157 17.794 9.31754 17.7969 9.45652 17.7824C9.5947 17.7665 9.71412 17.7548 9.77884 17.7191C9.78109 17.7179 9.78324 17.7166 9.78535 17.7151C9.79842 17.706 9.84729 17.6667 9.84729 17.587V17.3265C9.84729 17.066 9.71704 17.0009 9.58678 16.9357C9.45652 16.8706 9.32613 16.8055 9.06575 16.8055C8.79578 16.8055 8.50269 16.9465 8.34933 17.066C8.32445 17.0854 8.30414 17.1035 8.28731 17.1208C8.1697 17.2416 8.02986 17.3354 7.87628 17.2658V17.2658C7.72483 17.1971 7.65165 17.0183 7.72501 16.8691C7.78936 16.7381 7.86311 16.6203 7.95856 16.545C8.1199 16.4174 8.28949 16.2695 8.47959 16.2194C8.67498 16.1543 8.88044 16.1543 9.06575 16.1543C9.18396 16.1543 9.36829 16.1903 9.52165 16.2194C9.6766 16.2468 9.83378 16.3276 9.97755 16.4148C10.1229 16.502 10.3376 16.6946 10.4335 16.8706C10.5293 17.0467 10.5637 17.2914 10.5637 17.587V19.8479C10.5637 20.0379 10.4097 20.1919 10.2196 20.1919H10.2037C10.0225 20.1919 9.87557 20.045 9.87557 19.8638V19.5534C9.87557 19.5436 9.86768 19.5357 9.85795 19.5357V19.5357C9.85115 19.5357 9.84492 19.5396 9.84221 19.5459C9.80816 19.6242 9.80277 19.713 9.71704 19.8012C9.62331 19.8976 9.47483 20.0622 9.32626 20.1268C9.1777 20.1914 8.95416 20.1919 8.7401 20.1919ZM8.87036 19.6709C8.99117 19.6709 9.08875 19.6208 9.17712 19.5608C9.32088 19.463 9.46402 19.3567 9.56788 19.2173C9.59594 19.1797 9.62201 19.1385 9.65191 19.0848C9.72799 18.951 9.83641 18.8358 9.87097 18.7114C9.87439 18.6991 9.87557 18.6863 9.87557 18.6735V18.3488C9.87557 18.2884 9.77531 18.2322 9.71742 18.2494V18.2494C9.63755 18.272 9.56195 18.2856 9.45652 18.3033C9.35269 18.3195 9.22992 18.3555 9.13088 18.3685C9.03343 18.3798 8.95863 18.4032 8.89793 18.4113C8.75096 18.4306 8.67251 18.4551 8.54472 18.4987C8.41852 18.5407 8.16709 18.6085 8.08882 18.6941C8.01214 18.7781 7.95856 18.8744 7.95856 19.0197C7.95856 19.2183 8.07371 19.439 8.21907 19.5407C8.36604 19.6408 8.64512 19.6709 8.87036 19.6709Z" fill="url(#paint5_linear_1270_40457)"/>
    <path d="M12.1917 17.633C12.0827 17.8064 12.0606 18.0169 12.0585 18.2217L12.0422 19.8249C12.0403 20.016 11.8848 20.1698 11.6938 20.1698V20.1698C11.5013 20.1698 11.3453 20.0138 11.3453 19.8213V16.7862C11.3453 16.5999 11.4962 16.449 11.6824 16.449H11.7289C11.8894 16.449 12.0196 16.5791 12.0196 16.7397V17.0012C12.0196 17.0173 12.0326 17.0304 12.0487 17.0304V17.0304C12.0602 17.0304 12.0705 17.0237 12.0754 17.0134C12.1617 16.8323 12.29 16.6862 12.4605 16.575C12.6362 16.4587 12.863 16.4006 13.141 16.4006C13.3902 16.4006 13.6082 16.4522 13.7951 16.5556C13.982 16.6573 14.1722 16.8124 14.276 17.0207C14.3799 17.2274 14.4331 17.4658 14.4331 17.7824V19.8308C14.4331 20.0181 14.2813 20.1698 14.0941 20.1698V20.1698C13.9068 20.1698 13.755 20.0181 13.755 19.8308V17.8475C13.755 17.5552 13.7098 17.3594 13.5596 17.1962C13.4095 17.0315 13.2355 17.0207 12.9735 17.0207C12.793 17.0207 12.6728 17.1061 12.5827 17.1962C12.4524 17.3265 12.4524 17.3265 12.3873 17.3916C12.3069 17.472 12.2433 17.5508 12.1917 17.633Z" fill="url(#paint6_linear_1270_40457)"/>
    <path d="M16.9156 20.2474C16.5705 20.2474 16.2734 20.165 16.0242 20.0003C15.775 19.8356 15.5833 19.6087 15.4491 19.3196C15.3149 19.0305 15.2478 18.7002 15.2478 18.3288C15.2478 17.9509 15.3165 17.6174 15.4539 17.3283C15.5929 17.0376 15.7862 16.8107 16.0338 16.6476C16.283 16.4829 16.5737 16.4006 16.906 16.4006C17.1648 16.4006 17.398 16.449 17.6057 16.5459C17.8133 16.6428 17.9835 16.7785 18.1161 16.9529C18.1744 17.0296 18.223 17.1119 18.2618 17.1999C18.3427 17.383 18.1845 17.5633 17.9844 17.5633V17.5633C17.8335 17.5633 17.7035 17.4559 17.609 17.3382C17.5508 17.2656 17.4784 17.1982 17.4022 17.1311C17.2068 17.0009 17.1417 17.0009 16.9156 16.985C16.6951 16.985 16.5263 17.08 16.3602 17.1962C16.1956 17.3109 16.1272 17.377 16.0345 17.587C15.9435 17.7953 15.9043 18.0223 15.9043 18.3033C15.9043 18.5908 15.9451 18.7414 16.0345 18.9546C16.1256 19.1678 16.1956 19.2926 16.3602 19.4104C16.5263 19.5283 16.6576 19.6058 16.8812 19.6058C17.0282 19.6058 17.1522 19.6353 17.272 19.5836C17.3918 19.5319 17.4494 19.5073 17.5325 19.4104C17.5497 19.3904 17.5638 19.3705 17.5757 19.3504C17.66 19.2082 17.7782 19.0846 17.9435 19.0846V19.0846C18.1646 19.0846 18.355 19.2872 18.2774 19.4943C18.2547 19.555 18.2248 19.6138 18.1838 19.6709C18.0592 19.8454 17.8357 19.9914 17.6296 20.0947C17.4252 20.1965 17.1871 20.2474 16.9156 20.2474Z" fill="url(#paint7_linear_1270_40457)"/>
    <path d="M23.3774 20.1698C23.2335 20.1698 23.1169 20.0532 23.1169 19.9094V16.7095C23.1169 16.5656 23.2335 16.449 23.3774 16.449H23.5887C23.7336 16.449 23.8323 16.5958 23.7777 16.73L23.6731 16.9869C23.6684 16.9984 23.6768 17.011 23.6893 17.011C23.6967 17.011 23.7032 17.0064 23.7059 16.9995C23.7738 16.8207 23.8937 16.6751 24.0658 16.5629C24.2415 16.4482 24.4396 16.3909 24.66 16.3909C24.7016 16.3909 24.7535 16.3917 24.8158 16.3933C24.8962 16.3954 24.9572 16.4617 24.9572 16.5421V16.8483C24.9572 16.9161 24.8925 16.9696 24.8254 16.9601C24.7729 16.9513 24.719 16.9563 24.6621 16.9589C24.6303 16.9603 24.5986 16.966 24.5688 16.9774C24.4184 17.0352 24.3295 17.0716 24.2169 17.1559C24.0811 17.2577 24.0731 17.2957 23.9824 17.3899C23.9705 17.4023 23.9596 17.4156 23.9497 17.4296C23.8869 17.5186 23.803 17.6107 23.7378 17.7458C23.7193 17.784 23.714 17.8271 23.7186 17.8694L23.838 18.9874L23.9335 19.8817C23.95 20.0356 23.8293 20.1698 23.6745 20.1698H23.3774Z" fill="url(#paint8_linear_1270_40457)"/>
    <path d="M17.783 14.4755C17.4284 14.4755 17.1224 14.3964 16.8652 14.2381C16.6097 14.0782 16.4124 13.8553 16.2734 13.5695C16.136 13.282 16.0673 12.9477 16.0673 12.5666C16.0673 12.1855 16.136 11.8496 16.2734 11.5589C16.4124 11.2666 16.6057 11.0389 16.8533 10.8758C17.1025 10.711 17.3932 10.6287 17.7255 10.6287C17.9172 10.6287 18.1065 10.661 18.2934 10.7256C18.4803 10.7902 18.6504 10.8951 18.8038 11.0405C18.9571 11.1842 19.0793 11.3748 19.1704 11.6122C19.2614 11.8496 19.307 12.1419 19.307 12.4891C19.307 12.6229 19.1985 12.7313 19.0647 12.7313H16.717C16.5805 12.7313 16.4699 12.6207 16.4699 12.4843C16.4699 12.3478 16.5805 12.2372 16.717 12.2372L18.3988 12.2372C18.5427 12.2372 18.6643 12.1187 18.6302 11.9789C18.6081 11.8881 18.5738 11.8048 18.529 11.7162C18.4476 11.5514 18.29 11.4207 18.1383 11.3254C17.9881 11.2301 17.9209 11.2265 17.7255 11.2265C17.5002 11.2265 17.3567 11.2603 17.1613 11.3906C17.0402 11.4713 16.9411 11.602 16.8533 11.7813C16.7881 11.9767 16.7706 12.0418 16.7054 12.3023L16.6446 12.5966C16.6369 12.6343 16.6376 12.6732 16.6465 12.7107C16.7101 12.9788 16.746 13.1615 16.8357 13.3443C16.9331 13.5381 17.0539 13.6333 17.2265 13.735C17.399 13.8351 17.5545 13.8652 17.783 13.8652C17.9315 13.8652 18.0836 13.8421 18.2034 13.8001C18.3248 13.7565 18.3761 13.7555 18.4639 13.6699C18.4966 13.6375 18.5314 13.607 18.5647 13.5749C18.6626 13.4806 18.804 13.4092 18.9348 13.4463L18.9934 13.4629C19.1339 13.5028 19.2167 13.6525 19.1452 13.7799C19.0947 13.8698 19.0328 13.953 18.9595 14.0298C18.8237 14.1703 18.656 14.2801 18.4563 14.3592C18.2566 14.4367 18.0322 14.4755 17.783 14.4755Z" fill="url(#paint9_linear_1270_40457)"/>
    <path d="M20.7327 20.2571C20.3781 20.2571 20.0721 20.1779 19.815 20.0197C19.5594 19.8598 19.3621 19.6369 19.2231 19.3511C19.0857 19.0636 19.017 18.7293 19.017 18.3482C19.017 17.9671 19.0857 17.6311 19.2231 17.3405C19.3621 17.0481 19.5554 16.8204 19.803 16.6573C20.0522 16.4926 20.3429 16.4102 20.6752 16.4102C20.8669 16.4102 21.0562 16.4425 21.2431 16.5071C21.43 16.5717 21.6001 16.6767 21.7535 16.8221C21.9068 16.9658 22.029 17.1563 22.1201 17.3937C22.2111 17.6311 22.2567 17.9234 22.2567 18.2707C22.2567 18.4045 22.1482 18.5129 22.0144 18.5129H19.6667C19.5302 18.5129 19.4196 18.4023 19.4196 18.2658C19.4196 18.1294 19.5302 18.0187 19.6667 18.0187L21.3485 18.0187C21.4924 18.0187 21.614 17.9003 21.5799 17.7605C21.5578 17.6697 21.5235 17.5864 21.4788 17.4977C21.3973 17.333 21.2397 17.2023 21.088 17.107C20.9378 17.0117 20.8706 17.008 20.6752 17.008C20.4499 17.008 20.3064 17.0419 20.111 17.1721C19.9899 17.2529 19.8908 17.3836 19.803 17.5629C19.7378 17.7582 19.7203 17.8234 19.6551 18.0838L19.5943 18.3782C19.5866 18.4158 19.5873 18.4548 19.5962 18.4922C19.6599 18.7603 19.6958 18.9431 19.7854 19.1258C19.8828 19.3196 20.0037 19.4148 20.1762 19.5166C20.3487 19.6167 20.5043 19.6468 20.7327 19.6468C20.8813 19.6468 21.0333 19.6237 21.1531 19.5817C21.2745 19.5381 21.3258 19.537 21.4136 19.4514C21.4463 19.419 21.4811 19.3886 21.5144 19.3565C21.6123 19.2622 21.7537 19.1907 21.8845 19.2279L21.9431 19.2445C22.0836 19.2844 22.1664 19.4341 22.0949 19.5614C22.0444 19.6513 21.9825 19.7346 21.9092 19.8113C21.7734 19.9518 21.6057 20.0616 21.406 20.1408C21.2063 20.2183 20.9819 20.2571 20.7327 20.2571Z" fill="url(#paint10_linear_1270_40457)"/>
    <path d="M4.68294 22.9991C3.64123 22.2035 2.59951 20.546 2.49537 19.2532C2.49537 19.2532 2.25232 17.3304 2.21769 15.053C2.21979 13.6465 2.30085 12.2413 2.46074 10.843C2.703 9.37911 3.49235 8.0483 4.68294 7.0971C4.68294 7.0971 6.31477 5.97007 8.32868 4.80974C9.57671 4.10408 10.8633 3.46228 12.1828 2.88709C12.8868 2.60949 13.6435 2.47405 14.405 2.48933C15.1655 2.47405 15.9214 2.60601 16.6272 2.87714C17.9469 3.45184 19.2335 4.09364 20.4813 4.7998C22.4952 5.92695 24.1271 7.08716 24.1271 7.08716C24.6128 7.45819 25.0985 8.01649 25.4927 8.63791C25.6347 8.86182 25.4223 9.12277 25.1527 9.06809L23.8813 8.81001C23.7335 8.78006 23.602 8.70215 23.5021 8.59467C23.3257 8.40505 23.1431 8.2368 22.9605 8.0985C22.9605 8.0985 21.5244 7.08592 19.7522 6.10228C18.6541 5.48609 17.5219 4.92592 16.3606 4.42429C15.7395 4.1877 15.0742 4.07251 14.405 4.08581C13.7348 4.07251 13.069 4.19068 12.4495 4.43299C11.2883 4.93499 10.1562 5.49503 9.05783 6.11098C7.28565 7.12357 5.84952 8.1072 5.84952 8.1072C4.80191 8.93737 4.10726 10.0987 3.89398 11.3763C3.75337 12.5967 3.68202 13.8231 3.68018 15.0505C3.71074 17.0382 3.92454 18.7162 3.92454 18.7162C4.01623 19.8444 4.93294 21.2909 5.84952 21.9853C6.88035 22.6959 7.95132 23.3526 9.05783 23.9526C10.1559 24.5689 11.2882 25.1289 12.4495 25.6306C13.0699 25.8703 13.735 25.9883 14.405 25.9777C15.0752 25.9911 15.741 25.8729 16.3606 25.6306C17.5218 25.1287 18.6539 24.5685 19.7522 23.9526C21.5244 22.94 22.9605 21.9853 22.9605 21.9853C23.2295 21.7721 23.4753 21.5371 23.6956 21.2839C23.7744 21.1931 23.8754 21.1214 23.9915 21.0804L25.3933 20.5853C25.6565 20.4923 25.907 20.7303 25.7853 20.9701C25.3921 21.7447 24.8294 22.438 24.1271 22.9991C24.1271 22.9991 22.4952 24.0931 20.4813 25.2533C19.2332 25.959 17.9468 26.6008 16.6272 27.176C15.9231 27.4536 15.1666 27.5891 14.405 27.5738C13.6438 27.5859 12.8877 27.4505 12.1828 27.176C10.8631 26.6012 9.57645 25.9594 8.32868 25.2533C7.07133 24.5658 5.85425 23.8133 4.68294 22.9991Z" fill="url(#paint11_linear_1270_40457)"/>
    <defs>
        <linearGradient id="paint0_linear_1270_40457" x1="15.5135" y1="9.44653" x2="15.5135" y2="20.2571" gradientUnits="userSpaceOnUse">
            <stop stop-color="#EE2F53"/>
            <stop offset="1" stop-color="#0166B3"/>
        </linearGradient>
        <linearGradient id="paint1_linear_1270_40457" x1="15.5135" y1="9.44653" x2="15.5135" y2="20.2571" gradientUnits="userSpaceOnUse">
            <stop stop-color="#EE2F53"/>
            <stop offset="1" stop-color="#0166B3"/>
        </linearGradient>
        <linearGradient id="paint2_linear_1270_40457" x1="15.5135" y1="9.44653" x2="15.5135" y2="20.2571" gradientUnits="userSpaceOnUse">
            <stop stop-color="#EE2F53"/>
            <stop offset="1" stop-color="#0166B3"/>
        </linearGradient>
        <linearGradient id="paint3_linear_1270_40457" x1="15.5135" y1="9.44653" x2="15.5135" y2="20.2571" gradientUnits="userSpaceOnUse">
            <stop stop-color="#EE2F53"/>
            <stop offset="1" stop-color="#0166B3"/>
        </linearGradient>
        <linearGradient id="paint4_linear_1270_40457" x1="15.5135" y1="9.44653" x2="15.5135" y2="20.2571" gradientUnits="userSpaceOnUse">
            <stop stop-color="#EE2F53"/>
            <stop offset="1" stop-color="#0166B3"/>
        </linearGradient>
        <linearGradient id="paint5_linear_1270_40457" x1="15.5135" y1="9.44653" x2="15.5135" y2="20.2571" gradientUnits="userSpaceOnUse">
            <stop stop-color="#EE2F53"/>
            <stop offset="1" stop-color="#0166B3"/>
        </linearGradient>
        <linearGradient id="paint6_linear_1270_40457" x1="15.5135" y1="9.44653" x2="15.5135" y2="20.2571" gradientUnits="userSpaceOnUse">
            <stop stop-color="#EE2F53"/>
            <stop offset="1" stop-color="#0166B3"/>
        </linearGradient>
        <linearGradient id="paint7_linear_1270_40457" x1="15.5135" y1="9.44653" x2="15.5135" y2="20.2571" gradientUnits="userSpaceOnUse">
            <stop stop-color="#EE2F53"/>
            <stop offset="1" stop-color="#0166B3"/>
        </linearGradient>
        <linearGradient id="paint8_linear_1270_40457" x1="15.5135" y1="9.44653" x2="15.5135" y2="20.2571" gradientUnits="userSpaceOnUse">
            <stop stop-color="#EE2F53"/>
            <stop offset="1" stop-color="#0166B3"/>
        </linearGradient>
        <linearGradient id="paint9_linear_1270_40457" x1="15.5135" y1="9.44653" x2="15.5135" y2="20.2571" gradientUnits="userSpaceOnUse">
            <stop stop-color="#EE2F53"/>
            <stop offset="1" stop-color="#0166B3"/>
        </linearGradient>
        <linearGradient id="paint10_linear_1270_40457" x1="15.5135" y1="9.44653" x2="15.5135" y2="20.2571" gradientUnits="userSpaceOnUse">
            <stop stop-color="#EE2F53"/>
            <stop offset="1" stop-color="#0166B3"/>
        </linearGradient>
        <linearGradient id="paint11_linear_1270_40457" x1="14.5534" y1="27.5749" x2="14.5534" y2="2.48809" gradientUnits="userSpaceOnUse">
            <stop stop-color="#0066B3"/>
            <stop offset="0.354167" stop-color="#0066B3"/>
            <stop offset="0.6875" stop-color="#EE2F53"/>
            <stop offset="1" stop-color="#EE2F53"/>
        </linearGradient>
    </defs>
</svg>
