<svg width="26" height="28" viewBox="0 0 26 28" fill="none" xmlns="http://www.w3.org/2000/svg">
    <path fill-rule="evenodd" clip-rule="evenodd" d="M13.2593 27.9359C14.878 27.1666 23.8781 22.527 23.8781 14.474C23.8781 8.64232 19.0129 3.91479 13.0115 3.91479C7.01013 3.91479 2.14502 8.64232 2.14502 14.474C2.14502 22.527 11.1451 27.1666 12.7637 27.9359C12.9228 28.0115 13.1003 28.0115 13.2593 27.9359ZM13.0117 18.9992C15.5837 18.9992 17.6688 16.9732 17.6688 14.4739C17.6688 11.9746 15.5837 9.94847 13.0117 9.94847C10.4397 9.94847 8.35463 11.9746 8.35463 14.4739C8.35463 16.9732 10.4397 18.9992 13.0117 18.9992Z" fill="#2F73FE"/>
    <path d="M2.34544 13.6784H23.6541C24.4852 13.6784 25.1575 13.0247 25.1575 12.2182C25.1575 11.4117 24.4848 10.7587 23.6541 10.7587H23.2446C23.2446 6.87984 20.9585 3.52259 17.625 1.87982L16.7762 6.55618C16.7091 6.92667 16.3774 7.18678 16.0034 7.18678C15.9579 7.18678 15.9121 7.18333 15.8663 7.17539C15.4387 7.10123 15.1539 6.70624 15.2295 6.29051L16.1983 0.949431C15.8357 0.384035 15.1904 0.00732422 14.4532 0.00732422H11.5458C10.8093 0.00732422 10.1647 0.384026 9.80066 0.949431L10.7702 6.29051C10.8455 6.70551 10.5603 7.10118 10.1334 7.17539C10.0876 7.18333 10.0418 7.18678 9.99634 7.18678C9.62201 7.18678 9.2903 6.92667 9.22282 6.55618L8.37472 1.88115C5.04091 3.52215 2.75511 6.8794 2.75511 10.7591H2.34527C1.51492 10.7591 0.842651 11.4125 0.842651 12.2186C0.842651 13.0245 1.51531 13.6781 2.34563 13.6781L2.34544 13.6784Z" fill="#009FFF"/>
</svg>
