<svg width="28" height="30" viewBox="0 0 28 30" fill="none" xmlns="http://www.w3.org/2000/svg">
    <path fill-rule="evenodd" clip-rule="evenodd" d="M15.2259 15.0759C15.5102 15.0759 15.7589 15.3225 15.7589 15.6043C15.7589 15.7804 15.6523 15.9565 15.5102 16.0269V17.2598L14.6218 18.1404V19.8311C14.6218 19.972 14.4797 20.1129 14.3375 20.1129C14.1954 20.1129 14.0532 19.972 14.0532 19.8311V17.9995C14.0532 17.9642 14.0532 17.9642 14.0532 17.929C14.0532 17.929 14.0532 17.929 14.0888 17.8938L14.8705 17.1189V16.0974C14.7284 15.9917 14.6218 15.8508 14.6218 15.6747C14.6929 15.2872 14.9416 15.0759 15.2259 15.0759ZM12.3831 0C11.1038 0.457912 9.86009 1.12717 8.86512 2.00777C7.76352 2.95883 6.87516 4.15643 6.30658 5.49495C5.95124 6.34032 5.7025 7.22093 5.5959 8.13676C5.34713 10.6377 6.34213 12.8216 8.26102 14.4418C8.54531 14.6884 8.8296 14.935 9.07833 15.1816C9.25602 15.3929 9.43367 15.569 9.54028 15.8508C9.54028 15.8508 9.54028 15.886 9.57583 15.886C9.46923 16.0269 9.36262 16.1678 9.25602 16.2735C9.25602 16.1678 9.22046 16.0622 9.18494 15.9917C9.11386 15.7804 8.97173 15.6395 8.8296 15.4633C8.58083 15.2168 8.29654 14.9702 8.01228 14.7589C5.98676 13.0329 4.95627 10.7433 5.205 8.10152C5.31161 7.15048 5.56034 6.23465 5.91571 5.35406C6.83963 3.27585 8.11889 1.83165 10.1089 0.739703C7.44371 1.58508 3.2861 4.19165 2.5754 7.85496C2.53987 7.78451 2.43326 7.60838 2.36219 7.46749C1.33167 9.75705 0.834181 13.3851 2.00684 15.252C1.82916 15.1816 1.68702 15.1111 1.61595 15.0054C1.90024 16.3792 2.39773 18.7744 4.45877 18.7392C3.96127 18.8449 3.42825 18.8449 3.07289 18.7744C3.57039 19.655 4.38769 20.8879 5.5959 20.8174C5.41821 20.9583 5.02732 21.064 4.81411 21.0992C5.205 21.5219 5.91571 22.3673 7.05284 22.2264C6.91068 22.3673 6.66195 22.4377 6.34213 22.4729C6.87516 22.8956 7.44371 23.2478 8.04781 23.5649C8.11889 23.741 8.22549 23.9523 8.29654 24.1285C7.3371 23.6705 6.41318 23.0717 5.5959 22.3673C5.7025 22.3673 5.77355 22.3673 5.84463 22.332C4.95627 22.015 4.52982 21.381 4.13896 20.9231C4.24556 20.9231 4.31661 20.9231 4.38769 20.8879C3.46378 20.4299 2.82415 19.1971 2.39773 18.4222C2.50433 18.4574 2.68201 18.4574 2.75308 18.4222C1.65149 17.4007 1.29614 15.7099 1.08293 14.3362C1.154 14.3714 1.18953 14.4066 1.22507 14.4066C0.763111 12.3989 0.834181 9.72184 2.32666 6.76301C2.36219 6.83346 2.39773 6.86868 2.4688 6.90392C3.89019 2.99405 8.08333 0.35224 12.3831 0ZM17.9266 27.9679C17.7134 28.1088 17.5001 28.2497 17.4291 28.5314C17.1093 28.7076 16.8605 28.8133 16.3986 28.8837C16.8605 28.9542 17.2869 28.9189 17.7489 28.8132C17.7134 28.4962 17.7844 28.1792 17.9266 27.9679ZM18.9571 26.6998C18.9571 26.8407 18.9571 27.0168 18.9571 27.1225C18.815 27.2282 18.5307 27.3338 18.2819 27.3691C18.7439 27.4395 19.1703 27.4043 19.5612 27.2282C19.3125 27.1225 19.1348 26.9816 18.9571 26.6998ZM18.0332 27.7213C18.7439 27.9327 19.5612 27.9327 20.343 27.3338C19.6678 26.9464 19.0992 26.418 18.7439 25.7488L19.0637 25.467C19.4546 26.2771 20.1653 26.8759 21.0537 27.2282C20.4851 27.9327 19.5612 28.3201 18.7794 28.2497C18.4951 28.5667 18.3885 29.1654 18.6728 29.5531C17.2159 29.7292 16.363 29.9757 15.368 29.2007L15.4391 28.7428C15.7945 28.9894 16.0432 29.2007 16.4696 29.2711C16.7539 29.3063 17.0737 29.3063 17.358 29.2711C17.6067 29.2359 17.82 29.2007 18.0687 29.2007C18.0332 28.8132 18.1042 28.3906 18.353 28.1088C18.2464 27.9679 18.1042 27.8974 18.0332 27.7213ZM10.0733 27.9679C10.2865 28.1088 10.4997 28.2497 10.5708 28.5314C10.8906 28.7076 11.1394 28.8133 11.6013 28.8837C11.1394 28.9542 10.713 28.9189 10.251 28.8132C10.251 28.4962 10.1799 28.1792 10.0733 27.9679ZM9.00725 26.6998C9.00725 26.8407 9.00725 27.0168 9.00725 27.1225C9.14941 27.2282 9.43367 27.3338 9.68244 27.3691C9.22046 27.4395 8.79404 27.4043 8.40315 27.2282C8.68744 27.1225 8.8296 26.9816 9.00725 26.6998ZM9.93117 27.7213C9.22046 27.9327 8.40315 27.9327 7.62139 27.3338C8.29654 26.9464 8.86512 26.418 9.22046 25.7488L8.90065 25.467C8.50975 26.2771 7.79907 26.8759 6.91068 27.2282C7.47926 27.9327 8.40315 28.3201 9.18494 28.2497C9.46923 28.5667 9.57583 29.1654 9.29154 29.5531C10.7485 29.7292 11.6013 29.9757 12.5963 29.2007L12.5252 28.7428C12.1699 28.9894 11.9211 29.2007 11.4947 29.2711C11.2104 29.3063 10.8906 29.3063 10.6064 29.2711C10.3576 29.2359 10.1444 29.2007 9.89565 29.2007C9.93117 28.8132 9.86009 28.3906 9.61136 28.1088C9.75349 27.9679 9.86009 27.8974 9.93117 27.7213ZM18.3885 15.886C18.4951 16.0269 18.6017 16.1678 18.7083 16.2735C18.7083 16.1678 18.7439 16.0622 18.7794 15.9917C18.8505 15.7804 18.9926 15.6395 19.1348 15.4633C19.3835 15.2168 19.6678 14.9702 19.9521 14.7589C21.9776 13.0329 23.0081 10.7433 22.7594 8.10152C22.6528 7.15048 22.404 6.23465 22.0487 5.35406C21.1247 3.2406 19.8455 1.79642 17.8555 0.704481C20.5206 1.54986 24.7138 4.15643 25.4245 7.81972C25.46 7.74929 25.5666 7.57316 25.6377 7.43228C26.6682 9.72184 27.1302 13.3851 25.9931 15.2168C26.1707 15.1463 26.3129 15.0759 26.3839 14.9702C26.0997 16.344 25.6022 18.7392 23.5411 18.704C24.0386 18.8096 24.5716 18.8096 24.927 18.7392C24.4295 19.6198 23.6122 20.8526 22.404 20.7822C22.5817 20.9231 22.9726 21.0287 23.1858 21.064C22.7949 21.4866 22.0842 22.332 20.947 22.1911C21.0892 22.332 21.3379 22.4025 21.6578 22.4377C21.1247 22.8604 20.5562 23.2126 19.9521 23.5296C19.881 23.7058 19.7744 23.9171 19.7033 24.0932C20.6628 23.6353 21.5867 23.0365 22.404 22.332C22.2974 22.332 22.2263 22.332 22.1553 22.2968C23.0436 21.9798 23.4701 21.3458 23.8609 20.8879C23.7543 20.8879 23.6833 20.8879 23.6122 20.8526C24.5361 20.3947 25.1757 19.1619 25.6022 18.3869C25.4956 18.4222 25.3179 18.4222 25.2468 18.3869C26.3484 17.3655 26.7038 15.6747 26.917 14.301C26.8459 14.3362 26.8103 14.3714 26.7748 14.3714C27.2368 12.3636 27.1657 9.68662 25.6732 6.72779C25.6377 6.79825 25.6022 6.83346 25.5311 6.86868C24.1097 2.99405 19.9166 0.35224 15.5813 0C16.8605 0.457912 18.1042 1.12717 19.0992 2.00777C20.2008 2.95883 21.0892 4.15643 21.6578 5.49495C22.0131 6.34032 22.2619 7.22093 22.3685 8.13676C22.6172 10.6377 21.6222 12.8216 19.7033 14.4418C19.4191 14.6884 19.1348 14.935 18.886 15.1816C18.7083 15.3929 18.5307 15.569 18.4241 15.8508C18.4241 15.8508 18.4241 15.8508 18.3885 15.886ZM13.5202 12.9624C13.0938 12.8216 12.9517 12.3989 13.1293 11.9409C13.1293 12.258 13.2359 12.5045 13.4847 12.6102C13.7334 12.4341 13.8045 12.1875 13.7334 11.8705C13.9822 12.3284 13.9111 12.7863 13.5202 12.9624ZM16.6118 10.9899C16.3986 10.8842 16.1854 10.849 15.9721 10.849C15.8655 10.849 15.7589 10.7786 15.7945 10.5672C15.5813 11.0604 15.5102 11.3421 14.8705 11.2012C14.5152 11.1308 14.3375 11.4126 14.4086 11.7296C14.4441 11.9057 14.5152 12.1875 14.3375 12.3636C14.2665 12.0819 14.0888 11.9409 13.9111 11.8353C14.2309 12.2932 14.0888 12.575 14.0177 12.7159C14.7639 12.575 14.7639 13.1738 14.6573 13.4556C14.835 13.4556 15.0127 13.4908 15.1548 13.4908C14.9772 12.892 14.835 12.2932 14.7639 11.6592C14.7639 11.5535 14.7639 11.5183 14.835 11.5535C15.2614 11.6239 15.6523 11.5535 15.9011 11.2012C16.3275 11.166 16.6473 11.3069 16.9671 11.5183C17.0382 10.849 17.0737 10.215 16.2564 9.96839C16.1498 9.58092 15.83 9.44004 15.4391 9.47525C14.9061 8.66512 13.0227 9.51049 12.2765 8.98214C12.0277 8.80601 11.9567 8.48899 11.9211 8.20719C11.6724 8.45378 11.4592 8.62988 11.3526 8.98214C11.1749 9.47525 11.2815 10.0741 11.6013 10.4968C11.8145 10.7786 12.1343 10.9899 12.4542 11.0604C12.4186 11.0956 12.3831 11.1308 12.3831 11.166C11.9567 11.8353 12.0277 12.8216 12.0277 13.5965C12.1343 13.5613 12.2765 13.5613 12.3831 13.526C12.2765 13.1738 12.3831 12.7511 12.9161 12.7159C12.8451 12.575 12.7384 12.2932 13.0227 11.8353C12.8451 11.9057 12.6674 12.0819 12.5963 12.3636C12.4542 12.1523 12.4542 11.9409 12.5252 11.7648C12.5608 11.6592 12.5963 11.5887 12.6318 11.5183V11.483C12.9872 10.7786 14.2665 11.2365 14.6218 10.1445C14.5152 10.2854 14.3731 10.3911 14.2309 10.4615C14.0177 10.5672 13.84 10.1445 13.5558 10.1445C13.6624 10.215 13.6979 10.3559 13.6979 10.4968C13.6624 10.6377 13.5913 10.6729 13.4847 10.5672C13.3781 10.4615 13.307 10.2502 13.0938 10.215C13.2004 10.3207 13.2004 10.4615 13.1649 10.5672C13.1293 10.7081 13.0227 10.7786 12.9161 10.6377C12.8451 10.5672 12.8095 10.4263 12.7029 10.3559C12.7385 10.532 12.5608 10.7081 12.3476 10.6024C12.0277 10.4615 11.8145 10.2502 11.6724 9.93318C11.5658 9.61616 11.5658 9.26391 11.7079 8.98214C11.7079 8.98214 11.7079 8.98214 11.7079 8.94689C12.3831 10.1797 14.7995 8.98214 15.1193 9.75705L15.1548 9.89796H15.297C15.5457 9.86272 15.83 9.86272 15.8655 10.1797V10.3207L15.9721 10.3559C16.4341 10.3911 16.6118 10.6377 16.6118 10.9899ZM12.7384 13.4908C12.8095 13.3499 12.9161 13.2795 12.9872 13.209C12.9517 13.3147 12.9161 13.3851 12.8806 13.4908C12.8451 13.4908 12.8095 13.4908 12.7384 13.4908ZM14.2309 13.4556C14.1954 13.3499 14.0888 13.209 13.9822 13.0681C14.1598 13.1033 14.3375 13.209 14.4797 13.4556C14.4086 13.4556 14.302 13.4556 14.2309 13.4556ZM13.1293 13.4556C13.1293 13.3851 13.1649 13.3147 13.1649 13.2442C13.1649 13.3147 13.1649 13.3851 13.2004 13.4204L13.1293 13.4556ZM13.8756 13.4556C13.8756 13.3851 13.84 13.2795 13.84 13.1738C13.9111 13.2795 13.9466 13.3499 13.9822 13.4556H13.8756ZM4.84964 9.44004C4.77859 11.7296 5.73803 13.6669 7.76352 15.5338C8.18994 15.9917 8.22549 16.4848 8.36762 16.9428C8.4387 16.9075 8.50975 16.8723 8.58083 16.8019C8.54531 16.5905 8.54531 16.4144 8.50975 16.2735C8.61639 16.344 8.68744 16.4848 8.75852 16.6962C8.8296 16.661 8.86512 16.5905 8.9362 16.5553C8.9362 16.4848 8.90065 16.4144 8.90065 16.344C8.90065 16.2735 8.86512 16.1678 8.8296 16.0974C8.68744 15.7451 8.04781 15.252 7.76352 15.0054C6.05784 13.526 4.9918 11.6239 4.84964 9.44004ZM4.95627 12.892C2.50433 10.7433 3.10843 6.93913 4.9918 5.38928C4.77859 6.26989 4.74303 7.15048 4.84964 8.06631C4.95627 7.08002 5.205 6.12898 5.5959 5.21315C6.05784 4.15643 6.73303 3.09972 7.58586 2.18389C5.73803 3.34627 3.85467 5.10748 3.14396 7.11526C2.53987 8.91168 2.82415 11.5887 4.95627 12.892ZM2.25559 8.98214C1.22507 12.3284 1.54488 16.4144 4.77859 15.5338C2.78861 15.6043 2.07791 14.3714 2.25559 11.6592C2.75308 12.8568 3.81914 13.4908 4.81411 13.8078C3.25057 12.7159 2.32666 11.5183 2.25559 8.98214ZM2.22005 15.9917C2.71754 18.4926 4.35217 18.5983 5.31161 17.6825C4.17448 18.2813 3.39271 17.7529 3.03736 16.9075C3.96127 16.978 4.42322 16.7314 4.88519 16.344C4.06788 16.5905 3.21504 16.6258 2.22005 15.9917ZM3.7836 19.3028C4.95627 21.0992 6.16445 20.2186 6.48426 19.5846C5.95124 20.0425 5.16948 20.1129 4.77859 19.6198C5.27608 19.4084 5.63142 19.021 5.80911 18.6335C5.205 19.0914 4.52982 19.3028 3.7836 19.3028ZM6.91068 20.0425C6.59087 20.6765 6.09337 21.0992 5.45374 21.2753C6.05784 21.9446 7.01729 22.0502 7.40818 21.5219C7.40818 21.4162 7.37266 21.3458 7.37266 21.2401C7.12389 21.5219 6.733 21.6276 6.34213 21.3458C6.66195 20.9583 6.83963 20.5356 6.91068 20.0425ZM7.72799 22.7547C7.69247 22.6138 7.65691 22.4729 7.62139 22.3673C7.47926 22.5434 7.3371 22.6138 7.12389 22.6491C7.40818 22.8252 7.62139 22.8604 7.72799 22.7547ZM5.13393 13.6317C4.70751 15.886 5.84463 15.6395 6.51979 15.569C5.88016 15.4633 5.34713 15.2168 5.38269 14.5475C5.7025 14.7589 6.16445 14.8293 6.51979 14.8293C5.7025 14.4771 5.31161 13.8431 5.13393 13.6317ZM5.16948 15.886C5.13393 17.8938 6.37766 17.4007 6.80408 16.978C6.19997 17.1893 5.7025 17.0837 5.66695 16.5201C6.16445 16.5553 6.48426 16.344 6.69747 16.1326C5.77355 16.3792 5.38269 16.0622 5.16948 15.886ZM5.63142 17.8938C6.19997 19.3028 6.83963 18.9153 7.19497 18.4222C7.19497 18.3517 7.19497 18.3165 7.19497 18.246C6.80408 18.5631 6.44874 18.5983 6.30658 18.2813C6.76855 18.0699 6.94624 17.7177 7.01729 17.4359C6.37766 18.0347 5.88016 17.929 5.63142 17.8938ZM6.51979 19.3028C6.80408 19.7254 7.05284 19.9368 7.2305 20.0425C7.19497 19.7607 7.19497 19.4437 7.19497 19.1619C6.91068 19.338 6.66195 19.3028 6.51979 19.3028ZM6.80408 15.5338C6.83963 17.0132 7.55031 16.7314 7.9412 16.5553C7.55031 16.5905 7.15945 16.5201 7.15945 16.0622C7.40818 16.1326 7.62139 16.0974 7.8346 16.0622C7.26605 15.9917 6.91068 15.6395 6.80408 15.5338ZM7.05284 16.978C7.12389 17.2245 7.19497 17.4007 7.26605 17.5416V17.4359L7.44371 17.3655C7.44371 17.3302 7.44371 17.3302 7.40818 17.295C7.72799 17.2245 7.87012 17.0484 7.97673 16.8723C7.47926 17.1893 7.19497 17.0484 7.05284 16.978ZM4.28109 7.18569C3.67699 8.31286 3.57039 10.5672 4.92072 12.1523C4.6009 11.7296 4.13896 10.2502 4.31661 9.05256C4.13896 8.52421 4.1034 7.85496 4.28109 7.18569ZM2.78861 13.4556C3.00182 14.4418 3.53485 15.0407 4.4943 15.0759C4.1034 14.8998 3.7836 14.7236 3.60592 14.4418C3.85467 14.4771 4.13896 14.4771 4.42322 14.3714C3.74806 14.2657 3.21504 13.9135 2.78861 13.4556ZM4.1034 17.3302C4.35217 17.5416 4.67198 17.5768 4.9918 17.4359C4.88519 17.4359 4.77859 17.4007 4.70751 17.3302C4.77859 17.2598 4.81411 17.1541 4.81411 17.0837C4.63643 17.2598 4.35217 17.3302 4.1034 17.3302ZM5.45374 19.5493C5.7025 19.5846 5.98676 19.6198 6.19997 19.3732C6.09337 19.4084 6.02232 19.4084 5.95124 19.3732C5.98676 19.2675 5.98676 19.1619 5.95124 19.0562C5.88016 19.2675 5.7025 19.4437 5.45374 19.5493ZM6.83963 21.0992C7.01729 21.064 7.19497 20.9935 7.30158 20.8526C7.30158 20.8174 7.30158 20.7822 7.30158 20.7117C7.26605 20.7117 7.2305 20.7469 7.19497 20.7117C7.19497 20.6413 7.12389 20.5004 7.05284 20.4299C7.08837 20.6765 6.98176 20.9231 6.83963 21.0992ZM23.1503 9.44004C23.2213 11.7296 22.2619 13.6669 20.2364 15.5338C19.81 15.9917 19.7744 16.4848 19.6323 16.9428C19.5612 16.9075 19.4901 16.8723 19.4191 16.8019C19.4546 16.5905 19.4546 16.4144 19.4901 16.2735C19.3835 16.344 19.3125 16.4848 19.2414 16.6962C19.1703 16.661 19.1348 16.5905 19.0637 16.5553C19.0637 16.4848 19.0992 16.4144 19.0992 16.344C19.0992 16.2735 19.1348 16.1678 19.1703 16.0974C19.3125 15.7451 19.9521 15.252 20.2364 15.0054C21.942 13.526 22.9726 11.6239 23.1503 9.44004ZM23.0081 12.892C25.46 10.7081 24.8559 6.93913 22.9726 5.35406C23.1858 6.23465 23.2213 7.11526 23.1147 8.03109C23.0081 7.04481 22.7594 6.09376 22.3685 5.17793C21.9065 4.12122 21.2313 3.0645 20.3785 2.14866C22.2263 3.31106 24.1097 5.07226 24.8204 7.08002C25.46 8.91168 25.1757 11.5887 23.0081 12.892ZM25.7088 8.98214C26.7393 12.3284 26.4195 16.4144 23.1858 15.5338C25.1757 15.6043 25.8865 14.3714 25.7088 11.6592C25.2113 12.8568 24.1452 13.4908 23.1503 13.8078C24.7138 12.7159 25.6377 11.5183 25.7088 8.98214ZM25.7443 15.9917C25.2468 18.4926 23.6122 18.5983 22.6528 17.6825C23.7899 18.2813 24.5716 17.7529 24.927 16.9075C24.0031 16.978 23.5411 16.7314 23.0792 16.344C23.932 16.5905 24.7849 16.6258 25.7443 15.9917ZM24.1807 19.3028C23.0081 21.0992 21.7999 20.2186 21.4801 19.5846C22.0131 20.0425 22.7949 20.1129 23.1858 19.6198C22.6883 19.4084 22.3329 19.021 22.1553 18.6335C22.7949 19.0914 23.4701 19.3028 24.1807 19.3028ZM21.0892 20.0425C21.409 20.6765 21.9065 21.0992 22.5462 21.2753C21.942 21.9446 20.9826 22.0502 20.5917 21.5219C20.5917 21.4162 20.6272 21.3458 20.6272 21.2401C20.876 21.5219 21.2669 21.6276 21.6578 21.3458C21.3379 20.9583 21.1603 20.5356 21.0892 20.0425ZM20.2719 22.7547C20.3074 22.6138 20.343 22.4729 20.3785 22.3673C20.5206 22.5434 20.6628 22.6138 20.876 22.6491C20.5562 22.8252 20.3785 22.8604 20.2719 22.7547ZM22.8304 13.6317C23.2568 15.886 22.1197 15.6395 21.4445 15.569C22.0842 15.4633 22.6172 15.2168 22.5817 14.5475C22.2974 14.7589 21.7999 14.7941 21.4801 14.7941C22.2974 14.4771 22.6528 13.8431 22.8304 13.6317ZM22.7949 15.886C22.8304 17.8938 21.5867 17.4007 21.1603 16.978C21.7644 17.1893 22.2619 17.0837 22.2974 16.5201C21.7999 16.5553 21.4801 16.344 21.2669 16.1326C22.1908 16.3792 22.6172 16.0622 22.7949 15.886ZM22.3329 17.8938C21.7644 19.3028 21.1247 18.9153 20.7694 18.4222C20.7694 18.3517 20.7694 18.3165 20.7694 18.246C21.1603 18.5631 21.5156 18.5983 21.6578 18.2813C21.1958 18.0699 21.0181 17.7177 20.947 17.4359C21.5867 18.0347 22.0842 17.929 22.3329 17.8938ZM21.4801 19.3028C21.1958 19.7254 20.947 19.9368 20.7694 20.0425C20.8049 19.7607 20.8049 19.4437 20.8049 19.1619C21.0537 19.338 21.3024 19.3028 21.4801 19.3028ZM21.1958 15.5338C21.1603 17.0132 20.4496 16.7314 20.0587 16.5553C20.4496 16.5905 20.8404 16.5201 20.8404 16.0622C20.5917 16.1326 20.3785 16.0974 20.1653 16.0622C20.7338 15.9917 21.0537 15.6395 21.1958 15.5338ZM20.947 16.978C20.876 17.2245 20.8049 17.4007 20.7338 17.5416V17.4359L20.5206 17.3655C20.5206 17.3302 20.5206 17.3302 20.5562 17.295C20.2364 17.2245 20.0942 17.0484 19.9876 16.8723C20.4851 17.1893 20.8049 17.0484 20.947 16.978ZM23.6833 7.18569C24.2874 8.31286 24.394 10.5672 23.0436 12.1523C23.3634 11.7296 23.8254 10.2502 23.6477 9.05256C23.8254 8.52421 23.8965 7.85496 23.6833 7.18569ZM25.1757 13.4556C24.9625 14.4418 24.4295 15.0407 23.4701 15.0759C23.8609 14.8998 24.1807 14.7236 24.3584 14.4418C24.1097 14.4771 23.8254 14.4771 23.5411 14.3714C24.2518 14.2657 24.7849 13.9135 25.1757 13.4556ZM23.8965 17.3302C23.6477 17.5416 23.3279 17.5768 23.0081 17.4359C23.1147 17.4359 23.2213 17.4007 23.2924 17.3302C23.2213 17.2598 23.1858 17.1541 23.1858 17.0837C23.3634 17.2598 23.6122 17.3302 23.8965 17.3302ZM22.5462 19.5493C22.2974 19.5846 22.0131 19.6198 21.7999 19.3732C21.9065 19.4084 21.9776 19.4084 22.0487 19.3732C22.0131 19.2675 22.0131 19.1619 22.0487 19.0562C22.0842 19.2675 22.2974 19.4437 22.5462 19.5493ZM21.1603 21.0992C20.9826 21.064 20.8049 20.9935 20.6983 20.8526C20.6983 20.8174 20.6983 20.7822 20.6983 20.7117C20.7338 20.7117 20.7694 20.7469 20.8049 20.7117C20.8049 20.6413 20.876 20.5004 20.947 20.4299C20.9115 20.6765 20.9826 20.9231 21.1603 21.0992ZM14.0177 9.68662C14.5152 9.93318 14.8705 9.72184 15.1548 9.86272C15.368 9.96839 15.4746 10.3911 15.1904 10.4615C15.1904 10.2502 15.0127 10.2854 14.9061 10.2854C14.7995 10.2854 14.6929 10.1797 14.6929 10.0741C14.6929 10.0389 14.6929 10.0036 14.7284 9.96839C14.4797 9.96839 14.1954 9.93318 14.0177 9.68662ZM11.9922 9.58092C11.9567 9.93318 12.0988 10.215 12.4186 10.3911C12.3476 10.2502 12.312 10.1093 12.2765 9.93318C12.8095 10.0036 13.3781 9.89796 13.84 9.68662C13.1293 9.86272 12.5252 9.79229 11.9922 9.58092ZM18.1042 22.2968C18.3885 22.4377 18.6728 22.4377 18.9571 22.3673C19.2414 22.2968 19.4901 22.1559 19.6678 21.9093C19.9166 21.6276 19.9876 21.2753 19.9521 20.9583C19.9166 20.7117 19.81 20.4299 19.6323 20.2186C19.7033 20.0777 19.7389 19.9368 19.7744 19.7607C19.81 19.4789 19.81 19.1971 19.7033 18.9505C19.5967 18.704 19.4546 18.4926 19.2414 18.2813C19.0282 18.1052 18.7439 17.9995 18.4951 17.929C18.2108 17.8938 17.9266 17.929 17.6778 17.9995C17.5001 18.0699 17.3225 18.1756 17.1803 18.2813C16.9316 18.1404 16.6829 18.1052 16.4341 18.1404C16.1143 18.1756 15.7589 18.3165 15.5457 18.5983C15.368 18.8096 15.2614 19.0914 15.2259 19.3732C15.2259 19.655 15.297 19.9368 15.4747 20.1834C15.5457 20.3243 15.7234 20.3243 15.8655 20.2538C16.0077 20.1834 16.0077 20.0072 15.9366 19.8664C15.83 19.7254 15.7945 19.5493 15.7945 19.4084C15.7945 19.2323 15.8655 19.0914 15.9721 18.9505C16.1143 18.7744 16.292 18.704 16.5052 18.6687C16.6118 18.6687 16.7539 18.6687 16.8605 18.704C16.7895 18.8449 16.7184 19.021 16.6829 19.1619C16.6473 19.3028 16.7539 19.4437 16.8961 19.4789C17.0382 19.5141 17.1803 19.4084 17.2159 19.2675C17.2514 19.0914 17.3225 18.9153 17.4291 18.8096C17.5357 18.6687 17.7134 18.5631 17.8555 18.4926C18.0332 18.4222 18.2108 18.4222 18.3885 18.4574C18.5662 18.4926 18.7083 18.5631 18.8505 18.6687C18.9926 18.7744 19.0992 18.9505 19.1703 19.0914C19.2414 19.2675 19.2414 19.4437 19.2058 19.6198C19.1703 19.7959 19.0992 19.972 18.9926 20.1129C18.886 20.2538 18.7439 20.3595 18.5662 20.3947C18.4241 20.4299 18.353 20.6061 18.3885 20.7469C18.4241 20.8879 18.6017 20.9583 18.7439 20.9231C18.9571 20.8526 19.0992 20.7469 19.2414 20.6061C19.3125 20.7117 19.348 20.8174 19.348 20.9231C19.3835 21.1344 19.3125 21.3105 19.1703 21.4866C19.0637 21.6276 18.9216 21.698 18.7439 21.7332C18.5662 21.7684 18.4241 21.7684 18.2464 21.698C18.1042 21.6276 17.9266 21.698 17.891 21.8389C17.891 22.0855 17.9621 22.2616 18.1042 22.2968ZM17.82 22.8604C17.82 22.9661 17.82 23.0365 17.82 23.1422V23.2478L17.0027 23.6001L16.9671 23.7058C16.9316 23.8114 16.8961 23.9171 16.8605 24.0228C16.825 24.1285 16.7539 24.2341 16.7184 24.3398L16.6473 24.4455L16.9671 25.2556C16.8961 25.3613 16.7895 25.467 16.7184 25.5374C16.6118 25.6431 16.5407 25.7135 16.4341 25.784L15.6168 25.467L15.5102 25.5374C15.4036 25.5726 15.297 25.6431 15.1904 25.6783C15.0838 25.7135 14.9772 25.7488 14.8705 25.784L14.7284 25.8192L14.3731 26.6294H14.2665C14.1954 26.6294 14.0888 26.6294 13.9822 26.6294C13.8756 26.6294 13.8045 26.6294 13.6979 26.6294H13.5913L13.2359 25.8192L13.0938 25.784C12.9872 25.7488 12.8806 25.7135 12.774 25.6783C12.6674 25.6431 12.5608 25.5726 12.4542 25.5374L12.3476 25.467L11.5302 25.784C11.4236 25.7135 11.317 25.6079 11.246 25.5374C11.1394 25.4318 11.0683 25.3613 10.9972 25.2556L11.317 24.4455L11.2815 24.375C11.246 24.2693 11.1749 24.1637 11.1394 24.058C11.1038 23.9523 11.0683 23.8467 11.0328 23.741L10.9972 23.6001L10.1799 23.2478V23.1422C10.1799 23.0717 10.1799 22.9661 10.1799 22.8604C10.1799 22.7195 10.0378 22.5786 9.89565 22.5786C9.75349 22.5786 9.61136 22.7195 9.61136 22.8604C9.61136 22.9661 9.61136 23.0717 9.61136 23.1774C9.61136 23.2831 9.64688 23.3888 9.64688 23.4944L9.68244 23.6353L10.5353 24.0228C10.5708 24.0932 10.6064 24.1989 10.6419 24.2693C10.6774 24.3398 10.713 24.4455 10.7485 24.5159L10.3931 25.3613L10.4997 25.5022C10.6419 25.6783 10.7485 25.8192 10.9262 25.9601C11.0683 26.101 11.246 26.2419 11.3881 26.3828L11.4947 26.4885L12.3831 26.1362C12.4542 26.1715 12.5608 26.2067 12.6318 26.2419C12.7029 26.2771 12.8095 26.3123 12.8806 26.3476L13.2359 27.1929L13.3781 27.2282C13.4847 27.2282 13.5913 27.2634 13.6979 27.2634C13.8045 27.2634 13.9111 27.2634 14.0177 27.2634C14.1243 27.2634 14.2309 27.2634 14.3375 27.2634C14.4441 27.2634 14.5507 27.2282 14.6573 27.2282L14.7995 27.1929L15.1904 26.3476C15.2614 26.3123 15.368 26.2771 15.4391 26.2419C15.5102 26.2067 15.6168 26.1715 15.6879 26.1362L16.5407 26.4885L16.6829 26.3828C16.8605 26.2419 17.0027 26.1362 17.1448 25.9601C17.2869 25.8192 17.4291 25.6431 17.5712 25.5022L17.6778 25.3965L17.3225 24.5159C17.358 24.4455 17.3935 24.3398 17.4291 24.2693C17.4646 24.1989 17.5001 24.0932 17.5357 24.0228L18.3885 23.6705L18.4241 23.5296C18.4241 23.424 18.4596 23.3183 18.4596 23.2126C18.4596 23.107 18.4596 23.0013 18.4596 22.8956C18.4596 22.7547 18.3175 22.6138 18.1753 22.6138C17.9621 22.6138 17.82 22.7195 17.82 22.8604ZM10.1444 20.0072C10.6064 18.4574 9.46923 18.5631 9.11386 17.8586C9.43367 18.5983 8.61636 19.3732 10.1444 20.0072ZM17.2159 20.3947C17.1093 20.5356 17.0027 20.6765 16.9316 20.7822C16.8961 20.8526 16.825 20.9231 16.7895 20.9583C16.6829 20.8879 16.6118 20.8526 16.5052 20.7822C16.3275 20.7117 16.1143 20.6413 15.9011 20.6061C15.7589 20.5708 15.6168 20.6765 15.5813 20.8174C15.5457 20.9583 15.6523 21.0992 15.7945 21.1344C15.9366 21.1696 16.1143 21.2049 16.2564 21.2753C16.3275 21.3105 16.363 21.3458 16.4341 21.381C15.9366 21.9446 15.368 22.4729 14.7284 22.9308C14.4797 23.1422 14.1954 23.3183 13.9111 23.4944C13.84 23.4592 13.769 23.3888 13.6979 23.3535C13.5558 23.2831 13.4136 23.2831 13.307 23.424C13.2359 23.5649 13.2359 23.7058 13.3781 23.8114C13.0938 23.9876 12.774 24.1285 12.4542 24.2693C12.312 24.3398 12.241 24.4807 12.312 24.6216C12.3831 24.7625 12.5252 24.8329 12.6674 24.7625C13.0938 24.5864 13.4847 24.375 13.8756 24.1637C14.0177 24.2341 14.1598 24.3398 14.302 24.4103C14.6218 24.5864 14.9416 24.7625 15.297 24.9034C15.4391 24.9738 15.6168 24.9034 15.6523 24.7625C15.7234 24.6216 15.6523 24.4455 15.5102 24.4103C15.1904 24.2693 14.8705 24.1285 14.5507 23.9523C14.5152 23.9171 14.4441 23.8819 14.4086 23.8819C14.6218 23.741 14.835 23.6001 15.0482 23.4592C15.6879 22.9661 16.292 22.4025 16.825 21.8037C16.8605 21.8389 16.8961 21.9093 16.9671 21.9446C17.0737 22.0855 17.1448 22.2264 17.1803 22.3673C17.2159 22.5081 17.3935 22.5786 17.5357 22.5434C17.6778 22.5081 17.7489 22.332 17.7134 22.1911C17.6423 22.015 17.5357 21.8037 17.4291 21.6628C17.358 21.5571 17.2869 21.4866 17.2159 21.381C17.2869 21.3105 17.3225 21.2401 17.3935 21.1696C17.5001 21.0287 17.6067 20.8879 17.7134 20.7469C17.7844 20.6061 17.7844 20.4652 17.6423 20.3595C17.5001 20.2538 17.3225 20.2538 17.2159 20.3947ZM13.3426 21.6628C14.0177 22.6843 13.2004 22.7899 13.1293 23.3535C12.6674 22.3673 13.2715 22.2264 13.3426 21.6628ZM10.9617 23.1422C12.0277 24.1285 12.312 23.2126 12.9872 23.2478C11.9567 22.5081 11.6368 23.1774 10.9617 23.1422ZM10.0378 22.0855C10.9972 23.3535 11.4592 22.4377 12.1699 22.6138C11.2104 21.5923 10.7485 22.2616 10.0378 22.0855ZM12.0277 20.3243C11.9922 20.9583 11.317 21.1696 11.9211 22.2616C11.9567 21.6276 12.8806 21.4514 12.0277 20.3243ZM11.5302 19.4084C11.4592 20.0777 10.713 20.2538 11.2815 21.4514C11.3881 20.7822 12.3476 20.6765 11.5302 19.4084ZM9.32707 21.064C10.1444 22.4377 10.713 21.5571 11.4236 21.8037C10.5353 20.7117 10.0023 21.3105 9.32707 21.064ZM8.72299 19.9368C9.32707 21.4162 10.0378 20.6413 10.6774 20.9583C10.0022 19.7607 9.36262 20.289 8.72299 19.9368ZM10.784 18.5631C10.7485 19.3028 10.0023 19.5493 10.713 20.7469C10.713 20.0072 11.7435 19.8311 10.784 18.5631ZM12.774 20.9231C12.7029 21.5571 11.9922 21.7332 12.5608 22.8604C12.6318 22.1911 13.5202 22.1207 12.774 20.9231ZM12.8806 19.0914V20.4652L14.4441 22.015C14.5507 22.1207 14.7284 22.1207 14.835 22.015C14.9416 21.9093 14.9416 21.7332 14.835 21.6276L13.4492 20.2538V17.7177L14.3375 16.8371V16.0269C14.4797 15.9213 14.5863 15.7804 14.5863 15.6043C14.5863 15.3225 14.3375 15.0759 14.0532 15.0759C13.769 15.0759 13.5202 15.3225 13.5202 15.6043C13.5202 15.7804 13.6268 15.9565 13.769 16.0269V16.6258L12.8806 17.5063V18.3165L12.241 17.6825V16.0269C12.3831 15.9213 12.4897 15.7804 12.4897 15.6043C12.4897 15.3225 12.241 15.0759 11.9567 15.0759C11.6724 15.0759 11.4236 15.3225 11.4236 15.6043C11.4236 15.7804 11.5302 15.9565 11.6724 16.0269V17.929L12.8806 19.0914ZM15.2259 15.4281C15.1193 15.4281 15.0482 15.4986 15.0482 15.6043C15.0482 15.7099 15.1193 15.7804 15.2259 15.7804C15.3325 15.7804 15.4036 15.7099 15.4036 15.6043C15.4036 15.4986 15.297 15.4281 15.2259 15.4281ZM14.0177 15.4281C13.9111 15.4281 13.84 15.4986 13.84 15.6043C13.84 15.7099 13.9111 15.7804 14.0177 15.7804C14.1243 15.7804 14.1954 15.7099 14.1954 15.6043C14.1954 15.4986 14.1243 15.4281 14.0177 15.4281ZM11.9567 15.4281C11.8501 15.4281 11.779 15.4986 11.779 15.6043C11.779 15.7099 11.8501 15.7804 11.9567 15.7804C12.0633 15.7804 12.1343 15.7099 12.1343 15.6043C12.1343 15.4986 12.0633 15.4281 11.9567 15.4281Z" fill="#00598E"/>
    <path fill-rule="evenodd" clip-rule="evenodd" d="M14.0384 30C19.1333 27.5891 21.9992 23.6408 21.2208 17.1418C19.4163 16.6875 18.3549 15.6393 18.2134 13.8574C16.975 13.3332 15.5598 13.0537 14.0384 13.0537C12.517 13.0537 11.1017 13.2983 9.86338 13.8574C9.68649 15.6044 8.62503 16.6875 6.85596 17.1418C6.07759 23.6408 8.94346 27.5891 14.0384 30ZM10.6772 14.4513C11.7386 14.067 12.9062 13.8923 14.0738 13.8923C15.206 13.8923 16.3736 14.067 17.4704 14.4513C17.7888 16.1285 18.8856 17.2117 20.4778 17.7707C20.9378 23.0468 18.8503 26.6806 14.1091 29.0566C9.36806 26.6806 7.24516 23.0468 7.74051 17.7707C9.26192 17.2117 10.3587 16.1285 10.6772 14.4513Z" fill="#6CAF60"/>
</svg>
