<svg
        width="18"
        height="18"
        viewBox="0 0 18 18"
        fill="none"
        xmlns="http://www.w3.org/2000/svg"
>
    <path
            d="M13.5 2.25H16.875C17.1734 2.25 17.4595 2.36853 17.6705 2.57951C17.8815 2.79048 18 3.07663 18 3.375V15.75C18 16.3467 17.7629 16.919 17.341 17.341C16.919 17.7629 16.3467 18 15.75 18M15.75 18C15.1533 18 14.581 17.7629 14.159 17.341C13.7371 16.919 13.5 16.3467 13.5 15.75V1.125C13.5 0.826631 13.3815 0.540484 13.1705 0.329505C12.9595 0.118527 12.6734 0 12.375 0H1.125C0.826631 0 0.540484 0.118527 0.329505 0.329505C0.118527 0.540484 0 0.826631 0 1.125V14.625C0 15.5201 0.355579 16.3786 0.988515 17.0115C1.62145 17.6444 2.47989 18 3.375 18H15.75ZM4.5 4.5H9M4.5 9H9M4.5 13.5H9"
            stroke="currentColor"
            stroke-width="1.5"
            stroke-linecap="round"
            stroke-linejoin="round"
    />
</svg>