<svg
        width="16"
        height="18"
        viewBox="0 0 16 18"
        fill="none"
        xmlns="http://www.w3.org/2000/svg"
>
    <path
            d="M7.54609 3.97361C8.64429 3.97361 9.53457 3.08409 9.53457 1.98681C9.53457 0.889523 8.64429 0 7.54609 0C6.44788 0 5.55761 0.889523 5.55761 1.98681C5.55761 3.08409 6.44788 3.97361 7.54609 3.97361ZM7.54609 3.97361V11.9208H11.523L15.5 16.8878M7.54609 7.94722H12.5173M3.56914 8.44392C2.85676 8.73869 2.22277 9.19499 1.71729 9.77674C1.21181 10.3585 0.8487 11.0498 0.656659 11.7959C0.464617 12.542 0.448913 13.3225 0.610786 14.0758C0.77266 14.829 1.10767 15.5343 1.58934 16.1359C2.07101 16.7374 2.68614 17.2188 3.38608 17.542C4.08603 17.8651 4.85161 18.0211 5.6223 17.9977C6.39299 17.9743 7.14767 17.7721 7.82667 17.407C8.50567 17.042 9.09038 16.5242 9.53457 15.8944"
            stroke="currentColor"
            stroke-width="1.5"
            stroke-linecap="round"
            stroke-linejoin="round"
    />
</svg>