<svg
        width="16"
        height="18"
        viewBox="0 0 16 18"
        fill="none"
        xmlns="http://www.w3.org/2000/svg"
>
    <path
            d="M1.34211 12.6V9.94737H0L1.34211 5.96842C1.34211 5.79254 1.41281 5.62386 1.53865 5.4995C1.6645 5.37513 1.83518 5.30526 2.01316 5.30526H3.35526C3.53324 5.30526 3.70392 5.37513 3.82977 5.4995C3.95562 5.62386 4.02632 5.79254 4.02632 5.96842L5.36842 9.94737H4.02632V12.6M4.02632 1.32632C4.02632 2.05882 3.42543 2.65263 2.68421 2.65263C1.94299 2.65263 1.34211 2.05882 1.34211 1.32632C1.34211 0.593812 1.94299 0 2.68421 0C3.42543 0 4.02632 0.593812 4.02632 1.32632Z"
            stroke="currentColor"
            stroke-width="1.2"
            stroke-linecap="round"
            stroke-linejoin="round"
    />
    <path
            d="M7.05263 1.80029H14.2105C15.1988 1.80029 16 2.60618 16 3.60029V16.2003C16 17.1944 15.1988 18.0003 14.2105 18.0003H5.26315C4.27485 18.0003 3.47368 17.1944 3.47368 16.2003M7.05263 5.40029H12.421M7.05263 9.00029H12.421M7.05263 12.6003H10.6316"
            stroke="currentColor"
            stroke-width="1.5"
            stroke-linecap="round"
            stroke-linejoin="round"
    />
</svg>