<svg
        width="14"
        height="18"
        viewBox="0 0 14 18"
        fill="none"
        xmlns="http://www.w3.org/2000/svg"
>
    <path
            d="M4 0V18M8 4H10M8 8H10M1 0H12C12.5304 0 13.0391 0.210714 13.4142 0.585786C13.7893 0.960859 14 1.46957 14 2V14C14 14.5304 13.7893 15.0391 13.4142 15.4142C13.0391 15.7893 12.5304 16 12 16H1C0.734784 16 0.48043 15.8946 0.292893 15.7071C0.105357 15.5196 0 15.2652 0 15V1C0 0.734784 0.105357 0.48043 0.292893 0.292893C0.48043 0.105357 0.734784 0 1 0Z"
            stroke="currentColor"
            stroke-width="1.5"
            stroke-linecap="round"
            stroke-linejoin="round"
    />
</svg>