<svg
        width="18"
        height="18"
        viewBox="0 0 18 18"
        fill="none"
        xmlns="http://www.w3.org/2000/svg"
>
    <path
            d="M6.1626 9L8.05419 11L11.8374 7M9 0C11.2092 2.06658 14.0926 3.14257 17.0393 3C17.4683 4.54302 17.5995 6.16147 17.4253 7.75918C17.251 9.3569 16.7747 10.9013 16.0248 12.3005C15.2749 13.6998 14.2666 14.9254 13.0598 15.9045C11.853 16.8836 10.4724 17.5962 9 18C7.5276 17.5962 6.14699 16.8836 4.94021 15.9045C3.73344 14.9254 2.72513 13.6998 1.97519 12.3005C1.22526 10.9013 0.749002 9.3569 0.574731 7.75918C0.400461 6.16147 0.531728 4.54302 0.960734 3C3.90739 3.14257 6.79078 2.06658 9 0Z"
            stroke="currentColor"
            stroke-width="1.5"
            stroke-linecap="round"
            stroke-linejoin="round"
    />
</svg>